<svg width="77" height="64" viewBox="0 0 77 64" fill="none" xmlns="http://www.w3.org/2000/svg">
<g id="IMAGE">
<g id="Group">
<g id="Group_2">
<path id="Vector" d="M1.61784 25.1949L59.7845 13.8939L57.5466 2.4323C57.4709 2.04467 57.3195 1.6757 57.1008 1.34647C56.8822 1.01724 56.6007 0.734184 56.2724 0.513474C55.9441 0.292764 55.5755 0.13872 55.1875 0.060137C54.7995 -0.018446 54.3998 -0.0200294 54.0112 0.0554788L0.5 19.4697L1.61784 25.1949Z" fill="#084387"/>
<path id="Vector_2" d="M0.535156 19.6514L64.1457 7.29318C65.0601 7.11552 66.0079 7.3075 66.7804 7.8269C67.553 8.3463 68.0871 9.15057 68.2652 10.0628L75.5809 47.5323C75.759 48.4445 75.5665 49.3899 75.0458 50.1605C74.5251 50.9312 73.7189 51.4639 72.8044 51.6416L12.6419 63.3299C11.7274 63.5076 10.7797 63.3156 10.0071 62.7962C9.23454 62.2768 8.70047 61.4725 8.52237 60.5603L0.535156 19.6514Z" fill="#B3D6FF"/>
<path id="Vector_3" d="M47.8218 25.5212L70.0575 21.2013C70.972 21.0237 71.9197 21.2156 72.6923 21.735C73.4649 22.2544 73.9989 23.0587 74.177 23.9709L75.8285 32.4292C76.0066 33.3414 75.8141 34.2869 75.2934 35.0575C74.7727 35.8282 73.9665 36.3609 73.052 36.5386L50.8163 40.8585C50.6414 40.8925 50.46 40.8558 50.3122 40.7564C50.1644 40.657 50.0622 40.5031 50.0281 40.3286L47.2906 26.3075C47.2565 26.133 47.2933 25.9521 47.393 25.8046C47.4926 25.6572 47.6469 25.5552 47.8218 25.5212Z" fill="#147DF5"/>
<path id="Vector_4" d="M56.618 35.3472C58.5984 35.3472 60.2038 33.7457 60.2038 31.7703C60.2038 29.7948 58.5984 28.1934 56.618 28.1934C54.6376 28.1934 53.0322 29.7948 53.0322 31.7703C53.0322 33.7457 54.6376 35.3472 56.618 35.3472Z" fill="#FAFAFA"/>
</g>
</g>
</g>
</svg>
