<svg width="201" height="100" viewBox="0 0 201 100" fill="none" xmlns="http://www.w3.org/2000/svg">
<g clip-path="url(#clip0_8616_172358)">
<path opacity="0.6" d="M0.499903 100L3.6311 97.3163C3.87446 97.1077 4.07277 96.8518 4.21393 96.564L30 44.0002C30.8991 42.2096 34.2644 42.0536 35.4826 43.6388L50.3176 62.9417C51.2055 64.097 52.8327 64.342 54.0138 63.4982L66.5 54.0002C67.1643 53.5256 68.2169 53.7791 69 54.0002L83 57.5002C84.1715 57.831 84.3719 57.0552 85 56.0002L97 31.0002C97.9448 29.413 100.146 29.4567 101.349 30.8151C101.454 30.9341 101.534 31.0724 101.603 31.2158L111.926 52.8754C112.029 53.0925 112.165 53.2924 112.329 53.4683L124 66.0002C125.017 67.1376 125.896 67.0514 127 66.0002L149 46.0002C149.825 45.2141 150.486 45.4888 151.5 46.0002L158.852 50.2029C159.367 50.4626 160.242 50.5073 160.959 50.3922C161.428 50.317 161.798 49.989 162.055 49.5892L168.959 38.8165C169.215 38.4168 169.549 38.045 169.861 37.6868C171.763 35.5009 178.092 27.1462 178.352 26.7029L196.221 2.5532L197.244 1.27125C198.251 0.00971293 200.315 0.126968 200.463 1.7341C200.531 2.46056 200.5 3.29803 200.5 4.50018L200.676 52.6417L201 96.6053C201 99.7097 197.952 100 195.245 100L0.499903 100Z" fill="url(#paint0_linear_8616_172358)"/>
<path opacity="0.7" d="M4.99989 96L14.9828 75.7141L30.3519 44.7935C31.251 43.0029 33.6827 42.767 34.901 44.3522L49.736 63.6552C50.6239 64.8105 52.2511 65.0555 53.4322 64.2117L66.4418 54.9182C67.1062 54.4437 67.9458 54.2966 68.7288 54.5177L82.3523 58.3647C83.5239 58.6956 84.7694 58.1943 85.3975 57.1393L97.4999 31.5C98.4483 29.9069 99.7374 29.9569 100.866 31.3303C100.957 31.441 101.032 31.5645 101.096 31.6926L111.806 53.0738C111.9 53.2606 112.018 53.4341 112.157 53.5898L123.58 66.366C124.597 67.5034 126.337 67.5742 127.441 66.523L148.313 46.6435C149.138 45.8574 150.359 45.6749 151.373 46.1863L159.356 50.2115C159.87 50.4707 160.446 50.5552 161.002 50.4624C161.411 50.3941 161.74 50.1112 161.989 49.7797L169.163 40.2427C169.413 39.9112 169.711 39.6059 169.981 39.2908C171.767 37.2033 178.106 28.5381 178.369 28.0895L197.99 2.23584" stroke="#02A0FC" stroke-width="2.35937" stroke-linecap="round" stroke-linejoin="round"/>
<path d="M3.17968 0.00375694C3.18175 -0.647761 2.65527 -1.1776 2.00376 -1.17968C1.35224 -1.18175 0.822398 -0.655275 0.820323 -0.00375694L3.17968 0.00375694ZM0.820323 -0.00375694L0.500011 100.574L2.85936 100.582L3.17968 0.00375694L0.820323 -0.00375694Z" fill="#333333"/>
<path d="M200.5 100C201.052 100 201.5 99.5523 201.5 99C201.5 98.4477 201.052 98 200.5 98L200.5 100ZM1.67969 100L200.5 100L200.5 98L1.67969 98L1.67969 100Z" fill="#333333"/>
<mask id="path-5-inside-1_8616_172358" fill="white">
<path fill-rule="evenodd" clip-rule="evenodd" d="M81.9796 0C80.334 0 79 1.33403 79 2.97964V20.6975C79 22.3431 80.334 23.6771 81.9796 23.6771H95.6695L98.3131 26.3207C98.604 26.6116 99.0756 26.6116 99.3665 26.3207L102.01 23.6771H114.212C115.857 23.6771 117.191 22.3431 117.191 20.6975V2.97964C117.191 1.33403 115.857 0 114.212 0H81.9796Z"/>
</mask>
<path fill-rule="evenodd" clip-rule="evenodd" d="M81.9796 0C80.334 0 79 1.33403 79 2.97964V20.6975C79 22.3431 80.334 23.6771 81.9796 23.6771H95.6695L98.3131 26.3207C98.604 26.6116 99.0756 26.6116 99.3665 26.3207L102.01 23.6771H114.212C115.857 23.6771 117.191 22.3431 117.191 20.6975V2.97964C117.191 1.33403 115.857 0 114.212 0H81.9796Z" fill="#181818"/>
<path d="M95.6695 23.6771L95.9329 23.4137L95.8238 23.3046H95.6695V23.6771ZM102.01 23.6771V23.3046H101.856L101.747 23.4137L102.01 23.6771ZM79.3725 2.97964C79.3725 1.53973 80.5397 0.372454 81.9796 0.372454V-0.372454C80.1283 -0.372454 78.6275 1.12833 78.6275 2.97964H79.3725ZM79.3725 20.6975V2.97964H78.6275V20.6975H79.3725ZM81.9796 23.3046C80.5397 23.3046 79.3725 22.1374 79.3725 20.6975H78.6275C78.6275 22.5488 80.1283 24.0495 81.9796 24.0495V23.3046ZM95.6695 23.3046H81.9796V24.0495H95.6695V23.3046ZM95.4061 23.9405L98.0497 26.584L98.5764 26.0573L95.9329 23.4137L95.4061 23.9405ZM98.0497 26.584C98.4861 27.0204 99.1936 27.0204 99.6299 26.584L99.1032 26.0573C98.9577 26.2028 98.7219 26.2028 98.5764 26.0573L98.0497 26.584ZM99.6299 26.584L102.273 23.9405L101.747 23.4137L99.1032 26.0573L99.6299 26.584ZM114.212 23.3046H102.01V24.0495H114.212V23.3046ZM116.819 20.6975C116.819 22.1374 115.652 23.3046 114.212 23.3046V24.0495C116.063 24.0495 117.564 22.5488 117.564 20.6975H116.819ZM116.819 2.97964V20.6975H117.564V2.97964H116.819ZM114.212 0.372454C115.652 0.372454 116.819 1.53973 116.819 2.97964H117.564C117.564 1.12833 116.063 -0.372454 114.212 -0.372454V0.372454ZM81.9796 0.372454H114.212V-0.372454H81.9796V0.372454Z" fill="#474747" mask="url(#path-5-inside-1_8616_172358)"/>
<path d="M91.0604 17H89.4924V5.432H93.8604C96.3404 5.432 97.8124 6.744 97.8124 8.904C97.8124 10.504 97.0124 11.656 95.5724 12.12L97.9244 17H96.1804L94.0204 12.424H91.0604V17ZM91.0604 6.84V11.032H93.8764C95.3324 11.032 96.1644 10.248 96.1644 8.92C96.1644 7.576 95.3004 6.84 93.8604 6.84H91.0604ZM102.729 18.552V17.176C100.617 17.048 99.2252 15.848 99.1292 13.976H100.729C100.761 15 101.513 15.672 102.729 15.8V11.816L102.153 11.688C100.265 11.256 99.2892 10.2 99.2892 8.552C99.2892 6.728 100.649 5.432 102.729 5.256V3.864H103.753V5.24C105.689 5.416 106.921 6.6 107.033 8.456H105.481C105.417 7.432 104.793 6.776 103.753 6.632V10.6L104.377 10.744C106.297 11.176 107.225 12.184 107.225 13.784C107.225 15.688 105.865 16.968 103.753 17.16V18.552H102.729ZM102.473 10.296L102.729 10.36V6.632C101.545 6.792 100.825 7.48 100.825 8.504C100.825 9.432 101.353 10.024 102.473 10.296ZM104.057 12.136L103.753 12.072V15.768C104.953 15.608 105.689 14.92 105.689 13.912C105.689 12.984 105.161 12.392 104.057 12.136Z" fill="#02A0FC"/>
</g>
<defs>
<linearGradient id="paint0_linear_8616_172358" x1="-48.1543" y1="39.4903" x2="234.35" y2="39.4903" gradientUnits="userSpaceOnUse">
<stop/>
<stop offset="0.992158" stop-color="#686868" stop-opacity="0.388235"/>
</linearGradient>
<clipPath id="clip0_8616_172358">
<rect width="200" height="100" fill="white" transform="translate(0.5)"/>
</clipPath>
</defs>
</svg>
