<svg width="201" height="100" viewBox="0 0 201 100" fill="none" xmlns="http://www.w3.org/2000/svg">
<g clip-path="url(#clip0_9919_5422)">
<path opacity="0.6" d="M0.499903 100L3.6311 97.3163C3.87446 97.1077 4.07277 96.8518 4.21393 96.564L30 44.0002C30.8991 42.2096 34.2644 42.0536 35.4826 43.6388L50.3176 62.9417C51.2055 64.097 52.8327 64.342 54.0138 63.4982L66.5 54.0002C67.1643 53.5256 68.2169 53.7791 69 54.0002L83 57.5002C84.1715 57.831 84.3719 57.0552 85 56.0002L97 31.0002C97.9448 29.413 100.146 29.4567 101.349 30.8151C101.454 30.9341 101.534 31.0724 101.603 31.2158L111.926 52.8754C112.029 53.0925 112.165 53.2924 112.329 53.4683L124 66.0002C125.017 67.1376 125.896 67.0514 127 66.0002L149 46.0002C149.825 45.2141 150.486 45.4888 151.5 46.0002L158.852 50.2029C159.367 50.4626 160.242 50.5073 160.959 50.3922C161.428 50.317 161.798 49.989 162.055 49.5892L168.959 38.8165C169.215 38.4168 169.549 38.045 169.861 37.6868C171.763 35.5009 178.092 27.1462 178.352 26.7029L196.221 2.5532L197.244 1.27125C198.251 0.00971293 200.315 0.126968 200.463 1.7341C200.531 2.46056 200.5 3.29803 200.5 4.50018L200.676 52.6417L201 96.6053C201 99.7097 197.952 100 195.245 100L0.499903 100Z" fill="url(#paint0_linear_9919_5422)"/>
<path opacity="0.7" d="M4.99989 96.0001L14.9828 75.7143L30.3519 44.7936C31.251 43.003 33.6827 42.7671 34.901 44.3523L49.736 63.6553C50.6239 64.8106 52.2511 65.0556 53.4322 64.2118L66.4418 54.9184C67.1062 54.4438 67.9458 54.2967 68.7288 54.5179L82.3523 58.3649C83.5239 58.6957 84.7694 58.1944 85.3975 57.1394L97.4999 31.5001C98.4483 29.907 99.7374 29.957 100.866 31.3304C100.957 31.4412 101.032 31.5646 101.096 31.6928L111.806 53.0739C111.9 53.2607 112.018 53.4342 112.157 53.5899L123.58 66.3662C124.597 67.5036 126.337 67.5743 127.441 66.5231L148.313 46.6436C149.138 45.8575 150.359 45.675 151.373 46.1864L159.356 50.2117C159.87 50.4708 160.446 50.5553 161.002 50.4625C161.411 50.3943 161.74 50.1113 161.989 49.7799L169.163 40.2428C169.413 39.9114 169.711 39.606 169.981 39.2909C171.767 37.2034 178.106 28.5382 178.369 28.0896L197.99 2.23596" stroke="#02A0FC" stroke-width="2.35937" stroke-linecap="round" stroke-linejoin="round"/>
<path d="M3.17968 0.00375694C3.18175 -0.647761 2.65527 -1.1776 2.00376 -1.17968C1.35224 -1.18175 0.822398 -0.655275 0.820323 -0.00375694L3.17968 0.00375694ZM0.820323 -0.00375694L0.500011 100.574L2.85936 100.582L3.17968 0.00375694L0.820323 -0.00375694Z" fill="#ECEFF1"/>
<path d="M200.5 100C201.052 100 201.5 99.5523 201.5 99C201.5 98.4477 201.052 98 200.5 98L200.5 100ZM1.67969 100L200.5 100L200.5 98L1.67969 98L1.67969 100Z" fill="#ECEFF1"/>
<mask id="path-5-inside-1_9919_5422" fill="white">
<path fill-rule="evenodd" clip-rule="evenodd" d="M81.9796 0C80.334 0 79 1.33403 79 2.97964V20.6975C79 22.3431 80.334 23.6771 81.9796 23.6771H95.6695L98.3131 26.3207C98.604 26.6116 99.0756 26.6116 99.3665 26.3207L102.01 23.6771H114.212C115.857 23.6771 117.191 22.3431 117.191 20.6975V2.97964C117.191 1.33403 115.857 0 114.212 0H81.9796Z"/>
</mask>
<path fill-rule="evenodd" clip-rule="evenodd" d="M81.9796 0C80.334 0 79 1.33403 79 2.97964V20.6975C79 22.3431 80.334 23.6771 81.9796 23.6771H95.6695L98.3131 26.3207C98.604 26.6116 99.0756 26.6116 99.3665 26.3207L102.01 23.6771H114.212C115.857 23.6771 117.191 22.3431 117.191 20.6975V2.97964C117.191 1.33403 115.857 0 114.212 0H81.9796Z" fill="#FDFDFD"/>
<path d="M95.6695 23.6771L95.9329 23.4137L95.8238 23.3046H95.6695V23.6771ZM102.01 23.6771V23.3046H101.856L101.747 23.4137L102.01 23.6771ZM79.3725 2.97964C79.3725 1.53973 80.5397 0.372454 81.9796 0.372454V-0.372454C80.1283 -0.372454 78.6275 1.12833 78.6275 2.97964H79.3725ZM79.3725 20.6975V2.97964H78.6275V20.6975H79.3725ZM81.9796 23.3046C80.5397 23.3046 79.3725 22.1374 79.3725 20.6975H78.6275C78.6275 22.5488 80.1283 24.0495 81.9796 24.0495V23.3046ZM95.6695 23.3046H81.9796V24.0495H95.6695V23.3046ZM95.4061 23.9405L98.0497 26.584L98.5764 26.0573L95.9329 23.4137L95.4061 23.9405ZM98.0497 26.584C98.4861 27.0204 99.1936 27.0204 99.6299 26.584L99.1032 26.0573C98.9577 26.2028 98.7219 26.2028 98.5764 26.0573L98.0497 26.584ZM99.6299 26.584L102.273 23.9405L101.747 23.4137L99.1032 26.0573L99.6299 26.584ZM114.212 23.3046H102.01V24.0495H114.212V23.3046ZM116.819 20.6975C116.819 22.1374 115.652 23.3046 114.212 23.3046V24.0495C116.063 24.0495 117.564 22.5488 117.564 20.6975H116.819ZM116.819 2.97964V20.6975H117.564V2.97964H116.819ZM114.212 0.372454C115.652 0.372454 116.819 1.53973 116.819 2.97964H117.564C117.564 1.12833 116.063 -0.372454 114.212 -0.372454V0.372454ZM81.9796 0.372454H114.212V-0.372454H81.9796V0.372454Z" fill="#DEE1E4" mask="url(#path-5-inside-1_9919_5422)"/>
<path d="M91.7503 17H89.7023V5.304H94.1663C96.8223 5.304 98.3743 6.648 98.3743 8.952C98.3743 10.52 97.6383 11.64 96.2623 12.2L98.4863 17H96.2463L94.2623 12.632H91.7503V17ZM91.7503 7.128V10.824H94.1663C95.4623 10.824 96.2303 10.136 96.2303 8.952C96.2303 7.784 95.4623 7.128 94.1663 7.128H91.7503ZM103.285 18.52V17.192C101.061 17.032 99.637 15.736 99.589 13.784H101.637C101.653 14.696 102.245 15.272 103.285 15.4V11.992L102.773 11.88C100.757 11.448 99.749 10.328 99.749 8.568C99.749 6.696 101.157 5.352 103.285 5.128V3.768H104.517V5.128C106.533 5.336 107.781 6.6 107.845 8.52H105.861C105.829 7.656 105.349 7.096 104.517 6.92V10.36L105.061 10.488C107.109 10.936 108.037 11.928 108.037 13.624C108.037 15.576 106.661 16.92 104.517 17.16V18.52H103.285ZM103.221 10.072L103.285 10.088V6.904C102.325 7.064 101.749 7.64 101.749 8.504C101.749 9.352 102.197 9.848 103.221 10.072ZM104.629 12.28L104.517 12.248V15.368C105.477 15.176 106.053 14.616 106.053 13.8C106.053 12.984 105.589 12.488 104.629 12.28Z" fill="#02A0FC"/>
</g>
<defs>
<linearGradient id="paint0_linear_9919_5422" x1="-48.1543" y1="39.4903" x2="234.35" y2="39.4903" gradientUnits="userSpaceOnUse">
<stop stop-color="white"/>
<stop offset="0.992158" stop-color="#A3A3A3" stop-opacity="0.388235"/>
</linearGradient>
<clipPath id="clip0_9919_5422">
<rect width="200" height="100" fill="white" transform="translate(0.5)"/>
</clipPath>
</defs>
</svg>
