<svg width="241" height="100" viewBox="0 0 241 100" fill="none" xmlns="http://www.w3.org/2000/svg">
<rect x="1.5" y="1" width="238" height="98" rx="13.7429" fill="url(#paint0_linear_9919_5458)"/>
<path d="M19.92 28.8278L16.62 20.1518H17.88L19.992 25.6958C20.184 26.1878 20.352 26.6798 20.532 27.3278C20.736 26.6438 20.94 26.0678 21.084 25.6838L23.184 20.1518H24.408L21.144 28.8278H19.92ZM26.1101 28.9718C24.8501 28.9718 24.1061 28.2638 24.1061 27.1958C24.1061 26.1158 24.9101 25.4438 26.2901 25.3358L28.1381 25.1918V25.0238C28.1381 24.0398 27.5501 23.6918 26.7581 23.6918C25.8101 23.6918 25.2701 24.1118 25.2701 24.8198H24.2861C24.2861 23.5958 25.2941 22.7918 26.8061 22.7918C28.2581 22.7918 29.2421 23.5598 29.2421 25.1438V28.8278H28.2821L28.1621 27.8798C27.8621 28.5518 27.0581 28.9718 26.1101 28.9718ZM26.4341 28.0958C27.5021 28.0958 28.1501 27.3998 28.1501 26.2958V25.9838L26.6501 26.1038C25.6541 26.1998 25.2461 26.5838 25.2461 27.1598C25.2461 27.7838 25.7021 28.0958 26.4341 28.0958ZM31.9563 28.8278H30.8283V19.9958H31.9563V28.8278ZM33.2328 25.8878C33.2328 24.0758 34.5288 22.8038 36.2928 22.8038C38.0448 22.8038 39.3408 24.0758 39.3408 25.8878C39.3408 27.6998 38.0448 28.9718 36.2928 28.9718C34.5288 28.9718 33.2328 27.6998 33.2328 25.8878ZM34.3728 25.8878C34.3728 27.1118 35.1528 27.9638 36.2928 27.9638C37.4208 27.9638 38.2128 27.1118 38.2128 25.8878C38.2128 24.6638 37.4208 23.8118 36.2928 23.8118C35.1528 23.8118 34.3728 24.6638 34.3728 25.8878ZM43.9494 22.9118V23.9438H43.4454C42.3774 23.9438 41.7174 24.5918 41.7174 25.7198V28.8278H40.5894V22.9718H41.6454L41.7174 23.8598C41.9574 23.2478 42.5454 22.8398 43.3494 22.8398C43.5534 22.8398 43.7214 22.8638 43.9494 22.9118ZM50.0047 28.9718C48.7447 28.9718 48.0007 28.2638 48.0007 27.1958C48.0007 26.1158 48.8047 25.4438 50.1847 25.3358L52.0327 25.1918V25.0238C52.0327 24.0398 51.4447 23.6918 50.6527 23.6918C49.7047 23.6918 49.1647 24.1118 49.1647 24.8198H48.1807C48.1807 23.5958 49.1887 22.7918 50.7007 22.7918C52.1527 22.7918 53.1367 23.5598 53.1367 25.1438V28.8278H52.1767L52.0567 27.8798C51.7567 28.5518 50.9527 28.9718 50.0047 28.9718ZM50.3287 28.0958C51.3967 28.0958 52.0447 27.3998 52.0447 26.2958V25.9838L50.5447 26.1038C49.5487 26.1998 49.1407 26.5838 49.1407 27.1598C49.1407 27.7838 49.5967 28.0958 50.3287 28.0958ZM57.5001 27.1238H58.5801C58.5801 27.7238 59.0361 28.0838 59.7801 28.0838C60.5721 28.0838 61.0281 27.7598 61.0281 27.2198C61.0281 26.8238 60.8361 26.5838 60.2241 26.4278L59.1921 26.1878C58.1481 25.9358 57.6561 25.4198 57.6561 24.5558C57.6561 23.4758 58.5681 22.7918 59.8641 22.7918C61.1481 22.7918 61.9881 23.5118 62.0121 24.6278H60.9321C60.9081 24.0398 60.5121 23.6678 59.8281 23.6678C59.1201 23.6678 58.7241 23.9798 58.7241 24.5198C58.7241 24.9158 59.0121 25.1798 59.5881 25.3238L60.6201 25.5758C61.6161 25.8158 62.1081 26.2718 62.1081 27.1478C62.1081 28.2638 61.1481 28.9718 59.7561 28.9718C58.3761 28.9718 57.5001 28.2398 57.5001 27.1238ZM65.075 28.9718C63.815 28.9718 63.071 28.2638 63.071 27.1958C63.071 26.1158 63.875 25.4438 65.255 25.3358L67.103 25.1918V25.0238C67.103 24.0398 66.515 23.6918 65.723 23.6918C64.775 23.6918 64.235 24.1118 64.235 24.8198H63.251C63.251 23.5958 64.259 22.7918 65.771 22.7918C67.223 22.7918 68.207 23.5598 68.207 25.1438V28.8278H67.247L67.127 27.8798C66.827 28.5518 66.023 28.9718 65.075 28.9718ZM65.399 28.0958C66.467 28.0958 67.115 27.3998 67.115 26.2958V25.9838L65.615 26.1038C64.619 26.1998 64.211 26.5838 64.211 27.1598C64.211 27.7838 64.667 28.0958 65.399 28.0958ZM69.3851 25.8998C69.3851 24.0638 70.5491 22.7918 72.2651 22.7918C73.7411 22.7918 74.7731 23.6318 74.9771 24.9398H73.8491C73.6571 24.1958 73.0571 23.7998 72.3011 23.7998C71.2331 23.7998 70.5011 24.6158 70.5011 25.8878C70.5011 27.1478 71.1851 27.9638 72.2531 27.9638C73.0571 27.9638 73.6571 27.5438 73.8611 26.8478H74.9891C74.7611 28.1198 73.6691 28.9718 72.2531 28.9718C70.5251 28.9718 69.3851 27.7478 69.3851 25.8998ZM77.8953 28.9718C76.6353 28.9718 75.8913 28.2638 75.8913 27.1958C75.8913 26.1158 76.6953 25.4438 78.0753 25.3358L79.9233 25.1918V25.0238C79.9233 24.0398 79.3353 23.6918 78.5433 23.6918C77.5953 23.6918 77.0553 24.1118 77.0553 24.8198H76.0713C76.0713 23.5958 77.0793 22.7918 78.5913 22.7918C80.0433 22.7918 81.0273 23.5598 81.0273 25.1438V28.8278H80.0673L79.9473 27.8798C79.6473 28.5518 78.8433 28.9718 77.8953 28.9718ZM78.2193 28.0958C79.2873 28.0958 79.9353 27.3998 79.9353 26.2958V25.9838L78.4353 26.1038C77.4393 26.1998 77.0313 26.5838 77.0313 27.1598C77.0313 27.7838 77.4873 28.0958 78.2193 28.0958ZM85.9494 22.9118V23.9438H85.4454C84.3774 23.9438 83.7174 24.5918 83.7174 25.7198V28.8278H82.5894V22.9718H83.6454L83.7174 23.8598C83.9574 23.2478 84.5454 22.8398 85.3494 22.8398C85.5534 22.8398 85.7214 22.8638 85.9494 22.9118Z" fill="#474747"/>
<path d="M163.141 28.8278H161.605V20.0558H164.953C166.945 20.0558 168.109 21.0638 168.109 22.7918C168.109 23.9678 167.557 24.8078 166.525 25.2278L168.193 28.8278H166.513L165.025 25.5518H163.141V28.8278ZM163.141 21.4238V24.1958H164.953C165.925 24.1958 166.501 23.6798 166.501 22.7918C166.501 21.9158 165.925 21.4238 164.953 21.4238H163.141ZM171.792 29.9678V28.9718C170.124 28.8518 169.056 27.8798 169.02 26.4158H170.556C170.568 27.0998 171.012 27.5318 171.792 27.6278V25.0718L171.408 24.9878C169.896 24.6638 169.14 23.8238 169.14 22.5038C169.14 21.0998 170.196 20.0918 171.792 19.9238V18.9038H172.716V19.9238C174.228 20.0798 175.164 21.0278 175.212 22.4678H173.724C173.7 21.8198 173.34 21.3998 172.716 21.2678V23.8478L173.124 23.9438C174.66 24.2798 175.356 25.0238 175.356 26.2958C175.356 27.7598 174.324 28.7678 172.716 28.9478V29.9678H171.792ZM171.744 23.6318L171.792 23.6438V21.2558C171.072 21.3758 170.64 21.8078 170.64 22.4558C170.64 23.0918 170.976 23.4638 171.744 23.6318ZM172.8 25.2878L172.716 25.2638V27.6038C173.436 27.4598 173.868 27.0398 173.868 26.4278C173.868 25.8158 173.52 25.4438 172.8 25.2878ZM181.336 21.4358H179.416V20.0558H182.812V28.8278H181.336V21.4358ZM185.529 28.9718C185.001 28.9718 184.557 28.5398 184.557 28.0238C184.557 27.4958 185.001 27.0638 185.529 27.0638C186.057 27.0638 186.501 27.4958 186.501 28.0238C186.501 28.5398 186.057 28.9718 185.529 28.9718ZM190.284 24.4838H189.216V23.4878L191.472 21.4118H187.824V20.0558H193.392V21.2798L191.256 23.2478C192.6 23.5118 193.644 24.4958 193.644 26.0438C193.644 27.8438 192.24 28.9838 190.464 28.9838C188.748 28.9838 187.416 27.9278 187.416 26.0318H188.928C188.928 27.0398 189.552 27.6158 190.488 27.6158C191.448 27.6158 192.084 26.9918 192.084 26.0198C192.084 25.1318 191.508 24.4838 190.284 24.4838ZM200.491 28.8158L194.407 28.8278V27.6758L197.275 25.2518C198.463 24.2438 198.859 23.6678 198.859 22.8278C198.859 21.8318 198.319 21.2678 197.395 21.2678C196.435 21.2678 195.835 21.9398 195.823 23.0678H194.299C194.311 21.1478 195.535 19.8998 197.395 19.8998C199.267 19.8998 200.431 20.9678 200.431 22.7438C200.431 23.9678 199.759 24.8918 198.427 26.0318L196.843 27.3878H200.491V28.8158ZM201.438 24.4598C201.438 21.7358 202.902 19.8878 205.146 19.8878C207.39 19.8878 208.866 21.7358 208.866 24.4598C208.866 27.1718 207.474 28.9838 205.146 28.9838C202.818 28.9838 201.438 27.1718 201.438 24.4598ZM202.95 24.4598C202.95 26.4878 203.766 27.6278 205.146 27.6278C206.538 27.6278 207.354 26.4878 207.354 24.4598C207.354 22.3838 206.538 21.2438 205.146 21.2438C203.766 21.2438 202.95 22.3838 202.95 24.4598ZM211.661 28.2998C211.661 29.2958 210.941 30.0878 209.969 30.2078V29.6198C210.509 29.5238 210.917 29.1998 210.917 28.7798C210.821 28.8278 210.713 28.8518 210.569 28.8518C210.101 28.8518 209.717 28.5038 209.717 28.0238C209.717 27.4478 210.089 27.0638 210.629 27.0638C211.229 27.0638 211.661 27.5558 211.661 28.2998ZM213.586 21.4358H211.666V20.0558H215.062V28.8278H213.586V21.4358ZM216.555 24.4598C216.555 21.7358 218.019 19.8878 220.263 19.8878C222.507 19.8878 223.983 21.7358 223.983 24.4598C223.983 27.1718 222.591 28.9838 220.263 28.9838C217.935 28.9838 216.555 27.1718 216.555 24.4598ZM218.067 24.4598C218.067 26.4878 218.883 27.6278 220.263 27.6278C221.655 27.6278 222.471 26.4878 222.471 24.4598C222.471 22.3838 221.655 21.2438 220.263 21.2438C218.883 21.2438 218.067 22.3838 218.067 24.4598Z" fill="#02A0FC"/>
<rect x="0.5" y="49" width="240" height="2" fill="#ECEFF1"/>
<path d="M19.932 79.8278L16.62 71.0558H18.252L20.172 76.1078C20.364 76.6358 20.532 77.1518 20.724 77.8598C20.94 77.0918 21.12 76.5518 21.288 76.1078L23.184 71.0558H24.78L21.516 79.8278H19.932ZM26.4145 79.9838C25.1545 79.9838 24.3865 79.2518 24.3865 78.1358C24.3865 77.0438 25.1785 76.3598 26.5825 76.2518L28.3585 76.1198V75.9878C28.3585 75.1838 27.8785 74.8598 27.1345 74.8598C26.2705 74.8598 25.7905 75.2198 25.7905 75.8438H24.5425C24.5425 74.5598 25.5985 73.7198 27.2065 73.7198C28.8025 73.7198 29.7865 74.5838 29.7865 76.2278V79.8278H28.5025L28.3945 78.9518C28.1425 79.5638 27.3385 79.9838 26.4145 79.9838ZM26.8945 78.8798C27.7945 78.8798 28.3705 78.3398 28.3705 77.4278V77.1158L27.1345 77.2118C26.2225 77.2958 25.8745 77.5958 25.8745 78.0758C25.8745 78.6158 26.2345 78.8798 26.8945 78.8798ZM32.7008 79.8278H31.2488V70.8998H32.7008V79.8278ZM33.8885 76.8518C33.8885 75.0038 35.2205 73.7318 37.0565 73.7318C38.8925 73.7318 40.2245 75.0038 40.2245 76.8518C40.2245 78.6998 38.8925 79.9718 37.0565 79.9718C35.2205 79.9718 33.8885 78.6998 33.8885 76.8518ZM35.3525 76.8518C35.3525 77.9318 36.0485 78.6638 37.0565 78.6638C38.0645 78.6638 38.7605 77.9318 38.7605 76.8518C38.7605 75.7718 38.0645 75.0398 37.0565 75.0398C36.0485 75.0398 35.3525 75.7718 35.3525 76.8518ZM45.1049 73.8758V75.2318H44.5649C43.5089 75.2318 42.8489 75.7958 42.8489 76.9478V79.8278H41.3849V73.9118H42.7649L42.8489 74.7758C43.1009 74.1878 43.6649 73.7918 44.4569 73.7918C44.6609 73.7918 44.8649 73.8158 45.1049 73.8758ZM51.0942 79.9838C49.8342 79.9838 49.0662 79.2518 49.0662 78.1358C49.0662 77.0438 49.8582 76.3598 51.2622 76.2518L53.0382 76.1198V75.9878C53.0382 75.1838 52.5582 74.8598 51.8142 74.8598C50.9502 74.8598 50.4702 75.2198 50.4702 75.8438H49.2222C49.2222 74.5598 50.2782 73.7198 51.8862 73.7198C53.4822 73.7198 54.4662 74.5838 54.4662 76.2278V79.8278H53.1822L53.0742 78.9518C52.8222 79.5638 52.0182 79.9838 51.0942 79.9838ZM51.5742 78.8798C52.4742 78.8798 53.0502 78.3398 53.0502 77.4278V77.1158L51.8142 77.2118C50.9022 77.2958 50.5542 77.5958 50.5542 78.0758C50.5542 78.6158 50.9142 78.8798 51.5742 78.8798ZM62.8588 73.8758V75.2318H62.3188C61.2628 75.2318 60.6028 75.7958 60.6028 76.9478V79.8278H59.1388V73.9118H60.5188L60.6028 74.7758C60.8548 74.1878 61.4188 73.7918 62.2108 73.7918C62.4148 73.7918 62.6188 73.8158 62.8588 73.8758ZM66.3025 79.9838C64.5385 79.9838 63.3025 78.6998 63.3025 76.8638C63.3025 75.0038 64.5145 73.7198 66.2545 73.7198C68.0305 73.7198 69.1585 74.9078 69.1585 76.7558V77.1998L64.6945 77.2118C64.8025 78.2558 65.3545 78.7838 66.3265 78.7838C67.1305 78.7838 67.6585 78.4718 67.8265 77.9078H69.1825C68.9305 79.2038 67.8505 79.9838 66.3025 79.9838ZM66.2665 74.9198C65.4025 74.9198 64.8745 75.3878 64.7305 76.2758H67.7065C67.7065 75.4598 67.1425 74.9198 66.2665 74.9198ZM69.9822 76.8518C69.9822 75.0158 71.1942 73.7198 72.9462 73.7198C74.5662 73.7198 75.6702 74.6198 75.8262 76.0478H74.3622C74.1942 75.3758 73.7022 75.0278 73.0062 75.0278C72.0702 75.0278 71.4462 75.7358 71.4462 76.8518C71.4462 77.9678 72.0222 78.6638 72.9582 78.6638C73.6902 78.6638 74.2062 78.3038 74.3622 77.6558H75.8382C75.6582 79.0358 74.5062 79.9838 72.9582 79.9838C71.1582 79.9838 69.9822 78.7358 69.9822 76.8518ZM79.5799 79.9838C77.8159 79.9838 76.5799 78.6998 76.5799 76.8638C76.5799 75.0038 77.7919 73.7198 79.5319 73.7198C81.3079 73.7198 82.4359 74.9078 82.4359 76.7558V77.1998L77.9719 77.2118C78.0799 78.2558 78.6319 78.7838 79.6039 78.7838C80.4079 78.7838 80.9359 78.4718 81.1039 77.9078H82.4599C82.2079 79.2038 81.1279 79.9838 79.5799 79.9838ZM79.5439 74.9198C78.6799 74.9198 78.1519 75.3878 78.0079 76.2758H80.9839C80.9839 75.4598 80.4199 74.9198 79.5439 74.9198ZM84.9636 79.8278H83.6076V70.8998H85.0716V74.7638C85.4556 74.1038 86.2476 73.7078 87.1476 73.7078C88.8396 73.7078 89.8716 75.0278 89.8716 76.8998C89.8716 78.7238 88.7556 79.9838 87.0516 79.9838C86.1636 79.9838 85.4076 79.5878 85.0596 78.9038L84.9636 79.8278ZM85.0836 76.8398C85.0836 77.9078 85.7436 78.6398 86.7516 78.6398C87.7836 78.6398 88.3956 77.8958 88.3956 76.8398C88.3956 75.7838 87.7836 75.0278 86.7516 75.0278C85.7436 75.0278 85.0836 75.7718 85.0836 76.8398ZM93.6893 79.9838C91.9253 79.9838 90.6893 78.6998 90.6893 76.8638C90.6893 75.0038 91.9013 73.7198 93.6413 73.7198C95.4173 73.7198 96.5453 74.9078 96.5453 76.7558V77.1998L92.0813 77.2118C92.1893 78.2558 92.7413 78.7838 93.7133 78.7838C94.5173 78.7838 95.0453 78.4718 95.2133 77.9078H96.5693C96.3173 79.2038 95.2373 79.9838 93.6893 79.9838ZM93.6533 74.9198C92.7893 74.9198 92.2613 75.3878 92.1173 76.2758H95.0933C95.0933 75.4598 94.5293 74.9198 93.6533 74.9198ZM101.437 73.8758V75.2318H100.897C99.8409 75.2318 99.1809 75.7958 99.1809 76.9478V79.8278H97.7169V73.9118H99.0969L99.1809 74.7758C99.4329 74.1878 99.9969 73.7918 100.789 73.7918C100.993 73.7918 101.197 73.8158 101.437 73.8758Z" fill="#474747"/>
<path d="M162.567 79.8278H161.031V71.0558H164.379C166.371 71.0558 167.535 72.0638 167.535 73.7918C167.535 74.9678 166.983 75.8078 165.951 76.2278L167.619 79.8278H165.939L164.451 76.5518H162.567V79.8278ZM162.567 72.4238V75.1958H164.379C165.351 75.1958 165.927 74.6798 165.927 73.7918C165.927 72.9158 165.351 72.4238 164.379 72.4238H162.567ZM171.218 80.9678V79.9718C169.55 79.8518 168.482 78.8798 168.446 77.4158H169.982C169.994 78.0998 170.438 78.5318 171.218 78.6278V76.0718L170.834 75.9878C169.322 75.6638 168.566 74.8238 168.566 73.5038C168.566 72.0998 169.622 71.0918 171.218 70.9238V69.9038H172.142V70.9238C173.654 71.0798 174.59 72.0278 174.638 73.4678H173.15C173.126 72.8198 172.766 72.3998 172.142 72.2678V74.8478L172.55 74.9438C174.086 75.2798 174.782 76.0238 174.782 77.2958C174.782 78.7598 173.75 79.7678 172.142 79.9478V80.9678H171.218ZM171.17 74.6318L171.218 74.6438V72.2558C170.498 72.3758 170.066 72.8078 170.066 73.4558C170.066 74.0918 170.402 74.4638 171.17 74.6318ZM172.226 76.2878L172.142 76.2638V78.6038C172.862 78.4598 173.294 78.0398 173.294 77.4278C173.294 76.8158 172.946 76.4438 172.226 76.2878ZM180.762 72.4358H178.842V71.0558H182.238V79.8278H180.762V72.4358ZM184.955 79.9718C184.427 79.9718 183.983 79.5398 183.983 79.0238C183.983 78.4958 184.427 78.0638 184.955 78.0638C185.483 78.0638 185.927 78.4958 185.927 79.0238C185.927 79.5398 185.483 79.9718 184.955 79.9718ZM193.343 79.8158L187.259 79.8278V78.6758L190.127 76.2518C191.315 75.2438 191.711 74.6678 191.711 73.8278C191.711 72.8318 191.171 72.2678 190.247 72.2678C189.287 72.2678 188.687 72.9398 188.675 74.0678H187.151C187.163 72.1478 188.387 70.8998 190.247 70.8998C192.119 70.8998 193.283 71.9678 193.283 73.7438C193.283 74.9678 192.611 75.8918 191.279 77.0318L189.695 78.3878H193.343V79.8158ZM200.491 79.8158L194.407 79.8278V78.6758L197.275 76.2518C198.463 75.2438 198.859 74.6678 198.859 73.8278C198.859 72.8318 198.319 72.2678 197.395 72.2678C196.435 72.2678 195.835 72.9398 195.823 74.0678H194.299C194.311 72.1478 195.535 70.8998 197.395 70.8998C199.267 70.8998 200.431 71.9678 200.431 73.7438C200.431 74.9678 199.759 75.8918 198.427 77.0318L196.843 78.3878H200.491V79.8158ZM201.438 75.4598C201.438 72.7358 202.902 70.8878 205.146 70.8878C207.39 70.8878 208.866 72.7358 208.866 75.4598C208.866 78.1718 207.474 79.9838 205.146 79.9838C202.818 79.9838 201.438 78.1718 201.438 75.4598ZM202.95 75.4598C202.95 77.4878 203.766 78.6278 205.146 78.6278C206.538 78.6278 207.354 77.4878 207.354 75.4598C207.354 73.3838 206.538 72.2438 205.146 72.2438C203.766 72.2438 202.95 73.3838 202.95 75.4598ZM211.661 79.2998C211.661 80.2958 210.941 81.0878 209.969 81.2078V80.6198C210.509 80.5238 210.917 80.1998 210.917 79.7798C210.821 79.8278 210.713 79.8518 210.569 79.8518C210.101 79.8518 209.717 79.5038 209.717 79.0238C209.717 78.4478 210.089 78.0638 210.629 78.0638C211.229 78.0638 211.661 78.5558 211.661 79.2998ZM213.586 72.4358H211.666V71.0558H215.062V79.8278H213.586V72.4358ZM216.555 75.4598C216.555 72.7358 218.019 70.8878 220.263 70.8878C222.507 70.8878 223.983 72.7358 223.983 75.4598C223.983 78.1718 222.591 79.9838 220.263 79.9838C217.935 79.9838 216.555 78.1718 216.555 75.4598ZM218.067 75.4598C218.067 77.4878 218.883 78.6278 220.263 78.6278C221.655 78.6278 222.471 77.4878 222.471 75.4598C222.471 73.3838 221.655 72.2438 220.263 72.2438C218.883 72.2438 218.067 73.3838 218.067 75.4598Z" fill="#474747"/>
<rect x="1.5" y="1" width="238" height="98" rx="13.7429" stroke="#ECEFF1" stroke-width="2"/>
<defs>
<linearGradient id="paint0_linear_9919_5458" x1="-57.522" y1="42.5134" x2="278.742" y2="42.5134" gradientUnits="userSpaceOnUse">
<stop stop-color="#F1EFEF"/>
<stop offset="0.53125" stop-color="#F9F8F8"/>
<stop offset="0.992158" stop-color="#E7E5E5"/>
</linearGradient>
</defs>
</svg>
