<svg width="241" height="100" viewBox="0 0 241 100" fill="none" xmlns="http://www.w3.org/2000/svg">
<rect x="1.5" y="1" width="238" height="98" rx="13.7429" fill="url(#paint0_linear_8454_137830)"/>
<path d="M19.92 28.8279L16.62 20.1519H17.88L19.992 25.6959C20.192 26.2079 20.372 26.7519 20.532 27.3279C20.7 26.7679 20.884 26.2199 21.084 25.6839L23.184 20.1519H24.408L21.144 28.8279H19.92ZM26.1101 28.9719C25.4861 28.9719 24.9941 28.8119 24.6341 28.4919C24.2821 28.1639 24.1061 27.7319 24.1061 27.1959C24.1061 26.6599 24.2941 26.2319 24.6701 25.9119C25.0541 25.5839 25.5941 25.3919 26.2901 25.3359L28.1381 25.1919V25.0239C28.1381 24.1359 27.6781 23.6919 26.7581 23.6919C26.2861 23.6919 25.9181 23.7919 25.6541 23.9919C25.3981 24.1919 25.2701 24.4679 25.2701 24.8199H24.2861C24.2861 24.2119 24.5141 23.7239 24.9701 23.3559C25.4341 22.9799 26.0461 22.7919 26.8061 22.7919C27.5581 22.7919 28.1501 22.9919 28.5821 23.3919C29.0221 23.7919 29.2421 24.3759 29.2421 25.1439V28.8279H28.2821L28.1621 27.8799C28.0101 28.2159 27.7461 28.4839 27.3701 28.6839C27.0021 28.8759 26.5821 28.9719 26.1101 28.9719ZM26.4341 28.0959C26.9701 28.0959 27.3901 27.9359 27.6941 27.6159C27.9981 27.2879 28.1501 26.8479 28.1501 26.2959V25.9839L26.6501 26.1039C25.7141 26.1919 25.2461 26.5439 25.2461 27.1599C25.2461 27.4639 25.3501 27.6959 25.5581 27.8559C25.7661 28.0159 26.0581 28.0959 26.4341 28.0959ZM31.9563 28.8279H30.8283V19.9959H31.9563V28.8279ZM34.0968 28.1079C33.5208 27.5319 33.2328 26.7919 33.2328 25.8879C33.2328 24.9839 33.5208 24.2439 34.0968 23.6679C34.6728 23.0919 35.4048 22.8039 36.2928 22.8039C37.1728 22.8039 37.9008 23.0919 38.4768 23.6679C39.0528 24.2439 39.3408 24.9839 39.3408 25.8879C39.3408 26.7919 39.0528 27.5319 38.4768 28.1079C37.9008 28.6839 37.1728 28.9719 36.2928 28.9719C35.4048 28.9719 34.6728 28.6839 34.0968 28.1079ZM34.9008 24.3879C34.5488 24.7719 34.3728 25.2719 34.3728 25.8879C34.3728 26.5039 34.5488 27.0039 34.9008 27.3879C35.2608 27.7719 35.7248 27.9639 36.2928 27.9639C36.8608 27.9639 37.3208 27.7719 37.6728 27.3879C38.0328 26.9959 38.2128 26.4959 38.2128 25.8879C38.2128 25.2799 38.0328 24.7839 37.6728 24.3999C37.3208 24.0079 36.8608 23.8119 36.2928 23.8119C35.7248 23.8119 35.2608 24.0039 34.9008 24.3879ZM43.9494 22.9119V23.9439H43.4454C42.9094 23.9439 42.4854 24.0999 42.1734 24.4119C41.8694 24.7239 41.7174 25.1599 41.7174 25.7199V28.8279H40.5894V22.9719H41.6454L41.7174 23.8599C41.8374 23.5479 42.0414 23.2999 42.3294 23.1159C42.6174 22.9319 42.9574 22.8399 43.3494 22.8399C43.5254 22.8399 43.7254 22.8639 43.9494 22.9119ZM50.0047 28.9719C49.3807 28.9719 48.8887 28.8119 48.5287 28.4919C48.1767 28.1639 48.0007 27.7319 48.0007 27.1959C48.0007 26.6599 48.1887 26.2319 48.5647 25.9119C48.9487 25.5839 49.4887 25.3919 50.1847 25.3359L52.0327 25.1919V25.0239C52.0327 24.1359 51.5727 23.6919 50.6527 23.6919C50.1807 23.6919 49.8127 23.7919 49.5487 23.9919C49.2927 24.1919 49.1647 24.4679 49.1647 24.8199H48.1807C48.1807 24.2119 48.4087 23.7239 48.8647 23.3559C49.3287 22.9799 49.9407 22.7919 50.7007 22.7919C51.4527 22.7919 52.0447 22.9919 52.4767 23.3919C52.9167 23.7919 53.1367 24.3759 53.1367 25.1439V28.8279H52.1767L52.0567 27.8799C51.9047 28.2159 51.6407 28.4839 51.2647 28.6839C50.8967 28.8759 50.4767 28.9719 50.0047 28.9719ZM50.3287 28.0959C50.8647 28.0959 51.2847 27.9359 51.5887 27.6159C51.8927 27.2879 52.0447 26.8479 52.0447 26.2959V25.9839L50.5447 26.1039C49.6087 26.1919 49.1407 26.5439 49.1407 27.1599C49.1407 27.4639 49.2447 27.6959 49.4527 27.8559C49.6607 28.0159 49.9527 28.0959 50.3287 28.0959ZM57.5001 27.1239H58.5801C58.5801 27.4199 58.6841 27.6559 58.8921 27.8319C59.1081 27.9999 59.4041 28.0839 59.7801 28.0839C60.1721 28.0839 60.4761 28.0079 60.6921 27.8559C60.9161 27.7039 61.0281 27.4919 61.0281 27.2199C61.0281 27.0119 60.9681 26.8479 60.8481 26.7279C60.7281 26.5999 60.5201 26.4999 60.2241 26.4279L59.1921 26.1879C58.1681 25.9399 57.6561 25.3959 57.6561 24.5559C57.6561 24.0199 57.8601 23.5919 58.2681 23.2719C58.6761 22.9519 59.2081 22.7919 59.8641 22.7919C60.5041 22.7919 61.0161 22.9599 61.4001 23.2959C61.7921 23.6239 61.9961 24.0679 62.0121 24.6279H60.9321C60.9161 24.3319 60.8121 24.0999 60.6201 23.9319C60.4281 23.7559 60.1641 23.6679 59.8281 23.6679C59.4761 23.6679 59.2041 23.7439 59.0121 23.8959C58.8201 24.0399 58.7241 24.2479 58.7241 24.5199C58.7241 24.9119 59.0121 25.1799 59.5881 25.3239L60.6201 25.5759C61.1321 25.6959 61.5081 25.8799 61.7481 26.1279C61.9881 26.3759 62.1081 26.7159 62.1081 27.1479C62.1081 27.6999 61.8921 28.1439 61.4601 28.4799C61.0281 28.8079 60.4601 28.9719 59.7561 28.9719C59.0681 28.9719 58.5201 28.8039 58.1121 28.4679C57.7041 28.1319 57.5001 27.6839 57.5001 27.1239ZM65.075 28.9719C64.451 28.9719 63.959 28.8119 63.599 28.4919C63.247 28.1639 63.071 27.7319 63.071 27.1959C63.071 26.6599 63.259 26.2319 63.635 25.9119C64.019 25.5839 64.559 25.3919 65.255 25.3359L67.103 25.1919V25.0239C67.103 24.1359 66.643 23.6919 65.723 23.6919C65.251 23.6919 64.883 23.7919 64.619 23.9919C64.363 24.1919 64.235 24.4679 64.235 24.8199H63.251C63.251 24.2119 63.479 23.7239 63.935 23.3559C64.399 22.9799 65.011 22.7919 65.771 22.7919C66.523 22.7919 67.115 22.9919 67.547 23.3919C67.987 23.7919 68.207 24.3759 68.207 25.1439V28.8279H67.247L67.127 27.8799C66.975 28.2159 66.711 28.4839 66.335 28.6839C65.967 28.8759 65.547 28.9719 65.075 28.9719ZM65.399 28.0959C65.935 28.0959 66.355 27.9359 66.659 27.6159C66.963 27.2879 67.115 26.8479 67.115 26.2959V25.9839L65.615 26.1039C64.679 26.1919 64.211 26.5439 64.211 27.1599C64.211 27.4639 64.315 27.6959 64.523 27.8559C64.731 28.0159 65.023 28.0959 65.399 28.0959ZM69.3851 25.8999C69.3851 24.9799 69.6491 24.2319 70.1771 23.6559C70.7131 23.0799 71.4091 22.7919 72.2651 22.7919C73.0011 22.7919 73.6091 22.9879 74.0891 23.3799C74.5771 23.7639 74.8731 24.2839 74.9771 24.9399H73.8491C73.7531 24.5719 73.5651 24.2919 73.2851 24.0999C73.0131 23.8999 72.6851 23.7999 72.3011 23.7999C71.7651 23.7999 71.3291 23.9919 70.9931 24.3759C70.6651 24.7519 70.5011 25.2559 70.5011 25.8879C70.5011 26.5199 70.6571 27.0239 70.9691 27.3999C71.2891 27.7759 71.7171 27.9639 72.2531 27.9639C72.6531 27.9639 72.9931 27.8679 73.2731 27.6759C73.5611 27.4759 73.7571 27.1999 73.8611 26.8479H74.9891C74.8771 27.4879 74.5691 28.0039 74.0651 28.3959C73.5611 28.7799 72.9571 28.9719 72.2531 28.9719C71.3891 28.9719 70.6931 28.6919 70.1651 28.1319C69.6451 27.5719 69.3851 26.8279 69.3851 25.8999ZM77.8953 28.9719C77.2713 28.9719 76.7793 28.8119 76.4193 28.4919C76.0673 28.1639 75.8913 27.7319 75.8913 27.1959C75.8913 26.6599 76.0793 26.2319 76.4553 25.9119C76.8393 25.5839 77.3793 25.3919 78.0753 25.3359L79.9233 25.1919V25.0239C79.9233 24.1359 79.4633 23.6919 78.5433 23.6919C78.0713 23.6919 77.7033 23.7919 77.4393 23.9919C77.1833 24.1919 77.0553 24.4679 77.0553 24.8199H76.0713C76.0713 24.2119 76.2993 23.7239 76.7553 23.3559C77.2193 22.9799 77.8313 22.7919 78.5913 22.7919C79.3433 22.7919 79.9353 22.9919 80.3673 23.3919C80.8073 23.7919 81.0273 24.3759 81.0273 25.1439V28.8279H80.0673L79.9473 27.8799C79.7953 28.2159 79.5313 28.4839 79.1553 28.6839C78.7873 28.8759 78.3673 28.9719 77.8953 28.9719ZM78.2193 28.0959C78.7553 28.0959 79.1753 27.9359 79.4793 27.6159C79.7833 27.2879 79.9353 26.8479 79.9353 26.2959V25.9839L78.4353 26.1039C77.4993 26.1919 77.0313 26.5439 77.0313 27.1599C77.0313 27.4639 77.1353 27.6959 77.3433 27.8559C77.5513 28.0159 77.8433 28.0959 78.2193 28.0959ZM85.9494 22.9119V23.9439H85.4454C84.9094 23.9439 84.4854 24.0999 84.1734 24.4119C83.8694 24.7239 83.7174 25.1599 83.7174 25.7199V28.8279H82.5894V22.9719H83.6454L83.7174 23.8599C83.8374 23.5479 84.0414 23.2999 84.3294 23.1159C84.6174 22.9319 84.9574 22.8399 85.3494 22.8399C85.5254 22.8399 85.7254 22.8639 85.9494 22.9119Z" fill="#DEE1E4"/>
<path d="M163.141 28.8279H161.605V20.0559H164.953C166.945 20.0559 168.109 21.0639 168.109 22.7919C168.109 23.9679 167.557 24.8079 166.525 25.2279L168.193 28.8279H166.513L165.025 25.5519H163.141V28.8279ZM163.141 21.4239V24.1959H164.953C165.925 24.1959 166.501 23.6799 166.501 22.7919C166.501 21.9159 165.925 21.4239 164.953 21.4239H163.141ZM171.792 29.9679V28.9719C170.124 28.8519 169.056 27.8799 169.02 26.4159H170.556C170.568 27.0999 171.012 27.5319 171.792 27.6279V25.0719L171.408 24.9879C169.896 24.6639 169.14 23.8239 169.14 22.5039C169.14 21.0999 170.196 20.0919 171.792 19.9239V18.9039H172.716V19.9239C174.228 20.0799 175.164 21.0279 175.212 22.4679H173.724C173.7 21.8199 173.34 21.3999 172.716 21.2679V23.8479L173.124 23.9439C174.66 24.2799 175.356 25.0239 175.356 26.2959C175.356 27.7599 174.324 28.7679 172.716 28.9479V29.9679H171.792ZM171.744 23.6319L171.792 23.6439V21.2559C171.072 21.3759 170.64 21.8079 170.64 22.4559C170.64 23.0919 170.976 23.4639 171.744 23.6319ZM172.8 25.2879L172.716 25.2639V27.6039C173.436 27.4599 173.868 27.0399 173.868 26.4279C173.868 25.8159 173.52 25.4439 172.8 25.2879ZM181.336 21.4359H179.416V20.0559H182.812V28.8279H181.336V21.4359ZM185.529 28.9719C185.001 28.9719 184.557 28.5399 184.557 28.0239C184.557 27.4959 185.001 27.0639 185.529 27.0639C186.057 27.0639 186.501 27.4959 186.501 28.0239C186.501 28.5399 186.057 28.9719 185.529 28.9719ZM190.284 24.4839H189.216V23.4879L191.472 21.4119H187.824V20.0559H193.392V21.2799L191.256 23.2479C192.6 23.5119 193.644 24.4959 193.644 26.0439C193.644 27.8439 192.24 28.9839 190.464 28.9839C188.748 28.9839 187.416 27.9279 187.416 26.0319H188.928C188.928 27.0399 189.552 27.6159 190.488 27.6159C191.448 27.6159 192.084 26.9919 192.084 26.0199C192.084 25.1319 191.508 24.4839 190.284 24.4839ZM200.491 28.8159L194.407 28.8279V27.6759L197.275 25.2519C198.463 24.2439 198.859 23.6679 198.859 22.8279C198.859 21.8319 198.319 21.2679 197.395 21.2679C196.435 21.2679 195.835 21.9399 195.823 23.0679H194.299C194.311 21.1479 195.535 19.8999 197.395 19.8999C199.267 19.8999 200.431 20.9679 200.431 22.7439C200.431 23.9679 199.759 24.8919 198.427 26.0319L196.843 27.3879H200.491V28.8159ZM201.438 24.4599C201.438 21.7359 202.902 19.8879 205.146 19.8879C207.39 19.8879 208.866 21.7359 208.866 24.4599C208.866 27.1719 207.474 28.9839 205.146 28.9839C202.818 28.9839 201.438 27.1719 201.438 24.4599ZM202.95 24.4599C202.95 26.4879 203.766 27.6279 205.146 27.6279C206.538 27.6279 207.354 26.4879 207.354 24.4599C207.354 22.3839 206.538 21.2439 205.146 21.2439C203.766 21.2439 202.95 22.3839 202.95 24.4599ZM211.661 28.2999C211.661 29.2959 210.941 30.0879 209.969 30.2079V29.6199C210.509 29.5239 210.917 29.1999 210.917 28.7799C210.821 28.8279 210.713 28.8519 210.569 28.8519C210.101 28.8519 209.717 28.5039 209.717 28.0239C209.717 27.4479 210.089 27.0639 210.629 27.0639C211.229 27.0639 211.661 27.5559 211.661 28.2999ZM213.586 21.4359H211.666V20.0559H215.062V28.8279H213.586V21.4359ZM216.555 24.4599C216.555 21.7359 218.019 19.8879 220.263 19.8879C222.507 19.8879 223.983 21.7359 223.983 24.4599C223.983 27.1719 222.591 28.9839 220.263 28.9839C217.935 28.9839 216.555 27.1719 216.555 24.4599ZM218.067 24.4599C218.067 26.4879 218.883 27.6279 220.263 27.6279C221.655 27.6279 222.471 26.4879 222.471 24.4599C222.471 22.3839 221.655 21.2439 220.263 21.2439C218.883 21.2439 218.067 22.3839 218.067 24.4599Z" fill="#02A0FC"/>
<rect x="0.5" y="49" width="240" height="2" fill="#333333"/>
<path d="M19.932 79.8279L16.62 71.0559H18.252L20.172 76.1079C20.364 76.6359 20.532 77.1519 20.724 77.8599C20.94 77.0919 21.12 76.5519 21.288 76.1079L23.184 71.0559H24.78L21.516 79.8279H19.932ZM26.4145 79.9839C25.1545 79.9839 24.3865 79.2519 24.3865 78.1359C24.3865 77.0439 25.1785 76.3599 26.5825 76.2519L28.3585 76.1199V75.9879C28.3585 75.1839 27.8785 74.8599 27.1345 74.8599C26.2705 74.8599 25.7905 75.2199 25.7905 75.8439H24.5425C24.5425 74.5599 25.5985 73.7199 27.2065 73.7199C28.8025 73.7199 29.7865 74.5839 29.7865 76.2279V79.8279H28.5025L28.3945 78.9519C28.1425 79.5639 27.3385 79.9839 26.4145 79.9839ZM26.8945 78.8799C27.7945 78.8799 28.3705 78.3399 28.3705 77.4279V77.1159L27.1345 77.2119C26.2225 77.2959 25.8745 77.5959 25.8745 78.0759C25.8745 78.6159 26.2345 78.8799 26.8945 78.8799ZM32.7008 79.8279H31.2488V70.8999H32.7008V79.8279ZM33.8885 76.8519C33.8885 75.0039 35.2205 73.7319 37.0565 73.7319C38.8925 73.7319 40.2245 75.0039 40.2245 76.8519C40.2245 78.6999 38.8925 79.9719 37.0565 79.9719C35.2205 79.9719 33.8885 78.6999 33.8885 76.8519ZM35.3525 76.8519C35.3525 77.9319 36.0485 78.6639 37.0565 78.6639C38.0645 78.6639 38.7605 77.9319 38.7605 76.8519C38.7605 75.7719 38.0645 75.0399 37.0565 75.0399C36.0485 75.0399 35.3525 75.7719 35.3525 76.8519ZM45.1049 73.8759V75.2319H44.5649C43.5089 75.2319 42.8489 75.7959 42.8489 76.9479V79.8279H41.3849V73.9119H42.7649L42.8489 74.7759C43.1009 74.1879 43.6649 73.7919 44.4569 73.7919C44.6609 73.7919 44.8649 73.8159 45.1049 73.8759ZM51.0942 79.9839C49.8342 79.9839 49.0662 79.2519 49.0662 78.1359C49.0662 77.0439 49.8582 76.3599 51.2622 76.2519L53.0382 76.1199V75.9879C53.0382 75.1839 52.5582 74.8599 51.8142 74.8599C50.9502 74.8599 50.4702 75.2199 50.4702 75.8439H49.2222C49.2222 74.5599 50.2782 73.7199 51.8862 73.7199C53.4822 73.7199 54.4662 74.5839 54.4662 76.2279V79.8279H53.1822L53.0742 78.9519C52.8222 79.5639 52.0182 79.9839 51.0942 79.9839ZM51.5742 78.8799C52.4742 78.8799 53.0502 78.3399 53.0502 77.4279V77.1159L51.8142 77.2119C50.9022 77.2959 50.5542 77.5959 50.5542 78.0759C50.5542 78.6159 50.9142 78.8799 51.5742 78.8799ZM62.8588 73.8759V75.2319H62.3188C61.2628 75.2319 60.6028 75.7959 60.6028 76.9479V79.8279H59.1388V73.9119H60.5188L60.6028 74.7759C60.8548 74.1879 61.4188 73.7919 62.2108 73.7919C62.4148 73.7919 62.6188 73.8159 62.8588 73.8759ZM66.3025 79.9839C64.5385 79.9839 63.3025 78.6999 63.3025 76.8639C63.3025 75.0039 64.5145 73.7199 66.2545 73.7199C68.0305 73.7199 69.1585 74.9079 69.1585 76.7559V77.1999L64.6945 77.2119C64.8025 78.2559 65.3545 78.7839 66.3265 78.7839C67.1305 78.7839 67.6585 78.4719 67.8265 77.9079H69.1825C68.9305 79.2039 67.8505 79.9839 66.3025 79.9839ZM66.2665 74.9199C65.4025 74.9199 64.8745 75.3879 64.7305 76.2759H67.7065C67.7065 75.4599 67.1425 74.9199 66.2665 74.9199ZM69.9822 76.8519C69.9822 75.0159 71.1942 73.7199 72.9462 73.7199C74.5662 73.7199 75.6702 74.6199 75.8262 76.0479H74.3622C74.1942 75.3759 73.7022 75.0279 73.0062 75.0279C72.0702 75.0279 71.4462 75.7359 71.4462 76.8519C71.4462 77.9679 72.0222 78.6639 72.9582 78.6639C73.6902 78.6639 74.2062 78.3039 74.3622 77.6559H75.8382C75.6582 79.0359 74.5062 79.9839 72.9582 79.9839C71.1582 79.9839 69.9822 78.7359 69.9822 76.8519ZM79.5799 79.9839C77.8159 79.9839 76.5799 78.6999 76.5799 76.8639C76.5799 75.0039 77.7919 73.7199 79.5319 73.7199C81.3079 73.7199 82.4359 74.9079 82.4359 76.7559V77.1999L77.9719 77.2119C78.0799 78.2559 78.6319 78.7839 79.6039 78.7839C80.4079 78.7839 80.9359 78.4719 81.1039 77.9079H82.4599C82.2079 79.2039 81.1279 79.9839 79.5799 79.9839ZM79.5439 74.9199C78.6799 74.9199 78.1519 75.3879 78.0079 76.2759H80.9839C80.9839 75.4599 80.4199 74.9199 79.5439 74.9199ZM84.9636 79.8279H83.6076V70.8999H85.0716V74.7639C85.4556 74.1039 86.2476 73.7079 87.1476 73.7079C88.8396 73.7079 89.8716 75.0279 89.8716 76.8999C89.8716 78.7239 88.7556 79.9839 87.0516 79.9839C86.1636 79.9839 85.4076 79.5879 85.0596 78.9039L84.9636 79.8279ZM85.0836 76.8399C85.0836 77.9079 85.7436 78.6399 86.7516 78.6399C87.7836 78.6399 88.3956 77.8959 88.3956 76.8399C88.3956 75.7839 87.7836 75.0279 86.7516 75.0279C85.7436 75.0279 85.0836 75.7719 85.0836 76.8399ZM93.6893 79.9839C91.9253 79.9839 90.6893 78.6999 90.6893 76.8639C90.6893 75.0039 91.9013 73.7199 93.6413 73.7199C95.4173 73.7199 96.5453 74.9079 96.5453 76.7559V77.1999L92.0813 77.2119C92.1893 78.2559 92.7413 78.7839 93.7133 78.7839C94.5173 78.7839 95.0453 78.4719 95.2133 77.9079H96.5693C96.3173 79.2039 95.2373 79.9839 93.6893 79.9839ZM93.6533 74.9199C92.7893 74.9199 92.2613 75.3879 92.1173 76.2759H95.0933C95.0933 75.4599 94.5293 74.9199 93.6533 74.9199ZM101.437 73.8759V75.2319H100.897C99.8409 75.2319 99.1809 75.7959 99.1809 76.9479V79.8279H97.7169V73.9119H99.0969L99.1809 74.7759C99.4329 74.1879 99.9969 73.7919 100.789 73.7919C100.993 73.7919 101.197 73.8159 101.437 73.8759Z" fill="#DEE1E4"/>
<path d="M162.567 79.8279H161.031V71.0559H164.379C166.371 71.0559 167.535 72.0639 167.535 73.7919C167.535 74.9679 166.983 75.8079 165.951 76.2279L167.619 79.8279H165.939L164.451 76.5519H162.567V79.8279ZM162.567 72.4239V75.1959H164.379C165.351 75.1959 165.927 74.6799 165.927 73.7919C165.927 72.9159 165.351 72.4239 164.379 72.4239H162.567ZM171.218 80.9679V79.9719C169.55 79.8519 168.482 78.8799 168.446 77.4159H169.982C169.994 78.0999 170.438 78.5319 171.218 78.6279V76.0719L170.834 75.9879C169.322 75.6639 168.566 74.8239 168.566 73.5039C168.566 72.0999 169.622 71.0919 171.218 70.9239V69.9039H172.142V70.9239C173.654 71.0799 174.59 72.0279 174.638 73.4679H173.15C173.126 72.8199 172.766 72.3999 172.142 72.2679V74.8479L172.55 74.9439C174.086 75.2799 174.782 76.0239 174.782 77.2959C174.782 78.7599 173.75 79.7679 172.142 79.9479V80.9679H171.218ZM171.17 74.6319L171.218 74.6439V72.2559C170.498 72.3759 170.066 72.8079 170.066 73.4559C170.066 74.0919 170.402 74.4639 171.17 74.6319ZM172.226 76.2879L172.142 76.2639V78.6039C172.862 78.4599 173.294 78.0399 173.294 77.4279C173.294 76.8159 172.946 76.4439 172.226 76.2879ZM180.762 72.4359H178.842V71.0559H182.238V79.8279H180.762V72.4359ZM184.955 79.9719C184.427 79.9719 183.983 79.5399 183.983 79.0239C183.983 78.4959 184.427 78.0639 184.955 78.0639C185.483 78.0639 185.927 78.4959 185.927 79.0239C185.927 79.5399 185.483 79.9719 184.955 79.9719ZM193.343 79.8159L187.259 79.8279V78.6759L190.127 76.2519C191.315 75.2439 191.711 74.6679 191.711 73.8279C191.711 72.8319 191.171 72.2679 190.247 72.2679C189.287 72.2679 188.687 72.9399 188.675 74.0679H187.151C187.163 72.1479 188.387 70.8999 190.247 70.8999C192.119 70.8999 193.283 71.9679 193.283 73.7439C193.283 74.9679 192.611 75.8919 191.279 77.0319L189.695 78.3879H193.343V79.8159ZM200.491 79.8159L194.407 79.8279V78.6759L197.275 76.2519C198.463 75.2439 198.859 74.6679 198.859 73.8279C198.859 72.8319 198.319 72.2679 197.395 72.2679C196.435 72.2679 195.835 72.9399 195.823 74.0679H194.299C194.311 72.1479 195.535 70.8999 197.395 70.8999C199.267 70.8999 200.431 71.9679 200.431 73.7439C200.431 74.9679 199.759 75.8919 198.427 77.0319L196.843 78.3879H200.491V79.8159ZM201.438 75.4599C201.438 72.7359 202.902 70.8879 205.146 70.8879C207.39 70.8879 208.866 72.7359 208.866 75.4599C208.866 78.1719 207.474 79.9839 205.146 79.9839C202.818 79.9839 201.438 78.1719 201.438 75.4599ZM202.95 75.4599C202.95 77.4879 203.766 78.6279 205.146 78.6279C206.538 78.6279 207.354 77.4879 207.354 75.4599C207.354 73.3839 206.538 72.2439 205.146 72.2439C203.766 72.2439 202.95 73.3839 202.95 75.4599ZM211.661 79.2999C211.661 80.2959 210.941 81.0879 209.969 81.2079V80.6199C210.509 80.5239 210.917 80.1999 210.917 79.7799C210.821 79.8279 210.713 79.8519 210.569 79.8519C210.101 79.8519 209.717 79.5039 209.717 79.0239C209.717 78.4479 210.089 78.0639 210.629 78.0639C211.229 78.0639 211.661 78.5559 211.661 79.2999ZM213.586 72.4359H211.666V71.0559H215.062V79.8279H213.586V72.4359ZM216.555 75.4599C216.555 72.7359 218.019 70.8879 220.263 70.8879C222.507 70.8879 223.983 72.7359 223.983 75.4599C223.983 78.1719 222.591 79.9839 220.263 79.9839C217.935 79.9839 216.555 78.1719 216.555 75.4599ZM218.067 75.4599C218.067 77.4879 218.883 78.6279 220.263 78.6279C221.655 78.6279 222.471 77.4879 222.471 75.4599C222.471 73.3839 221.655 72.2439 220.263 72.2439C218.883 72.2439 218.067 73.3839 218.067 75.4599Z" fill="#DEE1E4"/>
<rect x="1.5" y="1" width="238" height="98" rx="13.7429" stroke="#333333" stroke-width="2"/>
<defs>
<linearGradient id="paint0_linear_8454_137830" x1="-57.522" y1="42.5134" x2="278.742" y2="42.5134" gradientUnits="userSpaceOnUse">
<stop stop-color="#1E1E1E"/>
<stop offset="0.53125" stop-color="#272727"/>
<stop offset="0.992158" stop-color="#363636" stop-opacity="0.388235"/>
</linearGradient>
</defs>
</svg>
