<svg width="155" height="40" viewBox="0 0 155 40" fill="none" xmlns="http://www.w3.org/2000/svg">
<path fill-rule="evenodd" clip-rule="evenodd" d="M31.8436 2.5H9.1564C5.75631 2.5 3 5.25631 3 8.6564V31.3436C3 34.7437 5.75631 37.5 9.1564 37.5H31.8436C35.2437 37.5 38 34.7437 38 31.3436V8.6564C38 5.25631 35.2437 2.5 31.8436 2.5ZM9.1564 0C4.3756 0 0.5 3.8756 0.5 8.6564V31.3436C0.5 36.1244 4.3756 40 9.1564 40H31.8436C36.6244 40 40.5 36.1244 40.5 31.3436V8.6564C40.5 3.8756 36.6244 0 31.8436 0H9.1564ZM22.2976 25.911L21.6141 26.0175C21.2966 26.067 21.0683 26.3493 21.0864 26.6701L21.128 27.4101C21.1467 27.7411 21.4205 28 21.752 28H27.875C28.2202 28 28.5 27.7202 28.5 27.375V26.6035C28.5 26.311 28.2972 26.0577 28.0119 25.9936L26.8761 25.7387L26.5196 25.4053C26.3413 25.2219 26.1376 25.0148 25.9087 24.7843C25.6827 24.521 25.4143 24.236 25.1051 23.9296L20.6112 19.2424L26.2555 14.2482L27.5862 14.0337C27.9016 13.9828 28.1278 13.7023 28.1108 13.3833L28.0685 12.5916C28.0507 12.2599 27.7766 12 27.4443 12H22.4078C22.0762 12 21.8024 12.2589 21.7838 12.5899L21.7419 13.3346C21.7244 13.6454 21.9384 13.9218 22.2437 13.9826L22.8682 14.1071L18.0225 18.7931L17.6257 18.8911V15.6013C17.6434 15.0717 17.661 14.6671 17.6784 14.3869C17.6847 14.3372 17.6909 14.2925 17.6969 14.2528L18.9566 13.9824C19.2577 13.9177 19.4668 13.6435 19.4495 13.3362L19.4075 12.5899C19.3889 12.2589 19.115 12 18.7835 12H13.1969C12.8721 12 12.6014 12.2488 12.5741 12.5724L12.5111 13.319C12.4845 13.6332 12.6962 13.9179 13.0047 13.9831L14.2469 14.2454C14.248 14.2888 14.2486 14.3373 14.2486 14.391V14.4058L14.2495 14.4206C14.2669 14.7127 14.276 15.1271 14.276 15.6687L14.2763 15.6859C14.2942 16.2063 14.3033 16.8476 14.3033 17.6107V22.4148C14.3033 23.5375 14.2942 24.4092 14.2762 25.0324C14.267 25.3486 14.2558 25.5874 14.2437 25.7565L13.03 26.017C12.7225 26.083 12.5119 26.3673 12.5384 26.6807L12.6014 27.4276C12.6287 27.7512 12.8994 28 13.2242 28H18.7048C19.0296 28 19.3002 27.7512 19.3276 27.4276L19.3906 26.6807C19.4171 26.3673 19.2065 26.083 18.899 26.017L17.6991 25.7595C17.6861 25.5798 17.6706 25.3358 17.6526 25.0252C17.6347 24.4025 17.6257 23.5332 17.6257 22.4148V21.0494H17.7565L21.7887 25.3382L21.7982 25.348C21.9947 25.5459 22.1605 25.7336 22.2976 25.911Z" fill="black"/>
<path d="M54.5 10.9541C54.5 10.7431 54.5395 10.5686 54.6186 10.4306C54.7056 10.2926 54.9073 10.2236 55.2237 10.2236H57.2524C57.4817 10.2236 57.6478 10.2967 57.7507 10.4428C57.8535 10.5808 57.9049 10.7309 57.9049 10.8933V20.9375L63.1249 15.1423C63.2277 15.0368 63.3306 14.9556 63.4334 14.8988C63.5441 14.842 63.6746 14.8135 63.8249 14.8135H66.5417C66.7157 14.8135 66.8462 14.8501 66.9332 14.9231C67.0202 14.9962 67.0637 15.0936 67.0637 15.2153C67.0637 15.2965 67.0518 15.3695 67.0281 15.4345C67.0044 15.4994 66.9609 15.5724 66.8976 15.6536L61.5708 21.3636L67.8941 29.3746H67.8704C67.9574 29.4639 68.0167 29.5613 68.0484 29.6668C68.0879 29.7723 68.1077 29.8575 68.1077 29.9225C68.1077 30.0605 68.0681 30.1538 67.989 30.2025C67.91 30.2512 67.7913 30.2755 67.6331 30.2755H64.6079C64.3785 30.2755 64.1571 30.1051 63.9435 29.7642L59.3523 23.6403L57.9286 25.1621V29.5451C57.9286 29.6181 57.9167 29.6993 57.893 29.7886C57.8693 29.8697 57.8297 29.9468 57.7744 30.0199C57.7269 30.0929 57.6597 30.1538 57.5727 30.2025C57.4857 30.2512 57.3789 30.2755 57.2524 30.2755H55.1525C55.0339 30.2755 54.935 30.2512 54.8559 30.2025C54.7768 30.1538 54.7096 30.0929 54.6542 30.0199C54.5989 29.9468 54.5593 29.8738 54.5356 29.8007C54.5119 29.7196 54.5 29.6546 54.5 29.6059V10.9541Z" fill="black"/>
<path d="M70.2678 15.5562C70.2678 15.3452 70.3271 15.1707 70.4458 15.0327C70.5644 14.8866 70.7384 14.8135 70.9678 14.8135H72.9371C73.0241 14.8135 73.1111 14.8338 73.1981 14.8744C73.293 14.9069 73.3761 14.9596 73.4473 15.0327C73.5185 15.0976 73.5778 15.1747 73.6252 15.264C73.6727 15.3533 73.6964 15.4507 73.6964 15.5562V29.5451C73.6964 30.0321 73.4473 30.2755 72.949 30.2755H70.9796C70.5051 30.2755 70.2678 30.0321 70.2678 29.5451V15.5562ZM70.2678 10.1749C70.2678 9.68795 70.5011 9.44446 70.9678 9.44446H72.9609C73.1823 9.44446 73.3603 9.50533 73.4947 9.62708C73.6292 9.74883 73.6964 9.93145 73.6964 10.1749V11.989C73.6964 12.1757 73.6331 12.3542 73.5066 12.5247C73.3801 12.687 73.2021 12.7682 72.9727 12.7682H70.9796C70.5051 12.7682 70.2678 12.5085 70.2678 11.989V10.1749Z" fill="black"/>
<path d="M77.543 15.5319C77.543 15.2965 77.6182 15.1179 77.7684 14.9962C77.9266 14.8744 78.0967 14.8135 78.2786 14.8135H79.7853C79.983 14.8135 80.1333 14.8744 80.2361 14.9962C80.3389 15.1179 80.418 15.2681 80.4734 15.4466C80.5287 15.6252 80.5683 15.82 80.592 16.031C80.6157 16.2339 80.6434 16.4206 80.6751 16.5911C80.8491 16.3395 81.0428 16.096 81.2564 15.8606C81.4778 15.6171 81.727 15.402 82.0038 15.2153C82.2806 15.0286 82.593 14.8785 82.941 14.7648C83.289 14.6512 83.6845 14.5944 84.1274 14.5944C84.5229 14.5944 84.8788 14.6228 85.1951 14.6796C85.5115 14.7283 85.812 14.8095 86.0968 14.9231C86.3894 15.0286 86.6741 15.1707 86.951 15.3492C87.2278 15.5197 87.5244 15.7226 87.8407 15.958C87.9752 16.0473 88.0899 16.1487 88.1848 16.2623C88.2876 16.376 88.339 16.5099 88.339 16.6641C88.3311 16.729 88.3192 16.798 88.3034 16.8711C88.2876 16.9441 88.256 17.0172 88.2085 17.0902L87.2357 18.673C87.1724 18.7541 87.0973 18.815 87.0103 18.8556C86.9312 18.888 86.86 18.9043 86.7967 18.9043C86.6702 18.9043 86.5476 18.8718 86.429 18.8069C86.168 18.6608 85.9307 18.5228 85.7171 18.3929C85.5036 18.2631 85.294 18.1535 85.0884 18.0642C84.8827 17.9668 84.6692 17.8938 84.4477 17.8451C84.2342 17.7883 83.9929 17.7598 83.724 17.7598C83.0201 17.7598 82.423 17.9912 81.9326 18.4538C81.4502 18.9165 81.1259 19.5536 80.9598 20.3653V29.5451C80.9598 30.0321 80.7146 30.2755 80.2242 30.2755H78.2786C77.7882 30.2755 77.543 30.0321 77.543 29.5451V15.5319Z" fill="black"/>
<path d="M89.2145 15.7997C89.2145 15.7997 89.2106 15.7835 89.2027 15.751C89.1948 15.7185 89.1829 15.678 89.1671 15.6293C89.1592 15.5806 89.1513 15.5278 89.1433 15.471C89.1354 15.4142 89.1315 15.3655 89.1315 15.3249C89.1315 15.1707 89.1829 15.0489 89.2857 14.9596C89.3964 14.8622 89.5586 14.8135 89.7721 14.8135H91.9076C92.0974 14.8135 92.2516 14.8622 92.3703 14.9596C92.4889 15.057 92.5838 15.195 92.655 15.3736L92.8685 15.9215C93.0267 16.3841 93.2047 16.9036 93.4024 17.4798C93.6081 18.0561 93.8176 18.6527 94.0312 19.2695C94.2447 19.8783 94.4583 20.487 94.6718 21.0957C94.8854 21.6964 95.0871 22.2645 95.2769 22.8002C95.4667 23.3278 95.6367 23.7986 95.787 24.2125C95.9373 24.6183 96.0559 24.9308 96.1429 25.15C96.2774 24.7522 96.4316 24.2977 96.6056 23.7864C96.7875 23.2669 96.9813 22.7191 97.1869 22.1428C97.3926 21.5584 97.6022 20.9578 97.8157 20.3409C98.0293 19.7241 98.2389 19.1194 98.4445 18.5269C98.6501 17.9344 98.8439 17.3703 99.0258 16.8346C99.2156 16.2908 99.3857 15.7997 99.536 15.3614C99.6151 15.1666 99.71 15.0286 99.8207 14.9475C99.9393 14.8582 100.098 14.8135 100.295 14.8135H102.514C102.759 14.8135 102.925 14.8541 103.012 14.9353C103.107 15.0165 103.154 15.122 103.154 15.2518C103.154 15.3168 103.143 15.3979 103.119 15.4953C103.103 15.5927 103.087 15.6658 103.071 15.7145L97.4242 29.7886C97.3609 29.9022 97.2819 30.0118 97.1869 30.1173C97.0999 30.2228 96.9339 30.2755 96.6887 30.2755H95.5972C95.3125 30.2755 95.1187 30.2269 95.0159 30.1295C94.921 30.0239 94.8498 29.9103 94.8023 29.7886L89.2145 15.7997Z" fill="black"/>
<path d="M120.243 29.5572C120.243 29.7033 120.212 29.8251 120.148 29.9225C120.093 30.0118 120.018 30.0848 119.923 30.1416C119.828 30.1903 119.717 30.2268 119.591 30.2512C119.472 30.2674 119.345 30.2755 119.211 30.2755H117.728C117.475 30.2755 117.297 30.2066 117.194 30.0686C117.099 29.9306 117.028 29.7561 116.981 29.5451L116.909 28.5102C116.633 28.7943 116.324 29.0621 115.984 29.3137C115.652 29.5572 115.292 29.7723 114.904 29.959C114.517 30.1376 114.106 30.2755 113.671 30.3729C113.236 30.4785 112.789 30.5312 112.33 30.5312C111.618 30.5312 110.93 30.4379 110.266 30.2512C109.609 30.0564 108.992 29.7886 108.415 29.4477C107.838 29.0986 107.312 28.6806 106.837 28.1937C106.371 27.7067 105.967 27.1669 105.627 26.5744C105.295 25.9819 105.034 25.3448 104.844 24.663C104.662 23.9812 104.571 23.271 104.571 22.5324C104.571 21.7938 104.662 21.0836 104.844 20.4018C105.034 19.72 105.295 19.0828 105.627 18.4903C105.967 17.8978 106.371 17.3621 106.837 16.8833C107.312 16.3963 107.838 15.9823 108.415 15.6414C108.992 15.2924 109.609 15.0246 110.266 14.8379C110.93 14.6431 111.618 14.5457 112.33 14.5457C112.836 14.5457 113.319 14.6025 113.777 14.7161C114.236 14.8217 114.663 14.9759 115.059 15.1788C115.462 15.3736 115.834 15.613 116.174 15.8971C116.514 16.1731 116.822 16.4774 117.099 16.8102L117.265 15.5075C117.305 15.3614 117.34 15.2437 117.372 15.1544C117.412 15.057 117.455 14.9799 117.503 14.9231C117.558 14.8663 117.625 14.8298 117.704 14.8135C117.783 14.7892 117.882 14.777 118.001 14.777H119.187C119.314 14.777 119.44 14.7892 119.567 14.8135C119.693 14.8379 119.808 14.8785 119.911 14.9353C120.014 14.984 120.093 15.057 120.148 15.1544C120.212 15.2437 120.243 15.3574 120.243 15.4953V29.5572ZM107.905 22.5324C107.905 23.1817 108.016 23.7986 108.237 24.3829C108.459 24.9592 108.767 25.4665 109.162 25.9048C109.558 26.3431 110.021 26.6921 110.55 26.9518C111.088 27.2034 111.674 27.3292 112.306 27.3292C112.947 27.3292 113.544 27.2034 114.098 26.9518C114.659 26.6921 115.146 26.3431 115.557 25.9048C115.968 25.4665 116.293 24.9592 116.53 24.3829C116.767 23.7986 116.886 23.1817 116.886 22.5324C116.886 21.8912 116.767 21.2824 116.53 20.7062C116.293 20.1218 115.968 19.6104 115.557 19.1721C115.146 18.7338 114.659 18.3848 114.098 18.1251C113.544 17.8654 112.947 17.7355 112.306 17.7355C111.674 17.7355 111.088 17.8654 110.55 18.1251C110.021 18.3848 109.558 18.7338 109.162 19.1721C108.767 19.6104 108.459 20.1218 108.237 20.7062C108.016 21.2824 107.905 21.8912 107.905 22.5324Z" fill="black"/>
<path d="M123.353 15.5319C123.353 15.4182 123.401 15.2965 123.496 15.1666C123.591 15.0368 123.682 14.9556 123.769 14.9231C123.832 14.8582 123.927 14.8257 124.053 14.8257C124.18 14.8176 124.298 14.8135 124.409 14.8135H125.607C125.837 14.8135 126.007 14.8907 126.118 15.0449C126.228 15.1991 126.303 15.3695 126.343 15.5562L126.473 16.8467C126.655 16.5708 126.877 16.2989 127.138 16.031C127.407 15.7632 127.723 15.5237 128.087 15.3127C128.451 15.1017 128.866 14.9312 129.333 14.8014C129.799 14.6715 130.325 14.6066 130.91 14.6066C131.844 14.6066 132.674 14.7811 133.402 15.1301C134.129 15.471 134.742 15.9417 135.241 16.5424C135.739 17.143 136.115 17.8491 136.368 18.6608C136.629 19.4724 136.759 20.345 136.759 21.2784V29.399C136.759 29.6912 136.692 29.9103 136.558 30.0564C136.423 30.2025 136.229 30.2755 135.976 30.2755H134.173C133.857 30.2755 133.643 30.2147 133.532 30.0929C133.43 29.9712 133.378 29.7561 133.378 29.4477V21.3392C133.378 20.9091 133.307 20.4911 133.165 20.0852C133.022 19.6713 132.813 19.302 132.536 18.9773C132.267 18.6527 131.931 18.3929 131.527 18.1981C131.124 18.0033 130.657 17.9059 130.127 17.9059C129.764 17.9059 129.384 17.9831 128.989 18.1373C128.601 18.2834 128.245 18.4944 127.921 18.7704C127.597 19.0463 127.328 19.3832 127.114 19.7809C126.901 20.1705 126.79 20.6128 126.782 21.1079V28.9972C126.782 29.1514 126.774 29.3056 126.758 29.4598C126.742 29.614 126.707 29.752 126.651 29.8738C126.604 29.9955 126.533 30.0929 126.438 30.166C126.343 30.239 126.22 30.2755 126.07 30.2755H124.113C123.852 30.2755 123.658 30.2147 123.531 30.0929C123.413 29.9631 123.353 29.7804 123.353 29.5451V15.5319Z" fill="black"/>
<path d="M138.923 22.5689C138.923 21.8303 139.014 21.1201 139.196 20.4383C139.386 19.7484 139.651 19.1072 139.991 18.5147C140.331 17.9222 140.738 17.3865 141.213 16.9076C141.687 16.4206 142.213 16.0067 142.791 15.6658C143.368 15.3168 143.985 15.0489 144.641 14.8622C145.306 14.6674 145.998 14.5701 146.717 14.5701C147.429 14.5701 148.117 14.6674 148.782 14.8622C149.446 15.0489 150.063 15.3168 150.632 15.6658C151.21 16.0067 151.736 16.4206 152.21 16.9076C152.685 17.3865 153.092 17.9222 153.432 18.5147C153.772 19.1072 154.033 19.7484 154.215 20.4383C154.405 21.1201 154.5 21.8303 154.5 22.5689C154.5 23.3075 154.405 24.0177 154.215 24.6995C154.033 25.3813 153.772 26.0184 153.432 26.6109C153.092 27.1953 152.685 27.731 152.21 28.218C151.736 28.705 151.21 29.123 150.632 29.472C150.063 29.8129 149.446 30.0808 148.782 30.2755C148.117 30.4622 147.429 30.5556 146.717 30.5556C145.998 30.5556 145.306 30.4622 144.641 30.2755C143.985 30.0808 143.368 29.8129 142.791 29.472C142.213 29.123 141.687 28.705 141.213 28.218C140.738 27.731 140.331 27.1953 139.991 26.6109C139.651 26.0184 139.386 25.3813 139.196 24.6995C139.014 24.0177 138.923 23.3075 138.923 22.5689ZM142.269 22.5689C142.269 23.2182 142.379 23.8351 142.601 24.4195C142.822 24.9957 143.131 25.499 143.526 25.9291C143.922 26.3593 144.388 26.7002 144.926 26.9518C145.472 27.2034 146.065 27.3292 146.706 27.3292C147.33 27.3292 147.908 27.2034 148.438 26.9518C148.975 26.7002 149.438 26.3593 149.826 25.9291C150.213 25.499 150.514 24.9957 150.727 24.4195C150.949 23.8351 151.06 23.2182 151.06 22.5689C151.06 21.9277 150.949 21.3149 150.727 20.7305C150.514 20.1461 150.213 19.6348 149.826 19.1965C149.438 18.7501 148.975 18.397 148.438 18.1373C147.908 17.8694 147.33 17.7355 146.706 17.7355C146.065 17.7355 145.472 17.8694 144.926 18.1373C144.388 18.397 143.922 18.7501 143.526 19.1965C143.131 19.6348 142.822 20.1461 142.601 20.7305C142.379 21.3149 142.269 21.9277 142.269 22.5689Z" fill="black"/>
</svg>
