<svg width="161" height="128" viewBox="0 0 161 128" fill="none" xmlns="http://www.w3.org/2000/svg">
<path fill-rule="evenodd" clip-rule="evenodd" d="M132.98 41.6C135.454 41.6 137.46 43.6057 137.46 46.08C137.46 48.5542 135.454 50.56 132.98 50.56H107.38C109.854 50.56 111.86 52.5657 111.86 55.04C111.86 57.5142 109.854 59.52 107.38 59.52H121.46C123.934 59.52 125.94 61.5257 125.94 64C125.94 66.4742 123.934 68.48 121.46 68.48H114.949C111.829 68.48 109.3 70.4857 109.3 72.96C109.3 74.6095 110.58 76.1028 113.14 77.44C115.614 77.44 117.62 79.4457 117.62 81.92C117.62 84.3942 115.614 86.4 113.14 86.4H60.02C57.5457 86.4 55.54 84.3942 55.54 81.92C55.54 79.4457 57.5457 77.44 60.02 77.44H35.06C32.5857 77.44 30.58 75.4342 30.58 72.96C30.58 70.4857 32.5857 68.48 35.06 68.48H60.66C63.1342 68.48 65.14 66.4742 65.14 64C65.14 61.5257 63.1342 59.52 60.66 59.52H44.66C42.1857 59.52 40.18 57.5142 40.18 55.04C40.18 52.5657 42.1857 50.56 44.66 50.56H70.26C67.7857 50.56 65.78 48.5542 65.78 46.08C65.78 43.6057 67.7857 41.6 70.26 41.6H132.98Z" fill="#292929"/>
<path fill-rule="evenodd" clip-rule="evenodd" d="M98.85 40.96L104.803 84.3793L105.338 88.7353C105.51 90.1387 104.512 91.4159 103.109 91.5882L65.6305 96.19C64.2272 96.3623 62.95 95.3644 62.7776 93.9611L57.0076 46.9675C56.9214 46.2658 57.4204 45.6272 58.122 45.541C58.1265 45.5405 58.1309 45.54 58.1353 45.5395L61.2447 45.1907M63.759 44.9087L66.6947 44.5793L63.759 44.9087Z" fill="black"/>
<path d="M99.808 40.8286C99.7354 40.2995 99.2477 39.9294 98.7186 40.0019C98.1895 40.0745 97.8194 40.5622 97.8919 41.0913L99.808 40.8286ZM104.803 84.3793L105.763 84.2614L105.761 84.2479L104.803 84.3793ZM105.338 88.7353L106.298 88.6175L105.338 88.7353ZM103.109 91.5882L103.227 92.548L103.109 91.5882ZM65.6305 96.19L65.7484 97.1498L65.6305 96.19ZM62.7776 93.9611L63.7374 93.8433L62.7776 93.9611ZM58.1353 45.5395L58.2431 46.5004L58.1353 45.5395ZM61.3525 46.1516C61.8832 46.0921 62.2652 45.6136 62.2056 45.0829C62.1461 44.5522 61.6676 44.1702 61.1369 44.2297L61.3525 46.1516ZM63.6512 43.9477C63.1204 44.0072 62.7385 44.4857 62.798 45.0164C62.8575 45.5472 63.336 45.9291 63.8667 45.8696L63.6512 43.9477ZM66.8025 45.5403C67.3332 45.4808 67.7152 45.0023 67.6556 44.4715C67.5961 43.9408 67.1176 43.5589 66.5869 43.6184L66.8025 45.5403ZM97.8919 41.0913L103.845 84.5107L105.761 84.2479L99.808 40.8286L97.8919 41.0913ZM103.843 84.4971L104.378 88.8532L106.298 88.6175L105.763 84.2615L103.843 84.4971ZM104.378 88.8532C104.485 89.7264 103.864 90.5213 102.991 90.6285L103.227 92.548C105.16 92.3106 106.535 90.5509 106.298 88.6175L104.378 88.8532ZM102.991 90.6285L65.5127 95.2303L65.7484 97.1498L103.227 92.548L102.991 90.6285ZM65.5127 95.2303C64.6395 95.3375 63.8446 94.7165 63.7374 93.8433L61.8179 94.0789C62.0553 96.0123 63.815 97.3872 65.7484 97.1498L65.5127 95.2303ZM63.7374 93.8433L57.9673 46.8496L56.0478 47.0853L61.8179 94.0789L63.7374 93.8433ZM57.9673 46.8496C57.9463 46.678 58.0683 46.5219 58.2399 46.5008L58.0042 44.5813C56.7725 44.7325 55.8965 45.8536 56.0478 47.0853L57.9673 46.8496ZM58.2399 46.5008C58.241 46.5007 58.242 46.5005 58.2431 46.5004L58.0275 44.5785C58.0197 44.5794 58.012 44.5803 58.0042 44.5813L58.2399 46.5008ZM58.2431 46.5004L61.3525 46.1516L61.1369 44.2297L58.0275 44.5785L58.2431 46.5004ZM63.8667 45.8696L66.8025 45.5403L66.5869 43.6184L63.6512 43.9477L63.8667 45.8696Z" fill="#636363"/>
<path fill-rule="evenodd" clip-rule="evenodd" d="M97.2295 43.6923L102.618 83.0419L103.103 86.9896C103.259 88.2613 102.367 89.4174 101.11 89.5717L67.5471 93.6927C66.2904 93.847 65.1451 92.9411 64.9889 91.6693L59.8055 49.4535C59.7014 48.6054 60.3045 47.8335 61.1526 47.7294L65.0395 47.2521" fill="#292929"/>
<path d="M71.8644 32.967H100.265C100.829 32.967 101.37 33.1909 101.769 33.5896L110.059 41.875C110.459 42.274 110.683 42.8153 110.683 43.3798V82.6657C110.683 83.8406 109.731 84.793 108.556 84.793H71.8644C70.6895 84.793 69.737 83.8406 69.737 82.6657V35.0943C69.737 33.9194 70.6895 32.967 71.8644 32.967Z" fill="black" stroke="#636363" stroke-width="1.93396"/>
<path d="M100.77 33.5378V40.96C100.77 42.0204 101.63 42.88 102.69 42.88H107.768" stroke="#636363" stroke-width="1.93396" stroke-linecap="round" stroke-linejoin="round"/>
<path d="M76.02 75.52H92.66M76.02 42.88H92.66H76.02ZM76.02 50.56H103.54H76.02ZM76.02 58.88H103.54H76.02ZM76.02 67.2H103.54H76.02Z" stroke="#636363" stroke-width="1.93396" stroke-linecap="round" stroke-linejoin="round"/>
</svg>