<svg width="161" height="128" viewBox="0 0 161 128" fill="none" xmlns="http://www.w3.org/2000/svg">
<rect x="0.320801" width="160" height="128"/>
<path fill-rule="evenodd" clip-rule="evenodd" d="M132.801 41.5996C135.275 41.5996 137.281 43.6054 137.281 46.0796C137.281 48.5538 135.275 50.5596 132.801 50.5596H107.201C109.675 50.5596 111.681 52.5654 111.681 55.0396C111.681 57.5138 109.675 59.5196 107.201 59.5196H121.281C123.755 59.5196 125.761 61.5254 125.761 63.9996C125.761 66.4738 123.755 68.4796 121.281 68.4796H114.77C111.65 68.4796 109.121 70.4854 109.121 72.9596C109.121 74.6091 110.401 76.1024 112.961 77.4396C115.435 77.4396 117.441 79.4454 117.441 81.9196C117.441 84.3938 115.435 86.3996 112.961 86.3996H59.8409C57.3666 86.3996 55.3609 84.3938 55.3609 81.9196C55.3609 79.4454 57.3666 77.4396 59.8409 77.4396H34.8809C32.4066 77.4396 30.4009 75.4338 30.4009 72.9596C30.4009 70.4854 32.4066 68.4796 34.8809 68.4796H60.4809C62.9551 68.4796 64.9609 66.4738 64.9609 63.9996C64.9609 61.5254 62.9551 59.5196 60.4809 59.5196H44.4809C42.0066 59.5196 40.0009 57.5138 40.0009 55.0396C40.0009 52.5654 42.0066 50.5596 44.4809 50.5596H70.0809C67.6066 50.5596 65.6009 48.5538 65.6009 46.0796C65.6009 43.6054 67.6066 41.5996 70.0809 41.5996H132.801Z" fill="#F3F4F8"/>
<path fill-rule="evenodd" clip-rule="evenodd" d="M98.6708 40.9602L104.624 84.3795L105.159 88.7356C105.331 90.1389 104.333 91.4162 102.93 91.5885L65.4514 96.1903C64.048 96.3626 62.7708 95.3647 62.5984 93.9613L56.8284 46.9677C56.7422 46.2661 57.2412 45.6274 57.9428 45.5413C57.9473 45.5407 57.9517 45.5402 57.9561 45.5397L61.0655 45.1909M63.5798 44.9089L66.5155 44.5796L63.5798 44.9089Z" fill="white"/>
<path d="M99.6288 40.8288C99.5562 40.2997 99.0685 39.9296 98.5394 40.0022C98.0103 40.0747 97.6402 40.5625 97.7128 41.0916L99.6288 40.8288ZM104.624 84.3795L105.584 84.2617L105.582 84.2482L104.624 84.3795ZM62.5984 93.9613L63.5582 93.8435L62.5984 93.9613ZM57.9561 45.5397L58.0639 46.5007L58.0639 46.5007L57.9561 45.5397ZM61.1733 46.1519C61.704 46.0923 62.086 45.6138 62.0264 45.0831C61.9669 44.5524 61.4884 44.1704 60.9577 44.23L61.1733 46.1519ZM63.472 43.9479C62.9412 44.0075 62.5593 44.486 62.6188 45.0167C62.6783 45.5474 63.1568 45.9294 63.6875 45.8698L63.472 43.9479ZM66.6233 45.5405C67.154 45.481 67.536 45.0025 67.4764 44.4718C67.4169 43.9411 66.9384 43.5591 66.4077 43.6186L66.6233 45.5405ZM97.7128 41.0916L103.666 84.5109L105.582 84.2482L99.6288 40.8288L97.7128 41.0916ZM103.664 84.4974L104.199 88.8534L106.119 88.6177L105.584 84.2617L103.664 84.4974ZM104.199 88.8534C104.306 89.7267 103.685 90.5215 102.812 90.6287L103.048 92.5483C104.981 92.3109 106.356 90.5511 106.119 88.6177L104.199 88.8534ZM102.812 90.6287L65.3335 95.2305L65.5692 97.15L103.048 92.5483L102.812 90.6287ZM65.3335 95.2305C64.4603 95.3377 63.6654 94.7167 63.5582 93.8435L61.6387 94.0792C61.8761 96.0126 63.6358 97.3874 65.5692 97.15L65.3335 95.2305ZM63.5582 93.8435L57.7881 46.8499L55.8686 47.0856L61.6387 94.0792L63.5582 93.8435ZM57.7881 46.8499C57.7671 46.6783 57.8891 46.5221 58.0607 46.501L57.825 44.5815C56.5933 44.7327 55.7173 45.8538 55.8686 47.0856L57.7881 46.8499ZM58.0607 46.501C58.0618 46.5009 58.0628 46.5008 58.0639 46.5007L57.8483 44.5788C57.8405 44.5796 57.8328 44.5805 57.825 44.5815L58.0607 46.501ZM58.0639 46.5007L61.1733 46.1519L60.9577 44.23L57.8483 44.5788L58.0639 46.5007ZM63.6875 45.8698L66.6233 45.5405L66.4077 43.6186L63.472 43.9479L63.6875 45.8698ZM66.4077 43.6186L63.472 43.9479L63.6875 45.8698L66.6233 45.5405L66.4077 43.6186Z" fill="#DEE1E4"/>
<path fill-rule="evenodd" clip-rule="evenodd" d="M97.0505 43.6924L102.439 83.042L102.924 86.9896C103.08 88.2614 102.188 89.4174 100.931 89.5717L67.3682 93.6927C66.1115 93.847 64.9661 92.9412 64.81 91.6694L59.6265 49.4536C59.5224 48.6055 60.1255 47.8336 60.9736 47.7294L64.8605 47.2522" fill="#F3F4F8"/>
<path d="M69.5578 35.0943C69.5578 33.9194 70.5103 32.967 71.6852 32.967H100.086C100.65 32.967 101.191 33.1909 101.59 33.5896L109.88 41.875C110.28 42.274 110.504 42.8153 110.504 43.3798V82.6657C110.504 83.8406 109.551 84.793 108.376 84.793H71.6852C70.5103 84.793 69.5578 83.8406 69.5578 82.6657V35.0943Z" fill="white" stroke="#DEE1E4" stroke-width="1.93396"/>
<path d="M100.591 33.5371V40.9593C100.591 42.0197 101.45 42.8793 102.511 42.8793H107.588" stroke="#DEE1E4" stroke-width="1.93396" stroke-linecap="round" stroke-linejoin="round"/>
<path d="M75.8408 75.5209H92.4808M75.8408 42.8809H92.4808H75.8408ZM75.8408 50.5609H103.361H75.8408ZM75.8408 58.8809H103.361H75.8408ZM75.8408 67.2009H103.361H75.8408Z" stroke="#DEE1E4" stroke-width="1.93396" stroke-linecap="round" stroke-linejoin="round"/>
</svg>
