<svg width="160" height="128" viewBox="0 0 160 128" fill="none" xmlns="http://www.w3.org/2000/svg">
<rect width="160" height="128" fill="#FDFDFD"/>
<path fill-rule="evenodd" clip-rule="evenodd" d="M40.3209 85.7609H98.5609C98.8904 85.7609 99.2116 85.7254 99.5209 85.6578C99.8301 85.7254 100.151 85.7609 100.481 85.7609H133.761C136.235 85.7609 138.241 83.7552 138.241 81.2809C138.241 78.8067 136.235 76.8009 133.761 76.8009H129.921C127.447 76.8009 125.441 74.7952 125.441 72.3209C125.441 69.8467 127.447 67.8409 129.921 67.8409H142.081C144.555 67.8409 146.561 65.8352 146.561 63.3609C146.561 60.8867 144.555 58.8809 142.081 58.8809H128.001C130.475 58.8809 132.481 56.8752 132.481 54.4009C132.481 51.9267 130.475 49.9209 128.001 49.9209H87.0409C89.5151 49.9209 91.5209 47.9152 91.5209 45.4409C91.5209 42.9667 89.5151 40.9609 87.0409 40.9609H50.5609C48.0866 40.9609 46.0809 42.9667 46.0809 45.4409C46.0809 47.9152 48.0866 49.9209 50.5609 49.9209H24.9609C22.4866 49.9209 20.4809 51.9267 20.4809 54.4009C20.4809 56.8752 22.4866 58.8809 24.9609 58.8809H40.9609C43.4351 58.8809 45.4409 60.8867 45.4409 63.3609C45.4409 65.8352 43.4351 67.8409 40.9609 67.8409H15.3609C12.8866 67.8409 10.8809 69.8467 10.8809 72.3209C10.8809 74.7952 12.8866 76.8009 15.3609 76.8009H40.3209C37.8466 76.8009 35.8409 78.8067 35.8409 81.2809C35.8409 83.7552 37.8466 85.7609 40.3209 85.7609ZM144.641 85.7595C147.115 85.7595 149.121 83.7537 149.121 81.2795C149.121 78.8052 147.115 76.7995 144.641 76.7995C142.167 76.7995 140.161 78.8052 140.161 81.2795C140.161 83.7537 142.167 85.7595 144.641 85.7595Z" fill="#F3F4F8"/>
<path d="M106.881 94.7207H121.235M40.9608 94.7207H54.6914H40.9608ZM32.7227 94.7207H37.1208H32.7227ZM124.243 94.7207H126.081H124.243Z" stroke="#DEE1E4" stroke-width="1.93396" stroke-linecap="round" stroke-linejoin="round"/>
<path d="M62.7207 27.7147L69.8245 35.6847M96.0645 27.7147L88.9607 35.6847L96.0645 27.7147ZM79.3607 24.9609V35.6847V24.9609Z" stroke="#DEE1E4" stroke-width="1.93396" stroke-linecap="round" stroke-linejoin="round"/>
<path fill-rule="evenodd" clip-rule="evenodd" d="M59.3914 45.4395H99.4596L95.8714 50.8217L100.656 54.4099H58.1953L63.5776 50.8217L59.3914 45.4395Z" fill="#F3F4F8"/>
<rect x="56.9609" y="53.1191" width="45.44" height="48" rx="1.54717" fill="#FDFDFD"/>
<path fill-rule="evenodd" clip-rule="evenodd" d="M59.8945 79.3638V57.3729C59.8945 56.4669 60.6371 55.7324 61.5531 55.7324L100.578 96.7451C100.578 97.9531 99.6111 98.9324 98.4182 98.9324H62.0545C60.8616 98.9324 59.8945 97.9531 59.8945 96.7451V88.5724V86.3552V79.3638ZM59.8945 84.1118V81.6489V84.1118Z" fill="#F3F4F8"/>
<path d="M57.6016 79.6564V55.6066C57.6016 54.6157 58.4147 53.8125 59.4177 53.8125H100.969C101.622 53.8125 102.151 54.348 102.151 55.0086V98.665C102.151 99.9861 101.092 101.057 99.7861 101.057H59.9668C58.6605 101.057 57.6016 99.9861 57.6016 98.665V89.7272V87.3023M57.6016 84.8489V82.1554" stroke="#DEE1E4" stroke-width="1.93396" stroke-linecap="round"/>
<path d="M58.794 53.8125V46.6361C58.794 45.9755 59.2745 45.44 59.8673 45.44L99.5829 45.44C100.176 45.44 100.656 45.9755 100.656 46.6361V53.8125" stroke="#DEE1E4" stroke-width="1.93396"/>
<path d="M69.8568 66.3698C71.0128 66.3698 71.9499 65.4327 71.9499 64.2767C71.9499 63.1207 71.0128 62.1836 69.8568 62.1836C68.7008 62.1836 67.7637 63.1207 67.7637 64.2767C67.7637 65.4327 68.7008 66.3698 69.8568 66.3698Z" fill="#F3F4F8" stroke="#DEE1E4" stroke-width="1.93396" stroke-linecap="round"/>
<path d="M89.5912 66.3698C90.7472 66.3698 91.6843 65.4327 91.6843 64.2767C91.6843 63.1207 90.7472 62.1836 89.5912 62.1836C88.4352 62.1836 87.498 63.1207 87.498 64.2767C87.498 65.4327 88.4352 66.3698 89.5912 66.3698Z" fill="#F3F4F8" stroke="#DEE1E4" stroke-width="1.93396" stroke-linecap="round"/>
<path d="M89.2933 66.3709C89.2933 71.6555 85.0093 75.9395 79.7248 75.9395C74.4402 75.9395 70.1562 71.6555 70.1562 66.3709" stroke="#DEE1E4" stroke-width="1.93396" stroke-linecap="round"/>
<path d="M59.4275 46.0352L63.6377 50.1911C63.8892 50.4394 63.8919 50.8446 63.6435 51.0962C63.6006 51.1397 63.5516 51.1769 63.4981 51.2065L58.793 53.8115" stroke="#DEE1E4" stroke-width="1.93396" stroke-linecap="round"/>
<path d="M100.122 46.0781L96.0929 50.1872C95.8454 50.4396 95.8494 50.8448 96.1018 51.0923C96.1439 51.1336 96.1916 51.1689 96.2434 51.1971L101.035 53.8111" stroke="#DEE1E4" stroke-width="1.93396" stroke-linecap="round"/>
</svg>