<svg width="16" height="16" viewBox="0 0 16 16" fill="none" xmlns="http://www.w3.org/2000/svg">
<g id="Icon 3 - 16">
<path id="Icon" d="M4.66683 5.66591H8.00037M4.66683 7.99939H10.0005M4.66683 11.9996V13.5567C4.66683 13.912 4.66683 14.0896 4.73965 14.1808C4.80299 14.2602 4.89902 14.3063 5.00054 14.3062C5.11727 14.3061 5.25598 14.1951 5.53339 13.9732L7.12379 12.7009C7.44868 12.441 7.61112 12.311 7.79201 12.2186C7.9525 12.1366 8.12333 12.0767 8.29986 12.0405C8.49884 11.9996 8.70687 11.9996 9.12293 11.9996H10.8005C11.9207 11.9996 12.4808 11.9996 12.9086 11.7816C13.285 11.5899 13.591 11.2839 13.7827 10.9075C14.0007 10.4797 14.0007 9.91961 14.0007 8.79944V5.19922C14.0007 4.07905 14.0007 3.51896 13.7827 3.09111C13.591 2.71476 13.285 2.40878 12.9086 2.21702C12.4808 1.99902 11.9207 1.99902 10.8005 1.99902H5.2002C4.08002 1.99902 3.51994 1.99902 3.09209 2.21702C2.71574 2.40878 2.40976 2.71476 2.218 3.09111C2 3.51896 2 4.07905 2 5.19922V9.3328C2 9.95282 2 10.2628 2.06815 10.5172C2.2531 11.2074 2.79223 11.7465 3.48245 11.9315C3.7368 11.9996 4.04681 11.9996 4.66683 11.9996Z" stroke="#0152F8" stroke-width="1.5" stroke-linecap="round" stroke-linejoin="round"/>
</g>
</svg>
