<svg width="16" height="16" viewBox="0 0 16 16" fill="none" xmlns="http://www.w3.org/2000/svg">
<g id="Icon 3 - 16">
<path id="Icon" d="M1.33398 11.3339V11.2338C1.33398 11.0228 1.33398 10.9173 1.35012 10.8145C1.36445 10.7232 1.38823 10.6337 1.42107 10.5473C1.45805 10.4501 1.5104 10.3585 1.61508 10.1753L4.00081 6.00024M1.33398 11.3339C1.33398 12.8068 2.52796 14.0007 4.00081 14.0007C5.47366 14.0007 6.66764 12.8068 6.66764 11.3339M1.33398 11.3339V11.2006C1.33398 11.0139 1.33398 10.9205 1.37032 10.8492C1.40228 10.7865 1.45327 10.7355 1.516 10.7035C1.58731 10.6672 1.68065 10.6672 1.86735 10.6672H6.13428C6.32097 10.6672 6.41432 10.6672 6.48563 10.7035C6.54835 10.7355 6.59935 10.7865 6.63131 10.8492C6.66764 10.9205 6.66764 11.0139 6.66764 11.2006V11.3339M4.00081 6.00024L6.38655 10.1753C6.49123 10.3585 6.54358 10.4501 6.58056 10.5473C6.6134 10.6337 6.63717 10.7232 6.6515 10.8145C6.66764 10.9173 6.66764 11.0228 6.66764 11.2338V11.3339M4.00081 6.00024L12.0013 4.66683M9.33447 10.0005V9.90035C9.33447 9.68935 9.33447 9.58384 9.35061 9.48106C9.36494 9.38979 9.38872 9.30027 9.42155 9.21392C9.45854 9.11667 9.51088 9.02506 9.61557 8.84186L12.0013 4.66683M9.33447 10.0005C9.33447 11.4733 10.5285 12.6673 12.0013 12.6673C13.4742 12.6673 14.6681 11.4733 14.6681 10.0005M9.33447 10.0005V9.86715C9.33447 9.68045 9.33447 9.5871 9.37081 9.51579C9.40277 9.45307 9.45376 9.40207 9.51649 9.37011C9.5878 9.33378 9.68114 9.33378 9.86784 9.33378H14.1348C14.3215 9.33378 14.4148 9.33378 14.4861 9.37011C14.5488 9.40207 14.5998 9.45307 14.6318 9.51579C14.6681 9.5871 14.6681 9.68045 14.6681 9.86715V10.0005M12.0013 4.66683L14.387 8.84186C14.4917 9.02506 14.5441 9.11667 14.5811 9.21392C14.6139 9.30027 14.6377 9.38979 14.652 9.48106C14.6681 9.58384 14.6681 9.68935 14.6681 9.90035V10.0005M8.00106 2V5.33354" stroke="#0152F8" stroke-width="1.5" stroke-linecap="round" stroke-linejoin="round"/>
</g>
</svg>
