<svg width="16" height="16" viewBox="0 0 16 16" fill="none" xmlns="http://www.w3.org/2000/svg">
<g id="Icon 3 - 17">
<path id="Icon" d="M13.3333 14.0007C13.3333 13.0703 13.3333 12.6051 13.2185 12.2265C12.9599 11.3742 12.293 10.7072 11.4406 10.4487C11.0621 10.3338 10.5969 10.3338 9.66644 10.3338H6.33291C5.40247 10.3338 4.93726 10.3338 4.5587 10.4487C3.70638 10.7072 3.0394 11.3742 2.78085 12.2265C2.66602 12.6051 2.66602 13.0703 2.66602 14.0007M10.9999 5.00018C10.9999 6.65714 9.65663 8.00037 7.99967 8.00037C6.34272 8.00037 4.99949 6.65714 4.99949 5.00018C4.99949 3.34323 6.34272 2 7.99967 2C9.65663 2 10.9999 3.34323 10.9999 5.00018Z" stroke="#0152F8" stroke-width="1.5" stroke-linecap="round" stroke-linejoin="round"/>
</g>
</svg>
