<svg width="16" height="16" viewBox="0 0 16 16" fill="none" xmlns="http://www.w3.org/2000/svg">
<g id="Icons - Brands 2">
<g id="Icon">
<path d="M5.92323 4.77958C6.04521 4.78284 6.18043 4.78944 6.30909 5.07503C6.39441 5.26515 6.53813 5.61515 6.6552 5.90026C6.7463 6.12212 6.82127 6.30468 6.84003 6.34205C6.8829 6.42738 6.90928 6.52585 6.85322 6.64071C6.84661 6.65426 6.84037 6.66722 6.83436 6.6797C6.78939 6.77303 6.75738 6.83945 6.68176 6.9263C6.65066 6.96199 6.61827 7.00114 6.58599 7.04014C6.52923 7.10873 6.47284 7.17687 6.4245 7.22502C6.33876 7.3103 6.24969 7.40228 6.34862 7.57294C6.4476 7.74361 6.79388 8.30492 7.30505 8.7579C7.8546 9.24716 8.33248 9.45335 8.57404 9.55757C8.62094 9.57781 8.65893 9.5942 8.68681 9.60807C8.85834 9.69341 8.96055 9.68027 9.05948 9.56541C9.15846 9.45048 9.4882 9.06643 9.60366 8.89577C9.71579 8.7251 9.83119 8.75137 9.98952 8.81043C10.1478 8.8695 10.9921 9.28309 11.1635 9.36842C11.1974 9.3853 11.2291 9.4005 11.2585 9.41459C11.3778 9.47181 11.4589 9.5107 11.4933 9.56868C11.5362 9.64087 11.5362 9.98226 11.3944 10.3827C11.2493 10.7832 10.5501 11.1672 10.2335 11.1968C10.2036 11.1996 10.1737 11.2032 10.143 11.2069C9.85289 11.242 9.48457 11.2866 8.17235 10.77C6.55543 10.1342 5.48808 8.55661 5.27229 8.23765C5.25525 8.21247 5.24352 8.19514 5.23725 8.18673L5.2336 8.18184C5.13542 8.05047 4.53479 7.24679 4.53479 6.41758C4.53479 5.62422 4.9256 5.21118 5.10386 5.02279C5.11516 5.01085 5.1256 4.99981 5.13504 4.98964C5.29331 4.81897 5.47803 4.77631 5.59344 4.77631C5.7089 4.77631 5.82431 4.77631 5.92323 4.77958Z" fill="#25D366"/>
<path fill-rule="evenodd" clip-rule="evenodd" d="M1.45539 14.2206C1.40084 14.4186 1.58117 14.6014 1.77987 14.5495L4.85143 13.7472C5.821 14.2724 6.9126 14.5514 8.02402 14.5514H8.02731C11.6846 14.5514 14.6659 11.5873 14.6659 7.94385C14.6659 6.17791 13.9766 4.51697 12.7235 3.26961C11.4703 2.02232 9.80484 1.33301 8.02725 1.33301C4.36998 1.33301 1.38867 4.29704 1.38867 7.94058C1.38826 9.09967 1.6942 10.2385 2.27579 11.2427L1.45539 14.2206ZM3.23988 11.5083C3.31109 11.2498 3.27552 10.9735 3.14114 10.7415C2.6477 9.88952 2.38832 8.92334 2.38867 7.94058C2.38867 4.85406 4.91752 2.33301 8.02725 2.33301C9.54052 2.33301 10.9523 2.91766 12.018 3.97838C13.0825 5.03792 13.6659 6.44375 13.6659 7.94385C13.6659 11.0303 11.1371 13.5514 8.02731 13.5514H8.02402C7.07968 13.5514 6.15169 13.3142 5.32771 12.8679C5.10469 12.7471 4.84411 12.7155 4.59871 12.7796L2.75711 13.2607L3.23988 11.5083Z" fill="#25D366"/>
</g>
</g>
</svg>
