<svg width="24" height="24" viewBox="0 0 24 24" fill="none" xmlns="http://www.w3.org/2000/svg">
<path d="M9.14393 3.83049C11.0225 3.38984 12.9775 3.38984 14.8561 3.83049C17.4925 4.44891 19.5511 6.50748 20.1695 9.14393C20.6102 11.0225 20.6102 12.9775 20.1695 14.8561C19.5511 17.4925 17.4925 19.5511 14.8561 20.1695C12.9775 20.6102 11.0225 20.6102 9.14394 20.1695C6.50748 19.5511 4.44892 17.4925 3.83049 14.8561C3.38984 12.9775 3.38984 11.0225 3.83049 9.14393C4.44892 6.50748 6.50748 4.44891 9.14393 3.83049ZM12.5954 10.4586C13.1034 10.2309 13.4573 9.72083 13.4573 9.12812C13.4573 8.32328 12.8048 7.67083 12 7.67083C11.1951 7.67083 10.5427 8.32328 10.5427 9.12812C10.5427 9.72083 10.8965 10.2309 11.4045 10.4586C11.033 10.6672 10.782 11.0649 10.782 11.5213V15.3505C10.782 16.0231 11.3273 16.5684 12 16.5684C12.6726 16.5684 13.2179 16.0231 13.2179 15.3505V11.5213C13.2179 11.0649 12.9669 10.6672 12.5954 10.4586Z" fill="#0D6EDE" stroke="#0D6EDE" stroke-linecap="round" stroke-linejoin="round"/>
</svg>
