<svg width="24" height="24" viewBox="0 0 24 24" fill="none" xmlns="http://www.w3.org/2000/svg">
<path fill-rule="evenodd" clip-rule="evenodd" d="M8.95043 3.35288C6.17301 4.00437 4.00437 6.17301 3.35288 8.95043C2.88237 10.9563 2.88237 13.0437 3.35288 15.0496C4.00437 17.827 6.17301 19.9956 8.95044 20.6471C10.9563 21.1176 13.0437 21.1176 15.0496 20.6471C17.827 19.9956 19.9956 17.827 20.6471 15.0496C21.1176 13.0437 21.1176 10.9563 20.6471 8.95044C19.9956 6.17301 17.827 4.00437 15.0496 3.35288C13.0437 2.88237 10.9563 2.88237 8.95043 3.35288ZM16.5483 9.51174C16.8309 9.20893 16.8146 8.73433 16.5117 8.45171C16.2089 8.16908 15.7343 8.18545 15.4517 8.48826L10.8905 13.3753L8.53033 11.0151C8.23744 10.7222 7.76256 10.7222 7.46967 11.0151C7.17678 11.308 7.17678 11.7829 7.46967 12.0758L10.3788 14.9849C10.5226 15.1287 10.7187 15.2079 10.922 15.2044C11.1254 15.2009 11.3186 15.115 11.4574 14.9663L16.5483 9.51174Z" fill="#27825C"/>
</svg>
