<svg width="25" height="24" viewBox="0 0 25 24" fill="none" xmlns="http://www.w3.org/2000/svg">
<g clip-path="url(#clip0_10088_6864)">
<path fill-rule="evenodd" clip-rule="evenodd" d="M19.3062 1.5H5.69384C3.65379 1.5 2 3.15379 2 5.19384V18.8062C2 20.8462 3.65379 22.5 5.69384 22.5H19.3062C21.3462 22.5 23 20.8462 23 18.8062V5.19384C23 3.15379 21.3462 1.5 19.3062 1.5ZM5.69384 0C2.82536 0 0.5 2.32536 0.5 5.19384V18.8062C0.5 21.6746 2.82536 24 5.69384 24H19.3062C22.1746 24 24.5 21.6746 24.5 18.8062V5.19384C24.5 2.32536 22.1746 0 19.3062 0H5.69384Z" fill="black"/>
<path d="M13.2511 16.5C13.2113 16.5 13.1784 16.4689 13.1762 16.4292L13.1512 15.9852C13.149 15.9467 13.1764 15.9129 13.2145 15.9069L14.0138 15.7823C14.0682 15.7738 14.095 15.7117 14.0622 15.6675C14.0006 15.5848 13.9307 15.4994 13.8523 15.4114C13.7539 15.2785 13.6337 15.1405 13.4916 14.9974L11.0056 12.3533C10.9915 12.3382 10.9717 12.3296 10.951 12.3296H10.3699C10.3285 12.3296 10.2949 12.2961 10.2949 12.2546V11.8211C10.2949 11.7866 10.3184 11.7565 10.3519 11.7483L11.1441 11.5525C11.157 11.5494 11.1688 11.5429 11.1783 11.5337L14.4379 8.38143C14.4814 8.33938 14.4598 8.26579 14.4005 8.25397L13.6047 8.09536C13.568 8.08805 13.5424 8.05489 13.5445 8.01759L13.5696 7.57079C13.5718 7.53106 13.6047 7.5 13.6445 7.5H16.6664C16.7063 7.5 16.7392 7.53119 16.7413 7.571L16.7667 8.04597C16.7688 8.08425 16.7416 8.11792 16.7038 8.12402L15.841 8.26315C15.8269 8.26541 15.8138 8.27161 15.8032 8.28102L12.0135 11.6342C11.9622 11.6796 11.882 11.6381 11.8892 11.5701L11.9007 11.4627C11.9075 11.3993 11.9853 11.3727 12.0294 11.4188L15.049 14.5681C15.2348 14.7521 15.3933 14.9208 15.5244 15.0741C15.6665 15.2172 15.7922 15.345 15.9015 15.4574C16.0038 15.5531 16.0917 15.6353 16.1653 15.7041C16.175 15.7132 16.187 15.7196 16.2001 15.7225L16.9413 15.8889C16.9755 15.8966 16.9998 15.927 16.9998 15.9621V16.425C16.9998 16.4664 16.9662 16.5 16.9248 16.5H13.2511ZM8.13433 16.5C8.09536 16.5 8.06288 16.4701 8.0596 16.4313L8.02177 15.9832C8.0186 15.9456 8.04386 15.9114 8.08076 15.9035L8.97311 15.712C8.99972 15.7063 9.02116 15.6866 9.02576 15.6598C9.04291 15.5597 9.05612 15.3491 9.0654 15.0281C9.07633 14.6499 9.08179 14.1235 9.08179 13.4489V10.5664C9.08179 10.1065 9.07633 9.71806 9.0654 9.40119C9.0654 9.07411 9.05993 8.81857 9.049 8.63458C9.049 8.48709 9.04198 8.38558 9.02793 8.33005C9.0225 8.30858 9.00371 8.29463 8.98204 8.29006L8.06463 8.09631C8.02761 8.08849 8.00221 8.05432 8.0054 8.01662L8.04321 7.56869C8.04648 7.52985 8.07896 7.5 8.11794 7.5H11.4699C11.5097 7.5 11.5426 7.53106 11.5448 7.57079L11.57 8.01855C11.5721 8.05543 11.547 8.08834 11.5108 8.09609L10.602 8.29117C10.5837 8.2951 10.5674 8.30577 10.5608 8.3233C10.5432 8.37042 10.5256 8.46396 10.508 8.60392C10.4971 8.77768 10.4862 9.02811 10.4752 9.3552C10.4752 9.67206 10.4752 10.0758 10.4752 10.5664V13.4489C10.4752 14.1235 10.4807 14.6499 10.4916 15.0281C10.5097 15.3405 10.524 15.5483 10.5346 15.6515C10.5378 15.6825 10.5609 15.707 10.5914 15.7136L11.4763 15.9035C11.5132 15.9114 11.5384 15.9456 11.5353 15.9832L11.4974 16.4313C11.4941 16.4701 11.4617 16.5 11.4227 16.5H8.13433Z" fill="black"/>
<path fill-rule="evenodd" clip-rule="evenodd" d="M13.5783 15.5468L13.1683 15.6107C12.9777 15.6404 12.8408 15.8097 12.8516 16.0023L12.8766 16.4463C12.8878 16.6449 13.0521 16.8002 13.251 16.8002H16.9248C17.1319 16.8002 17.2998 16.6323 17.2998 16.4252V15.9623C17.2998 15.7868 17.1781 15.6348 17.0069 15.5964L16.3254 15.4434L16.1116 15.2434C16.0045 15.1333 15.8823 15.0091 15.745 14.8707C15.6094 14.7128 15.4484 14.5418 15.2628 14.3579L12.5665 11.5457L15.9531 8.54913L16.7515 8.42039C16.9407 8.38987 17.0765 8.22156 17.0663 8.03015L17.0409 7.55518C17.0302 7.35613 16.8657 7.2002 16.6664 7.2002H13.6445C13.4455 7.2002 13.2812 7.35552 13.27 7.55413L13.2449 8.00093C13.2344 8.18745 13.3628 8.35325 13.546 8.38976L13.9207 8.46445L11.0133 11.276L10.7752 11.3349V9.36097C10.7858 9.0432 10.7964 8.80047 10.8068 8.63235C10.8106 8.6025 10.8143 8.57571 10.8179 8.55184L11.5738 8.38961C11.7544 8.35084 11.8799 8.18632 11.8695 8.00189L11.8443 7.55413C11.8331 7.35552 11.6688 7.2002 11.4699 7.2002H8.1179C7.92302 7.2002 7.76062 7.34946 7.74423 7.54365L7.70642 7.99158C7.69051 8.18009 7.81751 8.35094 8.00261 8.39003L8.74794 8.54744C8.74861 8.57349 8.74897 8.60255 8.74897 8.63478V8.64368L8.7495 8.65257C8.7599 8.82778 8.76536 9.07646 8.76536 9.40139L8.76554 9.41173C8.77631 9.724 8.78175 10.1087 8.78175 10.5666V13.4491C8.78175 14.1227 8.77629 14.6457 8.76549 15.0196C8.76 15.2094 8.75326 15.3526 8.74602 15.4541L8.01777 15.6104C7.83326 15.65 7.70692 15.8205 7.7228 16.0086L7.76063 16.4567C7.77702 16.6509 7.93942 16.8002 8.1343 16.8002H11.4227C11.6175 16.8002 11.7799 16.6509 11.7963 16.4567L11.8342 16.0086C11.85 15.8205 11.7237 15.65 11.5392 15.6104L10.8193 15.4559C10.8114 15.348 10.8021 15.2017 10.7913 15.0153C10.7806 14.6417 10.7752 14.1201 10.7752 13.4491V12.6298H10.8537L13.273 15.2031L13.2787 15.209C13.3966 15.3277 13.4961 15.4403 13.5783 15.5468ZM13.923 15.493C13.9241 15.4943 13.9251 15.4955 13.9262 15.4967C13.9444 15.5183 13.9621 15.5397 13.9792 15.5609C14.0084 15.597 14.036 15.6326 14.0621 15.6677C14.095 15.7119 14.0682 15.774 14.0138 15.7825L13.2145 15.9071C13.1764 15.913 13.149 15.9469 13.1511 15.9854L13.1761 16.4294C13.1784 16.4691 13.2112 16.5002 13.251 16.5002H16.9248C16.9662 16.5002 16.9998 16.4666 16.9998 16.4252V15.9623C16.9998 15.9272 16.9755 15.8968 16.9412 15.8891L16.2 15.7227C16.187 15.7198 16.175 15.7134 16.1652 15.7043L15.9014 15.4576C15.7921 15.3452 15.6665 15.2174 15.5244 15.0743C15.3932 14.921 15.2348 14.7523 15.049 14.5683L12.1338 11.5279L15.8032 8.28122C15.8138 8.2718 15.8269 8.2656 15.8409 8.26334L16.7037 8.12421C16.7416 8.11811 16.7687 8.08445 16.7667 8.04617L16.7413 7.57119C16.7392 7.53138 16.7063 7.5002 16.6664 7.5002H13.6445C13.6047 7.5002 13.5718 7.53126 13.5696 7.57098L13.5444 8.01778C13.5423 8.05509 13.568 8.08825 13.6047 8.09555L14.4004 8.25416C14.4597 8.26599 14.4814 8.33957 14.4379 8.38163L11.1783 11.5338C11.1687 11.543 11.157 11.5496 11.1441 11.5527L10.4752 11.718V9.35539C10.4861 9.0283 10.4971 8.77788 10.508 8.60411C10.5256 8.46416 10.5432 8.37062 10.5608 8.32349C10.5673 8.30596 10.5837 8.29529 10.602 8.29136L11.5108 8.09629C11.5469 8.08853 11.572 8.05563 11.57 8.01874L11.5448 7.57098C11.5425 7.53126 11.5097 7.5002 11.4699 7.5002H8.1179C8.07893 7.5002 8.04645 7.53005 8.04317 7.56889L8.00536 8.01682C8.00218 8.05452 8.02758 8.08869 8.0646 8.09651L8.982 8.29025C9.00367 8.29483 9.02247 8.30878 9.0279 8.33024C9.04194 8.38578 9.04897 8.48729 9.04897 8.63478C9.0599 8.81876 9.06536 9.0743 9.06536 9.40139C9.07629 9.71825 9.08175 10.1067 9.08175 10.5666V13.4491C9.08175 14.1237 9.07629 14.6501 9.06536 15.0283C9.05608 15.3493 9.04287 15.5599 9.02572 15.66C9.02112 15.6868 8.99968 15.7065 8.97307 15.7122L8.08073 15.9037C8.04383 15.9116 8.01856 15.9457 8.02173 15.9834L8.05956 16.4315C8.06284 16.4703 8.09532 16.5002 8.1343 16.5002H11.4227C11.4616 16.5002 11.4941 16.4703 11.4974 16.4315L11.5352 15.9834C11.5384 15.9457 11.5131 15.9116 11.4762 15.9037L10.5914 15.7138C10.5609 15.7072 10.5378 15.6827 10.5346 15.6517C10.524 15.5485 10.5096 15.3407 10.4916 15.0283C10.4807 14.6501 10.4752 14.1237 10.4752 13.4491V12.3298H10.951C10.9717 12.3298 10.9914 12.3384 11.0056 12.3535L13.4916 14.9976C13.6337 15.1407 13.7539 15.2787 13.8522 15.4116C13.8767 15.439 13.9003 15.4661 13.923 15.493Z" fill="black"/>
</g>
<defs>
<clipPath id="clip0_10088_6864">
<rect width="24" height="24" fill="white" transform="translate(0.5)"/>
</clipPath>
</defs>
</svg>
