<svg width="25" height="24" viewBox="0 0 25 24" fill="none" xmlns="http://www.w3.org/2000/svg">
<g clip-path="url(#clip0_5942_10782)">
<path d="M0.5 5.19384C0.5 2.32536 2.82536 0 5.69384 0H19.3062C22.1746 0 24.5 2.32536 24.5 5.19384V18.8062C24.5 21.6746 22.1746 24 19.3062 24H5.69384C2.82536 24 0.5 21.6746 0.5 18.8062V5.19384Z" fill="black"/>
<path d="M13.2508 16.5C13.211 16.5 13.1782 16.4689 13.1759 16.4292L13.1509 15.9852C13.1488 15.9467 13.1762 15.9129 13.2143 15.9069L14.0136 15.7823C14.068 15.7738 14.0948 15.7117 14.0619 15.6675C14.0004 15.5848 13.9304 15.4994 13.852 15.4114C13.7537 15.2785 13.6335 15.1405 13.4914 14.9974L11.0054 12.3533C10.9912 12.3382 10.9715 12.3296 10.9508 12.3296H10.3697C10.3282 12.3296 10.2947 12.2961 10.2947 12.2546V11.8211C10.2947 11.7866 10.3182 11.7565 10.3517 11.7483L11.1439 11.5525C11.1567 11.5494 11.1685 11.5429 11.178 11.5337L14.4377 8.38143C14.4812 8.33938 14.4595 8.26579 14.4002 8.25397L13.6044 8.09536C13.5678 8.08805 13.5421 8.05489 13.5442 8.01759L13.5694 7.57079C13.5716 7.53106 13.6045 7.5 13.6442 7.5H16.6662C16.7061 7.5 16.739 7.53119 16.7411 7.571L16.7665 8.04597C16.7685 8.08425 16.7414 8.11792 16.7035 8.12402L15.8407 8.26315C15.8267 8.26541 15.8136 8.27161 15.803 8.28102L12.0133 11.6342C11.962 11.6796 11.8817 11.6381 11.889 11.5701L11.9005 11.4627C11.9073 11.3993 11.9851 11.3727 12.0292 11.4188L15.0488 14.5681C15.2346 14.7521 15.393 14.9208 15.5242 15.0741C15.6662 15.2172 15.7919 15.345 15.9012 15.4574C16.0035 15.5531 16.0914 15.6353 16.165 15.7041C16.1748 15.7132 16.1868 15.7196 16.1998 15.7225L16.941 15.8889C16.9752 15.8966 16.9996 15.927 16.9996 15.9621V16.425C16.9996 16.4664 16.966 16.5 16.9246 16.5H13.2508ZM8.13409 16.5C8.09511 16.5 8.06263 16.4701 8.05936 16.4313L8.02153 15.9832C8.01835 15.9456 8.04362 15.9114 8.08052 15.9035L8.97287 15.712C8.99948 15.7063 9.02091 15.6866 9.02551 15.6598C9.04266 15.5597 9.05588 15.3491 9.06515 15.0281C9.07608 14.6499 9.08155 14.1235 9.08155 13.4489V10.5664C9.08155 10.1065 9.07608 9.71806 9.06515 9.40119C9.06515 9.07411 9.05969 8.81857 9.04876 8.63458C9.04876 8.48709 9.04174 8.38558 9.02769 8.33005C9.02226 8.30858 9.00346 8.29463 8.9818 8.29006L8.06439 8.09631C8.02737 8.08849 8.00197 8.05432 8.00515 8.01662L8.04296 7.56869C8.04624 7.52985 8.07872 7.5 8.1177 7.5H11.4697C11.5095 7.5 11.5423 7.53106 11.5445 7.57079L11.5697 8.01855C11.5718 8.05543 11.5467 8.08834 11.5106 8.09609L10.6018 8.29117C10.5835 8.2951 10.5671 8.30577 10.5606 8.3233C10.543 8.37042 10.5254 8.46396 10.5078 8.60392C10.4968 8.77768 10.4859 9.02811 10.475 9.3552C10.475 9.67206 10.475 10.0758 10.475 10.5664V13.4489C10.475 14.1235 10.4805 14.6499 10.4914 15.0281C10.5094 15.3405 10.5238 15.5483 10.5344 15.6515C10.5375 15.6825 10.5607 15.707 10.5912 15.7136L11.476 15.9035C11.5129 15.9114 11.5382 15.9456 11.535 15.9832L11.4972 16.4313C11.4939 16.4701 11.4614 16.5 11.4224 16.5H8.13409Z" fill="white"/>
<path fill-rule="evenodd" clip-rule="evenodd" d="M13.5783 15.5466L13.1683 15.6106C12.9777 15.6403 12.8408 15.8096 12.8516 16.0022L12.8766 16.4461C12.8878 16.6447 13.0521 16.8001 13.251 16.8001H16.9248C17.1319 16.8001 17.2998 16.6322 17.2998 16.4251V15.9621C17.2998 15.7867 17.1781 15.6347 17.0069 15.5963L16.3254 15.4433L16.1116 15.2432C16.0045 15.1332 15.8823 15.009 15.745 14.8706C15.6094 14.7127 15.4484 14.5416 15.2628 14.3578L12.5665 11.5455L15.9531 8.54901L16.7515 8.42027C16.9407 8.38975 17.0765 8.22144 17.0663 8.03003L17.0409 7.55505C17.0302 7.35601 16.8657 7.20007 16.6664 7.20007H13.6445C13.4455 7.20007 13.2812 7.3554 13.27 7.554L13.2449 8.00081C13.2344 8.18733 13.3628 8.35312 13.546 8.38964L13.9207 8.46432L11.0133 11.2759L10.7752 11.3347V9.36085C10.7858 9.04308 10.7964 8.80034 10.8068 8.63223C10.8106 8.60238 10.8143 8.57559 10.8179 8.55172L11.5738 8.38948C11.7544 8.35072 11.8799 8.1862 11.8695 8.00177L11.8443 7.554C11.8331 7.35539 11.6688 7.20007 11.4699 7.20007H8.1179C7.92302 7.20007 7.76062 7.34934 7.74423 7.54353L7.70642 7.99146C7.69051 8.17997 7.81751 8.35082 8.00261 8.38991L8.74794 8.54731C8.74861 8.57336 8.74897 8.60243 8.74897 8.63466V8.64356L8.7495 8.65244C8.7599 8.82766 8.76536 9.07633 8.76536 9.40127L8.76554 9.41161C8.77631 9.72388 8.78175 10.1086 8.78175 10.5665V13.449C8.78175 14.1225 8.77629 14.6456 8.76549 15.0195C8.76 15.2092 8.75326 15.3525 8.74602 15.454L8.01777 15.6103C7.83326 15.6499 7.70692 15.8204 7.7228 16.0085L7.76063 16.4566C7.77702 16.6508 7.93942 16.8001 8.1343 16.8001H11.4227C11.6175 16.8001 11.7799 16.6508 11.7963 16.4566L11.8342 16.0085C11.85 15.8204 11.7237 15.6499 11.5392 15.6103L10.8193 15.4557C10.8114 15.3479 10.8021 15.2016 10.7913 15.0152C10.7806 14.6416 10.7752 14.12 10.7752 13.449V12.6297H10.8537L13.273 15.203L13.2787 15.2089C13.3966 15.3276 13.4961 15.4402 13.5783 15.5466ZM13.923 15.4929C13.9241 15.4941 13.9251 15.4954 13.9262 15.4966C13.9444 15.5182 13.9621 15.5396 13.9792 15.5608C14.0084 15.5969 14.036 15.6325 14.0621 15.6676C14.095 15.7118 14.0682 15.7739 14.0138 15.7824L13.2145 15.907C13.1764 15.9129 13.149 15.9468 13.1511 15.9853L13.1761 16.4293C13.1784 16.469 13.2112 16.5001 13.251 16.5001H16.9248C16.9662 16.5001 16.9998 16.4665 16.9998 16.4251V15.9621C16.9998 15.9271 16.9755 15.8967 16.9412 15.889L16.2 15.7226C16.187 15.7197 16.175 15.7133 16.1652 15.7042L15.9014 15.4575C15.7921 15.345 15.6665 15.2173 15.5244 15.0742C15.3932 14.9209 15.2348 14.7522 15.049 14.5682L12.1338 11.5278L15.8032 8.2811C15.8138 8.27168 15.8269 8.26548 15.8409 8.26322L16.7037 8.12409C16.7416 8.11799 16.7687 8.08433 16.7667 8.04605L16.7413 7.57107C16.7392 7.53126 16.7063 7.50007 16.6664 7.50007H13.6445C13.6047 7.50007 13.5718 7.53114 13.5696 7.57086L13.5444 8.01766C13.5423 8.05497 13.568 8.08813 13.6047 8.09543L14.4004 8.25404C14.4597 8.26586 14.4814 8.33945 14.4379 8.38151L11.1783 11.5337C11.1687 11.5429 11.157 11.5494 11.1441 11.5526L10.4752 11.7179V9.35527C10.4861 9.02818 10.4971 8.77776 10.508 8.60399C10.5256 8.46404 10.5432 8.3705 10.5608 8.32337C10.5673 8.30584 10.5837 8.29517 10.602 8.29124L11.5108 8.09617C11.5469 8.08841 11.572 8.05551 11.57 8.01862L11.5448 7.57086C11.5425 7.53114 11.5097 7.50007 11.4699 7.50007H8.1179C8.07893 7.50007 8.04645 7.52993 8.04317 7.56876L8.00536 8.01669C8.00218 8.0544 8.02758 8.08857 8.0646 8.09638L8.982 8.29013C9.00367 8.29471 9.02247 8.30865 9.0279 8.33012C9.04194 8.38565 9.04897 8.48716 9.04897 8.63466C9.0599 8.81864 9.06536 9.07418 9.06536 9.40127C9.07629 9.71813 9.08175 10.1065 9.08175 10.5665V13.449C9.08175 14.1236 9.07629 14.65 9.06536 15.0282C9.05608 15.3492 9.04287 15.5598 9.02572 15.6598C9.02112 15.6867 8.99968 15.7063 8.97307 15.7121L8.08073 15.9036C8.04383 15.9115 8.01856 15.9456 8.02173 15.9832L8.05956 16.4314C8.06284 16.4702 8.09532 16.5001 8.1343 16.5001H11.4227C11.4616 16.5001 11.4941 16.4702 11.4974 16.4314L11.5352 15.9832C11.5384 15.9456 11.5131 15.9115 11.4762 15.9036L10.5914 15.7137C10.5609 15.7071 10.5378 15.6825 10.5346 15.6515C10.524 15.5484 10.5096 15.3406 10.4916 15.0282C10.4807 14.65 10.4752 14.1236 10.4752 13.449V12.3297H10.951C10.9717 12.3297 10.9914 12.3383 11.0056 12.3533L13.4916 14.9975C13.6337 15.1406 13.7539 15.2786 13.8522 15.4115C13.8767 15.4389 13.9003 15.466 13.923 15.4929Z" fill="white"/>
</g>
<defs>
<clipPath id="clip0_5942_10782">
<rect width="24" height="24" fill="white" transform="translate(0.5)"/>
</clipPath>
</defs>
</svg>
