<svg width="24" height="24" viewBox="0 0 24 24" fill="#181818" xmlns="http://www.w3.org/2000/svg">
<rect width="24" height="24" rx="8" fill="#23CC67"/>
<path fill-rule="evenodd" clip-rule="evenodd" d="M10.0198 6.22889C11.3223 5.92338 12.6777 5.92338 13.9802 6.22889C15.8611 6.67008 17.3297 8.1387 17.7709 10.0196C18.0764 11.322 18.0764 12.6775 17.7709 13.9799C17.3297 15.8608 15.8611 17.3294 13.9802 17.7706C12.6777 18.0761 11.3223 18.0761 10.0198 17.7706C8.13895 17.3294 6.67033 15.8608 6.22913 13.9799C5.92362 12.6775 5.92362 11.322 6.22913 10.0196C6.67033 8.1387 8.13894 6.67008 10.0198 6.22889ZM12 10.7234C12.3524 10.7234 12.6382 10.4376 12.6382 10.0852C12.6382 9.7327 12.3524 9.44698 12 9.44698C11.6475 9.44698 11.3618 9.7327 11.3618 10.0852C11.3618 10.4376 11.6475 10.7234 12 10.7234ZM12 11.202C12.2643 11.202 12.4786 11.4163 12.4786 11.6806V14.2334C12.4786 14.4978 12.2643 14.712 12 14.712C11.7356 14.712 11.5213 14.4978 11.5213 14.2334V11.6806C11.5213 11.4163 11.7356 11.202 12 11.202Z" />
</svg>
