<svg width="21" height="20" viewBox="0 0 21 20" fill="#FDFDFD" xmlns="http://www.w3.org/2000/svg">
<path d="M18.54 7.71903C18.54 7.30482 18.2042 6.96903 17.79 6.96903C17.3758 6.96903 17.04 7.30482 17.04 7.71903H18.54ZM3.95999 7.71903C3.95999 7.30482 3.62421 6.96903 3.20999 6.96903C2.79578 6.96903 2.45999 7.30482 2.45999 7.71903H3.95999ZM13.0132 18.7071L12.8408 17.9772L13.0132 18.7071ZM7.98673 18.7071L8.15916 17.9772L7.98673 18.7071ZM13.3284 3.01423L12.7962 3.54267L13.3284 3.01423ZM18.9678 9.75815C19.2596 10.0521 19.7345 10.0538 20.0284 9.76191C20.3224 9.47006 20.3241 8.99518 20.0322 8.70126L18.9678 9.75815ZM7.67157 3.01423L8.20378 3.54267L7.67157 3.01423ZM0.967794 8.70126C0.67594 8.99518 0.677623 9.47006 0.971553 9.76191C1.26548 10.0538 1.74035 10.0521 2.03221 9.75815L0.967794 8.70126ZM8.21842 16.3203L7.4813 16.1819L7.4813 16.1819L8.21842 16.3203ZM8.23776 16.2173L8.97489 16.3556L8.97489 16.3556L8.23776 16.2173ZM12.7622 16.2173L12.0251 16.3556V16.3556L12.7622 16.2173ZM12.7816 16.3203L13.5187 16.1819V16.1819L12.7816 16.3203ZM12.4918 18.5519L11.8146 18.2296V18.2296L12.4918 18.5519ZM11.6978 18.475C11.5198 18.849 11.6787 19.2965 12.0527 19.4745C12.4267 19.6525 12.8742 19.4936 13.0522 19.1196L11.6978 18.475ZM8.50822 18.5519L7.831 18.8742L7.831 18.8742L8.50822 18.5519ZM7.94778 19.1196C8.12577 19.4936 8.57327 19.6525 8.94729 19.4745C9.32131 19.2965 9.48022 18.849 9.30222 18.475L7.94778 19.1196ZM9.86106 14.4426L9.66053 13.7199H9.66053L9.86106 14.4426ZM11.1389 14.4426L11.3395 13.7199H11.3395L11.1389 14.4426ZM17.04 7.71903V12.6374H18.54V7.71903H17.04ZM3.95999 12.6374V7.71903H2.45999V12.6374H3.95999ZM12.8408 17.9772C11.3011 18.3409 9.69884 18.3409 8.15916 17.9772L7.8143 19.437C9.58076 19.8543 11.4192 19.8543 13.1857 19.437L12.8408 17.9772ZM8.15916 17.9772C5.7026 17.3969 3.95999 15.1877 3.95999 12.6374H2.45999C2.45999 15.8765 4.67421 18.6952 7.8143 19.437L8.15916 17.9772ZM13.1857 19.437C16.3258 18.6952 18.54 15.8765 18.54 12.6374H17.04C17.04 15.1877 15.2974 17.3969 12.8408 17.9772L13.1857 19.437ZM12.7962 3.54267L18.9678 9.75815L20.0322 8.70126L13.8606 2.48578L12.7962 3.54267ZM7.13937 2.48578L0.967794 8.70126L2.03221 9.75815L8.20378 3.54267L7.13937 2.48578ZM13.8606 2.48578C13.2089 1.82945 12.6681 1.28246 12.1818 0.908851C11.6785 0.522114 11.1458 0.25 10.5 0.25V1.75C10.6827 1.75 10.8974 1.81359 11.2679 2.09826C11.6555 2.39606 12.1146 2.85618 12.7962 3.54267L13.8606 2.48578ZM8.20378 3.54267C8.88542 2.85618 9.34454 2.39606 9.7321 2.09826C10.1026 1.81359 10.3173 1.75 10.5 1.75V0.25C9.85423 0.25 9.32145 0.522114 8.81815 0.908851C8.33194 1.28246 7.79106 1.82945 7.13937 2.48578L8.20378 3.54267ZM8.95555 16.4587L8.97489 16.3556L7.50064 16.0789L7.4813 16.1819L8.95555 16.4587ZM12.0251 16.3556L12.0445 16.4587L13.5187 16.1819L13.4994 16.0789L12.0251 16.3556ZM11.8146 18.2296L11.6978 18.475L13.0522 19.1196L13.169 18.8742L11.8146 18.2296ZM7.831 18.8742L7.94778 19.1196L9.30222 18.475L9.18545 18.2296L7.831 18.8742ZM12.0445 16.4587C12.1571 17.0588 12.0764 17.6793 11.8146 18.2296L13.169 18.8742C13.5675 18.0369 13.6899 17.0937 13.5187 16.1819L12.0445 16.4587ZM7.4813 16.1819C7.31015 17.0937 7.43254 18.0369 7.831 18.8742L9.18545 18.2296C8.92358 17.6793 8.8429 17.0588 8.95555 16.4587L7.4813 16.1819ZM10.0616 15.1652C10.3485 15.0856 10.6515 15.0856 10.9384 15.1652L11.3395 13.7199C10.7901 13.5674 10.2099 13.5674 9.66053 13.7199L10.0616 15.1652ZM13.4994 16.0789C13.2865 14.9449 12.4504 14.0281 11.3395 13.7199L10.9384 15.1652C11.4935 15.3193 11.917 15.7794 12.0251 16.3556L13.4994 16.0789ZM8.97489 16.3556C9.08304 15.7794 9.50647 15.3193 10.0616 15.1652L9.66053 13.7199C8.54959 14.0281 7.71349 14.9449 7.50064 16.0789L8.97489 16.3556Z" />
</svg>
