<svg width="19" height="18" viewBox="0 0 19 18" fill="#FDFDFD" xmlns="http://www.w3.org/2000/svg">
<path d="M18.2972 8.78209C18.5676 8.50996 18.5676 8.06873 18.2972 7.7966L12.5664 2.02821C11.98 1.43789 11.491 0.945636 11.0506 0.607406C10.5857 0.250401 10.0946 0 9.5 0C8.90542 0 8.41427 0.250401 7.94941 0.607407C7.50899 0.94564 7.01998 1.43789 6.43355 2.02821L0.702772 7.7966C0.432409 8.06873 0.432409 8.50996 0.702772 8.78209C0.973135 9.05423 1.41148 9.05423 1.68184 8.78209L2.07845 8.38288V11.4332C2.07845 14.4273 4.12594 17.0276 7.02196 17.7114C8.65186 18.0962 10.3481 18.0962 11.978 17.7114C14.874 17.0276 16.9215 14.4273 16.9215 11.4332V8.38286L17.3182 8.78209C17.5885 9.05423 18.0269 9.05423 18.2972 8.78209Z" />
</svg>
