<svg width="19" height="16" viewBox="0 0 19 16" fill="#FDFDFD" xmlns="http://www.w3.org/2000/svg">
<path fill-rule="evenodd" clip-rule="evenodd" d="M0.75 8C0.75 7.58579 1.08579 7.25 1.5 7.25L17.4996 7.25C17.9138 7.25 18.2496 7.58579 18.2496 8C18.2496 8.41421 17.9138 8.75 17.4996 8.75H1.5C1.08579 8.75 0.75 8.41421 0.75 8ZM4.03307 15C4.03307 14.5858 4.36886 14.25 4.78307 14.25L17.5 14.25C17.9142 14.25 18.25 14.5858 18.25 15C18.25 15.4142 17.9142 15.75 17.5 15.75L4.78307 15.75C4.36886 15.75 4.03307 15.4142 4.03307 15ZM9.72186 1C9.72186 0.585787 10.0577 0.25 10.4719 0.25L17.5 0.25C17.9142 0.25 18.25 0.585787 18.25 1C18.25 1.41421 17.9142 1.75 17.5 1.75L10.4719 1.75C10.0577 1.75 9.72186 1.41421 9.72186 1Z" />
</svg>
