<svg width="21" height="18" viewBox="0 0 21 18" fill="none" xmlns="http://www.w3.org/2000/svg">
<path fill-rule="evenodd" clip-rule="evenodd" d="M1.75 9C1.75 8.58579 2.08579 8.25 2.5 8.25L18.4996 8.25C18.9138 8.25 19.2496 8.58579 19.2496 9C19.2496 9.41421 18.9138 9.75 18.4996 9.75H2.5C2.08579 9.75 1.75 9.41421 1.75 9ZM5.03307 16C5.03307 15.5858 5.36886 15.25 5.78307 15.25L18.5 15.25C18.9142 15.25 19.25 15.5858 19.25 16C19.25 16.4142 18.9142 16.75 18.5 16.75L5.78307 16.75C5.36886 16.75 5.03307 16.4142 5.03307 16ZM10.7219 2C10.7219 1.58579 11.0577 1.25 11.4719 1.25L18.5 1.25C18.9142 1.25 19.25 1.58579 19.25 2C19.25 2.41421 18.9142 2.75 18.5 2.75L11.4719 2.75C11.0577 2.75 10.7219 2.41421 10.7219 2Z"  stroke-width="2" stroke-linecap="round"/>
</svg>
