<svg width="107" height="87" viewBox="0 0 107 87" fill="none" xmlns="http://www.w3.org/2000/svg">
<path fill-rule="evenodd" clip-rule="evenodd" d="M65.7507 27.9838L69.7247 56.9681L70.0817 59.876C70.1967 60.8128 69.5306 61.6654 68.5938 61.7804L43.5752 64.8523C42.6384 64.9673 41.7858 64.3012 41.6708 63.3644L37.819 31.9941C37.7615 31.5257 38.0945 31.0994 38.5629 31.0419C38.5659 31.0415 38.5689 31.0412 38.5718 31.0408L40.6474 30.808M42.3264 30.6197L44.2861 30.3999L42.3264 30.6197Z" fill="#FAFAFA"/>
<path d="M66.3902 27.8961C66.3417 27.5429 66.0162 27.2958 65.663 27.3443C65.3098 27.3927 65.0627 27.7183 65.1111 28.0715L66.3902 27.8961ZM69.7247 56.9681L70.3654 56.8895L70.3642 56.8805L69.7247 56.9681ZM70.0817 59.876L70.7224 59.7973L70.0817 59.876ZM68.5938 61.7804L68.6725 62.4211L68.5938 61.7804ZM43.5752 64.8523L43.6539 65.493L43.5752 64.8523ZM41.6708 63.3644L42.3115 63.2858L41.6708 63.3644ZM38.5718 31.0408L38.6438 31.6823L38.5718 31.0408ZM40.7194 31.4495C41.0737 31.4097 41.3287 31.0903 41.2889 30.736C41.2492 30.3818 40.9298 30.1268 40.5755 30.1665L40.7194 31.4495ZM42.2544 29.9782C41.9001 30.018 41.6452 30.3374 41.6849 30.6917C41.7246 31.046 42.044 31.3009 42.3983 31.2612L42.2544 29.9782ZM44.358 31.0414C44.7123 31.0016 44.9673 30.6822 44.9276 30.3279C44.8878 29.9737 44.5684 29.7187 44.2141 29.7584L44.358 31.0414ZM65.1111 28.0715L69.0852 57.0558L70.3642 56.8805L66.3902 27.8961L65.1111 28.0715ZM69.084 57.0468L69.441 59.9547L70.7224 59.7973L70.3654 56.8895L69.084 57.0468ZM69.441 59.9547C69.5126 60.5376 69.0981 61.0682 68.5151 61.1397L68.6725 62.4211C69.9631 62.2627 70.8809 61.0879 70.7224 59.7973L69.441 59.9547ZM68.5151 61.1397L43.4965 64.2116L43.6539 65.493L68.6725 62.4211L68.5151 61.1397ZM43.4965 64.2116C42.9136 64.2832 42.383 63.8687 42.3115 63.2858L41.0301 63.4431C41.1885 64.7337 42.3633 65.6515 43.6539 65.493L43.4965 64.2116ZM42.3115 63.2858L38.4597 31.9154L37.1783 32.0728L41.0301 63.4431L42.3115 63.2858ZM38.4597 31.9154C38.4456 31.8009 38.5271 31.6966 38.6416 31.6826L38.4843 30.4012C37.662 30.5021 37.0773 31.2505 37.1783 32.0728L38.4597 31.9154ZM38.6416 31.6826C38.6423 31.6825 38.643 31.6824 38.6438 31.6823L38.4999 30.3993C38.4947 30.3999 38.4895 30.4005 38.4843 30.4012L38.6416 31.6826ZM38.6438 31.6823L40.7194 31.4495L40.5755 30.1665L38.4999 30.3993L38.6438 31.6823ZM42.3983 31.2612L44.358 31.0414L44.2141 29.7584L42.2544 29.9782L42.3983 31.2612Z" fill="#DEE1E4"/>
<path fill-rule="evenodd" clip-rule="evenodd" d="M64.6705 29.8078L68.2676 56.0754L68.5912 58.7106C68.6954 59.5596 68.0999 60.3313 67.261 60.4343L44.8563 63.1852C44.0174 63.2882 43.2528 62.6835 43.1485 61.8346L39.6884 33.6536C39.6189 33.0875 40.0215 32.5722 40.5876 32.5027L43.1823 32.1841" fill="#E6E7EA"/>
<path d="M46.3174 24.0683C46.3174 23.284 46.9532 22.6482 47.7375 22.6482H66.6963C67.0727 22.6482 67.4338 22.7977 67.7001 23.0638L73.2344 28.5947C73.5009 28.8611 73.6507 29.2224 73.6507 29.5992V55.8243C73.6507 56.6086 73.0149 57.2444 72.2306 57.2444H47.7375C46.9532 57.2444 46.3174 56.6086 46.3174 55.8243V24.0683Z" fill="#FAFAFA" stroke="#DEE1E4" stroke-width="1.29101"/>
<path d="M67.0312 23.0293V27.9839C67.0312 28.6918 67.6051 29.2656 68.3129 29.2656H71.7024" stroke="#DEE1E4" stroke-width="1.29101" stroke-linecap="round" stroke-linejoin="round"/>
<path d="M50.5117 51.0542H61.6197M50.5117 29.2655H61.6197H50.5117ZM50.5117 34.3922H68.8825H50.5117ZM50.5117 39.9462H68.8825H50.5117ZM50.5117 45.5002H68.8825H50.5117Z" stroke="#DEE1E4" stroke-width="1.29101" stroke-linecap="round" stroke-linejoin="round"/>
</svg>
