<svg width="16" height="16" viewBox="0 0 16 16" fill="none" xmlns="http://www.w3.org/2000/svg">
<g id="Icons 2" clip-path="url(#clip0_1095_5993)">
<g id="Union">
<mask id="path-1-inside-1_1095_5993" fill="white">
<path fill-rule="evenodd" clip-rule="evenodd" d="M10.1803 2.3399C10.9589 2.83742 11.5441 3.5862 11.8386 4.46201V4.46021C12.674 4.62237 13.425 5.07518 13.9583 5.73833C14.4916 6.40148 14.7728 7.2321 14.752 8.08283C14.7311 8.93357 14.4097 9.74943 13.8446 10.3857C13.2794 11.022 12.5072 11.4375 11.6649 11.5586C11.6064 11.567 11.5468 11.5638 11.4895 11.5491C11.4323 11.5345 11.3784 11.5087 11.3311 11.4733C11.2838 11.4379 11.2439 11.3934 11.2138 11.3426C11.1837 11.2917 11.1638 11.2355 11.1554 11.177C11.147 11.1184 11.1502 11.0588 11.1649 11.0016C11.1795 10.9443 11.2053 10.8905 11.2407 10.8432C11.2762 10.7959 11.3206 10.756 11.3714 10.7259C11.4223 10.6957 11.4786 10.6759 11.5371 10.6675C12.1866 10.572 12.7791 10.2431 13.2037 9.74241C13.6284 9.24171 13.856 8.60346 13.8442 7.94705C13.8323 7.29064 13.5817 6.66103 13.1393 6.17599C12.6969 5.69095 12.0929 5.38371 11.4403 5.31173C11.3488 5.30203 11.2625 5.26451 11.193 5.20424C11.1234 5.14397 11.074 5.06383 11.0515 4.97463C10.8606 4.23299 10.4061 3.58626 9.77299 3.15539C9.13988 2.72452 8.37151 2.53901 7.61156 2.63354C6.8516 2.72807 6.1521 3.09618 5.64385 3.66903C5.1356 4.24187 4.8534 4.98023 4.85004 5.74604C4.85004 5.8654 4.80262 5.97988 4.71822 6.06428C4.63381 6.14868 4.51934 6.1961 4.39997 6.1961C3.80315 6.1961 3.23078 6.43319 2.80876 6.85521C2.38674 7.27722 2.14966 7.8496 2.14966 8.44642C2.14966 9.04324 2.38674 9.61562 2.80876 10.0376C3.23078 10.4596 3.80315 10.6967 4.39997 10.6967C4.51934 10.6967 4.63381 10.7442 4.71822 10.8286C4.80262 10.913 4.85004 11.0274 4.85004 11.1468C4.85004 11.2662 4.80262 11.3806 4.71822 11.465C4.63381 11.5494 4.51934 11.5969 4.39997 11.5969C3.601 11.5977 2.83154 11.295 2.24735 10.75C1.66316 10.2049 1.30788 9.45825 1.25342 8.66113C1.19897 7.86402 1.44941 7.07599 1.95406 6.45656C2.4587 5.83713 3.17984 5.43257 3.97151 5.32478C4.06925 4.40595 4.4782 3.54815 5.13051 2.8937C5.78282 2.23926 6.63928 1.82752 7.55779 1.72678C8.4763 1.62605 9.40164 1.84239 10.1803 2.3399ZM8.00084 6.19625C8.12018 6.19625 8.23463 6.24365 8.31903 6.32802L10.5694 8.57834C10.6513 8.66322 10.6967 8.77691 10.6957 8.89491C10.6946 9.01292 10.6473 9.1258 10.5639 9.20924C10.4804 9.29269 10.3675 9.34002 10.2495 9.34105C10.1315 9.34207 10.0178 9.29671 9.93296 9.21473L8.4509 7.73267V13.8472C8.4509 13.9666 8.40349 14.0811 8.31908 14.1655C8.23468 14.2499 8.1202 14.2973 8.00084 14.2973C7.88147 14.2973 7.767 14.2499 7.6826 14.1655C7.59819 14.0811 7.55078 13.9666 7.55078 13.8472V7.73267L6.06872 9.21473C5.98383 9.29671 5.87015 9.34207 5.75214 9.34105C5.63414 9.34002 5.52126 9.29269 5.43781 9.20924C5.35436 9.1258 5.30703 9.01292 5.30601 8.89491C5.30498 8.77691 5.35035 8.66322 5.43233 8.57834L7.68264 6.32802C7.76704 6.24365 7.8815 6.19625 8.00084 6.19625Z"/>
</mask>
<path fill-rule="evenodd" clip-rule="evenodd" d="M10.1803 2.3399C10.9589 2.83742 11.5441 3.5862 11.8386 4.46201V4.46021C12.674 4.62237 13.425 5.07518 13.9583 5.73833C14.4916 6.40148 14.7728 7.2321 14.752 8.08283C14.7311 8.93357 14.4097 9.74943 13.8446 10.3857C13.2794 11.022 12.5072 11.4375 11.6649 11.5586C11.6064 11.567 11.5468 11.5638 11.4895 11.5491C11.4323 11.5345 11.3784 11.5087 11.3311 11.4733C11.2838 11.4379 11.2439 11.3934 11.2138 11.3426C11.1837 11.2917 11.1638 11.2355 11.1554 11.177C11.147 11.1184 11.1502 11.0588 11.1649 11.0016C11.1795 10.9443 11.2053 10.8905 11.2407 10.8432C11.2762 10.7959 11.3206 10.756 11.3714 10.7259C11.4223 10.6957 11.4786 10.6759 11.5371 10.6675C12.1866 10.572 12.7791 10.2431 13.2037 9.74241C13.6284 9.24171 13.856 8.60346 13.8442 7.94705C13.8323 7.29064 13.5817 6.66103 13.1393 6.17599C12.6969 5.69095 12.0929 5.38371 11.4403 5.31173C11.3488 5.30203 11.2625 5.26451 11.193 5.20424C11.1234 5.14397 11.074 5.06383 11.0515 4.97463C10.8606 4.23299 10.4061 3.58626 9.77299 3.15539C9.13988 2.72452 8.37151 2.53901 7.61156 2.63354C6.8516 2.72807 6.1521 3.09618 5.64385 3.66903C5.1356 4.24187 4.8534 4.98023 4.85004 5.74604C4.85004 5.8654 4.80262 5.97988 4.71822 6.06428C4.63381 6.14868 4.51934 6.1961 4.39997 6.1961C3.80315 6.1961 3.23078 6.43319 2.80876 6.85521C2.38674 7.27722 2.14966 7.8496 2.14966 8.44642C2.14966 9.04324 2.38674 9.61562 2.80876 10.0376C3.23078 10.4596 3.80315 10.6967 4.39997 10.6967C4.51934 10.6967 4.63381 10.7442 4.71822 10.8286C4.80262 10.913 4.85004 11.0274 4.85004 11.1468C4.85004 11.2662 4.80262 11.3806 4.71822 11.465C4.63381 11.5494 4.51934 11.5969 4.39997 11.5969C3.601 11.5977 2.83154 11.295 2.24735 10.75C1.66316 10.2049 1.30788 9.45825 1.25342 8.66113C1.19897 7.86402 1.44941 7.07599 1.95406 6.45656C2.4587 5.83713 3.17984 5.43257 3.97151 5.32478C4.06925 4.40595 4.4782 3.54815 5.13051 2.8937C5.78282 2.23926 6.63928 1.82752 7.55779 1.72678C8.4763 1.62605 9.40164 1.84239 10.1803 2.3399ZM8.00084 6.19625C8.12018 6.19625 8.23463 6.24365 8.31903 6.32802L10.5694 8.57834C10.6513 8.66322 10.6967 8.77691 10.6957 8.89491C10.6946 9.01292 10.6473 9.1258 10.5639 9.20924C10.4804 9.29269 10.3675 9.34002 10.2495 9.34105C10.1315 9.34207 10.0178 9.29671 9.93296 9.21473L8.4509 7.73267V13.8472C8.4509 13.9666 8.40349 14.0811 8.31908 14.1655C8.23468 14.2499 8.1202 14.2973 8.00084 14.2973C7.88147 14.2973 7.767 14.2499 7.6826 14.1655C7.59819 14.0811 7.55078 13.9666 7.55078 13.8472V7.73267L6.06872 9.21473C5.98383 9.29671 5.87015 9.34207 5.75214 9.34105C5.63414 9.34002 5.52126 9.29269 5.43781 9.20924C5.35436 9.1258 5.30703 9.01292 5.30601 8.89491C5.30498 8.77691 5.35035 8.66322 5.43233 8.57834L7.68264 6.32802C7.76704 6.24365 7.8815 6.19625 8.00084 6.19625Z" fill="#0D6EDE"/>
<path d="M11.8386 4.46201L11.1987 4.67721L12.5137 4.46201H11.8386ZM11.8386 4.46021L11.9673 3.79748L11.1635 3.64147V4.46021H11.8386ZM13.9583 5.73833L14.4844 5.31526L14.4844 5.31526L13.9583 5.73833ZM13.8446 10.3857L13.3398 9.9374V9.9374L13.8446 10.3857ZM11.6649 11.5586L11.7608 12.2269L11.761 12.2268L11.6649 11.5586ZM11.4895 11.5491L11.3223 12.2032L11.3223 12.2032L11.4895 11.5491ZM11.2138 11.3426L10.6331 11.6869L10.6331 11.6869L11.2138 11.3426ZM11.1554 11.177L11.8237 11.0811L11.8237 11.0811L11.1554 11.177ZM11.1649 11.0016L10.5108 10.8344L10.5108 10.8344L11.1649 11.0016ZM11.2407 10.8432L10.7004 10.4384L10.7004 10.4384L11.2407 10.8432ZM11.3714 10.7259L11.0272 10.1451L11.0271 10.1451L11.3714 10.7259ZM11.5371 10.6675L11.6329 11.3357L11.6353 11.3354L11.5371 10.6675ZM13.8442 7.94705L14.5192 7.93485V7.93485L13.8442 7.94705ZM11.4403 5.31173L11.5143 4.6407L11.5115 4.64039L11.4403 5.31173ZM11.193 5.20424L11.6352 4.69414L11.6352 4.69413L11.193 5.20424ZM11.0515 4.97463L11.7059 4.80894L11.7052 4.80636L11.0515 4.97463ZM9.77299 3.15539L9.39316 3.7135L9.39316 3.7135L9.77299 3.15539ZM7.61156 2.63354L7.69489 3.30347L7.69489 3.30347L7.61156 2.63354ZM5.64385 3.66903L6.14883 4.11707L6.14883 4.11707L5.64385 3.66903ZM4.85004 5.74604L4.17494 5.74307V5.74604H4.85004ZM4.71822 6.06428L5.19558 6.54165L5.19558 6.54165L4.71822 6.06428ZM4.71822 10.8286L5.19558 10.3512L5.19558 10.3512L4.71822 10.8286ZM4.71822 11.465L5.19558 11.9424L5.19558 11.9424L4.71822 11.465ZM4.39997 11.5969V10.9218H4.39924L4.39997 11.5969ZM2.24735 10.75L1.78681 11.2436L1.78681 11.2436L2.24735 10.75ZM1.25342 8.66113L0.579899 8.70714L1.25342 8.66113ZM3.97151 5.32478L4.06259 5.9937L4.58686 5.92232L4.64282 5.39619L3.97151 5.32478ZM5.13051 2.8937L4.65237 2.41712L4.65237 2.41712L5.13051 2.8937ZM7.55779 1.72678L7.63139 2.39786H7.63139L7.55779 1.72678ZM8.31903 6.32802L8.7964 5.85066L8.79633 5.85059L8.31903 6.32802ZM10.5694 8.57834L11.055 8.10927L11.0467 8.10097L10.5694 8.57834ZM10.6957 8.89491L10.0206 8.88904V8.88905L10.6957 8.89491ZM10.5639 9.20924L10.0865 8.73188L10.0865 8.73188L10.5639 9.20924ZM10.2495 9.34105L10.2554 10.0161H10.2554L10.2495 9.34105ZM9.93296 9.21473L9.45552 9.69216L9.46396 9.70031L9.93296 9.21473ZM8.4509 7.73267L8.92827 7.2553L7.77581 6.10284V7.73267H8.4509ZM8.31908 14.1655L7.84172 13.6881L7.84171 13.6881L8.31908 14.1655ZM7.6826 14.1655L8.15996 13.6881L8.15996 13.6881L7.6826 14.1655ZM7.55078 7.73267H8.22587V6.10284L7.07341 7.2553L7.55078 7.73267ZM6.06872 9.21473L6.53779 9.70039L6.54608 9.69209L6.06872 9.21473ZM5.75214 9.34105L5.74627 10.0161H5.74628L5.75214 9.34105ZM5.43781 9.20924L5.91517 8.73188L5.91517 8.73188L5.43781 9.20924ZM5.30601 8.89491L5.98108 8.88905L5.98108 8.88904L5.30601 8.89491ZM5.43233 8.57834L4.95489 8.1009L4.94674 8.10934L5.43233 8.57834ZM7.68264 6.32802L7.20535 5.85059L7.20528 5.85066L7.68264 6.32802ZM12.4785 4.24681C12.1349 3.22503 11.4522 2.35145 10.5438 1.77102L9.8168 2.90879C10.4657 3.32338 10.9533 3.94737 11.1987 4.67721L12.4785 4.24681ZM11.1635 4.46021V4.46201H12.5137V4.46021H11.1635ZM14.4844 5.31526C13.8511 4.52777 12.9593 3.99005 11.9673 3.79748L11.71 5.12293C12.3887 5.25469 12.9989 5.6226 13.4322 6.16141L14.4844 5.31526ZM15.4269 8.09935C15.4516 7.0891 15.1177 6.10275 14.4844 5.31526L13.4322 6.16141C13.8655 6.70022 14.094 7.37509 14.0771 8.06632L15.4269 8.09935ZM14.3493 10.834C15.0204 10.0784 15.4021 9.1096 15.4269 8.09935L14.0771 8.06632C14.0602 8.75754 13.799 9.42043 13.3398 9.9374L14.3493 10.834ZM11.761 12.2268C12.7612 12.083 13.6782 11.5896 14.3493 10.834L13.3398 9.9374C12.8806 10.4544 12.2532 10.792 11.5688 10.8904L11.761 12.2268ZM11.3223 12.2032C11.4655 12.2398 11.6145 12.2478 11.7608 12.2269L11.569 10.8904C11.5983 10.8862 11.6281 10.8878 11.6567 10.8951L11.3223 12.2032ZM10.9264 12.0136C11.0446 12.1022 11.1792 12.1666 11.3223 12.2032L11.6567 10.8951C11.6853 10.9024 11.7122 10.9153 11.7359 10.933L10.9264 12.0136ZM10.6331 11.6869C10.7084 11.814 10.8081 11.925 10.9264 12.0136L11.7359 10.933C11.7595 10.9507 11.7794 10.9729 11.7945 10.9983L10.6331 11.6869ZM10.4872 11.2728C10.5081 11.4191 10.5577 11.5598 10.6331 11.6869L11.7945 10.9983C11.8096 11.0237 11.8195 11.0519 11.8237 11.0811L10.4872 11.2728ZM10.5108 10.8344C10.4742 10.9776 10.4662 11.1265 10.4872 11.2728L11.8237 11.0811C11.8279 11.1103 11.8263 11.1401 11.819 11.1688L10.5108 10.8344ZM10.7004 10.4384C10.6118 10.5567 10.5474 10.6912 10.5108 10.8344L11.819 11.1688C11.8116 11.1974 11.7988 11.2243 11.781 11.2479L10.7004 10.4384ZM11.0271 10.1451C10.9 10.2205 10.789 10.3202 10.7004 10.4384L11.781 11.2479C11.7633 11.2716 11.7411 11.2915 11.7157 11.3066L11.0271 10.1451ZM11.4412 9.99922C11.295 10.0202 11.1543 10.0698 11.0272 10.1451L11.7157 11.3066C11.6903 11.3216 11.6622 11.3315 11.6329 11.3357L11.4412 9.99922ZM12.6889 9.30576C12.3704 9.68129 11.926 9.92794 11.4389 9.99957L11.6353 11.3354C12.4472 11.216 13.1878 10.8049 13.7186 10.1791L12.6889 9.30576ZM13.1692 7.95924C13.1781 8.45155 13.0073 8.93024 12.6889 9.30576L13.7186 10.1791C14.2494 9.55317 14.534 8.75536 14.5192 7.93485L13.1692 7.95924ZM12.6405 6.63095C12.9724 6.99473 13.1603 7.46694 13.1692 7.95924L14.5192 7.93485C14.5043 7.11434 14.1911 6.32733 13.6381 5.72103L12.6405 6.63095ZM11.3663 5.98275C11.8557 6.03674 12.3087 6.26717 12.6405 6.63095L13.6381 5.72103C13.085 5.11474 12.33 4.73068 11.5143 4.6407L11.3663 5.98275ZM10.7507 5.71434C10.9246 5.86503 11.1404 5.95881 11.3691 5.98306L11.5115 4.64039C11.5572 4.64524 11.6004 4.664 11.6352 4.69414L10.7507 5.71434ZM10.397 5.14032C10.4535 5.36332 10.5769 5.56366 10.7507 5.71435L11.6352 4.69413C11.6699 4.72427 11.6946 4.76434 11.7059 4.80894L10.397 5.14032ZM9.39316 3.7135C9.8906 4.05204 10.2477 4.56018 10.3977 5.1429L11.7052 4.80636C11.4735 3.90579 10.9216 3.12049 10.1528 2.59729L9.39316 3.7135ZM7.69489 3.30347C8.292 3.2292 8.89572 3.37496 9.39316 3.7135L10.1528 2.59729C9.38405 2.07409 8.45103 1.84882 7.52822 1.96361L7.69489 3.30347ZM6.14883 4.11707C6.54817 3.66697 7.09778 3.37775 7.69489 3.30347L7.52822 1.96361C6.60542 2.0784 5.75602 2.52538 5.13886 3.22098L6.14883 4.11707ZM5.52513 5.74901C5.52777 5.1473 5.74949 4.56716 6.14883 4.11707L5.13886 3.22098C4.5217 3.91658 4.17904 4.81316 4.17495 5.74307L5.52513 5.74901ZM5.19558 6.54165C5.40659 6.33064 5.52513 6.04445 5.52513 5.74604H4.17494C4.17494 5.68636 4.19865 5.62912 4.24085 5.58692L5.19558 6.54165ZM4.39997 6.8712C4.69839 6.8712 4.98457 6.75265 5.19558 6.54165L4.24085 5.58692C4.28305 5.54472 4.34029 5.52101 4.39997 5.52101V6.8712ZM3.28612 7.33257C3.58153 7.03716 3.9822 6.8712 4.39997 6.8712V5.52101C3.62411 5.52101 2.88002 5.82922 2.3314 6.37784L3.28612 7.33257ZM2.82475 8.44642C2.82475 8.02864 2.99071 7.62798 3.28612 7.33257L2.3314 6.37784C1.78277 6.92646 1.47456 7.67055 1.47456 8.44642H2.82475ZM3.28612 9.56027C2.99071 9.26486 2.82475 8.86419 2.82475 8.44642H1.47456C1.47456 9.22229 1.78277 9.96638 2.3314 10.515L3.28612 9.56027ZM4.39997 10.0216C3.9822 10.0216 3.58153 9.85568 3.28612 9.56027L2.3314 10.515C2.88002 11.0636 3.62411 11.3718 4.39997 11.3718V10.0216ZM5.19558 10.3512C4.98457 10.1402 4.69839 10.0216 4.39997 10.0216V11.3718C4.34029 11.3718 4.28305 11.3481 4.24085 11.3059L5.19558 10.3512ZM5.52513 11.1468C5.52513 10.8484 5.40659 10.5622 5.19558 10.3512L4.24085 11.3059C4.19865 11.2637 4.17494 11.2065 4.17494 11.1468H5.52513ZM5.19558 11.9424C5.40659 11.7314 5.52513 11.4452 5.52513 11.1468H4.17494C4.17494 11.0871 4.19865 11.0299 4.24085 10.9877L5.19558 11.9424ZM4.39997 12.272C4.69839 12.272 4.98457 12.1534 5.19558 11.9424L4.24085 10.9877C4.28305 10.9455 4.34029 10.9218 4.39997 10.9218V12.272ZM1.78681 11.2436C2.49618 11.9054 3.43053 12.273 4.40071 12.272L4.39924 10.9218C3.77147 10.9225 3.1669 10.6846 2.70789 10.2563L1.78681 11.2436ZM0.579899 8.70714C0.64602 9.67507 1.07743 10.5817 1.78681 11.2436L2.70789 10.2563C2.24888 9.82808 1.96973 9.24143 1.92695 8.61512L0.579899 8.70714ZM1.43067 6.03016C0.817886 6.78232 0.513778 7.73922 0.579899 8.70714L1.92695 8.61512C1.88417 7.98882 2.08094 7.36965 2.47745 6.88296L1.43067 6.03016ZM3.88044 4.65586C2.91912 4.78674 2.04345 5.27799 1.43067 6.03016L2.47745 6.88296C2.87395 6.39626 3.44056 6.0784 4.06259 5.9937L3.88044 4.65586ZM4.65237 2.41712C3.89134 3.18064 3.41423 4.1814 3.30021 5.25337L4.64282 5.39619C4.72427 4.63049 5.06506 3.91566 5.60865 3.37029L4.65237 2.41712ZM7.4842 1.05571C6.4126 1.17323 5.4134 1.6536 4.65237 2.41712L5.60865 3.37029C6.15224 2.82492 6.86596 2.4818 7.63139 2.39786L7.4842 1.05571ZM10.5438 1.77102C9.63536 1.19059 8.55579 0.938192 7.4842 1.05571L7.63139 2.39786C8.39681 2.31391 9.16793 2.49419 9.8168 2.90879L10.5438 1.77102ZM8.79633 5.85059C8.58533 5.63965 8.29919 5.52115 8.00084 5.52115V6.87134C7.94117 6.87134 7.88394 6.84764 7.84174 6.80546L8.79633 5.85059ZM11.0467 8.10097L8.7964 5.85066L7.84167 6.80539L10.092 9.0557L11.0467 8.10097ZM11.3707 8.90078C11.3733 8.60577 11.2599 8.32155 11.0549 8.10934L10.0838 9.04733C10.0428 9.00489 10.0201 8.94805 10.0206 8.88904L11.3707 8.90078ZM11.0412 9.68661C11.2498 9.478 11.3682 9.19579 11.3707 8.90078L10.0206 8.88905C10.0211 8.83005 10.0448 8.7736 10.0865 8.73188L11.0412 9.68661ZM10.2554 10.0161C10.5504 10.0136 10.8326 9.89522 11.0412 9.68661L10.0865 8.73188C10.1282 8.69016 10.1847 8.66649 10.2437 8.66598L10.2554 10.0161ZM9.46396 9.70031C9.67617 9.90527 9.96039 10.0187 10.2554 10.0161L10.2437 8.66598C10.3027 8.66547 10.3595 8.68815 10.402 8.72914L9.46396 9.70031ZM7.97354 8.21003L9.4556 9.69209L10.4103 8.73736L8.92827 7.2553L7.97354 8.21003ZM9.126 13.8472V7.73267H7.77581V13.8472H9.126ZM8.79644 14.6428C9.00746 14.4318 9.126 14.1456 9.126 13.8472H7.77581C7.77581 13.7875 7.79952 13.7303 7.84172 13.6881L8.79644 14.6428ZM8.00084 14.9724C8.29925 14.9724 8.58544 14.8538 8.79645 14.6428L7.84171 13.6881C7.88392 13.6459 7.94116 13.6222 8.00084 13.6222V14.9724ZM7.20523 14.6428C7.41624 14.8538 7.70243 14.9724 8.00084 14.9724V13.6222C8.06052 13.6222 8.11776 13.6459 8.15996 13.6881L7.20523 14.6428ZM6.87568 13.8472C6.87568 14.1456 6.99422 14.4318 7.20524 14.6428L8.15996 13.6881C8.20216 13.7303 8.22587 13.7875 8.22587 13.8472H6.87568ZM6.87568 7.73267V13.8472H8.22587V7.73267H6.87568ZM6.54608 9.69209L8.02814 8.21003L7.07341 7.2553L5.59135 8.73736L6.54608 9.69209ZM5.74628 10.0161C6.04129 10.0187 6.32551 9.90527 6.53771 9.70031L5.59972 8.72914C5.64216 8.68815 5.69901 8.66547 5.75801 8.66598L5.74628 10.0161ZM4.96045 9.68661C5.16906 9.89522 5.45126 10.0136 5.74627 10.0161L5.75801 8.66598C5.81701 8.66649 5.87345 8.69016 5.91517 8.73188L4.96045 9.68661ZM4.63094 8.90078C4.6335 9.19579 4.75183 9.478 4.96045 9.68661L5.91517 8.73188C5.9569 8.7736 5.98056 8.83005 5.98108 8.88905L4.63094 8.90078ZM4.94674 8.10934C4.74178 8.32155 4.62837 8.60577 4.63094 8.90078L5.98108 8.88904C5.98159 8.94805 5.95891 9.00489 5.91792 9.04733L4.94674 8.10934ZM7.20528 5.85066L4.95496 8.10097L5.90969 9.0557L8.16001 6.80539L7.20528 5.85066ZM8.00084 5.52115C7.70249 5.52115 7.41635 5.63965 7.20535 5.85059L8.15994 6.80546C8.11774 6.84764 8.06051 6.87134 8.00084 6.87134V5.52115Z" fill="#0D6EDE" mask="url(#path-1-inside-1_1095_5993)"/>
</g>
</g>
<defs>
<clipPath id="clip0_1095_5993">
<rect width="16" height="16" fill="white"/>
</clipPath>
</defs>
</svg>
