<svg width="17" height="16" viewBox="0 0 17 16" fill="none" stroke="#02A0FC" xmlns="http://www.w3.org/2000/svg">
<path d="M6.75058 6H9.41702M6.75058 9.99966H8.75041M6.75058 7.99983H10.7502"  stroke-linecap="round"/>
<path d="M2.98403 5.96683C3.41836 4.11522 4.86412 2.66946 6.71573 2.23513C8.05295 1.92146 9.44461 1.92146 10.7818 2.23513C12.6334 2.66946 14.0792 4.11522 14.5135 5.96683C14.8272 7.30405 14.8272 8.69571 14.5135 10.0329C14.0792 11.8845 12.6334 13.3303 10.7818 13.7646C9.44461 14.0783 8.05295 14.0783 6.71574 13.7646C4.86412 13.3303 3.41836 11.8845 2.98403 10.0329C2.67036 8.69571 2.67036 7.30405 2.98403 5.96683Z" />
</svg>
