<svg width="17" height="16" viewBox="0 0 17 16" fill="none"  xmlns="http://www.w3.org/2000/svg">
<path d="M2.67374 5.89892C3.12217 4.09298 4.55415 2.69665 6.37051 2.29417L6.6731 2.22712C8.04121 1.92397 9.45908 1.92397 10.8272 2.22712L11.1298 2.29417C12.9461 2.69665 14.3781 4.09298 14.8265 5.89893C15.1691 7.27852 15.1691 8.72099 14.8265 10.1006C14.3781 11.9065 12.9461 13.3029 11.1298 13.7053L10.8272 13.7724C9.45908 14.0755 8.04121 14.0755 6.6731 13.7724L6.37051 13.7053C4.55415 13.3029 3.12217 11.9065 2.67374 10.1006C2.33117 8.72099 2.33117 7.27852 2.67374 5.89892Z" stroke="#02A0FC"/>
<path fill-rule="evenodd" clip-rule="evenodd" d="M8.75073 4.66675C9.0056 4.66675 9.21222 4.86139 9.21222 5.10149V5.45717H9.26334C10.1216 5.45717 10.7504 6.16005 10.7504 6.94584C10.7504 7.18595 10.5438 7.38059 10.2889 7.38059C10.034 7.38059 9.82739 7.18595 9.82739 6.94584C9.82739 6.5675 9.53788 6.32666 9.26334 6.32666H9.21222V7.69532L9.83532 7.90877C10.4016 8.10273 10.7504 8.63024 10.7504 9.18891C10.7504 9.90002 10.1805 10.5424 9.39491 10.5424H9.21222V10.8981C9.21222 11.1382 9.0056 11.3328 8.75073 11.3328C8.49585 11.3328 8.28923 11.1382 8.28923 10.8981V10.5424H8.23778C7.37953 10.5424 6.75073 9.83949 6.75073 9.0537C6.75073 8.8136 6.95735 8.61895 7.21223 8.61895C7.46711 8.61895 7.67373 8.8136 7.67373 9.0537C7.67373 9.43205 7.96324 9.67288 8.23778 9.67288H8.28923V8.30433L7.6658 8.09078C7.09957 7.89681 6.75073 7.3693 6.75073 6.81063C6.75073 6.09952 7.32062 5.45717 8.10621 5.45717H8.28923V5.10149C8.28923 4.86139 8.49585 4.66675 8.75073 4.66675ZM8.28923 6.32666H8.10621C7.90434 6.32666 7.67373 6.50696 7.67373 6.81063C7.67373 7.04285 7.81735 7.2175 7.98123 7.27363L8.28923 7.37914V6.32666ZM9.21222 8.62051V9.67288H9.39491C9.59678 9.67288 9.82739 9.49258 9.82739 9.18891C9.82739 8.95669 9.68377 8.78204 9.5199 8.72591L9.21222 8.62051Z" fill="#02A0FC"/>
</svg>
