<svg width="24" height="24" viewBox="0 0 24 24" fill="none" xmlns="http://www.w3.org/2000/svg">
<g clip-path="url(#clip0_10654_87501)">
<path d="M12.85 17.9102L11.19 19.6002C10.7477 20.0449 10.2218 20.3979 9.64258 20.6387C9.06338 20.8795 8.44228 21.0035 7.815 21.0035C7.18773 21.0035 6.56663 20.8795 5.98743 20.6387C5.40823 20.3979 4.88234 20.0449 4.44 19.6002C3.99524 19.1578 3.64227 18.6319 3.40143 18.0527C3.16059 17.4735 3.03662 16.8524 3.03662 16.2252C3.03662 15.5979 3.16059 14.9768 3.40143 14.3976C3.64227 13.8184 3.99524 13.2925 4.44 12.8502L6.12 11.1602" stroke="#02A0FC" stroke-width="1.5" stroke-miterlimit="10" stroke-linecap="round"/>
<path d="M11.1899 6.08984L12.8799 4.39984C13.7777 3.50584 14.993 3.00391 16.2599 3.00391C17.5269 3.00391 18.7422 3.50584 19.64 4.39984C20.534 5.29756 21.0359 6.51291 21.0359 7.77985C21.0359 9.04679 20.534 10.2621 19.64 11.1598L17.95 12.8498" stroke="#02A0FC" stroke-width="1.5" stroke-miterlimit="10" stroke-linecap="round"/>
<path d="M8.62012 15.3799L15.3801 8.62988" stroke="#02A0FC" stroke-width="1.5" stroke-miterlimit="10" stroke-linecap="round"/>
</g>
<defs>
<clipPath id="clip0_10654_87501">
<rect width="24" height="24" fill="white"/>
</clipPath>
</defs>
</svg>
