<svg width="16" height="16" viewBox="0 0 16 16" fill="#636363" xmlns="http://www.w3.org/2000/svg">
<path d="M2.55611 10.1655L3.04347 10.0538L2.55611 10.1655ZM2.55611 6.23536L3.04347 6.34707L2.55611 6.23536ZM13.4451 6.23537L12.9577 6.34707L13.4451 6.23537ZM13.4451 10.1655L12.9577 10.0538L13.4451 10.1655ZM9.92069 13.7725L10.0374 14.2587L9.92069 13.7725ZM6.08049 13.7725L6.19721 13.2863L6.08049 13.7725ZM6.08049 2.62841L6.19721 3.11459L6.08049 2.62841ZM9.92069 2.62841L10.0374 2.14222L9.92069 2.62841ZM5.88064 1.99988C5.88064 1.72374 5.65679 1.49988 5.38064 1.49988C5.1045 1.49988 4.88064 1.72374 4.88064 1.99988H5.88064ZM4.88064 3.67571C4.88064 3.95185 5.1045 4.17571 5.38064 4.17571C5.65679 4.17571 5.88064 3.95185 5.88064 3.67571H4.88064ZM11.1205 1.99988C11.1205 1.72374 10.8967 1.49988 10.6205 1.49988C10.3444 1.49988 10.1205 1.72374 10.1205 1.99988H11.1205ZM10.1205 3.67571C10.1205 3.95185 10.3444 4.17571 10.6205 4.17571C10.8967 4.17571 11.1205 3.95185 11.1205 3.67571H10.1205ZM3.04347 10.0538C2.76408 8.83483 2.76408 7.56607 3.04347 6.34707L2.06874 6.12366C1.75565 7.48969 1.75565 8.91121 2.06874 10.2772L3.04347 10.0538ZM12.9577 6.34707C13.2371 7.56607 13.2371 8.83483 12.9577 10.0538L13.9324 10.2772C14.2455 8.91121 14.2455 7.48969 13.9324 6.12366L12.9577 6.34707ZM9.80397 13.2863C8.61777 13.5711 7.38341 13.5711 6.19721 13.2863L5.96378 14.2587C7.30342 14.5803 8.69776 14.5803 10.0374 14.2587L9.80397 13.2863ZM6.19721 3.11459C7.38341 2.82983 8.61777 2.82983 9.80397 3.11459L10.0374 2.14222C8.69776 1.82062 7.30342 1.82062 5.96378 2.14222L6.19721 3.11459ZM6.19721 13.2863C4.63797 12.912 3.41238 11.6634 3.04347 10.0538L2.06874 10.2772C2.52023 12.2471 4.02552 13.7934 5.96378 14.2587L6.19721 13.2863ZM10.0374 14.2587C11.9757 13.7934 13.481 12.2471 13.9324 10.2772L12.9577 10.0538C12.5888 11.6634 11.3632 12.912 9.80397 13.2863L10.0374 14.2587ZM9.80397 3.11459C11.3632 3.48891 12.5888 4.73749 12.9577 6.34707L13.9324 6.12366C13.481 4.15381 11.9757 2.60753 10.0374 2.14222L9.80397 3.11459ZM5.96378 2.14222C4.02552 2.60753 2.52023 4.1538 2.06874 6.12366L3.04347 6.34707C3.41238 4.73749 4.63797 3.48891 6.19721 3.11459L5.96378 2.14222ZM2.7607 6.01912H13.2405V5.01912H2.7607V6.01912ZM4.88064 1.99988V3.67571H5.88064V1.99988H4.88064ZM10.1205 1.99988V3.67571H11.1205V1.99988H10.1205Z" />
<path d="M8.96181 9.28244C9.23178 9.09045 9.39977 8.80248 9.39977 8.41251C9.39977 7.60258 8.77582 7.18262 8.03788 7.18262C7.29995 7.18262 6.67 7.60258 6.67 8.41251C6.67 8.80248 6.84399 9.09045 7.10796 9.28244C6.742 9.50442 6.53201 9.87039 6.53201 10.2964C6.53201 11.0703 7.10196 11.5502 8.03788 11.5502C8.9678 11.5502 9.54376 11.0703 9.54376 10.2964C9.54376 9.87039 9.33377 9.50442 8.96181 9.28244ZM8.03788 7.96255C8.34986 7.96255 8.57784 8.14254 8.57784 8.45451C8.57784 8.76048 8.34986 8.95247 8.03788 8.95247C7.72591 8.95247 7.49793 8.76048 7.49793 8.45451C7.49793 8.14254 7.72591 7.96255 8.03788 7.96255ZM8.03788 10.7703C7.64192 10.7703 7.35394 10.5663 7.35394 10.1884C7.35394 9.81639 7.64192 9.61241 8.03788 9.61241C8.43385 9.61241 8.72183 9.81639 8.72183 10.1884C8.72183 10.5663 8.43385 10.7703 8.03788 10.7703Z" />
</svg>
