<svg width="16" height="16" viewBox="0 0 16 16" fill="none" xmlns="http://www.w3.org/2000/svg">
<path d="M3.10303 11.364L2.64022 11.5533H2.64022L3.10303 11.364ZM2.87169 7.63005L2.38921 7.49886L2.38921 7.49886L2.87169 7.63005ZM13.1302 7.63004L13.6127 7.49885V7.49885L13.1302 7.63004ZM12.8989 11.364L12.4361 11.1748H12.4361L12.8989 11.364ZM9.3586 13.8949L9.28172 13.4009L9.3586 13.8949ZM6.64331 13.8949L6.56643 14.389H6.56643L6.64331 13.8949ZM5.38925 5.19014L5.29008 4.70008L5.38925 5.19014ZM10.6127 5.19014L10.5135 5.68021L10.6127 5.19014ZM6.14416 13.8173L6.22104 13.3232L6.14416 13.8173ZM3.16496 11.5155L3.62776 11.3262H3.62776L3.16496 11.5155ZM9.85776 13.8173L9.93464 14.3113L9.85776 13.8173ZM12.837 11.5155L13.2998 11.7047L12.837 11.5155ZM13.0792 7.44241L12.5967 7.5736V7.5736L13.0792 7.44241ZM2.92272 7.44241L3.4052 7.5736H3.4052L2.92272 7.44241ZM10.1193 5.35039L9.66156 5.14924L10.1193 5.35039ZM9.51955 5.47241C9.40845 5.72522 9.52334 6.02022 9.77615 6.13132C10.029 6.24241 10.324 6.12753 10.4351 5.87472L9.51955 5.47241ZM5.88262 5.35039L6.34037 5.14924H6.34037L5.88262 5.35039ZM5.56688 5.87472C5.67798 6.12753 5.97298 6.24241 6.22579 6.13132C6.4786 6.02022 6.59348 5.72522 6.48239 5.47241L5.56688 5.87472ZM7.49625 2.04935L7.58037 2.54222L7.58037 2.54222L7.49625 2.04935ZM7.57456 2.03598L7.49044 1.54311L7.49044 1.54311L7.57456 2.03598ZM8.42737 2.03598L8.34325 2.52885L8.34325 2.52885L8.42737 2.03598ZM8.50568 2.04934L8.5898 1.55647L8.5898 1.55647L8.50568 2.04934ZM10.2845 3.69879L10.7729 3.59148L10.2845 3.69879ZM5.71741 3.69879L6.20576 3.80609H6.20576L5.71741 3.69879ZM9.78088 13.3232L9.28172 13.4009L9.43548 14.389L9.93464 14.3113L9.78088 13.3232ZM6.72019 13.4009L6.22104 13.3232L6.06728 14.3113L6.56643 14.389L6.72019 13.4009ZM12.5967 7.5736L12.6478 7.76124L13.6127 7.49885L13.5617 7.31122L12.5967 7.5736ZM12.4361 11.1748L12.3742 11.3263L13.2998 11.7047L13.3617 11.5533L12.4361 11.1748ZM3.62776 11.3262L3.56584 11.1748L2.64022 11.5533L2.70215 11.7047L3.62776 11.3262ZM3.35418 7.76124L3.4052 7.5736L2.44023 7.31122L2.38921 7.49886L3.35418 7.76124ZM3.56584 11.1748C3.1206 10.0859 3.0468 8.89168 3.35418 7.76124L2.38921 7.49886C2.02395 8.84218 2.11208 10.2616 2.64022 11.5533L3.56584 11.1748ZM12.6478 7.76124C12.9551 8.89167 12.8813 10.0859 12.4361 11.1748L13.3617 11.5533C13.8899 10.2616 13.978 8.84218 13.6127 7.49885L12.6478 7.76124ZM9.28172 13.4009C8.43349 13.5329 7.56842 13.5329 6.72019 13.4009L6.56643 14.389C7.51655 14.5368 8.48536 14.5368 9.43548 14.389L9.28172 13.4009ZM5.48841 5.68021C7.14503 5.34499 8.85691 5.34499 10.5135 5.68021L10.7119 4.70008C8.92435 4.33837 7.07759 4.33837 5.29008 4.70008L5.48841 5.68021ZM6.22104 13.3232C5.03706 13.139 4.05585 12.3732 3.62776 11.3262L2.70215 11.7047C3.26903 13.0911 4.55328 14.0757 6.06728 14.3113L6.22104 13.3232ZM9.93464 14.3113C11.4486 14.0757 12.7329 13.0911 13.2998 11.7047L12.3742 11.3263C11.9461 12.3732 10.9649 13.139 9.78088 13.3232L9.93464 14.3113ZM10.5135 5.68021C11.5402 5.88796 12.3398 6.62855 12.5967 7.5736L13.5617 7.31122C13.2004 5.98254 12.0899 4.97893 10.7119 4.70008L10.5135 5.68021ZM5.29008 4.70008C3.91204 4.97893 2.80151 5.98254 2.44023 7.31122L3.4052 7.5736C3.66217 6.62855 4.46177 5.88796 5.48841 5.68021L5.29008 4.70008ZM9.66156 5.14924L9.51955 5.47241L10.4351 5.87472L10.5771 5.55155L9.66156 5.14924ZM5.42487 5.55155L5.56688 5.87472L6.48239 5.47241L6.34037 5.14924L5.42487 5.55155ZM7.58037 2.54222L7.65868 2.52885L7.49044 1.54311L7.41213 1.55647L7.58037 2.54222ZM8.34325 2.52885L8.42156 2.54222L8.5898 1.55647L8.51149 1.54311L8.34325 2.52885ZM9.79618 3.80609C9.895 4.25586 9.84844 4.72396 9.66156 5.14924L10.5771 5.55155C10.8487 4.93337 10.9174 4.24931 10.7729 3.59149L9.79618 3.80609ZM5.22905 3.59149C5.08452 4.24931 5.15322 4.93337 5.42487 5.55155L6.34037 5.14924C6.15349 4.72396 6.10693 4.25586 6.20576 3.80609L5.22905 3.59149ZM7.65868 2.52885C7.88504 2.49022 8.11689 2.49022 8.34325 2.52885L8.51149 1.54311C8.17378 1.48547 7.82816 1.48547 7.49044 1.54311L7.65868 2.52885ZM10.7729 3.59148C10.5411 2.53668 9.66851 1.74058 8.5898 1.55647L8.42156 2.54222C9.12152 2.66168 9.65661 3.17087 9.79618 3.80609L10.7729 3.59148ZM6.20576 3.80609C6.34533 3.17087 6.88042 2.66168 7.58037 2.54222L7.41213 1.55647C6.33343 1.74058 5.46081 2.53669 5.22905 3.59149L6.20576 3.80609Z" fill="#636363"/>
</svg>
