<svg width="16" height="16" viewBox="0 0 16 16" fill="none" xmlns="http://www.w3.org/2000/svg">
<path d="M3.36401 12.857C3.36401 11.2336 4.50589 9.85078 6.05774 9.59493L6.19753 9.57188C7.44017 9.36701 8.7064 9.36701 9.94904 9.57188L10.0888 9.59493C11.6407 9.85078 12.7826 11.2336 12.7826 12.857C12.7826 13.5587 12.2319 14.1275 11.5527 14.1275H4.59389C3.91465 14.1275 3.36401 13.5587 3.36401 12.857Z" stroke="#636363"/>
<path d="M10.8204 4.66691C10.8204 6.12989 9.59047 7.31587 8.0733 7.31587C6.55613 7.31587 5.32622 6.12989 5.32622 4.66691C5.32622 3.20393 6.55613 2.01794 8.0733 2.01794C9.59047 2.01794 10.8204 3.20393 10.8204 4.66691Z" stroke="#636363"/>
</svg>
