<svg width='17' height='16' viewBox="0 0 17 16" fill="none" xmlns="http://www.w3.org/2000/svg">

    <path d="M15.36 4.28a1.853 1.853 0 0 0-1.293-1.334c-1.147-.28-5.733-.28-5.733-.28s-4.587 0-5.734.307a1.853 1.853 0 0 0-1.293 1.333A19.333 19.333 0 0 0 1 7.833c-.007 1.191.096 2.38.307 3.553a1.854 1.854 0 0 0 1.293 1.28c1.147.307 5.734.307 5.734.307s4.586 0 5.733-.307a1.853 1.853 0 0 0 1.293-1.333 19.33 19.33 0 0 0 .307-3.5 19.33 19.33 0 0 0-.307-3.554Z" stroke="#fff" strokeLinecap="round"
    strokeLinejoin="round" />
    <path d="m6.834 10.014 3.833-2.18-3.833-2.18v4.36Z" stroke="#fff" />

</svg>
