<svg width="16" height="16" viewBox="0 0 16 16" fill="none" xmlns="http://www.w3.org/2000/svg">
<g id="Icon 3 - 16">
<path id="Icon" d="M13.3333 4.66654V4.5332C13.3333 3.41303 13.3333 2.85294 13.1153 2.42509C12.9236 2.04875 12.6176 1.74277 12.2412 1.55101C11.8134 1.33301 11.2533 1.33301 10.1331 1.33301H5.86621C4.74604 1.33301 4.18595 1.33301 3.7581 1.55101C3.38175 1.74277 3.07577 2.04875 2.88402 2.42509C2.66602 2.85294 2.66602 3.41303 2.66602 4.5332V11.467C2.66602 12.5871 2.66602 13.1472 2.88402 13.5751C3.07577 13.9514 3.38175 14.2574 3.7581 14.4492C4.18595 14.6672 4.74604 14.6672 5.86621 14.6672H8.33303M8.33303 7.33337H5.33285M7.66632 10.0002H5.33285M10.6665 4.66654H5.33285M11.9999 12.0003V8.33344C11.9999 7.78112 12.4477 7.33337 13 7.33337C13.5523 7.33337 14 7.78112 14 8.33344V12.0003C14 13.105 13.1046 14.0004 11.9999 14.0004C10.8953 14.0004 9.9998 13.105 9.9998 12.0003V9.3335" stroke="#171717" stroke-width="1.5" stroke-linecap="round" stroke-linejoin="round"/>
</g>
</svg>
