<svg width="16" height="16" viewBox="0 0 16 16" fill="none" xmlns="http://www.w3.org/2000/svg">
<g id="Icon 3 - 16">
<path id="Icon" d="M4.00081 7.33394V10.0008M12.0013 6.00053V8.66736M11.3346 2.66699C12.9672 2.66699 13.8502 2.91685 14.2895 3.11065C14.348 3.13646 14.3773 3.14936 14.4617 3.22994C14.5123 3.27824 14.6047 3.41997 14.6285 3.48577C14.6681 3.59554 14.6681 3.65555 14.6681 3.77555V10.9416C14.6681 11.5475 14.6681 11.8504 14.5773 12.0061C14.4849 12.1645 14.3957 12.2382 14.2227 12.299C14.0527 12.3589 13.7094 12.2929 13.0228 12.161C12.5423 12.0687 11.9723 12.0009 11.3346 12.0009C9.33447 12.0009 7.33435 13.3343 4.66752 13.3343C3.03495 13.3343 2.15195 13.0845 1.7126 12.8907C1.65409 12.8648 1.62483 12.8519 1.5404 12.7714C1.48978 12.7231 1.3974 12.5813 1.37363 12.5155C1.33398 12.4058 1.33398 12.3458 1.33398 12.2257L1.33398 5.05971C1.33398 4.45383 1.33398 4.15088 1.42484 3.99517C1.51726 3.83677 1.60639 3.76314 1.77938 3.70226C1.94945 3.64242 2.29273 3.70838 2.9793 3.8403C3.45986 3.93263 4.0298 4.00041 4.66752 4.00041C6.66764 4.00041 8.66777 2.66699 11.3346 2.66699ZM9.66783 8.00065C9.66783 8.92118 8.92159 9.66742 8.00106 9.66742C7.08053 9.66742 6.33429 8.92118 6.33429 8.00065C6.33429 7.08012 7.08053 6.33388 8.00106 6.33388C8.92159 6.33388 9.66783 7.08012 9.66783 8.00065Z" stroke="#171717" stroke-width="1.5" stroke-linecap="round" stroke-linejoin="round"/>
</g>
</svg>
