<svg width="16" height="16" viewBox="0 0 16 16" fill="none" xmlns="http://www.w3.org/2000/svg">
<g id="Icon 3 - 16">
<g id="Icon">
<path d="M8.00106 14.6672C11.6832 14.6672 14.6681 11.6822 14.6681 8.00008C14.6681 4.31796 11.6832 1.33301 8.00106 1.33301C4.31893 1.33301 1.33398 4.31796 1.33398 8.00008C1.33398 11.6822 4.31893 14.6672 8.00106 14.6672Z" stroke="#171717" stroke-width="1.5" stroke-linecap="round" stroke-linejoin="round"/>
<path d="M6.33429 5.97685C6.33429 5.65864 6.33429 5.49953 6.40079 5.41071C6.45874 5.3333 6.54745 5.28487 6.64389 5.27798C6.75457 5.27008 6.88841 5.35612 7.15608 5.52819L10.3033 7.55143C10.5356 7.70074 10.6517 7.7754 10.6919 7.87033C10.7269 7.95328 10.7269 8.04688 10.6919 8.12983C10.6517 8.22476 10.5356 8.29942 10.3033 8.44874L7.15608 10.472C6.88841 10.644 6.75457 10.7301 6.64389 10.7222C6.54745 10.7153 6.45874 10.6669 6.40079 10.5895C6.33429 10.5006 6.33429 10.3415 6.33429 10.0233V5.97685Z" stroke="#171717" stroke-width="1.5" stroke-linecap="round" stroke-linejoin="round"/>
</g>
</g>
</svg>
