<svg width="24" height="25" viewBox="0 0 24 25" fill="#181818" xmlns="http://www.w3.org/2000/svg">
<path d="M6.0278 8.88259L6.7517 9.07873L6.7517 9.07873L6.0278 8.88259ZM10.1584 4.55223L9.92711 3.83877L10.1584 4.55223ZM5.98297 9.04804L5.25907 8.8519L5.25907 8.8519L5.98297 9.04804ZM5.78956 13.1174L6.5288 12.9909V12.9909L5.78956 13.1174ZM5.81207 13.2489L5.07282 13.3755L5.07282 13.3755L5.81207 13.2489ZM6.28759 17.7072L6.43731 16.9723L6.28759 17.7072ZM6.65518 17.7821L6.8049 17.0471H6.8049L6.65518 17.7821ZM17.3448 17.7821L17.1951 17.0471H17.1951L17.3448 17.7821ZM17.7124 17.7072L17.8621 18.4421L17.7124 17.7072ZM18.1922 13.2237L18.9315 13.3503V13.3503L18.1922 13.2237ZM18.2161 13.0843L17.4769 12.9577V12.9577L18.2161 13.0843ZM18.0417 9.07624L17.3163 9.26657V9.26658L18.0417 9.07624ZM17.9793 8.83835L18.7047 8.64802V8.64802L17.9793 8.83835ZM13.9671 4.55838L14.2023 3.84621V3.84621L13.9671 4.55838ZM18.353 13.5508L17.9868 14.2053L18.353 13.5508ZM5.66797 13.5392L5.3088 12.8808L5.66797 13.5392ZM12.75 3.25C12.75 2.83579 12.4142 2.5 12 2.5C11.5858 2.5 11.25 2.83579 11.25 3.25H12.75ZM11.25 4.25474C11.25 4.66895 11.5858 5.00474 12 5.00474C12.4142 5.00474 12.75 4.66895 12.75 4.25474H11.25ZM9.0091 18.1534L9.09289 17.4081L8.19556 17.3072L8.26108 18.2078L9.0091 18.1534ZM14.9909 18.1534L15.7389 18.2078L15.8044 17.3072L14.9071 17.4081L14.9909 18.1534ZM14.9001 18.7272L15.6285 18.9063L14.9001 18.7272ZM14.8182 19.0606L14.0899 18.8815L14.8182 19.0606ZM12.7039 21.167L12.8784 21.8964H12.8784L12.7039 21.167ZM11.2961 21.167L11.1216 21.8964H11.1216L11.2961 21.167ZM9.18182 19.0606L8.45352 19.2396L9.18182 19.0606ZM9.09985 18.7272L9.82816 18.5481H9.82816L9.09985 18.7272ZM6.7517 9.07873C7.23925 7.27931 8.62052 5.83915 10.3896 5.26568L9.92711 3.83877C7.67951 4.56734 5.92499 6.39416 5.3039 8.68645L6.7517 9.07873ZM6.70687 9.24418L6.7517 9.07873L5.3039 8.68645L5.25907 8.8519L6.70687 9.24418ZM6.5288 12.9909C6.3153 11.7439 6.37608 10.465 6.70687 9.24418L5.25907 8.8519C4.87128 10.2831 4.80004 11.7822 5.05032 13.244L6.5288 12.9909ZM6.55131 13.1223L6.5288 12.9909L5.05032 13.244L5.07282 13.3755L6.55131 13.1223ZM5.25 15.5104C5.25 14.9432 5.56385 14.4503 6.02714 14.1976L5.3088 12.8808C4.38074 13.387 3.75 14.3751 3.75 15.5104H5.25ZM6.43731 16.9723C5.74893 16.832 5.25 16.2225 5.25 15.5104H3.75C3.75 16.9307 4.74616 18.1585 6.13787 18.4421L6.43731 16.9723ZM6.8049 17.0471L6.43731 16.9723L6.13787 18.4421L6.50547 18.517L6.8049 17.0471ZM17.1951 17.0471C13.7666 17.7456 10.2334 17.7456 6.8049 17.0471L6.50547 18.517C10.1316 19.2557 13.8684 19.2557 17.4945 18.517L17.1951 17.0471ZM17.5627 16.9723L17.1951 17.0471L17.4945 18.517L17.8621 18.4421L17.5627 16.9723ZM18.75 15.5104C18.75 16.2225 18.2511 16.832 17.5627 16.9723L17.8621 18.4421C19.2538 18.1585 20.25 16.9307 20.25 15.5104H18.75ZM17.9868 14.2053C18.4425 14.4603 18.75 14.9489 18.75 15.5104H20.25C20.25 14.3865 19.6319 13.407 18.7192 12.8963L17.9868 14.2053ZM17.4769 12.9577L17.453 13.0971L18.9315 13.3503L18.9554 13.2108L17.4769 12.9577ZM17.3163 9.26658C17.6323 10.4711 17.6871 11.7299 17.4769 12.9577L18.9554 13.2108C19.2017 11.7723 19.1375 10.2974 18.7672 8.88591L17.3163 9.26658ZM17.2539 9.02868L17.3163 9.26657L18.7672 8.88591L18.7047 8.64802L17.2539 9.02868ZM13.7319 5.27054C15.4622 5.842 16.7887 7.25574 17.2539 9.02868L18.7047 8.64802C18.1113 6.38594 16.4174 4.57779 14.2023 3.84621L13.7319 5.27054ZM10.3896 5.26568C11.474 4.91418 12.6528 4.91417 13.7319 5.27054L14.2023 3.84621C12.8171 3.38872 11.3114 3.39004 9.92711 3.83877L10.3896 5.26568ZM18.7192 12.8963C18.8626 12.9765 18.966 13.1488 18.9315 13.3503L17.453 13.0971C17.3735 13.5614 17.6116 13.9953 17.9868 14.2053L18.7192 12.8963ZM5.07282 13.3755C5.03579 13.1592 5.14712 12.969 5.3088 12.8808L6.02714 14.1976C6.39669 13.996 6.62845 13.5728 6.55131 13.1223L5.07282 13.3755ZM11.25 3.25V4.25474H12.75V3.25H11.25ZM8.92531 18.8987C10.9687 19.1284 13.0313 19.1284 15.0747 18.8987L14.9071 17.4081C12.9751 17.6253 11.0249 17.6253 9.09289 17.4081L8.92531 18.8987ZM15.6285 18.9063C15.6849 18.6768 15.7218 18.4432 15.7389 18.2078L14.2429 18.099C14.2319 18.2503 14.2081 18.4006 14.1718 18.5481L15.6285 18.9063ZM15.5465 19.2396L15.6285 18.9063L14.1718 18.5481L14.0899 18.8815L15.5465 19.2396ZM12.8784 21.8964C14.1945 21.5815 15.223 20.5552 15.5465 19.2396L14.0899 18.8815C13.8997 19.6547 13.2965 20.254 12.5294 20.4375L12.8784 21.8964ZM11.1216 21.8964C11.6991 22.0345 12.3009 22.0345 12.8784 21.8964L12.5294 20.4375C12.1813 20.5208 11.8187 20.5208 11.4706 20.4375L11.1216 21.8964ZM8.45352 19.2396C8.77701 20.5552 9.80549 21.5815 11.1216 21.8964L11.4706 20.4375C10.7035 20.254 10.1003 19.6547 9.91013 18.8815L8.45352 19.2396ZM8.37155 18.9063L8.45352 19.2396L9.91013 18.8815L9.82816 18.5481L8.37155 18.9063ZM8.26108 18.2078C8.2782 18.4432 8.31512 18.6768 8.37155 18.9063L9.82816 18.5481C9.79188 18.4006 9.76814 18.2503 9.75712 18.099L8.26108 18.2078Z" />
</svg>
