<svg width="24" height="25" viewBox="0 0 24 25" fill="none" color="currentColor" xmlns="http://www.w3.org/2000/svg">
<path d="M4.6531 17.2763L3.95839 17.5589L3.95839 17.5589L4.6531 17.2763ZM4.30609 11.6471L5.03006 11.843L4.30609 11.6471ZM19.6939 11.6471L18.9699 11.843L19.6939 11.6471ZM19.3469 17.2763L20.0416 17.5589V17.5589L19.3469 17.2763ZM14.0365 21.0918L13.9206 20.3508L14.0365 21.0918ZM9.96352 21.0918L10.0794 20.3508L9.96352 21.0918ZM8.65619 7.85213L8.50672 7.11718L8.65619 7.85213ZM15.3438 7.85213L15.4933 7.11718L15.4933 7.11718L15.3438 7.85213ZM9.21479 20.9747L9.0989 21.7157L9.21479 20.9747ZM4.74598 17.5046L5.44069 17.222L5.44069 17.222L4.74598 17.5046ZM14.7852 20.9747L14.9011 21.7157L14.7852 20.9747ZM19.254 17.5046L18.5593 17.222V17.222L19.254 17.5046ZM15.6199 7.90829L15.4705 8.64324L15.4705 8.64324L15.6199 7.90829ZM8.38009 7.90829L8.52956 8.64324L8.38009 7.90829ZM6.89397 7.68059C6.89397 8.09481 7.22976 8.43059 7.64397 8.43059C8.05819 8.43059 8.39397 8.09481 8.39397 7.68059H6.89397ZM7.64397 7.37771H6.89397H7.64397ZM16.356 7.37772H15.606H16.356ZM15.606 7.6806C15.606 8.09481 15.9418 8.4306 16.356 8.4306C16.7702 8.4306 17.106 8.09481 17.106 7.6806H15.606ZM10.8517 3.39126L10.6697 2.66368L10.6697 2.66368L10.8517 3.39126ZM13.1482 3.39126L13.3302 2.66368V2.66368L13.1482 3.39126ZM8.52956 8.64324L8.80567 8.58709L8.50672 7.11718L8.23062 7.17333L8.52956 8.64324ZM15.1943 8.58709L15.4705 8.64324L15.7694 7.17333L15.4933 7.11718L15.1943 8.58709ZM14.6693 20.2337L13.9206 20.3508L14.1523 21.8328L14.9011 21.7157L14.6693 20.2337ZM10.0794 20.3508L9.33068 20.2337L9.0989 21.7157L9.84762 21.8328L10.0794 20.3508ZM18.6522 16.9937L18.5593 17.222L19.9487 17.7873L20.0416 17.5589L18.6522 16.9937ZM5.44069 17.222L5.3478 16.9937L3.95839 17.5589L4.05128 17.7873L5.44069 17.222ZM5.34781 16.9937C4.67941 15.3508 4.56858 13.5488 5.03006 11.843L3.58212 11.4513C3.03465 13.4748 3.1667 15.613 3.95839 17.5589L5.34781 16.9937ZM18.9699 11.843C19.4314 13.5487 19.3206 15.3508 18.6522 16.9937L20.0416 17.5589C20.8333 15.613 20.9654 13.4748 20.4179 11.4512L18.9699 11.843ZM13.9206 20.3508C12.6486 20.5497 11.3514 20.5497 10.0794 20.3508L9.84762 21.8328C11.2732 22.0557 12.7268 22.0557 14.1523 21.8328L13.9206 20.3508ZM8.80567 8.58709C10.9118 8.15875 13.0882 8.15875 15.1943 8.58709L15.4933 7.11718C13.1899 6.64872 10.8101 6.64872 8.50672 7.11718L8.80567 8.58709ZM9.33068 20.2337C7.55628 19.9562 6.08366 18.8024 5.44069 17.222L4.05128 17.7873C4.90076 19.8753 6.82633 21.3602 9.0989 21.7157L9.33068 20.2337ZM14.9011 21.7157C17.1736 21.3602 19.0992 19.8753 19.9487 17.7873L18.5593 17.222C17.9163 18.8024 16.4437 19.9562 14.6693 20.2337L14.9011 21.7157ZM15.4705 8.64324C17.1912 8.9932 18.5368 10.2421 18.9699 11.843L20.4179 11.4512C19.8298 9.27766 18.0205 7.63115 15.7694 7.17333L15.4705 8.64324ZM8.23062 7.17333C5.97952 7.63115 4.17018 9.27766 3.58212 11.4513L5.03006 11.843C5.46317 10.2421 6.80883 8.9932 8.52956 8.64324L8.23062 7.17333ZM8.39397 7.68059V7.37771H6.89397V7.68059H8.39397ZM15.606 7.37772V7.6806H17.106V7.37772H15.606ZM11.0337 4.11884C11.6672 3.96039 12.3328 3.96039 12.9662 4.11884L13.3302 2.66368C12.4578 2.44544 11.5422 2.44544 10.6697 2.66368L11.0337 4.11884ZM17.106 7.37772C17.106 5.13982 15.535 3.21519 13.3302 2.66368L12.9662 4.11884C14.5399 4.5125 15.606 5.86508 15.606 7.37772H17.106ZM8.39397 7.37771C8.39397 5.86508 9.46002 4.5125 11.0337 4.11884L10.6697 2.66368C8.46497 3.21519 6.89397 5.13982 6.89397 7.37771H8.39397Z" fill="currentColor"/>
<path d="M12 13.75L12 15.75" stroke="currentColor" stroke-width="1.5" stroke-linecap="round"/>
</svg>
