<svg width="24" height="25" viewBox="0 0 24 25" fill="none" color="currentColor" xmlns="http://www.w3.org/2000/svg">
<path d="M13.3986 8.39605C13.495 8.12724 13.88 8.12724 13.9764 8.39605L14.2401 9.13111C14.271 9.21715 14.3395 9.28484 14.4266 9.31533L15.1709 9.57579C15.443 9.67103 15.443 10.0512 15.1709 10.1464L14.4266 10.4069C14.3395 10.4374 14.271 10.5051 14.2401 10.5911L13.9764 11.3262C13.88 11.595 13.495 11.595 13.3986 11.3262L13.1349 10.5911C13.104 10.5051 13.0355 10.4374 12.9484 10.4069L12.2041 10.1464C11.932 10.0512 11.932 9.67103 12.2041 9.57579L12.9484 9.31533C13.0355 9.28484 13.104 9.21715 13.1349 9.13111L13.3986 8.39605Z" fill="currentColor"/>
<path d="M16.3074 11.6622C16.3717 11.483 16.6283 11.483 16.6926 11.6622L16.8684 12.1522C16.889 12.2096 16.9347 12.2547 16.9928 12.275L17.4889 12.4487C17.6704 12.5122 17.6704 12.7656 17.4889 12.8291L16.9928 13.0027C16.9347 13.0231 16.889 13.0682 16.8684 13.1256L16.6926 13.6156C16.6283 13.7948 16.3717 13.7948 16.3074 13.6156L16.1316 13.1256C16.111 13.0682 16.0653 13.0231 16.0072 13.0027L15.5111 12.8291C15.3296 12.7656 15.3296 12.5122 15.5111 12.4487L16.0072 12.275C16.0653 12.2547 16.111 12.2096 16.1316 12.1522L16.3074 11.6622Z" fill="currentColor"/>
<path d="M17.7693 4.04184C17.9089 3.65272 18.4661 3.65272 18.6057 4.04184L19.0842 5.37551C19.1288 5.50006 19.2281 5.59805 19.3542 5.64219L20.7045 6.11475C21.0985 6.25263 21.0985 6.80293 20.7045 6.94081L19.3542 7.41337C19.2281 7.4575 19.1288 7.55549 19.0842 7.68005L18.6057 9.01372C18.4661 9.40284 17.9089 9.40284 17.7693 9.01372L17.2908 7.68005C17.2462 7.55549 17.1469 7.4575 17.0208 7.41337L15.6705 6.94081C15.2765 6.80293 15.2765 6.25263 15.6705 6.11475L17.0208 5.64219C17.1469 5.59805 17.2462 5.50006 17.2908 5.37551L17.7693 4.04184Z" fill="currentColor"/>
<path d="M3 14.2097C3 18.3741 6.4742 21.75 10.7598 21.75C14.0591 21.75 16.8774 19.7493 18 16.9283C17.1109 17.3341 16.1181 17.5609 15.0709 17.5609C11.2614 17.5609 8.17323 14.5601 8.17323 10.8584C8.17323 9.31025 8.71338 7.88471 9.62054 6.75C5.87502 7.2855 3 10.4213 3 14.2097Z" stroke="currentColor" stroke-width="1.5" stroke-linecap="round" stroke-linejoin="round"/>
</svg>
