<svg width="24" height="25" viewBox="0 0 24 25" fill="none" stroke="#FDFDFD" xmlns="http://www.w3.org/2000/svg">
<path d="M13.7517 5.44328C13.7517 4.60838 13.1416 3.89882 12.3161 3.77379C12.1066 3.74206 11.8935 3.74206 11.6839 3.77379C10.8584 3.89882 10.2482 4.60839 10.2482 5.44329V6.62396C9.77662 6.75857 9.32734 6.94617 8.90726 7.17992L8.07205 6.3447C7.48168 5.75434 6.54849 5.68407 5.87637 6.17936C5.70578 6.30508 5.55509 6.45577 5.42937 6.62637C4.93407 7.29849 5.00434 8.23169 5.59471 8.82206L6.42992 9.65727C6.19617 10.0773 6.00857 10.5266 5.87397 10.9982H4.6933C3.85839 10.9982 3.14883 11.6084 3.0238 12.4339C2.99207 12.6434 2.99207 12.8566 3.0238 13.0661C3.14883 13.8916 3.85839 14.5017 4.69329 14.5017H5.87396C6.00857 14.9734 6.19617 15.4227 6.42992 15.8427L5.59471 16.6779C5.00434 17.2683 4.93407 18.2015 5.42937 18.8736C5.55509 19.0442 5.70578 19.1949 5.87638 19.3206C6.5485 19.8159 7.48169 19.7457 8.07205 19.1553L8.90726 18.3201C9.32734 18.5538 9.77662 18.7414 10.2482 18.876V20.0567C10.2482 20.8916 10.8584 21.6012 11.6839 21.7262C11.8934 21.7579 12.1066 21.7579 12.3161 21.7262C13.1416 21.6012 13.7517 20.8916 13.7517 20.0567V18.876C14.2234 18.7414 14.6727 18.5538 15.0927 18.3201L15.9279 19.1553C16.5183 19.7457 17.4515 19.8159 18.1236 19.3206C18.2942 19.1949 18.4449 19.0442 18.5706 18.8736C19.0659 18.2015 18.9957 17.2683 18.4053 16.678L17.5701 15.8427C17.8038 15.4227 17.9914 14.9734 18.1261 14.5017H19.3067C20.1416 14.5017 20.8512 13.8916 20.9762 13.0661C21.0079 12.8566 21.0079 12.6434 20.9762 12.4339C20.8512 11.6084 20.1416 10.9982 19.3067 10.9982H18.126C17.9914 10.5266 17.8038 10.0773 17.5701 9.65726L18.4053 8.82204C18.9957 8.23168 19.0659 7.29848 18.5706 6.62637C18.4449 6.45577 18.2942 6.30508 18.1236 6.17936C17.4515 5.68406 16.5183 5.75433 15.9279 6.3447L15.0927 7.17991C14.6727 6.94617 14.2234 6.75856 13.7517 6.62396V5.44328Z"  stroke-width="1.5" stroke-linecap="round" stroke-linejoin="round"/>
<path d="M9.5 12.75C9.5 11.3693 10.6193 10.25 12 10.25C13.3807 10.25 14.5 11.3693 14.5 12.75C14.5 14.1307 13.3807 15.25 12 15.25C10.6193 15.25 9.5 14.1307 9.5 12.75Z"  stroke-width="1.5"/>
</svg>
