<svg width="121" height="120" viewBox="0 0 121 120" fill="none" xmlns="http://www.w3.org/2000/svg">
<mask id="path-1-inside-1_9881_52055" fill="white">
<path d="M0.5 16.9832C0.5 7.60365 8.10365 0 17.4832 0H103.517C112.896 0 120.5 7.60365 120.5 16.9832V103.017C120.5 112.396 112.896 120 103.517 120H17.4832C8.10365 120 0.5 112.396 0.5 103.017V16.9832Z"/>
</mask>
<path d="M17.4832 4.24581H103.517V-4.24581H17.4832V4.24581ZM116.254 16.9832V103.017H124.746V16.9832H116.254ZM103.517 115.754H17.4832V124.246H103.517V115.754ZM4.74581 103.017V16.9832H-3.74581V103.017H4.74581ZM17.4832 115.754C10.4485 115.754 4.74581 110.051 4.74581 103.017H-3.74581C-3.74581 114.741 5.75876 124.246 17.4832 124.246V115.754ZM116.254 103.017C116.254 110.051 110.551 115.754 103.517 115.754V124.246C115.241 124.246 124.746 114.741 124.746 103.017H116.254ZM103.517 4.24581C110.551 4.24581 116.254 9.94855 116.254 16.9832H124.746C124.746 5.25876 115.241 -4.24581 103.517 -4.24581V4.24581ZM17.4832 -4.24581C5.75876 -4.24581 -3.74581 5.25876 -3.74581 16.9832H4.74581C4.74581 9.94855 10.4485 4.24581 17.4832 4.24581V-4.24581Z" fill="black" mask="url(#path-1-inside-1_9881_52055)"/>
<path fill-rule="evenodd" clip-rule="evenodd" d="M67.9102 85.9333L64.9084 86.4377C63.6737 86.6452 62.7904 87.7543 62.8562 89.0145L63.0356 92.4505C63.1043 93.7678 64.1838 94.8003 65.4922 94.8003H90.4402C91.7988 94.8003 92.9002 93.6899 92.9002 92.3202V88.7501C92.9002 87.6033 92.1203 86.6061 91.0143 86.3385L86.3675 85.2141L86.3462 85.1926L86.343 85.1894L86.3334 85.1798L86.3302 85.1765L86.3014 85.1475L86.2982 85.1443L86.1745 85.0195L86.1514 84.9962L86.1414 84.9862L86.1314 84.9761L86.1215 84.966L86.1114 84.9559L86.1081 84.9526L86.0846 84.9289L86.0813 84.9255L86.0712 84.9153L86.0678 84.9119L86.0442 84.8881L86.0408 84.8847L86.0374 84.8813L86.034 84.8779L86.017 84.8607L86.0136 84.8573L86.0102 84.8538L86.0068 84.8504L86.0033 84.847L85.9999 84.8435L85.9965 84.8401L85.9931 84.8366L85.9897 84.8332L85.9863 84.8297L85.9828 84.8263L85.9794 84.8228L85.976 84.8194L85.9725 84.8159L85.9691 84.8124L85.9588 84.802L85.9553 84.7986L85.9519 84.7951L85.9484 84.7916L85.9103 84.7532L85.9069 84.7497L85.8895 84.7321L85.886 84.7286L85.7122 84.5534L85.7014 84.5425L85.6905 84.5316L85.6869 84.528L85.6616 84.5024L85.6579 84.4987L85.647 84.4877L85.6434 84.484L85.6251 84.4656L85.6214 84.4619L85.6178 84.4582L85.6141 84.4546L85.6031 84.4435L85.5995 84.4398L85.5958 84.4361L85.5921 84.4324L85.5884 84.4287L85.5848 84.4249L85.5256 84.3653L85.5219 84.3615L85.5181 84.3578L85.5144 84.354L85.5032 84.3428L85.4995 84.339L85.4958 84.3352L85.492 84.3315L85.4658 84.305L85.4545 84.2937L85.4357 84.2747L85.4244 84.2633L85.3789 84.2174L85.221 84.0582L85.2171 84.0542L85.1897 84.0267L85.1858 84.0227L85.1583 83.995L85.1544 83.991L85.1426 83.9791L85.1386 83.9751L85.1347 83.9712L85.1307 83.9672L85.0433 83.879L85.0393 83.875L85.0353 83.871L85.0313 83.8669L85.0192 83.8548L85.0152 83.8507L84.987 83.8223L84.983 83.8183L84.9547 83.7898L84.9507 83.7857L84.9237 83.7584C84.2004 82.9566 83.3742 82.0513 82.4457 81.0428C81.5313 79.8947 80.4447 78.6505 79.1915 77.312L60.84 56.6792L83.8511 34.7312L89.2896 33.7858C90.5155 33.5727 91.3907 32.4705 91.3286 31.2179L91.147 27.5566C91.0815 26.2366 90.0009 25.2003 88.6901 25.2003H68.1491C66.8407 25.2003 65.7612 26.2328 65.6925 27.5501L65.5122 31.0034C65.4486 32.2214 66.2728 33.3052 67.456 33.5595L70.271 34.1643L50.4002 54.8785L48.84 55.294V40.7795C48.9122 38.4578 48.9838 36.6874 49.0545 35.4585C49.0859 35.193 49.1165 34.9594 49.146 34.7562L54.3289 33.5569C55.4938 33.2874 56.298 32.2127 56.2352 31.0093L56.0546 27.5501C55.9859 26.2328 54.9064 25.2003 53.598 25.2003H30.8312C29.5476 25.2003 28.4798 26.1952 28.3788 27.4853L28.1079 30.9453C28.0116 32.1744 28.8255 33.2882 30.0184 33.5598L35.1464 34.7272C35.1533 34.9523 35.157 35.21 35.157 35.5019V35.5586L35.1602 35.6152C35.2309 36.8987 35.2677 38.7151 35.2677 41.0824V41.1154L35.2688 41.1483C35.3417 43.4256 35.3785 46.2296 35.3785 49.5648V70.5475C35.3785 75.4517 35.3416 79.2624 35.2685 81.9881C35.2294 83.4472 35.1806 84.5327 35.1283 85.2827L30.1206 86.4415C28.9318 86.7165 28.1225 87.8282 28.2185 89.054L28.4895 92.5154C28.5905 93.8054 29.6584 94.8003 30.9419 94.8003H53.2766C54.5601 94.8003 55.6279 93.8054 55.729 92.5154L56 89.054C56.096 87.8282 55.2867 86.7165 54.0979 86.4415L49.1465 85.2958C49.0918 84.4982 49.026 83.3905 48.9493 81.9607C48.8767 79.2368 48.84 75.4353 48.84 70.5475V64.4424H49.3297L65.6804 83.1896L65.6991 83.2099C66.5842 84.1708 67.3182 85.0788 67.9102 85.9333Z" fill="black"/>
</svg>
