<svg width="121" height="120" viewBox="0 0 121 120" fill="none" xmlns="http://www.w3.org/2000/svg">
<mask id="path-1-inside-1_8616_175788" fill="white">
<path d="M0.5 16.9832C0.5 7.60365 8.10365 0 17.4832 0H103.517C112.896 0 120.5 7.60365 120.5 16.9832V103.017C120.5 112.396 112.896 120 103.517 120H17.4832C8.10365 120 0.5 112.396 0.5 103.017V16.9832Z"/>
</mask>
<path d="M17.4832 4.24581H103.517V-4.24581H17.4832V4.24581ZM116.254 16.9832V103.017H124.746V16.9832H116.254ZM103.517 115.754H17.4832V124.246H103.517V115.754ZM4.74581 103.017V16.9832H-3.74581V103.017H4.74581ZM17.4832 115.754C10.4485 115.754 4.74581 110.051 4.74581 103.017H-3.74581C-3.74581 114.741 5.75876 124.246 17.4832 124.246V115.754ZM116.254 103.017C116.254 110.051 110.551 115.754 103.517 115.754V124.246C115.241 124.246 124.746 114.741 124.746 103.017H116.254ZM103.517 4.24581C110.551 4.24581 116.254 9.94855 116.254 16.9832H124.746C124.746 5.25876 115.241 -4.24581 103.517 -4.24581V4.24581ZM17.4832 -4.24581C5.75876 -4.24581 -3.74581 5.25876 -3.74581 16.9832H4.74581C4.74581 9.94855 10.4485 4.24581 17.4832 4.24581V-4.24581Z" fill="white" mask="url(#path-1-inside-1_8616_175788)"/>
<path fill-rule="evenodd" clip-rule="evenodd" d="M67.9102 85.9335L64.9084 86.4379C63.6737 86.6453 62.7904 87.7544 62.8562 89.0146L63.0356 92.4507C63.1043 93.7679 64.1838 94.8004 65.4922 94.8004H90.4402C91.7988 94.8004 92.9002 93.69 92.9002 92.3203V88.7502C92.9002 87.6035 92.1203 86.6062 91.0143 86.3386L86.3675 85.2143L86.3462 85.1927L86.343 85.1895L86.3334 85.1799L86.3302 85.1767L86.3014 85.1476L86.2982 85.1444L86.1745 85.0197L86.1514 84.9963L86.1414 84.9863L86.1314 84.9762L86.1215 84.9662L86.1114 84.9561L86.1081 84.9527L86.0846 84.929L86.0813 84.9257L86.0712 84.9155L86.0678 84.9121L86.0442 84.8882L86.0408 84.8848L86.0374 84.8814L86.034 84.878L86.017 84.8608L86.0136 84.8574L86.0102 84.854L86.0068 84.8505L86.0033 84.8471L85.9999 84.8436L85.9965 84.8402L85.9931 84.8368L85.9897 84.8333L85.9863 84.8298L85.9828 84.8264L85.9794 84.8229L85.976 84.8195L85.9725 84.816L85.9691 84.8126L85.9588 84.8022L85.9553 84.7987L85.9519 84.7952L85.9484 84.7917L85.9103 84.7533L85.9069 84.7498L85.8895 84.7323L85.886 84.7287L85.7122 84.5536L85.7014 84.5426L85.6905 84.5317L85.6869 84.5281L85.6616 84.5025L85.6579 84.4988L85.647 84.4878L85.6434 84.4841L85.6251 84.4657L85.6214 84.4621L85.6178 84.4584L85.6141 84.4547L85.6031 84.4436L85.5995 84.4399L85.5958 84.4362L85.5921 84.4325L85.5884 84.4288L85.5848 84.4251L85.5256 84.3654L85.5219 84.3616L85.5181 84.3579L85.5144 84.3541L85.5032 84.3429L85.4995 84.3391L85.4958 84.3353L85.492 84.3316L85.4658 84.3051L85.4545 84.2938L85.4357 84.2748L85.4244 84.2634L85.3789 84.2175L85.221 84.0583L85.2171 84.0544L85.1897 84.0268L85.1858 84.0228L85.1583 83.9951L85.1544 83.9912L85.1426 83.9792L85.1386 83.9753L85.1347 83.9713L85.1307 83.9673L85.0433 83.8791L85.0393 83.8751L85.0353 83.8711L85.0313 83.867L85.0192 83.8549L85.0152 83.8509L84.987 83.8225L84.983 83.8184L84.9547 83.7899L84.9507 83.7858L84.9237 83.7586C84.2004 82.9568 83.3742 82.0514 82.4457 81.043C81.5313 79.8948 80.4447 78.6506 79.1915 77.3121L60.84 56.6793L83.8511 34.7313L89.2896 33.786C90.5155 33.5729 91.3907 32.4706 91.3286 31.218L91.147 27.5567C91.0815 26.2368 90.0009 25.2004 88.6901 25.2004H68.1491C66.8407 25.2004 65.7612 26.233 65.6925 27.5502L65.5122 31.0036C65.4486 32.2215 66.2728 33.3054 67.456 33.5596L70.271 34.1644L50.4002 54.8787L48.84 55.2941V40.7796C48.9122 38.4579 48.9838 36.6875 49.0545 35.4587C49.0859 35.1931 49.1165 34.9595 49.146 34.7563L54.3289 33.5571C55.4938 33.2875 56.298 32.2128 56.2352 31.0094L56.0546 27.5502C55.9859 26.233 54.9064 25.2004 53.598 25.2004H30.8312C29.5476 25.2004 28.4798 26.1954 28.3788 27.4854L28.1079 30.9455C28.0116 32.1746 28.8255 33.2883 30.0184 33.5599L35.1464 34.7273C35.1533 34.9524 35.157 35.2101 35.157 35.502V35.5587L35.1602 35.6153C35.2309 36.8988 35.2677 38.7153 35.2677 41.0825V41.1155L35.2688 41.1484C35.3417 43.4257 35.3785 46.2297 35.3785 49.5649V70.5476C35.3785 75.4518 35.3416 79.2625 35.2685 81.9882C35.2294 83.4473 35.1806 84.5328 35.1283 85.2829L30.1206 86.4416C28.9318 86.7167 28.1225 87.8283 28.2185 89.0541L28.4895 92.5155C28.5905 93.8055 29.6584 94.8004 30.9419 94.8004H53.2766C54.5601 94.8004 55.6279 93.8055 55.729 92.5155L56 89.0541C56.096 87.8283 55.2867 86.7167 54.0979 86.4416L49.1465 85.2959C49.0918 84.4983 49.026 83.3906 48.9493 81.9608C48.8767 79.2369 48.84 75.4354 48.84 70.5476V64.4425H49.3297L65.6804 83.1897L65.6991 83.21C66.5842 84.171 67.3182 85.0789 67.9102 85.9335Z" fill="white"/>
</svg>
