<svg width="320" height="320" viewBox="0 0 320 320" fill="none" xmlns="http://www.w3.org/2000/svg">
<mask id="path-1-inside-1_45713_8" fill="white">
<path fill-rule="evenodd" clip-rule="evenodd" d="M80 0C35.8172 0 0 35.8172 0 80V240C0 284.183 35.8172 320 80 320H240C284.183 320 320 284.183 320 240V80C320 35.8172 284.183 0 240 0H80ZM171.755 230.5L179.76 229.155C178.181 226.876 176.224 224.455 173.864 221.892L173.814 221.838L130.212 171.846H128.906V188.126C128.906 201.16 129.004 211.297 129.198 218.561C129.402 222.374 129.578 225.328 129.724 227.455L142.927 230.51C146.097 231.243 148.256 234.208 148 237.476L147.277 246.707C147.007 250.147 144.16 252.8 140.737 252.8H81.1779C77.7552 252.8 74.9077 250.147 74.6383 246.707L73.9155 237.476C73.6595 234.208 75.8178 231.243 78.9877 230.51L92.3418 227.42C92.4812 225.42 92.6112 222.525 92.7155 218.634C92.9104 211.365 93.0088 201.204 93.0088 188.126V132.172C93.0088 123.278 92.9107 115.801 92.7164 109.728L92.7136 109.64V109.552C92.7136 103.239 92.6153 98.3956 92.4267 94.9731L92.4184 94.8221V94.6709C92.4184 93.8924 92.4084 93.2052 92.39 92.6049L78.7153 89.4918C75.5343 88.7677 73.3639 85.7976 73.6206 82.52L74.3431 73.2932C74.6125 69.8531 77.46 67.2 80.8827 67.2H141.594C145.083 67.2 147.962 69.9534 148.145 73.4661L148.627 82.6906C148.794 85.8996 146.65 88.7655 143.543 89.4843L129.722 92.6823C129.644 93.2242 129.562 93.8471 129.478 94.5552C129.29 97.8323 129.099 102.553 128.906 108.745V147.45L133.067 146.342L186.056 91.1039L178.549 89.491C175.394 88.8131 173.196 85.9229 173.365 82.675L173.846 73.4661C174.029 69.9534 176.908 67.2 180.397 67.2H235.173C238.669 67.2 241.55 69.9635 241.725 73.4834L242.209 83.2469C242.375 86.5872 240.041 89.5265 236.772 90.0947L222.269 92.6156L160.906 151.144L209.844 206.164C213.185 209.734 216.083 213.052 218.521 216.113C220.998 218.803 223.201 221.217 225.129 223.355L225.201 223.428L225.212 223.438L225.288 223.515L225.298 223.525L225.373 223.601L225.384 223.612L225.416 223.644L225.427 223.655L225.438 223.666L225.448 223.677L225.681 223.912L225.692 223.922L225.703 223.933L225.713 223.943L225.745 223.975L225.755 223.986L225.828 224.06L225.839 224.07L225.912 224.144L225.922 224.154L226.343 224.579L226.465 224.701L226.495 224.732L226.545 224.782L226.575 224.813L226.645 224.883L226.655 224.893L226.665 224.903L226.675 224.913L226.705 224.943L226.715 224.953L226.724 224.963L226.734 224.973L226.892 225.132L226.902 225.142L226.912 225.152L226.922 225.162L226.931 225.172L226.941 225.182L226.971 225.211L226.98 225.221L226.99 225.231L227 225.241L227.049 225.29L227.058 225.3L227.087 225.329L227.097 225.339L227.165 225.407L227.174 225.417L227.203 225.446L227.232 225.475L227.695 225.942L227.705 225.952L227.751 225.998L227.76 226.008L227.862 226.11L227.871 226.119L227.88 226.129L227.89 226.138L227.917 226.166L227.926 226.175L227.935 226.184L227.945 226.193L227.954 226.203L227.963 226.212L227.972 226.221L227.981 226.23L227.99 226.239L227.999 226.249L228.008 226.258L228.018 226.267L228.027 226.276L228.036 226.285L228.045 226.294L228.09 226.34L228.099 226.349L228.108 226.358L228.117 226.367L228.18 226.431L228.189 226.44L228.216 226.467L228.225 226.476L228.288 226.539L228.297 226.548L228.323 226.575L228.35 226.602L228.377 226.629L228.403 226.656L228.465 226.718L228.795 227.051L228.803 227.059L228.88 227.137L228.889 227.145L228.914 227.171L228.923 227.179L228.98 227.237L241.371 230.235C244.32 230.949 246.4 233.608 246.4 236.666V246.186C246.4 249.839 243.463 252.8 239.84 252.8H173.312C169.823 252.8 166.944 250.047 166.761 246.534L166.283 237.371C166.107 234.011 168.463 231.053 171.755 230.5Z"/>
</mask>
<path fill-rule="evenodd" clip-rule="evenodd" d="M80 0C35.8172 0 0 35.8172 0 80V240C0 284.183 35.8172 320 80 320H240C284.183 320 320 284.183 320 240V80C320 35.8172 284.183 0 240 0H80ZM171.755 230.5L179.76 229.155C178.181 226.876 176.224 224.455 173.864 221.892L173.814 221.838L130.212 171.846H128.906V188.126C128.906 201.16 129.004 211.297 129.198 218.561C129.402 222.374 129.578 225.328 129.724 227.455L142.927 230.51C146.097 231.243 148.256 234.208 148 237.476L147.277 246.707C147.007 250.147 144.16 252.8 140.737 252.8H81.1779C77.7552 252.8 74.9077 250.147 74.6383 246.707L73.9155 237.476C73.6595 234.208 75.8178 231.243 78.9877 230.51L92.3418 227.42C92.4812 225.42 92.6112 222.525 92.7155 218.634C92.9104 211.365 93.0088 201.204 93.0088 188.126V132.172C93.0088 123.278 92.9107 115.801 92.7164 109.728L92.7136 109.64V109.552C92.7136 103.239 92.6153 98.3956 92.4267 94.9731L92.4184 94.8221V94.6709C92.4184 93.8924 92.4084 93.2052 92.39 92.6049L78.7153 89.4918C75.5343 88.7677 73.3639 85.7976 73.6206 82.52L74.3431 73.2932C74.6125 69.8531 77.46 67.2 80.8827 67.2H141.594C145.083 67.2 147.962 69.9534 148.145 73.4661L148.627 82.6906C148.794 85.8996 146.65 88.7655 143.543 89.4843L129.722 92.6823C129.644 93.2242 129.562 93.8471 129.478 94.5552C129.29 97.8323 129.099 102.553 128.906 108.745V147.45L133.067 146.342L186.056 91.1039L178.549 89.491C175.394 88.8131 173.196 85.9229 173.365 82.675L173.846 73.4661C174.029 69.9534 176.908 67.2 180.397 67.2H235.173C238.669 67.2 241.55 69.9635 241.725 73.4834L242.209 83.2469C242.375 86.5872 240.041 89.5265 236.772 90.0947L222.269 92.6156L160.906 151.144L209.844 206.164C213.185 209.734 216.083 213.052 218.521 216.113C220.998 218.803 223.201 221.217 225.129 223.355L225.201 223.428L225.212 223.438L225.288 223.515L225.298 223.525L225.373 223.601L225.384 223.612L225.416 223.644L225.427 223.655L225.438 223.666L225.448 223.677L225.681 223.912L225.692 223.922L225.703 223.933L225.713 223.943L225.745 223.975L225.755 223.986L225.828 224.06L225.839 224.07L225.912 224.144L225.922 224.154L226.343 224.579L226.465 224.701L226.495 224.732L226.545 224.782L226.575 224.813L226.645 224.883L226.655 224.893L226.665 224.903L226.675 224.913L226.705 224.943L226.715 224.953L226.724 224.963L226.734 224.973L226.892 225.132L226.902 225.142L226.912 225.152L226.922 225.162L226.931 225.172L226.941 225.182L226.971 225.211L226.98 225.221L226.99 225.231L227 225.241L227.049 225.29L227.058 225.3L227.087 225.329L227.097 225.339L227.165 225.407L227.174 225.417L227.203 225.446L227.232 225.475L227.695 225.942L227.705 225.952L227.751 225.998L227.76 226.008L227.862 226.11L227.871 226.119L227.88 226.129L227.89 226.138L227.917 226.166L227.926 226.175L227.935 226.184L227.945 226.193L227.954 226.203L227.963 226.212L227.972 226.221L227.981 226.23L227.99 226.239L227.999 226.249L228.008 226.258L228.018 226.267L228.027 226.276L228.036 226.285L228.045 226.294L228.09 226.34L228.099 226.349L228.108 226.358L228.117 226.367L228.18 226.431L228.189 226.44L228.216 226.467L228.225 226.476L228.288 226.539L228.297 226.548L228.323 226.575L228.35 226.602L228.377 226.629L228.403 226.656L228.465 226.718L228.795 227.051L228.803 227.059L228.88 227.137L228.889 227.145L228.914 227.171L228.923 227.179L228.98 227.237L241.371 230.235C244.32 230.949 246.4 233.608 246.4 236.666V246.186C246.4 249.839 243.463 252.8 239.84 252.8H173.312C169.823 252.8 166.944 250.047 166.761 246.534L166.283 237.371C166.107 234.011 168.463 231.053 171.755 230.5Z" fill="#FDFDFD"/>
<path d="M179.76 229.155L181.562 239.881L198.455 237.042L188.701 222.961L179.76 229.155ZM171.755 230.5L169.953 219.774L169.953 219.774L171.755 230.5ZM173.864 221.892L181.864 214.524L181.864 214.524L173.864 221.892ZM173.814 221.838L165.617 228.987L165.714 229.098L165.814 229.207L173.814 221.838ZM130.212 171.846L138.409 164.696L135.158 160.969H130.212V171.846ZM128.906 171.846V160.969H118.03V171.846H128.906ZM129.198 218.561L118.325 218.851L118.329 218.997L118.337 219.144L129.198 218.561ZM129.724 227.455L118.872 228.199L119.424 236.235L127.272 238.051L129.724 227.455ZM142.927 230.51L140.475 241.106L140.475 241.106L142.927 230.51ZM148 237.476L137.156 236.627L137.156 236.627L148 237.476ZM147.277 246.707L158.12 247.556L158.12 247.556L147.277 246.707ZM74.6383 246.707L63.7949 247.556L63.7949 247.556L74.6383 246.707ZM73.9155 237.476L63.0721 238.325L63.0721 238.325L73.9155 237.476ZM78.9877 230.51L81.4396 241.106L81.4397 241.106L78.9877 230.51ZM92.3418 227.42L94.7937 238.016L102.633 236.203L103.192 228.176L92.3418 227.42ZM92.7155 218.634L103.588 218.926L103.588 218.926L92.7155 218.634ZM92.7164 109.728L81.8453 110.076L81.8453 110.076L92.7164 109.728ZM92.7136 109.64H81.837V109.814L81.8425 109.988L92.7136 109.64ZM92.4267 94.9731L81.5665 95.5714L81.5666 95.5715L92.4267 94.9731ZM92.4184 94.8221H81.5418V95.1215L81.5582 95.4204L92.4184 94.8221ZM92.39 92.6049L103.261 92.2714L103.004 83.8663L94.8043 81.9997L92.39 92.6049ZM78.7153 89.4918L81.1296 78.8866L81.1296 78.8866L78.7153 89.4918ZM73.6206 82.52L62.7772 81.6709L62.7772 81.6709L73.6206 82.52ZM74.3431 73.2932L85.1865 74.1423L85.1865 74.1423L74.3431 73.2932ZM148.145 73.4661L137.283 74.0331L137.283 74.0331L148.145 73.4661ZM148.627 82.6906L159.489 82.1236L159.489 82.1236L148.627 82.6906ZM143.543 89.4843L141.091 78.8877L141.091 78.8877L143.543 89.4843ZM129.722 92.6823L127.27 82.0857L120.028 83.7615L118.959 91.1181L129.722 92.6823ZM129.478 94.5552L118.677 93.2775L118.638 93.6032L118.62 93.9306L129.478 94.5552ZM128.906 108.745L118.035 108.407L118.03 108.576V108.745H128.906ZM128.906 147.45H118.03V161.602L131.705 157.96L128.906 147.45ZM133.067 146.342L135.866 156.852L138.808 156.069L140.916 153.871L133.067 146.342ZM186.056 91.1039L193.905 98.6334L207.4 84.5651L188.34 80.47L186.056 91.1039ZM178.549 89.491L176.264 100.125L176.264 100.125L178.549 89.491ZM173.365 82.675L162.504 82.1079L162.504 82.108L173.365 82.675ZM173.846 73.4661L162.984 72.899L162.984 72.899L173.846 73.4661ZM241.725 73.4834L230.862 74.0222L230.862 74.0222L241.725 73.4834ZM242.209 83.2469L231.346 83.7856L231.346 83.7857L242.209 83.2469ZM236.772 90.0947L234.909 79.3788L234.909 79.3788L236.772 90.0947ZM222.269 92.6156L220.407 81.8997L217.152 82.4654L214.762 84.745L222.269 92.6156ZM160.906 151.144L153.399 143.273L145.798 150.523L152.779 158.372L160.906 151.144ZM209.844 206.164L201.717 213.393L201.809 213.497L201.904 213.598L209.844 206.164ZM218.521 216.113L210.013 222.889L210.256 223.194L210.52 223.481L218.521 216.113ZM225.129 223.355L217.053 230.64L217.225 230.831L217.406 231.013L225.129 223.355ZM225.201 223.428L217.478 231.086L217.483 231.091L217.489 231.097L225.201 223.428ZM225.212 223.438L232.936 215.78L232.93 215.775L232.925 215.769L225.212 223.438ZM225.288 223.515L217.564 231.173L217.57 231.178L225.288 223.515ZM225.298 223.525L233.02 215.866L233.016 215.862L225.298 223.525ZM225.373 223.601L233.102 215.948L233.095 215.941L225.373 223.601ZM225.384 223.612L217.655 231.265L217.662 231.272L225.384 223.612ZM225.416 223.644L217.694 231.304L217.698 231.308L225.416 223.644ZM225.427 223.655L233.151 215.997L233.145 215.991L225.427 223.655ZM225.438 223.666L217.714 231.324L217.719 231.329L225.438 223.666ZM225.448 223.677L233.171 216.017L233.167 216.013L225.448 223.677ZM225.681 223.912L233.406 216.254L233.404 216.252L225.681 223.912ZM225.692 223.922L217.968 231.58L217.973 231.585L225.692 223.922ZM225.703 223.933L233.427 216.275L233.421 216.27L225.703 223.933ZM225.713 223.943L217.989 231.601L217.991 231.603L225.713 223.943ZM225.745 223.975L218.022 231.635L218.026 231.638L225.745 223.975ZM225.755 223.986L233.477 216.326L233.474 216.323L225.755 223.986ZM225.828 224.06L233.558 216.408L233.55 216.4L225.828 224.06ZM225.839 224.07L218.109 231.722L218.117 231.731L225.839 224.07ZM225.912 224.144L233.642 216.492L233.633 216.483L225.912 224.144ZM225.922 224.154L218.192 231.806L218.2 231.814L225.922 224.154ZM226.343 224.579L234.065 216.919L234.065 216.919L226.343 224.579ZM226.465 224.701L218.742 232.361L218.743 232.361L226.465 224.701ZM226.495 224.732L234.217 217.072L234.217 217.072L226.495 224.732ZM226.545 224.782L218.823 232.442L218.823 232.442L226.545 224.782ZM226.575 224.813L218.853 232.472L218.853 232.472L226.575 224.813ZM226.645 224.883L234.371 217.227L234.367 217.223L226.645 224.883ZM226.655 224.893L234.381 217.237L234.381 217.237L226.655 224.893ZM226.675 224.913L218.949 232.569L218.955 232.575L226.675 224.913ZM226.705 224.943L234.425 217.282L234.425 217.282L226.705 224.943ZM226.715 224.953L234.441 217.298L234.435 217.292L226.715 224.953ZM226.724 224.963L218.998 232.619L219.004 232.625L226.724 224.963ZM226.734 224.973L234.456 217.313L234.455 217.312L226.734 224.973ZM226.892 225.132L234.619 217.477L234.614 217.473L226.892 225.132ZM226.902 225.142L219.175 232.797L219.181 232.803L226.902 225.142ZM226.912 225.152L234.638 217.497L234.632 217.491L226.912 225.152ZM226.922 225.162L219.195 232.817L219.201 232.823L219.207 232.829L226.922 225.162ZM226.931 225.172L234.658 217.517L234.652 217.511L234.646 217.505L226.931 225.172ZM226.941 225.182L219.215 232.837L219.219 232.841L226.941 225.182ZM226.971 225.211L219.248 232.87L219.256 232.878L226.971 225.211ZM226.98 225.221L234.713 217.572L234.704 217.563L234.695 217.554L226.98 225.221ZM226.99 225.231L219.257 232.88L219.266 232.889L219.275 232.898L226.99 225.231ZM227 225.241L234.722 217.581L234.715 217.574L227 225.241ZM227.049 225.29L234.775 217.635L234.771 217.63L227.049 225.29ZM227.058 225.3L219.331 232.954L219.337 232.96L227.058 225.3ZM227.087 225.329L234.808 217.668L234.808 217.668L227.087 225.329ZM227.097 225.339L234.82 217.68L234.818 217.678L227.097 225.339ZM227.165 225.407L219.442 233.066L219.444 233.068L227.165 225.407ZM227.174 225.417L234.896 217.756L234.896 217.756L227.174 225.417ZM227.203 225.446L234.925 217.785L234.924 217.785L227.203 225.446ZM227.232 225.475L234.954 217.815L234.953 217.814L227.232 225.475ZM227.695 225.942L219.973 233.602L219.973 233.602L227.695 225.942ZM227.705 225.952L219.983 233.611L219.984 233.612L227.705 225.952ZM227.751 225.998L235.486 218.352L235.479 218.345L235.472 218.338L227.751 225.998ZM227.76 226.008L220.026 233.654L220.032 233.661L220.039 233.668L227.76 226.008ZM227.862 226.11L235.591 218.457L235.583 218.45L227.862 226.11ZM227.871 226.119L220.142 233.772L220.149 233.778L220.155 233.785L227.871 226.119ZM227.88 226.129L235.603 218.47L235.597 218.463L227.88 226.129ZM227.89 226.138L235.612 218.479L235.612 218.479L227.89 226.138ZM227.917 226.166L220.194 233.825L220.201 233.831L227.917 226.166ZM227.926 226.175L235.655 218.522L235.649 218.516L235.643 218.509L227.926 226.175ZM227.935 226.184L220.206 233.837L220.213 233.843L227.935 226.184ZM227.945 226.193L235.667 218.534L235.667 218.534L227.945 226.193ZM227.963 226.212L235.686 218.553L235.686 218.553L227.963 226.212ZM227.972 226.221L220.249 233.88L220.256 233.886L227.972 226.221ZM227.981 226.23L235.71 218.578L235.704 218.571L235.698 218.565L227.981 226.23ZM227.99 226.239L220.261 233.892L220.271 233.901L220.28 233.911L227.99 226.239ZM227.999 226.249L235.729 218.596L235.719 218.587L235.71 218.577L227.999 226.249ZM228.008 226.258L220.279 233.91L220.286 233.916L228.008 226.258ZM228.018 226.267L235.747 218.615L235.741 218.608L228.018 226.267ZM228.027 226.276L220.297 233.928L220.304 233.935L220.31 233.941L228.027 226.276ZM228.036 226.285L235.759 218.627L235.752 218.62L228.036 226.285ZM228.045 226.294L220.322 233.953L220.323 233.954L228.045 226.294ZM228.09 226.34L220.368 234L220.373 234.005L228.09 226.34ZM228.099 226.349L235.829 218.697L235.822 218.691L235.816 218.684L228.099 226.349ZM228.108 226.358L220.379 234.01L220.385 234.017L228.108 226.358ZM228.117 226.367L220.394 234.026L220.396 234.028L228.117 226.367ZM228.18 226.431L235.91 218.779L235.902 218.771L228.18 226.431ZM228.189 226.44L220.459 234.092L220.468 234.101L228.189 226.44ZM228.216 226.467L220.495 234.128L220.499 234.132L228.216 226.467ZM228.225 226.476L235.948 218.817L235.942 218.811L228.225 226.476ZM228.288 226.539L236.011 218.881L236.01 218.88L228.288 226.539ZM228.297 226.548L220.573 234.206L220.577 234.211L228.297 226.548ZM228.323 226.575L236.047 218.917L236.043 218.913L228.323 226.575ZM228.35 226.602L236.074 218.944L236.074 218.944L228.35 226.602ZM228.377 226.629L220.653 234.287L220.655 234.289L228.377 226.629ZM228.403 226.656L220.682 234.316L220.682 234.316L228.403 226.656ZM228.465 226.718L236.187 219.059L236.186 219.057L228.465 226.718ZM228.795 227.051L236.52 219.394L236.517 219.391L228.795 227.051ZM228.803 227.059L221.078 234.716L221.082 234.72L228.803 227.059ZM228.88 227.137L236.612 219.487L236.607 219.482L236.602 219.476L228.88 227.137ZM228.889 227.145L221.157 234.795L221.166 234.804L228.889 227.145ZM228.914 227.171L221.191 234.83L221.197 234.835L221.203 234.841L228.914 227.171ZM228.923 227.179L236.646 219.521L236.64 219.515L236.634 219.509L228.923 227.179ZM228.98 227.237L221.256 234.895L223.426 237.084L226.422 237.808L228.98 227.237ZM241.371 230.235L243.929 219.664L243.929 219.664L241.371 230.235ZM166.761 246.534L177.623 245.967L177.623 245.967L166.761 246.534ZM166.283 237.371L155.421 237.938L155.421 237.938L166.283 237.371ZM10.8766 80C10.8766 41.8242 41.8242 10.8766 80 10.8766V-10.8766C29.8102 -10.8766 -10.8766 29.8102 -10.8766 80H10.8766ZM10.8766 240V80H-10.8766V240H10.8766ZM80 309.123C41.8242 309.123 10.8766 278.176 10.8766 240H-10.8766C-10.8766 290.19 29.8102 330.877 80 330.877V309.123ZM240 309.123H80V330.877H240V309.123ZM309.123 240C309.123 278.176 278.176 309.123 240 309.123V330.877C290.19 330.877 330.877 290.19 330.877 240H309.123ZM309.123 80V240H330.877V80H309.123ZM240 10.8766C278.176 10.8766 309.123 41.8242 309.123 80H330.877C330.877 29.8102 290.19 -10.8766 240 -10.8766V10.8766ZM80 10.8766H240V-10.8766H80V10.8766ZM177.958 218.428L169.953 219.774L173.558 241.226L181.562 239.881L177.958 218.428ZM165.864 229.261C167.949 231.525 169.577 233.555 170.819 235.348L188.701 222.961C186.786 220.197 184.499 217.385 181.864 214.524L165.864 229.261ZM165.814 229.207L165.864 229.261L181.864 214.524L181.814 214.469L165.814 229.207ZM122.015 178.995L165.617 228.987L182.011 214.689L138.409 164.696L122.015 178.995ZM128.906 182.722H130.212V160.969H128.906V182.722ZM139.783 188.126V171.846H118.03V188.126H139.783ZM140.07 218.271C139.881 211.151 139.783 201.125 139.783 188.126H118.03C118.03 201.195 118.128 211.444 118.325 218.851L140.07 218.271ZM140.575 226.71C140.434 224.661 140.262 221.768 140.059 217.978L118.337 219.144C118.542 222.979 118.721 225.994 118.872 228.199L140.575 226.71ZM145.379 219.913L132.175 216.858L127.272 238.051L140.475 241.106L145.379 219.913ZM158.843 238.325C159.514 229.754 153.855 221.874 145.379 219.913L140.475 241.106C138.34 240.612 136.997 238.661 137.156 236.627L158.843 238.325ZM158.12 247.556L158.843 238.325L137.156 236.627L136.433 245.858L158.12 247.556ZM140.737 263.677C149.911 263.677 157.413 256.582 158.12 247.556L136.433 245.858C136.601 243.711 138.408 241.923 140.737 241.923V263.677ZM81.1779 263.677H140.737V241.923H81.1779V263.677ZM63.7949 247.556C64.5017 256.582 72.0037 263.677 81.1779 263.677V241.923C83.5067 241.923 85.3136 243.711 85.4817 245.858L63.7949 247.556ZM63.0721 238.325L63.7949 247.556L85.4817 245.858L84.7589 236.627L63.0721 238.325ZM76.5358 219.913C68.0604 221.874 62.4009 229.754 63.0721 238.325L84.7589 236.627C84.9182 238.661 83.5752 240.612 81.4396 241.106L76.5358 219.913ZM89.8899 216.823L76.5358 219.913L81.4397 241.106L94.7937 238.016L89.8899 216.823ZM81.8428 218.343C81.7405 222.161 81.6156 224.883 81.4915 226.663L103.192 228.176C103.347 225.956 103.482 222.889 103.588 218.926L81.8428 218.343ZM82.1322 188.126C82.1322 201.169 82.0338 211.218 81.8428 218.343L103.588 218.926C103.787 211.513 103.885 201.239 103.885 188.126H82.1322ZM82.1322 132.172V188.126H103.885V132.172H82.1322ZM81.8453 110.076C82.0347 115.994 82.1322 123.347 82.1322 132.172H103.885C103.885 123.209 103.787 115.608 103.587 109.38L81.8453 110.076ZM81.8425 109.988L81.8453 110.076L103.587 109.38L103.585 109.292L81.8425 109.988ZM81.837 109.552V109.64H103.59V109.552H81.837ZM81.5666 95.5715C81.7389 98.6988 81.837 103.312 81.837 109.552H103.59C103.59 103.167 103.492 98.0923 103.287 94.3746L81.5666 95.5715ZM81.5582 95.4204L81.5665 95.5714L103.287 94.3748L103.278 94.2238L81.5582 95.4204ZM81.5418 94.6709V94.8221H103.295V94.6709H81.5418ZM81.5185 92.9385C81.5329 93.4079 81.5418 93.9819 81.5418 94.6709H103.295C103.295 93.8028 103.284 93.0026 103.261 92.2714L81.5185 92.9385ZM76.301 100.097L89.9757 103.21L94.8043 81.9997L81.1296 78.8866L76.301 100.097ZM62.7772 81.6709C62.1042 90.2654 67.7955 98.1608 76.301 100.097L81.1296 78.8866C83.2731 79.3745 84.6237 81.3299 84.464 83.3691L62.7772 81.6709ZM63.4997 72.4441L62.7772 81.6709L84.464 83.3692L85.1865 74.1423L63.4997 72.4441ZM80.8827 56.3234C71.7085 56.3234 64.2065 63.4176 63.4997 72.4441L85.1865 74.1423C85.0184 76.2886 83.2115 78.0766 80.8827 78.0766V56.3234ZM141.594 56.3234H80.8827V78.0766H141.594V56.3234ZM159.007 72.8991C158.526 63.6848 150.947 56.3234 141.594 56.3234V78.0766C139.22 78.0766 137.398 76.222 137.283 74.0331L159.007 72.8991ZM159.489 82.1236L159.007 72.899L137.283 74.0331L137.765 83.2577L159.489 82.1236ZM145.995 100.081C154.301 98.1591 159.928 90.5396 159.489 82.1236L137.765 83.2576C137.661 81.2595 138.999 79.3719 141.091 78.8877L145.995 100.081ZM132.174 103.279L145.995 100.081L141.091 78.8877L127.27 82.0857L132.174 103.279ZM140.279 95.833C140.354 95.201 140.423 94.6755 140.486 94.2466L118.959 91.1181C118.864 91.7729 118.77 92.4931 118.677 93.2775L140.279 95.833ZM139.778 109.082C139.969 102.921 140.157 98.3128 140.337 95.1799L118.62 93.9306C118.423 97.3517 118.228 102.185 118.035 108.407L139.778 109.082ZM139.783 147.45V108.745H118.03V147.45H139.783ZM130.268 135.832L126.107 136.94L131.705 157.96L135.866 156.852L130.268 135.832ZM178.207 83.5744L125.218 138.812L140.916 153.871L193.905 98.6334L178.207 83.5744ZM176.264 100.125L183.771 101.738L188.34 80.47L180.834 78.8571L176.264 100.125ZM162.504 82.108C162.059 90.6257 167.826 98.312 176.264 100.125L180.834 78.8571C182.961 79.3142 184.333 81.2202 184.227 83.242L162.504 82.108ZM162.984 72.899L162.504 82.1079L184.227 83.242L184.708 74.0331L162.984 72.899ZM180.397 56.3234C171.044 56.3234 163.465 63.6848 162.984 72.899L184.708 74.0331C184.594 76.222 182.772 78.0766 180.397 78.0766V56.3234ZM235.173 56.3234H180.397V78.0766H235.173V56.3234ZM252.588 72.9447C252.13 63.7118 244.544 56.3234 235.173 56.3234V78.0766C232.794 78.0766 230.97 76.2153 230.862 74.0222L252.588 72.9447ZM253.072 82.7081L252.588 72.9447L230.862 74.0222L231.346 83.7856L253.072 82.7081ZM238.635 100.811C247.382 99.2901 253.507 91.4668 253.072 82.7081L231.346 83.7857C231.243 81.7075 232.7 79.7628 234.909 79.3788L238.635 100.811ZM224.132 103.332L238.635 100.811L234.909 79.3788L220.407 81.8997L224.132 103.332ZM168.413 159.014L229.776 100.486L214.762 84.745L153.399 143.273L168.413 159.014ZM217.971 198.936L169.033 143.915L152.779 158.372L201.717 213.393L217.971 198.936ZM227.029 209.338C224.369 205.997 221.272 202.457 217.784 198.731L201.904 213.598C205.099 217.011 207.797 220.107 210.013 222.889L227.029 209.338ZM233.206 216.07C231.246 213.898 229.018 211.456 226.523 208.746L210.52 223.481C212.978 226.15 215.155 228.536 217.053 230.64L233.206 216.07ZM232.925 215.769L232.853 215.697L217.406 231.013L217.478 231.086L232.925 215.769ZM232.925 215.769L232.914 215.758L217.489 231.097L217.5 231.108L232.925 215.769ZM233.011 215.856L232.936 215.78L217.489 231.097L217.564 231.173L233.011 215.856ZM233.016 215.862L233.006 215.851L217.57 231.178L217.58 231.189L233.016 215.862ZM233.095 215.941L233.02 215.866L217.576 231.185L217.651 231.261L233.095 215.941ZM233.113 215.959L233.102 215.948L217.644 231.254L217.655 231.265L233.113 215.959ZM233.138 215.984L233.106 215.952L217.662 231.272L217.694 231.304L233.138 215.984ZM233.145 215.991L233.134 215.981L217.698 231.308L217.709 231.319L233.145 215.991ZM233.161 216.008L233.151 215.997L217.703 231.313L217.714 231.324L233.161 216.008ZM233.167 216.013L233.156 216.002L217.719 231.329L217.73 231.34L233.167 216.013ZM233.404 216.252L233.171 216.017L217.726 231.336L217.959 231.571L233.404 216.252ZM233.416 216.265L233.406 216.254L217.957 231.569L217.968 231.58L233.416 216.265ZM233.421 216.27L233.411 216.259L217.973 231.585L217.984 231.596L233.421 216.27ZM233.437 216.286L233.427 216.275L217.978 231.59L217.989 231.601L233.437 216.286ZM233.467 216.316L233.435 216.284L217.991 231.603L218.022 231.635L233.467 216.316ZM233.474 216.323L233.463 216.312L218.026 231.638L218.036 231.649L233.474 216.323ZM233.55 216.4L233.477 216.326L218.033 231.646L218.106 231.719L233.55 216.4ZM233.569 216.419L233.558 216.408L218.098 231.711L218.109 231.722L233.569 216.419ZM233.633 216.483L233.56 216.41L218.117 231.731L218.19 231.804L233.633 216.483ZM233.652 216.503L233.642 216.492L218.182 231.795L218.192 231.806L233.652 216.503ZM234.065 216.919L233.644 216.495L218.2 231.814L218.621 232.238L234.065 216.919ZM234.187 217.042L234.065 216.919L218.621 232.238L218.742 232.361L234.187 217.042ZM234.217 217.072L234.186 217.041L218.743 232.361L218.773 232.392L234.217 217.072ZM234.267 217.123L234.217 217.072L218.773 232.391L218.823 232.442L234.267 217.123ZM234.297 217.153L234.267 217.122L218.823 232.442L218.853 232.472L234.297 217.153ZM234.367 217.223L234.297 217.153L218.853 232.472L218.923 232.543L234.367 217.223ZM234.381 217.237L234.371 217.227L218.919 232.539L218.929 232.549L234.381 217.237ZM234.391 217.247L234.381 217.237L218.929 232.549L218.939 232.559L234.391 217.247ZM234.401 217.258L234.391 217.247L218.939 232.559L218.949 232.569L234.401 217.258ZM234.425 217.282L234.395 217.252L218.955 232.575L218.984 232.605L234.425 217.282ZM234.435 217.292L234.425 217.282L218.984 232.605L218.994 232.615L234.435 217.292ZM234.451 217.308L234.441 217.298L218.988 232.609L218.998 232.619L234.451 217.308ZM234.455 217.312L234.445 217.302L219.004 232.625L219.014 232.635L234.455 217.312ZM234.614 217.473L234.456 217.313L219.012 232.633L219.17 232.792L234.614 217.473ZM234.629 217.487L234.619 217.477L219.166 232.787L219.175 232.797L234.629 217.487ZM234.632 217.491L234.623 217.481L219.181 232.803L219.191 232.813L234.632 217.491ZM234.648 217.507L234.638 217.497L219.185 232.807L219.195 232.817L234.648 217.507ZM234.646 217.505L234.636 217.495L219.207 232.829L219.217 232.839L234.646 217.505ZM234.668 217.527L234.658 217.517L219.205 232.827L219.215 232.837L234.668 217.527ZM234.693 217.552L234.664 217.523L219.219 232.841L219.248 232.87L234.693 217.552ZM234.695 217.554L234.685 217.544L219.256 232.878L219.265 232.888L234.695 217.554ZM234.723 217.582L234.713 217.572L219.248 232.87L219.257 232.88L234.723 217.582ZM234.715 217.574L234.705 217.564L219.275 232.898L219.285 232.908L234.715 217.574ZM234.771 217.63L234.722 217.581L219.278 232.9L219.326 232.95L234.771 217.63ZM234.785 217.645L234.775 217.635L219.322 232.945L219.331 232.954L234.785 217.645ZM234.808 217.668L234.779 217.639L219.337 232.96L219.366 232.99L234.808 217.668ZM234.818 217.678L234.808 217.668L219.366 232.99L219.376 232.999L234.818 217.678ZM234.887 217.748L234.82 217.68L219.374 232.998L219.442 233.066L234.887 217.748ZM234.896 217.756L234.886 217.746L219.444 233.068L219.453 233.077L234.896 217.756ZM234.924 217.785L234.896 217.756L219.453 233.077L219.482 233.106L234.924 217.785ZM234.953 217.814L234.925 217.785L219.482 233.106L219.511 233.135L234.953 217.814ZM235.418 218.283L234.954 217.815L219.51 233.134L219.973 233.602L235.418 218.283ZM235.427 218.292L235.418 218.283L219.973 233.602L219.983 233.611L235.427 218.292ZM235.472 218.338L235.426 218.291L219.984 233.612L220.03 233.659L235.472 218.338ZM235.495 218.361L235.486 218.352L220.016 233.645L220.026 233.654L235.495 218.361ZM235.583 218.45L235.482 218.347L220.039 233.668L220.141 233.77L235.583 218.45ZM235.6 218.467L235.591 218.457L220.133 233.763L220.142 233.772L235.6 218.467ZM235.597 218.463L235.588 218.454L220.155 233.785L220.164 233.794L235.597 218.463ZM235.612 218.479L235.603 218.47L220.158 233.788L220.167 233.797L235.612 218.479ZM235.64 218.507L235.612 218.479L220.167 233.797L220.194 233.825L235.64 218.507ZM235.643 218.509L235.634 218.5L220.201 233.831L220.21 233.84L235.643 218.509ZM235.665 218.532L235.655 218.522L220.197 233.827L220.206 233.837L235.665 218.532ZM235.667 218.534L235.658 218.525L220.213 233.843L220.222 233.852L235.667 218.534ZM235.677 218.544L235.667 218.534L220.222 233.852L220.231 233.861L235.677 218.544ZM235.686 218.553L235.677 218.544L220.231 233.861L220.24 233.871L235.686 218.553ZM235.695 218.562L235.686 218.553L220.24 233.871L220.249 233.88L235.695 218.562ZM235.698 218.565L235.688 218.556L220.256 233.886L220.265 233.895L235.698 218.565ZM235.72 218.587L235.71 218.578L220.252 233.883L220.261 233.892L235.72 218.587ZM235.71 218.577L235.7 218.568L220.28 233.911L220.289 233.92L235.71 218.577ZM235.738 218.605L235.729 218.596L220.27 233.901L220.279 233.91L235.738 218.605ZM235.741 218.608L235.731 218.599L220.286 233.916L220.295 233.926L235.741 218.608ZM235.756 218.624L235.747 218.615L220.288 233.919L220.297 233.928L235.756 218.624ZM235.752 218.62L235.743 218.611L220.31 233.941L220.319 233.95L235.752 218.62ZM235.768 218.636L235.759 218.627L220.313 233.944L220.322 233.953L235.768 218.636ZM235.812 218.68L235.767 218.634L220.323 233.954L220.368 234L235.812 218.68ZM235.816 218.684L235.807 218.675L220.373 234.005L220.383 234.014L235.816 218.684ZM235.838 218.706L235.829 218.697L220.37 234.001L220.379 234.01L235.838 218.706ZM235.84 218.709L235.831 218.7L220.385 234.017L220.394 234.026L235.84 218.709ZM235.902 218.771L235.839 218.707L220.396 234.028L220.459 234.091L235.902 218.771ZM235.919 218.788L235.91 218.779L220.451 234.083L220.459 234.092L235.919 218.788ZM235.938 218.807L235.911 218.78L220.468 234.101L220.495 234.128L235.938 218.807ZM235.942 218.811L235.933 218.802L220.499 234.132L220.508 234.141L235.942 218.811ZM236.01 218.88L235.948 218.817L220.503 234.135L220.565 234.198L236.01 218.88ZM236.02 218.89L236.011 218.881L220.564 234.197L220.573 234.206L236.02 218.89ZM236.043 218.913L236.016 218.886L220.577 234.211L220.604 234.238L236.043 218.913ZM236.074 218.944L236.047 218.917L220.6 234.233L220.626 234.26L236.074 218.944ZM236.1 218.971L236.074 218.944L220.626 234.26L220.653 234.287L236.1 218.971ZM236.125 218.996L236.098 218.969L220.655 234.289L220.682 234.316L236.125 218.996ZM236.186 219.057L236.124 218.995L220.682 234.316L220.744 234.378L236.186 219.057ZM236.517 219.391L236.187 219.059L220.743 234.377L221.072 234.71L236.517 219.391ZM236.528 219.402L236.52 219.394L221.07 234.707L221.078 234.716L236.528 219.402ZM236.602 219.476L236.525 219.399L221.082 234.72L221.159 234.797L236.602 219.476ZM236.621 219.496L236.612 219.487L221.148 234.786L221.157 234.795L236.621 219.496ZM236.637 219.512L236.612 219.486L221.166 234.804L221.191 234.83L236.637 219.512ZM236.634 219.509L236.626 219.501L221.203 234.841L221.211 234.85L236.634 219.509ZM236.703 219.579L236.646 219.521L221.199 234.837L221.256 234.895L236.703 219.579ZM243.929 219.664L231.538 216.665L226.422 237.808L238.813 240.807L243.929 219.664ZM257.277 236.666C257.277 228.642 251.813 221.571 243.929 219.664L238.813 240.807C236.827 240.326 235.523 238.574 235.523 236.666H257.277ZM257.277 246.186V236.666H235.523V246.186H257.277ZM239.84 263.677C249.553 263.677 257.277 255.762 257.277 246.186H235.523C235.523 243.916 237.373 241.923 239.84 241.923V263.677ZM173.312 263.677H239.84V241.923H173.312V263.677ZM155.899 247.101C156.38 256.315 163.959 263.677 173.312 263.677V241.923C175.687 241.923 177.509 243.778 177.623 245.967L155.899 247.101ZM155.421 237.938L155.899 247.101L177.623 245.967L177.145 236.804L155.421 237.938ZM169.953 219.774C161.142 221.254 154.961 229.127 155.421 237.938L177.145 236.804C177.254 238.894 175.783 240.852 173.558 241.226L169.953 219.774Z" fill="#FDFDFD" mask="url(#path-1-inside-1_45713_8)"/>
</svg>
