<svg width="241" height="100" viewBox="0 0 241 100" fill="none" xmlns="http://www.w3.org/2000/svg">
<g filter="url(#filter0_b_9919_5515)">
<rect x="0.5" width="240" height="100" rx="14.7429" fill="url(#paint0_linear_9919_5515)"/>
<path fill-rule="evenodd" clip-rule="evenodd" d="M25.5921 17.4236H19.011C18.0248 17.4236 17.2252 18.2231 17.2252 19.2094V25.7905C17.2252 26.7768 18.0248 27.5764 19.011 27.5764H25.5921C26.5784 27.5764 27.378 26.7768 27.378 25.7905V19.2094C27.378 18.2231 26.5784 17.4236 25.5921 17.4236ZM19.011 16.6984C17.6242 16.6984 16.5 17.8226 16.5 19.2094V25.7905C16.5 27.1773 17.6242 28.3016 19.011 28.3016H25.5921C26.979 28.3016 28.1032 27.1773 28.1032 25.7905V19.2094C28.1032 17.8226 26.979 16.6984 25.5921 16.6984H19.011ZM22.823 24.2146L22.6248 24.2455C22.5327 24.2599 22.4665 24.3417 22.4717 24.4348L22.4838 24.6495C22.4892 24.7455 22.5686 24.8206 22.6648 24.8206H24.4409C24.5411 24.8206 24.6222 24.7394 24.6222 24.6393V24.4155C24.6222 24.3307 24.5634 24.2572 24.4807 24.2386L24.1512 24.1646L24.0478 24.0679C23.996 24.0147 23.937 23.9547 23.8706 23.8878C23.805 23.8114 23.7271 23.7287 23.6374 23.6398L22.3339 22.2802L23.9712 20.8315L24.3572 20.7692C24.4486 20.7545 24.5143 20.6731 24.5093 20.5806L24.4971 20.3509C24.4919 20.2547 24.4124 20.1793 24.316 20.1793H22.855C22.7588 20.1793 22.6794 20.2544 22.674 20.3504L22.6618 20.5664C22.6568 20.6566 22.7188 20.7368 22.8074 20.7544L22.9886 20.7905L21.5829 22.1499L21.4678 22.1783V21.224C21.473 21.0704 21.4781 20.953 21.4831 20.8717C21.4849 20.8573 21.4867 20.8443 21.4885 20.8328L21.8539 20.7544C21.9412 20.7356 22.0019 20.6561 21.9969 20.5669L21.9847 20.3504C21.9793 20.2544 21.8998 20.1793 21.8037 20.1793H20.1831C20.0889 20.1793 20.0104 20.2515 20.0025 20.3454L19.9842 20.5619C19.9765 20.6531 20.0379 20.7357 20.1274 20.7546L20.4877 20.8307C20.488 20.8433 20.4882 20.8573 20.4882 20.8729V20.8772L20.4885 20.8815C20.4935 20.9662 20.4961 21.0864 20.4961 21.2435L20.4962 21.2485C20.5014 21.3995 20.5041 21.5855 20.5041 21.8069V23.2004C20.5041 23.5261 20.5014 23.779 20.4962 23.9598C20.4935 24.0515 20.4903 24.1207 20.4868 24.1698L20.1347 24.2454C20.0455 24.2645 19.9844 24.347 19.9921 24.4379L20.0104 24.6545C20.0183 24.7484 20.0968 24.8206 20.191 24.8206H21.7808C21.8751 24.8206 21.9536 24.7484 21.9615 24.6545L21.9798 24.4379C21.9875 24.347 21.9264 24.2645 21.8372 24.2454L21.4891 24.1707C21.4853 24.1185 21.4808 24.0478 21.4756 23.9577C21.4704 23.777 21.4678 23.5249 21.4678 23.2004V22.8044H21.5058L22.6754 24.0485L22.6782 24.0513C22.7352 24.1087 22.7833 24.1632 22.823 24.2146Z" fill="black"/>
<path d="M32.1643 19.8759C32.1643 19.8147 32.1758 19.7641 32.1987 19.7241C32.224 19.684 32.2825 19.664 32.3742 19.664H32.9627C33.0293 19.664 33.0774 19.6852 33.1073 19.7276C33.1371 19.7676 33.152 19.8112 33.152 19.8583V22.7719L34.6662 21.0908C34.696 21.0602 34.7259 21.0367 34.7557 21.0202C34.7878 21.0037 34.8257 20.9955 34.8693 20.9955H35.6574C35.7078 20.9955 35.7457 21.006 35.7709 21.0272C35.7962 21.0484 35.8088 21.0767 35.8088 21.112C35.8088 21.1355 35.8053 21.1567 35.7984 21.1756C35.7916 21.1944 35.7789 21.2156 35.7606 21.2391L34.2154 22.8955L36.0497 25.2193H36.0428C36.068 25.2452 36.0852 25.2735 36.0944 25.3041C36.1059 25.3347 36.1116 25.3594 36.1116 25.3782C36.1116 25.4183 36.1001 25.4453 36.0772 25.4595C36.0543 25.4736 36.0198 25.4807 35.974 25.4807H35.0964C35.0299 25.4807 34.9656 25.4312 34.9037 25.3323L33.5718 23.5559L33.1589 23.9974V25.2688C33.1589 25.29 33.1554 25.3135 33.1486 25.3394C33.1417 25.3629 33.1302 25.3853 33.1141 25.4065C33.1004 25.4277 33.0809 25.4453 33.0556 25.4595C33.0304 25.4736 32.9994 25.4807 32.9627 25.4807H32.3536C32.3192 25.4807 32.2905 25.4736 32.2675 25.4595C32.2446 25.4453 32.2251 25.4277 32.209 25.4065C32.193 25.3853 32.1815 25.3641 32.1746 25.3429C32.1677 25.3194 32.1643 25.3006 32.1643 25.2864V19.8759Z" fill="black"/>
<path d="M36.7382 21.2109C36.7382 21.1497 36.7554 21.099 36.7898 21.059C36.8243 21.0166 36.8747 20.9955 36.9413 20.9955H37.5125C37.5378 20.9955 37.563 21.0013 37.5883 21.0131C37.6158 21.0225 37.6399 21.0378 37.6605 21.059C37.6812 21.0779 37.6984 21.1002 37.7122 21.1261C37.7259 21.152 37.7328 21.1803 37.7328 21.2109V25.2688C37.7328 25.41 37.6605 25.4807 37.516 25.4807H36.9447C36.8071 25.4807 36.7382 25.41 36.7382 25.2688V21.2109ZM36.7382 19.6499C36.7382 19.5086 36.8059 19.438 36.9413 19.438H37.5194C37.5837 19.438 37.6353 19.4556 37.6743 19.491C37.7133 19.5263 37.7328 19.5793 37.7328 19.6499V20.1761C37.7328 20.2303 37.7144 20.2821 37.6777 20.3315C37.641 20.3786 37.5894 20.4021 37.5229 20.4021H36.9447C36.8071 20.4021 36.7382 20.3268 36.7382 20.1761V19.6499Z" fill="black"/>
<path d="M38.8486 21.2038C38.8486 21.1355 38.8704 21.0837 38.914 21.0484C38.9599 21.0131 39.0092 20.9955 39.062 20.9955H39.4991C39.5564 20.9955 39.6 21.0131 39.6298 21.0484C39.6597 21.0837 39.6826 21.1273 39.6987 21.1791C39.7147 21.2309 39.7262 21.2874 39.7331 21.3486C39.74 21.4075 39.748 21.4616 39.7572 21.5111C39.8076 21.4381 39.8638 21.3675 39.9258 21.2992C39.99 21.2285 40.0623 21.1661 40.1426 21.112C40.2229 21.0578 40.3135 21.0143 40.4145 20.9813C40.5154 20.9484 40.6301 20.9319 40.7586 20.9319C40.8733 20.9319 40.9766 20.9401 41.0683 20.9566C41.1601 20.9707 41.2473 20.9943 41.3299 21.0272C41.4148 21.0578 41.4974 21.099 41.5777 21.1508C41.658 21.2003 41.744 21.2591 41.8358 21.3274C41.8748 21.3533 41.9081 21.3828 41.9356 21.4157C41.9654 21.4487 41.9803 21.4875 41.9803 21.5323C41.978 21.5511 41.9746 21.5711 41.97 21.5923C41.9654 21.6135 41.9562 21.6347 41.9425 21.6559L41.6603 22.115C41.6419 22.1385 41.6201 22.1562 41.5949 22.168C41.5719 22.1774 41.5513 22.1821 41.5329 22.1821C41.4962 22.1821 41.4607 22.1727 41.4263 22.1538C41.3505 22.1115 41.2817 22.0714 41.2198 22.0338C41.1578 21.9961 41.097 21.9643 41.0374 21.9384C40.9777 21.9102 40.9158 21.889 40.8515 21.8748C40.7896 21.8584 40.7196 21.8501 40.6416 21.8501C40.4374 21.8501 40.2642 21.9172 40.122 22.0514C39.982 22.1856 39.8879 22.3704 39.8398 22.6059V25.2688C39.8398 25.41 39.7686 25.4807 39.6264 25.4807H39.062C38.9197 25.4807 38.8486 25.41 38.8486 25.2688V21.2038Z" fill="black"/>
<path d="M42.2343 21.2815C42.2343 21.2815 42.2331 21.2768 42.2308 21.2674C42.2286 21.258 42.2251 21.2462 42.2205 21.2321C42.2182 21.2179 42.2159 21.2026 42.2136 21.1862C42.2113 21.1697 42.2102 21.1556 42.2102 21.1438C42.2102 21.099 42.2251 21.0637 42.2549 21.0378C42.2871 21.0096 42.3341 20.9955 42.396 20.9955H43.0155C43.0706 20.9955 43.1153 21.0096 43.1497 21.0378C43.1841 21.0661 43.2117 21.1061 43.2323 21.1579L43.2942 21.3168C43.3401 21.451 43.3918 21.6017 43.4491 21.7689C43.5088 21.9361 43.5696 22.1091 43.6315 22.288C43.6935 22.4646 43.7554 22.6412 43.8173 22.8178C43.8793 22.992 43.9378 23.1568 43.9929 23.3122C44.0479 23.4653 44.0972 23.6018 44.1408 23.7219C44.1844 23.8396 44.2188 23.9303 44.2441 23.9938C44.2831 23.8785 44.3278 23.7466 44.3783 23.5983C44.4311 23.4476 44.4873 23.2887 44.5469 23.1215C44.6066 22.952 44.6674 22.7778 44.7293 22.5988C44.7913 22.4199 44.8521 22.2445 44.9117 22.0726C44.9714 21.9007 45.0276 21.7371 45.0803 21.5817C45.1354 21.424 45.1847 21.2815 45.2283 21.1544C45.2513 21.0979 45.2788 21.0578 45.3109 21.0343C45.3453 21.0084 45.3912 20.9955 45.4486 20.9955H46.0921C46.1632 20.9955 46.2114 21.0072 46.2367 21.0308C46.2642 21.0543 46.278 21.0849 46.278 21.1226C46.278 21.1414 46.2745 21.165 46.2676 21.1932C46.263 21.2215 46.2585 21.2427 46.2539 21.2568L44.6158 25.3394C44.5974 25.3724 44.5745 25.4041 44.5469 25.4348C44.5217 25.4654 44.4735 25.4807 44.4024 25.4807H44.0858C44.0032 25.4807 43.947 25.4665 43.9171 25.4383C43.8896 25.4077 43.869 25.3747 43.8552 25.3394L42.2343 21.2815Z" fill="black"/>
<path d="M51.2351 25.2723C51.2351 25.3147 51.2259 25.35 51.2075 25.3782C51.1915 25.4041 51.1697 25.4253 51.1421 25.4418C51.1146 25.4559 51.0825 25.4665 51.0458 25.4736C51.0114 25.4783 50.9747 25.4807 50.9357 25.4807H50.5055C50.4321 25.4807 50.3804 25.4607 50.3506 25.4206C50.3231 25.3806 50.3024 25.33 50.2887 25.2688L50.268 24.9686C50.1877 25.051 50.0982 25.1287 49.9996 25.2017C49.9032 25.2723 49.7988 25.3347 49.6864 25.3888C49.574 25.4406 49.4547 25.4807 49.3285 25.5089C49.2023 25.5395 49.0727 25.5548 48.9396 25.5548C48.7331 25.5548 48.5335 25.5278 48.3408 25.4736C48.1504 25.4171 47.9714 25.3394 47.804 25.2405C47.6365 25.1393 47.4839 25.018 47.3463 24.8768C47.2109 24.7355 47.0939 24.5789 46.9952 24.407C46.8989 24.2352 46.8232 24.0503 46.7681 23.8526C46.7153 23.6548 46.6889 23.4488 46.6889 23.2345C46.6889 23.0203 46.7153 22.8143 46.7681 22.6165C46.8232 22.4187 46.8989 22.2339 46.9952 22.062C47.0939 21.8901 47.2109 21.7347 47.3463 21.5958C47.4839 21.4546 47.6365 21.3345 47.804 21.2356C47.9714 21.1344 48.1504 21.0567 48.3408 21.0025C48.5335 20.946 48.7331 20.9178 48.9396 20.9178C49.0865 20.9178 49.2264 20.9342 49.3595 20.9672C49.4926 20.9978 49.6164 21.0425 49.7312 21.1014C49.8482 21.1579 49.956 21.2274 50.0547 21.3098C50.1533 21.3898 50.2428 21.4781 50.3231 21.5746L50.3713 21.1968C50.3827 21.1544 50.3931 21.1202 50.4022 21.0943C50.4137 21.0661 50.4263 21.0437 50.4401 21.0272C50.4562 21.0108 50.4757 21.0002 50.4986 20.9955C50.5215 20.9884 50.5502 20.9849 50.5846 20.9849H50.9288C50.9655 20.9849 51.0022 20.9884 51.0389 20.9955C51.0756 21.0025 51.1089 21.0143 51.1387 21.0308C51.1685 21.0449 51.1915 21.0661 51.2075 21.0943C51.2259 21.1202 51.2351 21.1532 51.2351 21.1932V25.2723ZM47.656 23.2345C47.656 23.4229 47.6881 23.6018 47.7523 23.7713C47.8166 23.9385 47.9061 24.0857 48.0208 24.2128C48.1355 24.3399 48.2697 24.4412 48.4234 24.5165C48.5794 24.5895 48.7492 24.626 48.9328 24.626C49.1186 24.626 49.2918 24.5895 49.4524 24.5165C49.6153 24.4412 49.7564 24.3399 49.8757 24.2128C49.995 24.0857 50.0891 23.9385 50.1579 23.7713C50.2267 23.6018 50.2611 23.4229 50.2611 23.2345C50.2611 23.0485 50.2267 22.8719 50.1579 22.7048C50.0891 22.5353 49.995 22.3869 49.8757 22.2598C49.7564 22.1326 49.6153 22.0314 49.4524 21.9561C49.2918 21.8807 49.1186 21.8431 48.9328 21.8431C48.7492 21.8431 48.5794 21.8807 48.4234 21.9561C48.2697 22.0314 48.1355 22.1326 48.0208 22.2598C47.9061 22.3869 47.8166 22.5353 47.7523 22.7048C47.6881 22.8719 47.656 23.0485 47.656 23.2345Z" fill="black"/>
<path d="M52.1373 21.2038C52.1373 21.1709 52.151 21.1355 52.1786 21.0979C52.2061 21.0602 52.2325 21.0367 52.2577 21.0272C52.2761 21.0084 52.3036 20.999 52.3403 20.999C52.377 20.9966 52.4114 20.9955 52.4435 20.9955H52.7911C52.8577 20.9955 52.907 21.0178 52.9391 21.0626C52.9712 21.1073 52.993 21.1567 53.0045 21.2109L53.0423 21.5852C53.0951 21.5052 53.1594 21.4263 53.2351 21.3486C53.3131 21.2709 53.4048 21.2015 53.5104 21.1403C53.6159 21.079 53.7364 21.0296 53.8717 20.9919C54.0071 20.9542 54.1597 20.9354 54.3294 20.9354C54.6002 20.9354 54.8411 20.986 55.0521 21.0873C55.2632 21.1862 55.441 21.3227 55.5856 21.4969C55.7301 21.6712 55.8391 21.876 55.9125 22.1115C55.9882 22.3469 56.0261 22.6 56.0261 22.8708V25.2264C56.0261 25.3111 56.0066 25.3747 55.9676 25.4171C55.9286 25.4595 55.8723 25.4807 55.7989 25.4807H55.2758C55.1841 25.4807 55.1221 25.463 55.09 25.4277C55.0602 25.3924 55.0453 25.33 55.0453 25.2405V22.8884C55.0453 22.7636 55.0246 22.6424 54.9833 22.5247C54.942 22.4046 54.8812 22.2975 54.8009 22.2033C54.7229 22.1091 54.6254 22.0338 54.5084 21.9773C54.3914 21.9207 54.256 21.8925 54.1023 21.8925C53.9968 21.8925 53.8866 21.9149 53.7719 21.9596C53.6595 22.002 53.5563 22.0632 53.4622 22.1432C53.3681 22.2233 53.2901 22.321 53.2282 22.4364C53.1662 22.5494 53.1341 22.6777 53.1318 22.8213V25.1098C53.1318 25.1546 53.1295 25.1993 53.1249 25.244C53.1204 25.2888 53.11 25.3288 53.094 25.3641C53.0802 25.3994 53.0596 25.4277 53.032 25.4489C53.0045 25.4701 52.9689 25.4807 52.9253 25.4807H52.3575C52.2818 25.4807 52.2256 25.463 52.1889 25.4277C52.1545 25.39 52.1373 25.337 52.1373 25.2688V21.2038Z" fill="black"/>
<path d="M56.6537 23.2451C56.6537 23.0309 56.6801 22.8249 56.7328 22.6271C56.7879 22.427 56.8648 22.241 56.9634 22.0691C57.0621 21.8972 57.1802 21.7418 57.3179 21.6029C57.4555 21.4616 57.6081 21.3416 57.7756 21.2427C57.9431 21.1414 58.122 21.0637 58.3125 21.0096C58.5052 20.9531 58.7059 20.9248 58.9147 20.9248C59.1212 20.9248 59.3208 20.9531 59.5135 21.0096C59.7062 21.0637 59.8852 21.1414 60.0504 21.2427C60.2179 21.3416 60.3704 21.4616 60.5081 21.6029C60.6457 21.7418 60.7639 21.8972 60.8626 22.0691C60.9612 22.241 61.0369 22.427 61.0897 22.6271C61.1448 22.8249 61.1723 23.0309 61.1723 23.2451C61.1723 23.4594 61.1448 23.6654 61.0897 23.8632C61.0369 24.0609 60.9612 24.2458 60.8626 24.4176C60.7639 24.5872 60.6457 24.7425 60.5081 24.8838C60.3704 25.0251 60.2179 25.1463 60.0504 25.2476C59.8852 25.3465 59.7062 25.4242 59.5135 25.4807C59.3208 25.5348 59.1212 25.5619 58.9147 25.5619C58.7059 25.5619 58.5052 25.5348 58.3125 25.4807C58.122 25.4242 57.9431 25.3465 57.7756 25.2476C57.6081 25.1463 57.4555 25.0251 57.3179 24.8838C57.1802 24.7425 57.0621 24.5872 56.9634 24.4176C56.8648 24.2458 56.7879 24.0609 56.7328 23.8632C56.6801 23.6654 56.6537 23.4594 56.6537 23.2451ZM57.6242 23.2451C57.6242 23.4335 57.6563 23.6124 57.7205 23.7819C57.7848 23.9491 57.8743 24.0951 57.989 24.2199C58.1037 24.3446 58.239 24.4435 58.3951 24.5165C58.5534 24.5895 58.7254 24.626 58.9113 24.626C59.0925 24.626 59.26 24.5895 59.4137 24.5165C59.5697 24.4435 59.7039 24.3446 59.8164 24.2199C59.9288 24.0951 60.016 23.9491 60.0779 23.7819C60.1421 23.6124 60.1743 23.4335 60.1743 23.2451C60.1743 23.0591 60.1421 22.8814 60.0779 22.7118C60.016 22.5423 59.9288 22.394 59.8164 22.2669C59.7039 22.1374 59.5697 22.0349 59.4137 21.9596C59.26 21.8819 59.0925 21.8431 58.9113 21.8431C58.7254 21.8431 58.5534 21.8819 58.3951 21.9596C58.239 22.0349 58.1037 22.1374 57.989 22.2669C57.8743 22.394 57.7848 22.5423 57.7205 22.7118C57.6563 22.8814 57.6242 23.0591 57.6242 23.2451Z" fill="black"/>
<path d="M72.9655 23.8028C72.2585 23.8028 71.6646 23.2183 71.6646 22.5207C71.6646 21.8231 72.2491 21.2292 72.9655 21.2292C73.6631 21.2292 74.2476 21.8231 74.2476 22.5207C74.2476 23.2089 73.6631 23.8028 72.9655 23.8028ZM82.0153 25.1131C81.0443 25.1131 80.4693 24.5664 80.4693 23.7651C80.4693 22.9261 81.1103 22.3982 82.1755 22.3133L83.6839 22.1908V22.0399C83.6839 21.1444 83.1465 20.8616 82.4772 20.8616C81.6853 20.8616 81.214 21.2198 81.214 21.8325H80.6201C80.6201 20.9087 81.3743 20.3148 82.4961 20.3148C83.5519 20.3148 84.3249 20.8427 84.3249 22.0494V25H83.7781L83.6933 24.1987C83.4105 24.7738 82.7883 25.1131 82.0153 25.1131ZM82.1661 24.5852C83.1277 24.5852 83.6839 23.9159 83.6839 22.9261V22.681L82.3358 22.7847C81.478 22.8601 81.1292 23.2372 81.1292 23.7462C81.1292 24.3024 81.5439 24.5852 82.1661 24.5852ZM85.3191 22.5867C85.3191 21.3423 86.1204 20.3148 87.459 20.3148C88.2509 20.3148 88.8542 20.6824 89.1464 21.3518L89.2124 20.4373H89.778V24.8586C89.778 26.2161 88.9107 27.1022 87.5721 27.1022C86.4032 27.1022 85.583 26.4423 85.4039 25.3394H86.0544C86.1958 26.0747 86.7614 26.5083 87.5815 26.5083C88.5148 26.5083 89.137 25.8767 89.137 24.9246V23.8405C88.8259 24.4815 88.1943 24.8586 87.4119 24.8586C86.1109 24.8586 85.3191 23.8311 85.3191 22.5867ZM85.9695 22.5773C85.9695 23.5105 86.5446 24.2741 87.5061 24.2741C88.496 24.2741 89.0804 23.5577 89.0804 22.5773C89.0804 21.6063 88.5148 20.8898 87.5156 20.8898C86.5352 20.8898 85.9695 21.6534 85.9695 22.5773ZM90.8148 22.7187C90.8148 21.3235 91.7953 20.3148 93.1339 20.3148C94.4725 20.3148 95.4529 21.3235 95.4529 22.7187C95.4529 24.1044 94.4725 25.1131 93.1339 25.1131C91.7953 25.1131 90.8148 24.1044 90.8148 22.7187ZM91.4747 22.7092C91.4747 23.7839 92.1535 24.5287 93.1339 24.5287C94.1049 24.5287 94.793 23.7839 94.793 22.7092C94.793 21.6534 94.1049 20.8993 93.1339 20.8993C92.1535 20.8993 91.4747 21.6534 91.4747 22.7092ZM98.8783 20.3808V20.9653H98.5201C97.6811 20.9653 97.1437 21.5309 97.1437 22.3982V25H96.4933V20.4373H97.106L97.1532 21.1444C97.3323 20.6542 97.813 20.3336 98.4541 20.3336C98.5955 20.3336 98.718 20.3431 98.8783 20.3808ZM100.869 25.1131C99.8983 25.1131 99.3232 24.5664 99.3232 23.7651C99.3232 22.9261 99.9642 22.3982 101.029 22.3133L102.538 22.1908V22.0399C102.538 21.1444 102 20.8616 101.331 20.8616C100.539 20.8616 100.068 21.2198 100.068 21.8325H99.474C99.474 20.9087 100.228 20.3148 101.35 20.3148C102.406 20.3148 103.179 20.8427 103.179 22.0494V25H102.632L102.547 24.1987C102.264 24.7738 101.642 25.1131 100.869 25.1131ZM101.02 24.5852C101.982 24.5852 102.538 23.9159 102.538 22.9261V22.681L101.19 22.7847C100.332 22.8601 99.9831 23.2372 99.9831 23.7462C99.9831 24.3024 100.398 24.5852 101.02 24.5852Z" fill="#636363"/>
<path fill-rule="evenodd" clip-rule="evenodd" d="M214.998 24.7741C215.213 24.9889 215.561 24.9889 215.776 24.7741L218.53 22.0206L221.283 24.7741C221.498 24.9889 221.846 24.9889 222.061 24.7741C222.275 24.5594 222.275 24.2112 222.061 23.9964L218.918 20.8541C218.704 20.6394 218.355 20.6394 218.141 20.8541L214.998 23.9964C214.784 24.2112 214.784 24.5594 214.998 24.7741Z" fill="#636363"/>
<g clip-path="url(#clip0_9919_5515)">
<path d="M19.908 53L16.62 44.408H17.544L19.836 50.384C20.016 50.852 20.184 51.32 20.376 51.92C20.556 51.296 20.772 50.696 20.904 50.372L23.184 44.408H24.072L20.808 53H19.908ZM26.5969 53.144C24.8929 53.144 23.7529 51.92 23.7529 50.096C23.7529 48.284 24.8809 47.036 26.5369 47.036C28.1089 47.036 29.1769 48.152 29.1769 49.796V50.204H24.5569C24.6169 51.62 25.3609 52.436 26.6089 52.436C27.5569 52.436 28.1689 52.028 28.3849 51.26H29.1769C28.8649 52.484 27.9649 53.144 26.5969 53.144ZM26.5369 47.744C25.4449 47.744 24.7249 48.464 24.5809 49.604H28.3489C28.3489 48.488 27.6289 47.744 26.5369 47.744ZM31.3287 53H30.5007V47.192H31.2207L31.3407 48.2C31.7247 47.456 32.4927 47.036 33.3327 47.036C34.9287 47.036 35.5887 47.984 35.5887 49.448V53H34.7607V49.628C34.7607 48.272 34.1487 47.792 33.1887 47.792C32.0007 47.792 31.3287 48.656 31.3287 49.964V53ZM39.519 53.144C37.827 53.144 36.831 51.848 36.831 50.108C36.831 48.356 37.827 47.036 39.555 47.036C40.515 47.036 41.283 47.456 41.691 48.296V44.252H42.519V53H41.799L41.715 51.812C41.307 52.712 40.491 53.144 39.519 53.144ZM39.663 52.388C40.935 52.388 41.679 51.428 41.679 50.084C41.679 48.752 40.935 47.78 39.663 47.78C38.403 47.78 37.671 48.752 37.671 50.084C37.671 51.428 38.403 52.388 39.663 52.388ZM45.9148 53.144C44.6788 53.144 43.9468 52.448 43.9468 51.428C43.9468 50.36 44.7628 49.688 46.1188 49.58L48.0388 49.424V49.232C48.0388 48.092 47.3548 47.732 46.5028 47.732C45.4948 47.732 44.8948 48.188 44.8948 48.968H44.1388C44.1388 47.792 45.0988 47.036 46.5268 47.036C47.8708 47.036 48.8548 47.708 48.8548 49.244V53H48.1588L48.0508 51.98C47.6908 52.712 46.8988 53.144 45.9148 53.144ZM46.1068 52.472C47.3308 52.472 48.0388 51.62 48.0388 50.36V50.048L46.3228 50.18C45.2308 50.276 44.7868 50.756 44.7868 51.404C44.7868 52.112 45.3148 52.472 46.1068 52.472ZM55.5125 53.144C54.2765 53.144 53.5445 52.448 53.5445 51.428C53.5445 50.36 54.3605 49.688 55.7165 49.58L57.6365 49.424V49.232C57.6365 48.092 56.9525 47.732 56.1005 47.732C55.0925 47.732 54.4925 48.188 54.4925 48.968H53.7365C53.7365 47.792 54.6965 47.036 56.1245 47.036C57.4685 47.036 58.4525 47.708 58.4525 49.244V53H57.7565L57.6485 51.98C57.2885 52.712 56.4965 53.144 55.5125 53.144ZM55.7045 52.472C56.9285 52.472 57.6365 51.62 57.6365 50.36V50.048L55.9205 50.18C54.8285 50.276 54.3845 50.756 54.3845 51.404C54.3845 52.112 54.9125 52.472 55.7045 52.472ZM60.114 55.532V47.192H60.834L60.918 48.368C61.326 47.468 62.142 47.036 63.114 47.036C64.794 47.036 65.802 48.32 65.802 50.072C65.802 51.824 64.83 53.144 63.114 53.144C62.13 53.144 61.35 52.724 60.942 51.884V55.532H60.114ZM60.954 50.096C60.954 51.428 61.698 52.4 62.97 52.4C64.23 52.4 64.962 51.428 64.962 50.096C64.962 48.752 64.23 47.792 62.97 47.792C61.698 47.792 60.954 48.752 60.954 50.096ZM70.1578 47.12V47.864H69.7018C68.6338 47.864 67.9498 48.584 67.9498 49.688V53H67.1218V47.192H67.9018L67.9618 48.092C68.1898 47.468 68.8018 47.06 69.6178 47.06C69.7978 47.06 69.9538 47.072 70.1578 47.12ZM70.6279 50.096C70.6279 48.32 71.8759 47.036 73.5799 47.036C75.2839 47.036 76.5319 48.32 76.5319 50.096C76.5319 51.86 75.2839 53.144 73.5799 53.144C71.8759 53.144 70.6279 51.86 70.6279 50.096ZM71.4679 50.084C71.4679 51.452 72.3319 52.4 73.5799 52.4C74.8159 52.4 75.6919 51.452 75.6919 50.084C75.6919 48.74 74.8159 47.78 73.5799 47.78C72.3319 47.78 71.4679 48.74 71.4679 50.084ZM79.2184 53L76.8424 47.192H77.7304L79.2304 50.936C79.3864 51.356 79.5424 51.752 79.6504 52.136C79.7584 51.74 79.9144 51.356 80.0824 50.936L81.6064 47.192H82.4584L80.0464 53H79.2184ZM84.8445 53.144C83.6085 53.144 82.8765 52.448 82.8765 51.428C82.8765 50.36 83.6925 49.688 85.0485 49.58L86.9685 49.424V49.232C86.9685 48.092 86.2845 47.732 85.4325 47.732C84.4245 47.732 83.8245 48.188 83.8245 48.968H83.0685C83.0685 47.792 84.0285 47.036 85.4565 47.036C86.8005 47.036 87.7845 47.708 87.7845 49.244V53H87.0885L86.9805 51.98C86.6205 52.712 85.8285 53.144 84.8445 53.144ZM85.0365 52.472C86.2605 52.472 86.9685 51.62 86.9685 50.36V50.048L85.2525 50.18C84.1605 50.276 83.7165 50.756 83.7165 51.404C83.7165 52.112 84.2445 52.472 85.0365 52.472ZM91.726 53.144C90.034 53.144 89.038 51.848 89.038 50.108C89.038 48.356 90.034 47.036 91.762 47.036C92.722 47.036 93.49 47.456 93.898 48.296V44.252H94.726V53H94.006L93.922 51.812C93.514 52.712 92.698 53.144 91.726 53.144ZM91.87 52.388C93.142 52.388 93.886 51.428 93.886 50.084C93.886 48.752 93.142 47.78 91.87 47.78C90.61 47.78 89.878 48.752 89.878 50.084C89.878 51.428 90.61 52.388 91.87 52.388ZM98.1218 53.144C96.8858 53.144 96.1538 52.448 96.1538 51.428C96.1538 50.36 96.9698 49.688 98.3258 49.58L100.246 49.424V49.232C100.246 48.092 99.5618 47.732 98.7098 47.732C97.7018 47.732 97.1018 48.188 97.1018 48.968H96.3458C96.3458 47.792 97.3058 47.036 98.7338 47.036C100.078 47.036 101.062 47.708 101.062 49.244V53H100.366L100.258 51.98C99.8978 52.712 99.1058 53.144 98.1218 53.144ZM98.3138 52.472C99.5378 52.472 100.246 51.62 100.246 50.36V50.048L98.5298 50.18C97.4378 50.276 96.9938 50.756 96.9938 51.404C96.9938 52.112 97.5218 52.472 98.3138 52.472ZM107.455 51.476C106.555 51.476 105.799 50.732 105.799 49.844C105.799 48.956 106.543 48.2 107.455 48.2C108.343 48.2 109.087 48.956 109.087 49.844C109.087 50.72 108.343 51.476 107.455 51.476ZM117.347 49.844H114.935V53H114.071V44.408H117.347C119.003 44.408 120.047 45.488 120.047 47.108C120.047 48.668 118.991 49.844 117.347 49.844ZM117.227 45.188H114.935V49.064H117.179C118.427 49.064 119.147 48.272 119.147 47.096C119.147 45.908 118.415 45.188 117.227 45.188ZM122.306 44.408V53H121.442V44.408H122.306ZM126.52 48.716L123.52 44.408H124.54L126.136 46.664C126.544 47.24 126.82 47.696 127.024 48.08L129.52 44.408H130.516L127.564 48.692L130.564 53H129.532L127.9 50.696C127.612 50.288 127.264 49.76 127.048 49.376L124.54 53H123.532L126.52 48.716Z" fill="#333333"/>
<path d="M16.984 73.17C16.984 71.85 18.04 70.981 19.624 70.981C21.043 70.981 21.978 71.773 22.099 73.093H21.296C21.208 72.202 20.603 71.696 19.613 71.696C18.502 71.696 17.776 72.268 17.776 73.159C17.776 73.852 18.183 74.292 19.008 74.501L20.361 74.831C21.593 75.128 22.231 75.832 22.231 76.899C22.231 78.263 21.175 79.132 19.547 79.132C18.018 79.132 16.984 78.329 16.885 77.042H17.699C17.743 77.867 18.469 78.406 19.547 78.406C20.702 78.406 21.439 77.845 21.439 76.943C21.439 76.239 21.043 75.777 20.196 75.579L18.865 75.249C17.633 74.952 16.984 74.248 16.984 73.17ZM27.2302 73.676H27.9892V79H27.3292L27.2302 78.098C26.9332 78.714 26.1962 79.132 25.3602 79.132C24.1062 79.132 23.4242 78.274 23.4242 76.976V73.665H24.1942V76.734C24.1942 77.999 24.7552 78.45 25.6022 78.45C26.6252 78.45 27.2302 77.768 27.2302 76.503V73.676ZM31.0993 79.132C29.9663 79.132 29.2953 78.494 29.2953 77.559C29.2953 76.58 30.0433 75.964 31.2863 75.865L33.0463 75.722V75.546C33.0463 74.501 32.4193 74.171 31.6383 74.171C30.7143 74.171 30.1643 74.589 30.1643 75.304H29.4713C29.4713 74.226 30.3513 73.533 31.6603 73.533C32.8923 73.533 33.7943 74.149 33.7943 75.557V79H33.1563L33.0573 78.065C32.7273 78.736 32.0013 79.132 31.0993 79.132ZM31.2753 78.516C32.3973 78.516 33.0463 77.735 33.0463 76.58V76.294L31.4733 76.415C30.4723 76.503 30.0653 76.943 30.0653 77.537C30.0653 78.186 30.5493 78.516 31.2753 78.516ZM37.9942 76.349C37.9942 74.677 39.0172 73.533 40.5682 73.533C41.8002 73.533 42.7022 74.248 42.9112 75.348H42.1522C41.9542 74.611 41.3162 74.204 40.5792 74.204C39.5012 74.204 38.7422 75.029 38.7422 76.338C38.7422 77.603 39.4462 78.45 40.5242 78.45C41.3162 78.45 41.9542 78.01 42.1632 77.328H42.9332C42.6802 78.417 41.7342 79.132 40.5242 79.132C39.0172 79.132 37.9942 78.021 37.9942 76.349ZM43.709 76.338C43.709 74.71 44.853 73.533 46.415 73.533C47.977 73.533 49.121 74.71 49.121 76.338C49.121 77.955 47.977 79.132 46.415 79.132C44.853 79.132 43.709 77.955 43.709 76.338ZM44.479 76.327C44.479 77.581 45.271 78.45 46.415 78.45C47.548 78.45 48.351 77.581 48.351 76.327C48.351 75.095 47.548 74.215 46.415 74.215C45.271 74.215 44.479 75.095 44.479 76.327ZM51.094 79H50.335V73.676H50.995L51.083 74.435C51.347 73.874 51.941 73.533 52.689 73.533C53.525 73.533 54.152 73.973 54.405 74.666C54.647 73.973 55.296 73.533 56.154 73.533C57.309 73.533 58.068 74.281 58.068 75.513V79H57.331V75.667C57.331 74.754 56.825 74.215 56.011 74.215C55.12 74.215 54.592 74.886 54.592 75.711V79H53.844V75.656C53.844 74.754 53.327 74.226 52.524 74.226C51.633 74.226 51.094 74.886 51.094 75.7V79ZM59.9687 72.213C59.6607 72.213 59.4077 71.96 59.4077 71.652C59.4077 71.344 59.6607 71.08 59.9687 71.08C60.2767 71.08 60.5407 71.344 60.5407 71.652C60.5407 71.96 60.2767 72.213 59.9687 72.213ZM59.5947 79V73.676H60.3537V79H59.5947ZM61.4855 77.504H62.2115C62.2115 78.12 62.6735 78.505 63.4215 78.505C64.2465 78.505 64.7305 78.153 64.7305 77.581C64.7305 77.141 64.5105 76.888 63.8835 76.734L62.9705 76.503C62.0465 76.272 61.5955 75.788 61.5955 75.062C61.5955 74.127 62.3765 73.533 63.5205 73.533C64.6425 73.533 65.3685 74.149 65.4015 75.139H64.6645C64.6425 74.523 64.2135 74.16 63.4985 74.16C62.7505 74.16 62.3325 74.479 62.3325 75.051C62.3325 75.458 62.6185 75.744 63.2015 75.887L64.1145 76.118C65.0385 76.349 65.4565 76.778 65.4565 77.548C65.4565 78.505 64.6425 79.132 63.4325 79.132C62.2335 79.132 61.4855 78.494 61.4855 77.504ZM66.2551 77.504H66.9811C66.9811 78.12 67.4431 78.505 68.1911 78.505C69.0161 78.505 69.5001 78.153 69.5001 77.581C69.5001 77.141 69.2801 76.888 68.6531 76.734L67.7401 76.503C66.8161 76.272 66.3651 75.788 66.3651 75.062C66.3651 74.127 67.1461 73.533 68.2901 73.533C69.4121 73.533 70.1381 74.149 70.1711 75.139H69.4341C69.4121 74.523 68.9831 74.16 68.2681 74.16C67.5201 74.16 67.1021 74.479 67.1021 75.051C67.1021 75.458 67.3881 75.744 67.9711 75.887L68.8841 76.118C69.8081 76.349 70.2261 76.778 70.2261 77.548C70.2261 78.505 69.4121 79.132 68.2021 79.132C67.0031 79.132 66.2551 78.494 66.2551 77.504ZM72.6196 72.873H72.0696C72.0256 72.147 72.3446 71.707 72.8726 71.707C73.4776 71.707 73.7636 72.301 74.2146 72.301C74.4786 72.301 74.5886 72.103 74.5886 71.707H75.1276C75.1606 72.466 74.8416 72.873 74.2586 72.873C73.6316 72.873 73.3456 72.279 72.9716 72.279C72.7406 72.279 72.6196 72.488 72.6196 72.873ZM73.0046 79.132C71.8716 79.132 71.2006 78.494 71.2006 77.559C71.2006 76.58 71.9486 75.964 73.1916 75.865L74.9516 75.722V75.546C74.9516 74.501 74.3246 74.171 73.5436 74.171C72.6196 74.171 72.0696 74.589 72.0696 75.304H71.3766C71.3766 74.226 72.2566 73.533 73.5656 73.533C74.7976 73.533 75.6996 74.149 75.6996 75.557V79H75.0616L74.9626 78.065C74.6326 78.736 73.9066 79.132 73.0046 79.132ZM73.1806 78.516C74.3026 78.516 74.9516 77.735 74.9516 76.58V76.294L73.3786 76.415C72.3776 76.503 71.9706 76.943 71.9706 77.537C71.9706 78.186 72.4546 78.516 73.1806 78.516ZM76.8487 76.338C76.8487 74.71 77.9927 73.533 79.5547 73.533C81.1167 73.533 82.2607 74.71 82.2607 76.338C82.2607 77.955 81.1167 79.132 79.5547 79.132C77.9927 79.132 76.8487 77.955 76.8487 76.338ZM77.6187 76.327C77.6187 77.581 78.4107 78.45 79.5547 78.45C80.6877 78.45 81.4907 77.581 81.4907 76.327C81.4907 75.095 80.6877 74.215 79.5547 74.215C78.4107 74.215 77.6187 75.095 77.6187 76.327ZM84.2336 74.908C83.8596 74.908 83.5406 74.589 83.5406 74.226C83.5406 73.852 83.8596 73.544 84.2336 73.544C84.6076 73.544 84.9266 73.852 84.9266 74.226C84.9266 74.589 84.6076 74.908 84.2336 74.908ZM84.2336 79.121C83.8596 79.121 83.5406 78.813 83.5406 78.45C83.5406 78.076 83.8596 77.757 84.2336 77.757C84.6076 77.757 84.9266 78.076 84.9266 78.45C84.9266 78.813 84.6076 79.121 84.2336 79.121Z" fill="#636363"/>
<path d="M91.1369 79H89.7289V70.959H92.7979C94.6239 70.959 95.6909 71.883 95.6909 73.467C95.6909 74.545 95.1849 75.315 94.2389 75.7L95.7679 79H94.2279L92.8639 75.997H91.1369V79ZM91.1369 72.213V74.754H92.7979C93.6889 74.754 94.2169 74.281 94.2169 73.467C94.2169 72.664 93.6889 72.213 92.7979 72.213H91.1369ZM99.067 80.045V79.132C97.538 79.022 96.559 78.131 96.526 76.789H97.934C97.945 77.416 98.352 77.812 99.067 77.9V75.557L98.715 75.48C97.329 75.183 96.636 74.413 96.636 73.203C96.636 71.916 97.604 70.992 99.067 70.838V69.903H99.914V70.838C101.3 70.981 102.158 71.85 102.202 73.17H100.838C100.816 72.576 100.486 72.191 99.914 72.07V74.435L100.288 74.523C101.696 74.831 102.334 75.513 102.334 76.679C102.334 78.021 101.388 78.945 99.914 79.11V80.045H99.067ZM99.023 74.237L99.067 74.248V72.059C98.407 72.169 98.011 72.565 98.011 73.159C98.011 73.742 98.319 74.083 99.023 74.237ZM99.991 75.755L99.914 75.733V77.878C100.574 77.746 100.97 77.361 100.97 76.8C100.97 76.239 100.651 75.898 99.991 75.755ZM107.816 72.224H106.056V70.959H109.169V79H107.816V72.224ZM112.913 75.018H111.934V74.105L114.002 72.202H110.658V70.959H115.762V72.081L113.804 73.885C115.036 74.127 115.993 75.029 115.993 76.448C115.993 78.098 114.706 79.143 113.078 79.143C111.505 79.143 110.284 78.175 110.284 76.437H111.67C111.67 77.361 112.242 77.889 113.1 77.889C113.98 77.889 114.563 77.317 114.563 76.426C114.563 75.612 114.035 75.018 112.913 75.018ZM119.412 75.018H118.433V74.105L120.501 72.202H117.157V70.959H122.261V72.081L120.303 73.885C121.535 74.127 122.492 75.029 122.492 76.448C122.492 78.098 121.205 79.143 119.577 79.143C118.004 79.143 116.783 78.175 116.783 76.437H118.169C118.169 77.361 118.741 77.889 119.599 77.889C120.479 77.889 121.062 77.317 121.062 76.426C121.062 75.612 120.534 75.018 119.412 75.018ZM125.215 78.516C125.215 79.429 124.555 80.155 123.664 80.265V79.726C124.159 79.638 124.533 79.341 124.533 78.956C124.445 79 124.346 79.022 124.214 79.022C123.785 79.022 123.433 78.703 123.433 78.263C123.433 77.735 123.774 77.383 124.269 77.383C124.819 77.383 125.215 77.834 125.215 78.516ZM130.876 76.635L129.138 79H127.532L129.457 76.437C129.259 76.492 129.05 76.525 128.852 76.525C127.191 76.525 126.069 75.359 126.069 73.731C126.069 72.015 127.345 70.816 129.061 70.816C130.799 70.816 132.097 72.092 132.097 73.742C132.097 74.71 131.778 75.414 130.876 76.635ZM130.656 73.731C130.656 72.752 130.007 72.07 129.061 72.07C128.137 72.07 127.488 72.752 127.488 73.731C127.488 74.699 128.137 75.37 129.061 75.37C130.018 75.37 130.656 74.699 130.656 73.731ZM132.967 74.996C132.967 72.499 134.309 70.805 136.366 70.805C138.423 70.805 139.776 72.499 139.776 74.996C139.776 77.482 138.5 79.143 136.366 79.143C134.232 79.143 132.967 77.482 132.967 74.996ZM134.353 74.996C134.353 76.855 135.101 77.9 136.366 77.9C137.642 77.9 138.39 76.855 138.39 74.996C138.39 73.093 137.642 72.048 136.366 72.048C135.101 72.048 134.353 73.093 134.353 74.996Z" fill="#02A0FC"/>
</g>
<rect x="1.5" y="1" width="238" height="98" rx="13.7429" stroke="#DEE1E4" stroke-width="2"/>
</g>
<defs>
<filter id="filter0_b_9919_5515" x="-7.35581" y="-7.85581" width="255.712" height="115.712" filterUnits="userSpaceOnUse" color-interpolation-filters="sRGB">
<feFlood flood-opacity="0" result="BackgroundImageFix"/>
<feGaussianBlur in="BackgroundImageFix" stdDeviation="3.9279"/>
<feComposite in2="SourceAlpha" operator="in" result="effect1_backgroundBlur_9919_5515"/>
<feBlend mode="normal" in="SourceGraphic" in2="effect1_backgroundBlur_9919_5515" result="shape"/>
</filter>
<linearGradient id="paint0_linear_9919_5515" x1="-57.522" y1="42.5134" x2="278.742" y2="42.5134" gradientUnits="userSpaceOnUse">
<stop stop-color="#F1EFEF"/>
<stop offset="0.53125" stop-color="#F9F8F8"/>
<stop offset="0.992158" stop-color="#E7E5E5"/>
</linearGradient>
<clipPath id="clip0_9919_5515">
<rect width="208" height="45" fill="white" transform="translate(16.5 41)"/>
</clipPath>
</defs>
</svg>
