<svg width="241" height="100" viewBox="0 0 241 100" fill="none" xmlns="http://www.w3.org/2000/svg">
<g filter="url(#filter0_b_8454_137695)">
<rect x="0.5" width="240" height="100" rx="14.7429" fill="url(#paint0_linear_8454_137695)"/>
<path fill-rule="evenodd" clip-rule="evenodd" d="M25.5921 17.4237H19.011C18.0248 17.4237 17.2252 18.2232 17.2252 19.2095V25.7906C17.2252 26.7769 18.0248 27.5765 19.011 27.5765H25.5921C26.5784 27.5765 27.378 26.7769 27.378 25.7906V19.2095C27.378 18.2232 26.5784 17.4237 25.5921 17.4237ZM19.011 16.6985C17.6242 16.6985 16.5 17.8227 16.5 19.2095V25.7906C16.5 27.1774 17.6242 28.3017 19.011 28.3017H25.5921C26.979 28.3017 28.1032 27.1774 28.1032 25.7906V19.2095C28.1032 17.8227 26.979 16.6985 25.5921 16.6985H19.011ZM22.823 24.2147L22.6248 24.2456C22.5327 24.26 22.4665 24.3419 22.4717 24.435L22.4838 24.6496C22.4892 24.7456 22.5686 24.8207 22.6648 24.8207H24.4409C24.5411 24.8207 24.6222 24.7395 24.6222 24.6394V24.4156C24.6222 24.3308 24.5634 24.2573 24.4807 24.2387L24.1512 24.1648L24.0478 24.068C23.996 24.0148 23.937 23.9548 23.8706 23.8879C23.805 23.8115 23.7271 23.7288 23.6374 23.64L22.3339 22.2803L23.9712 20.8316L24.3572 20.7694C24.4486 20.7546 24.5143 20.6732 24.5093 20.5807L24.4971 20.3511C24.4919 20.2548 24.4124 20.1794 24.316 20.1794H22.855C22.7588 20.1794 22.6794 20.2545 22.674 20.3506L22.6618 20.5666C22.6568 20.6567 22.7188 20.7369 22.8074 20.7546L22.9886 20.7907L21.5829 22.15L21.4678 22.1784V21.2241C21.473 21.0705 21.4781 20.9531 21.4831 20.8718C21.4849 20.8574 21.4867 20.8445 21.4885 20.8329L21.8539 20.7545C21.9412 20.7357 22.0019 20.6562 21.9969 20.567L21.9847 20.3506C21.9793 20.2545 21.8998 20.1794 21.8037 20.1794H20.1831C20.0889 20.1794 20.0104 20.2516 20.0025 20.3455L19.9842 20.5621C19.9765 20.6532 20.0379 20.7358 20.1274 20.7547L20.4877 20.8308C20.488 20.8434 20.4882 20.8574 20.4882 20.873V20.8773L20.4885 20.8816C20.4935 20.9663 20.4961 21.0866 20.4961 21.2436L20.4962 21.2486C20.5014 21.3996 20.5041 21.5856 20.5041 21.807V23.2006C20.5041 23.5262 20.5014 23.7791 20.4962 23.9599C20.4935 24.0516 20.4903 24.1209 20.4868 24.1699L20.1347 24.2455C20.0455 24.2646 19.9844 24.3471 19.9921 24.438L20.0104 24.6547C20.0183 24.7486 20.0968 24.8207 20.191 24.8207H21.7808C21.8751 24.8207 21.9536 24.7486 21.9615 24.6547L21.9798 24.438C21.9875 24.3471 21.9264 24.2646 21.8372 24.2455L21.4891 24.1708C21.4853 24.1187 21.4808 24.0479 21.4756 23.9578C21.4704 23.7772 21.4678 23.525 21.4678 23.2006V22.8045H21.5058L22.6754 24.0486L22.6782 24.0514C22.7352 24.1088 22.7833 24.1633 22.823 24.2147Z" fill="white"/>
<path d="M32.1643 19.8762C32.1643 19.8149 32.1758 19.7643 32.1987 19.7243C32.224 19.6843 32.2825 19.6643 32.3742 19.6643H32.9627C33.0293 19.6643 33.0774 19.6854 33.1073 19.7278C33.1371 19.7679 33.152 19.8114 33.152 19.8585V22.7721L34.6662 21.0911C34.696 21.0604 34.7259 21.0369 34.7557 21.0204C34.7878 21.0039 34.8257 20.9957 34.8693 20.9957H35.6574C35.7078 20.9957 35.7457 21.0063 35.7709 21.0275C35.7962 21.0487 35.8088 21.0769 35.8088 21.1122C35.8088 21.1358 35.8053 21.157 35.7984 21.1758C35.7916 21.1946 35.7789 21.2158 35.7606 21.2394L34.2154 22.8957L36.0497 25.2196H36.0428C36.068 25.2455 36.0852 25.2737 36.0944 25.3043C36.1059 25.3349 36.1116 25.3597 36.1116 25.3785C36.1116 25.4185 36.1001 25.4456 36.0772 25.4597C36.0543 25.4738 36.0198 25.4809 35.974 25.4809H35.0964C35.0299 25.4809 34.9656 25.4315 34.9037 25.3326L33.5718 23.5562L33.1589 23.9976V25.269C33.1589 25.2902 33.1554 25.3137 33.1486 25.3396C33.1417 25.3632 33.1302 25.3856 33.1141 25.4067C33.1004 25.4279 33.0809 25.4456 33.0556 25.4597C33.0304 25.4738 32.9994 25.4809 32.9627 25.4809H32.3536C32.3192 25.4809 32.2905 25.4738 32.2675 25.4597C32.2446 25.4456 32.2251 25.4279 32.209 25.4067C32.193 25.3856 32.1815 25.3644 32.1746 25.3432C32.1677 25.3196 32.1643 25.3008 32.1643 25.2867V19.8762Z" fill="white"/>
<path d="M36.7382 21.2111C36.7382 21.1499 36.7554 21.0993 36.7898 21.0593C36.8243 21.0169 36.8747 20.9957 36.9413 20.9957H37.5125C37.5378 20.9957 37.563 21.0016 37.5883 21.0134C37.6158 21.0228 37.6399 21.0381 37.6605 21.0593C37.6812 21.0781 37.6984 21.1005 37.7122 21.1264C37.7259 21.1523 37.7328 21.1805 37.7328 21.2111V25.269C37.7328 25.4103 37.6605 25.4809 37.516 25.4809H36.9447C36.8071 25.4809 36.7382 25.4103 36.7382 25.269V21.2111ZM36.7382 19.6501C36.7382 19.5089 36.8059 19.4382 36.9413 19.4382H37.5194C37.5837 19.4382 37.6353 19.4559 37.6743 19.4912C37.7133 19.5265 37.7328 19.5795 37.7328 19.6501V20.1764C37.7328 20.2305 37.7144 20.2823 37.6777 20.3317C37.641 20.3788 37.5894 20.4024 37.5229 20.4024H36.9447C36.8071 20.4024 36.7382 20.327 36.7382 20.1764V19.6501Z" fill="white"/>
<path d="M38.8486 21.2041C38.8486 21.1358 38.8704 21.084 38.914 21.0487C38.9599 21.0134 39.0092 20.9957 39.062 20.9957H39.4991C39.5564 20.9957 39.6 21.0134 39.6298 21.0487C39.6597 21.084 39.6826 21.1275 39.6987 21.1793C39.7147 21.2311 39.7262 21.2876 39.7331 21.3489C39.74 21.4077 39.748 21.4619 39.7572 21.5113C39.8076 21.4383 39.8638 21.3677 39.9258 21.2994C39.99 21.2288 40.0623 21.1664 40.1426 21.1122C40.2229 21.0581 40.3135 21.0145 40.4145 20.9816C40.5154 20.9486 40.6301 20.9321 40.7586 20.9321C40.8733 20.9321 40.9766 20.9404 41.0683 20.9568C41.1601 20.971 41.2473 20.9945 41.3299 21.0275C41.4148 21.0581 41.4974 21.0993 41.5777 21.1511C41.658 21.2005 41.744 21.2594 41.8358 21.3277C41.8748 21.3536 41.9081 21.383 41.9356 21.416C41.9654 21.4489 41.9803 21.4878 41.9803 21.5325C41.978 21.5513 41.9746 21.5714 41.97 21.5925C41.9654 21.6137 41.9562 21.6349 41.9425 21.6561L41.6603 22.1152C41.6419 22.1388 41.6201 22.1564 41.5949 22.1682C41.5719 22.1776 41.5513 22.1823 41.5329 22.1823C41.4962 22.1823 41.4607 22.1729 41.4263 22.1541C41.3505 22.1117 41.2817 22.0717 41.2198 22.034C41.1578 21.9963 41.097 21.9645 41.0374 21.9387C40.9777 21.9104 40.9158 21.8892 40.8515 21.8751C40.7896 21.8586 40.7196 21.8504 40.6416 21.8504C40.4374 21.8504 40.2642 21.9175 40.122 22.0517C39.982 22.1859 39.8879 22.3707 39.8398 22.6061V25.269C39.8398 25.4103 39.7686 25.4809 39.6264 25.4809H39.062C38.9197 25.4809 38.8486 25.4103 38.8486 25.269V21.2041Z" fill="white"/>
<path d="M42.2343 21.2818C42.2343 21.2818 42.2331 21.2771 42.2308 21.2676C42.2286 21.2582 42.2251 21.2464 42.2205 21.2323C42.2182 21.2182 42.2159 21.2029 42.2136 21.1864C42.2113 21.1699 42.2102 21.1558 42.2102 21.144C42.2102 21.0993 42.2251 21.064 42.2549 21.0381C42.2871 21.0098 42.3341 20.9957 42.396 20.9957H43.0155C43.0706 20.9957 43.1153 21.0098 43.1497 21.0381C43.1841 21.0663 43.2117 21.1064 43.2323 21.1582L43.2942 21.3171C43.3401 21.4513 43.3918 21.602 43.4491 21.7691C43.5088 21.9363 43.5696 22.1093 43.6315 22.2883C43.6935 22.4649 43.7554 22.6415 43.8173 22.818C43.8793 22.9923 43.9378 23.1571 43.9929 23.3125C44.0479 23.4655 44.0972 23.6021 44.1408 23.7221C44.1844 23.8399 44.2188 23.9305 44.2441 23.9941C44.2831 23.8787 44.3278 23.7469 44.3783 23.5985C44.4311 23.4478 44.4873 23.2889 44.5469 23.1218C44.6066 22.9522 44.6674 22.778 44.7293 22.5991C44.7913 22.4201 44.8521 22.2447 44.9117 22.0729C44.9714 21.901 45.0276 21.7373 45.0803 21.582C45.1354 21.4242 45.1847 21.2818 45.2283 21.1546C45.2513 21.0981 45.2788 21.0581 45.3109 21.0345C45.3453 21.0086 45.3912 20.9957 45.4486 20.9957H46.0921C46.1632 20.9957 46.2114 21.0075 46.2367 21.031C46.2642 21.0546 46.278 21.0852 46.278 21.1228C46.278 21.1417 46.2745 21.1652 46.2676 21.1935C46.263 21.2217 46.2585 21.2429 46.2539 21.257L44.6158 25.3396C44.5974 25.3726 44.5745 25.4044 44.5469 25.435C44.5217 25.4656 44.4735 25.4809 44.4024 25.4809H44.0858C44.0032 25.4809 43.947 25.4668 43.9171 25.4385C43.8896 25.4079 43.869 25.375 43.8552 25.3396L42.2343 21.2818Z" fill="white"/>
<path d="M51.2351 25.2725C51.2351 25.3149 51.2259 25.3502 51.2075 25.3785C51.1915 25.4044 51.1697 25.4256 51.1421 25.4421C51.1146 25.4562 51.0825 25.4668 51.0458 25.4738C51.0114 25.4786 50.9747 25.4809 50.9357 25.4809H50.5055C50.4321 25.4809 50.3804 25.4609 50.3506 25.4209C50.3231 25.3808 50.3024 25.3302 50.2887 25.269L50.268 24.9688C50.1877 25.0512 50.0982 25.1289 49.9996 25.2019C49.9032 25.2725 49.7988 25.3349 49.6864 25.3891C49.574 25.4409 49.4547 25.4809 49.3285 25.5092C49.2023 25.5398 49.0727 25.5551 48.9396 25.5551C48.7331 25.5551 48.5335 25.528 48.3408 25.4738C48.1504 25.4173 47.9714 25.3396 47.804 25.2408C47.6365 25.1395 47.4839 25.0183 47.3463 24.877C47.2109 24.7357 47.0939 24.5792 46.9952 24.4073C46.8989 24.2354 46.8232 24.0506 46.7681 23.8528C46.7153 23.655 46.6889 23.449 46.6889 23.2348C46.6889 23.0205 46.7153 22.8145 46.7681 22.6167C46.8232 22.419 46.8989 22.2341 46.9952 22.0623C47.0939 21.8904 47.2109 21.735 47.3463 21.5961C47.4839 21.4548 47.6365 21.3347 47.804 21.2358C47.9714 21.1346 48.1504 21.0569 48.3408 21.0028C48.5335 20.9463 48.7331 20.918 48.9396 20.918C49.0865 20.918 49.2264 20.9345 49.3595 20.9674C49.4926 20.9981 49.6164 21.0428 49.7312 21.1016C49.8482 21.1582 49.956 21.2276 50.0547 21.31C50.1533 21.3901 50.2428 21.4784 50.3231 21.5749L50.3713 21.197C50.3827 21.1546 50.3931 21.1205 50.4022 21.0946C50.4137 21.0663 50.4263 21.044 50.4401 21.0275C50.4562 21.011 50.4757 21.0004 50.4986 20.9957C50.5215 20.9886 50.5502 20.9851 50.5846 20.9851H50.9288C50.9655 20.9851 51.0022 20.9886 51.0389 20.9957C51.0756 21.0028 51.1089 21.0145 51.1387 21.031C51.1685 21.0451 51.1915 21.0663 51.2075 21.0946C51.2259 21.1205 51.2351 21.1534 51.2351 21.1935V25.2725ZM47.656 23.2348C47.656 23.4231 47.6881 23.6021 47.7523 23.7716C47.8166 23.9387 47.9061 24.0859 48.0208 24.213C48.1355 24.3402 48.2697 24.4414 48.4234 24.5168C48.5794 24.5898 48.7492 24.6262 48.9328 24.6262C49.1186 24.6262 49.2918 24.5898 49.4524 24.5168C49.6153 24.4414 49.7564 24.3402 49.8757 24.213C49.995 24.0859 50.0891 23.9387 50.1579 23.7716C50.2267 23.6021 50.2611 23.4231 50.2611 23.2348C50.2611 23.0488 50.2267 22.8722 50.1579 22.705C50.0891 22.5355 49.995 22.3872 49.8757 22.26C49.7564 22.1329 49.6153 22.0317 49.4524 21.9563C49.2918 21.881 49.1186 21.8433 48.9328 21.8433C48.7492 21.8433 48.5794 21.881 48.4234 21.9563C48.2697 22.0317 48.1355 22.1329 48.0208 22.26C47.9061 22.3872 47.8166 22.5355 47.7523 22.705C47.6881 22.8722 47.656 23.0488 47.656 23.2348Z" fill="white"/>
<path d="M52.1373 21.2041C52.1373 21.1711 52.151 21.1358 52.1786 21.0981C52.2061 21.0604 52.2325 21.0369 52.2577 21.0275C52.2761 21.0086 52.3036 20.9992 52.3403 20.9992C52.377 20.9969 52.4114 20.9957 52.4435 20.9957H52.7911C52.8577 20.9957 52.907 21.0181 52.9391 21.0628C52.9712 21.1075 52.993 21.157 53.0045 21.2111L53.0423 21.5855C53.0951 21.5054 53.1594 21.4266 53.2351 21.3489C53.3131 21.2712 53.4048 21.2017 53.5104 21.1405C53.6159 21.0793 53.7364 21.0298 53.8717 20.9922C54.0071 20.9545 54.1597 20.9357 54.3294 20.9357C54.6002 20.9357 54.8411 20.9863 55.0521 21.0875C55.2632 21.1864 55.441 21.323 55.5856 21.4972C55.7301 21.6714 55.8391 21.8763 55.9125 22.1117C55.9882 22.3471 56.0261 22.6002 56.0261 22.871V25.2266C56.0261 25.3114 56.0066 25.375 55.9676 25.4173C55.9286 25.4597 55.8723 25.4809 55.7989 25.4809H55.2758C55.1841 25.4809 55.1221 25.4633 55.09 25.4279C55.0602 25.3926 55.0453 25.3302 55.0453 25.2408V22.8887C55.0453 22.7639 55.0246 22.6426 54.9833 22.5249C54.942 22.4048 54.8812 22.2977 54.8009 22.2035C54.7229 22.1093 54.6254 22.034 54.5084 21.9775C54.3914 21.921 54.256 21.8927 54.1023 21.8927C53.9968 21.8927 53.8866 21.9151 53.7719 21.9598C53.6595 22.0022 53.5563 22.0634 53.4622 22.1435C53.3681 22.2235 53.2901 22.3212 53.2282 22.4366C53.1662 22.5496 53.1341 22.6779 53.1318 22.8216V25.1101C53.1318 25.1548 53.1295 25.1996 53.1249 25.2443C53.1204 25.289 53.11 25.329 53.094 25.3644C53.0802 25.3997 53.0596 25.4279 53.032 25.4491C53.0045 25.4703 52.9689 25.4809 52.9253 25.4809H52.3575C52.2818 25.4809 52.2256 25.4633 52.1889 25.4279C52.1545 25.3903 52.1373 25.3373 52.1373 25.269V21.2041Z" fill="white"/>
<path d="M56.6537 23.2454C56.6537 23.0311 56.6801 22.8251 56.7328 22.6273C56.7879 22.4272 56.8648 22.2412 56.9634 22.0693C57.0621 21.8974 57.1802 21.7421 57.3179 21.6031C57.4555 21.4619 57.6081 21.3418 57.7756 21.2429C57.9431 21.1417 58.122 21.064 58.3125 21.0098C58.5052 20.9533 58.7059 20.9251 58.9147 20.9251C59.1212 20.9251 59.3208 20.9533 59.5135 21.0098C59.7062 21.064 59.8852 21.1417 60.0504 21.2429C60.2179 21.3418 60.3704 21.4619 60.5081 21.6031C60.6457 21.7421 60.7639 21.8974 60.8626 22.0693C60.9612 22.2412 61.0369 22.4272 61.0897 22.6273C61.1448 22.8251 61.1723 23.0311 61.1723 23.2454C61.1723 23.4596 61.1448 23.6656 61.0897 23.8634C61.0369 24.0612 60.9612 24.246 60.8626 24.4179C60.7639 24.5874 60.6457 24.7428 60.5081 24.8841C60.3704 25.0253 60.2179 25.1466 60.0504 25.2478C59.8852 25.3467 59.7062 25.4244 59.5135 25.4809C59.3208 25.5351 59.1212 25.5621 58.9147 25.5621C58.7059 25.5621 58.5052 25.5351 58.3125 25.4809C58.122 25.4244 57.9431 25.3467 57.7756 25.2478C57.6081 25.1466 57.4555 25.0253 57.3179 24.8841C57.1802 24.7428 57.0621 24.5874 56.9634 24.4179C56.8648 24.246 56.7879 24.0612 56.7328 23.8634C56.6801 23.6656 56.6537 23.4596 56.6537 23.2454ZM57.6242 23.2454C57.6242 23.4337 57.6563 23.6127 57.7205 23.7822C57.7848 23.9493 57.8743 24.0953 57.989 24.2201C58.1037 24.3449 58.239 24.4438 58.3951 24.5168C58.5534 24.5898 58.7254 24.6262 58.9113 24.6262C59.0925 24.6262 59.26 24.5898 59.4137 24.5168C59.5697 24.4438 59.7039 24.3449 59.8164 24.2201C59.9288 24.0953 60.016 23.9493 60.0779 23.7822C60.1421 23.6127 60.1743 23.4337 60.1743 23.2454C60.1743 23.0594 60.1421 22.8816 60.0779 22.7121C60.016 22.5426 59.9288 22.3942 59.8164 22.2671C59.7039 22.1376 59.5697 22.0352 59.4137 21.9598C59.26 21.8821 59.0925 21.8433 58.9113 21.8433C58.7254 21.8433 58.5534 21.8821 58.3951 21.9598C58.239 22.0352 58.1037 22.1376 57.989 22.2671C57.8743 22.3942 57.7848 22.5426 57.7205 22.7121C57.6563 22.8816 57.6242 23.0594 57.6242 23.2454Z" fill="white"/>
<path d="M72.9655 23.8028C72.2585 23.8028 71.6646 23.2183 71.6646 22.5207C71.6646 21.8231 72.2491 21.2292 72.9655 21.2292C73.6631 21.2292 74.2476 21.8231 74.2476 22.5207C74.2476 23.2089 73.6631 23.8028 72.9655 23.8028ZM82.0153 25.1131C81.0443 25.1131 80.4693 24.5664 80.4693 23.7651C80.4693 22.9261 81.1103 22.3982 82.1755 22.3133L83.6839 22.1908V22.0399C83.6839 21.1444 83.1465 20.8616 82.4772 20.8616C81.6853 20.8616 81.214 21.2198 81.214 21.8325H80.6201C80.6201 20.9087 81.3743 20.3148 82.4961 20.3148C83.5519 20.3148 84.3249 20.8427 84.3249 22.0494V25H83.7781L83.6933 24.1987C83.4105 24.7738 82.7883 25.1131 82.0153 25.1131ZM82.1661 24.5852C83.1277 24.5852 83.6839 23.9159 83.6839 22.9261V22.681L82.3358 22.7847C81.478 22.8601 81.1292 23.2372 81.1292 23.7462C81.1292 24.3024 81.5439 24.5852 82.1661 24.5852ZM85.3191 22.5867C85.3191 21.3423 86.1204 20.3148 87.459 20.3148C88.2509 20.3148 88.8542 20.6824 89.1464 21.3518L89.2124 20.4373H89.778V24.8586C89.778 26.2161 88.9107 27.1022 87.5721 27.1022C86.4032 27.1022 85.583 26.4423 85.4039 25.3394H86.0544C86.1958 26.0747 86.7614 26.5083 87.5815 26.5083C88.5148 26.5083 89.137 25.8767 89.137 24.9246V23.8405C88.8259 24.4815 88.1943 24.8586 87.4119 24.8586C86.1109 24.8586 85.3191 23.8311 85.3191 22.5867ZM85.9695 22.5773C85.9695 23.5105 86.5446 24.2741 87.5061 24.2741C88.496 24.2741 89.0804 23.5577 89.0804 22.5773C89.0804 21.6063 88.5148 20.8898 87.5156 20.8898C86.5352 20.8898 85.9695 21.6534 85.9695 22.5773ZM90.8148 22.7187C90.8148 21.3235 91.7953 20.3148 93.1339 20.3148C94.4725 20.3148 95.4529 21.3235 95.4529 22.7187C95.4529 24.1044 94.4725 25.1131 93.1339 25.1131C91.7953 25.1131 90.8148 24.1044 90.8148 22.7187ZM91.4747 22.7092C91.4747 23.7839 92.1535 24.5287 93.1339 24.5287C94.1049 24.5287 94.793 23.7839 94.793 22.7092C94.793 21.6534 94.1049 20.8993 93.1339 20.8993C92.1535 20.8993 91.4747 21.6534 91.4747 22.7092ZM98.8783 20.3808V20.9653H98.5201C97.6811 20.9653 97.1437 21.5309 97.1437 22.3982V25H96.4933V20.4373H97.106L97.1532 21.1444C97.3323 20.6542 97.813 20.3336 98.4541 20.3336C98.5955 20.3336 98.718 20.3431 98.8783 20.3808ZM100.869 25.1131C99.8983 25.1131 99.3232 24.5664 99.3232 23.7651C99.3232 22.9261 99.9642 22.3982 101.029 22.3133L102.538 22.1908V22.0399C102.538 21.1444 102 20.8616 101.331 20.8616C100.539 20.8616 100.068 21.2198 100.068 21.8325H99.474C99.474 20.9087 100.228 20.3148 101.35 20.3148C102.406 20.3148 103.179 20.8427 103.179 22.0494V25H102.632L102.547 24.1987C102.264 24.7738 101.642 25.1131 100.869 25.1131ZM101.02 24.5852C101.982 24.5852 102.538 23.9159 102.538 22.9261V22.681L101.19 22.7847C100.332 22.8601 99.9831 23.2372 99.9831 23.7462C99.9831 24.3024 100.398 24.5852 101.02 24.5852Z" fill="#A8A8A8"/>
<path fill-rule="evenodd" clip-rule="evenodd" d="M214.998 24.7742C215.213 24.989 215.561 24.989 215.776 24.7742L218.53 22.0208L221.283 24.7742C221.498 24.989 221.846 24.989 222.061 24.7742C222.275 24.5595 222.275 24.2113 222.061 23.9966L218.918 20.8542C218.704 20.6395 218.355 20.6395 218.141 20.8542L214.998 23.9966C214.784 24.2113 214.784 24.5595 214.998 24.7742Z" fill="#A8A8A8"/>
<g clip-path="url(#clip0_8454_137695)">
<path d="M19.908 53L16.62 44.408H17.544L19.836 50.384C20.016 50.852 20.184 51.32 20.376 51.92C20.556 51.296 20.772 50.696 20.904 50.372L23.184 44.408H24.072L20.808 53H19.908ZM26.5969 53.144C24.8929 53.144 23.7529 51.92 23.7529 50.096C23.7529 48.284 24.8809 47.036 26.5369 47.036C28.1089 47.036 29.1769 48.152 29.1769 49.796V50.204H24.5569C24.6169 51.62 25.3609 52.436 26.6089 52.436C27.5569 52.436 28.1689 52.028 28.3849 51.26H29.1769C28.8649 52.484 27.9649 53.144 26.5969 53.144ZM26.5369 47.744C25.4449 47.744 24.7249 48.464 24.5809 49.604H28.3489C28.3489 48.488 27.6289 47.744 26.5369 47.744ZM31.3287 53H30.5007V47.192H31.2207L31.3407 48.2C31.7247 47.456 32.4927 47.036 33.3327 47.036C34.9287 47.036 35.5887 47.984 35.5887 49.448V53H34.7607V49.628C34.7607 48.272 34.1487 47.792 33.1887 47.792C32.0007 47.792 31.3287 48.656 31.3287 49.964V53ZM39.519 53.144C37.827 53.144 36.831 51.848 36.831 50.108C36.831 48.356 37.827 47.036 39.555 47.036C40.515 47.036 41.283 47.456 41.691 48.296V44.252H42.519V53H41.799L41.715 51.812C41.307 52.712 40.491 53.144 39.519 53.144ZM39.663 52.388C40.935 52.388 41.679 51.428 41.679 50.084C41.679 48.752 40.935 47.78 39.663 47.78C38.403 47.78 37.671 48.752 37.671 50.084C37.671 51.428 38.403 52.388 39.663 52.388ZM45.9148 53.144C44.6788 53.144 43.9468 52.448 43.9468 51.428C43.9468 50.36 44.7628 49.688 46.1188 49.58L48.0388 49.424V49.232C48.0388 48.092 47.3548 47.732 46.5028 47.732C45.4948 47.732 44.8948 48.188 44.8948 48.968H44.1388C44.1388 47.792 45.0988 47.036 46.5268 47.036C47.8708 47.036 48.8548 47.708 48.8548 49.244V53H48.1588L48.0508 51.98C47.6908 52.712 46.8988 53.144 45.9148 53.144ZM46.1068 52.472C47.3308 52.472 48.0388 51.62 48.0388 50.36V50.048L46.3228 50.18C45.2308 50.276 44.7868 50.756 44.7868 51.404C44.7868 52.112 45.3148 52.472 46.1068 52.472ZM55.5125 53.144C54.2765 53.144 53.5445 52.448 53.5445 51.428C53.5445 50.36 54.3605 49.688 55.7165 49.58L57.6365 49.424V49.232C57.6365 48.092 56.9525 47.732 56.1005 47.732C55.0925 47.732 54.4925 48.188 54.4925 48.968H53.7365C53.7365 47.792 54.6965 47.036 56.1245 47.036C57.4685 47.036 58.4525 47.708 58.4525 49.244V53H57.7565L57.6485 51.98C57.2885 52.712 56.4965 53.144 55.5125 53.144ZM55.7045 52.472C56.9285 52.472 57.6365 51.62 57.6365 50.36V50.048L55.9205 50.18C54.8285 50.276 54.3845 50.756 54.3845 51.404C54.3845 52.112 54.9125 52.472 55.7045 52.472ZM60.114 55.532V47.192H60.834L60.918 48.368C61.326 47.468 62.142 47.036 63.114 47.036C64.794 47.036 65.802 48.32 65.802 50.072C65.802 51.824 64.83 53.144 63.114 53.144C62.13 53.144 61.35 52.724 60.942 51.884V55.532H60.114ZM60.954 50.096C60.954 51.428 61.698 52.4 62.97 52.4C64.23 52.4 64.962 51.428 64.962 50.096C64.962 48.752 64.23 47.792 62.97 47.792C61.698 47.792 60.954 48.752 60.954 50.096ZM70.1578 47.12V47.864H69.7018C68.6338 47.864 67.9498 48.584 67.9498 49.688V53H67.1218V47.192H67.9018L67.9618 48.092C68.1898 47.468 68.8018 47.06 69.6178 47.06C69.7978 47.06 69.9538 47.072 70.1578 47.12ZM70.6279 50.096C70.6279 48.32 71.8759 47.036 73.5799 47.036C75.2839 47.036 76.5319 48.32 76.5319 50.096C76.5319 51.86 75.2839 53.144 73.5799 53.144C71.8759 53.144 70.6279 51.86 70.6279 50.096ZM71.4679 50.084C71.4679 51.452 72.3319 52.4 73.5799 52.4C74.8159 52.4 75.6919 51.452 75.6919 50.084C75.6919 48.74 74.8159 47.78 73.5799 47.78C72.3319 47.78 71.4679 48.74 71.4679 50.084ZM79.2184 53L76.8424 47.192H77.7304L79.2304 50.936C79.3864 51.356 79.5424 51.752 79.6504 52.136C79.7584 51.74 79.9144 51.356 80.0824 50.936L81.6064 47.192H82.4584L80.0464 53H79.2184ZM84.8445 53.144C83.6085 53.144 82.8765 52.448 82.8765 51.428C82.8765 50.36 83.6925 49.688 85.0485 49.58L86.9685 49.424V49.232C86.9685 48.092 86.2845 47.732 85.4325 47.732C84.4245 47.732 83.8245 48.188 83.8245 48.968H83.0685C83.0685 47.792 84.0285 47.036 85.4565 47.036C86.8005 47.036 87.7845 47.708 87.7845 49.244V53H87.0885L86.9805 51.98C86.6205 52.712 85.8285 53.144 84.8445 53.144ZM85.0365 52.472C86.2605 52.472 86.9685 51.62 86.9685 50.36V50.048L85.2525 50.18C84.1605 50.276 83.7165 50.756 83.7165 51.404C83.7165 52.112 84.2445 52.472 85.0365 52.472ZM91.726 53.144C90.034 53.144 89.038 51.848 89.038 50.108C89.038 48.356 90.034 47.036 91.762 47.036C92.722 47.036 93.49 47.456 93.898 48.296V44.252H94.726V53H94.006L93.922 51.812C93.514 52.712 92.698 53.144 91.726 53.144ZM91.87 52.388C93.142 52.388 93.886 51.428 93.886 50.084C93.886 48.752 93.142 47.78 91.87 47.78C90.61 47.78 89.878 48.752 89.878 50.084C89.878 51.428 90.61 52.388 91.87 52.388ZM98.1218 53.144C96.8858 53.144 96.1538 52.448 96.1538 51.428C96.1538 50.36 96.9698 49.688 98.3258 49.58L100.246 49.424V49.232C100.246 48.092 99.5618 47.732 98.7098 47.732C97.7018 47.732 97.1018 48.188 97.1018 48.968H96.3458C96.3458 47.792 97.3058 47.036 98.7338 47.036C100.078 47.036 101.062 47.708 101.062 49.244V53H100.366L100.258 51.98C99.8978 52.712 99.1058 53.144 98.1218 53.144ZM98.3138 52.472C99.5378 52.472 100.246 51.62 100.246 50.36V50.048L98.5298 50.18C97.4378 50.276 96.9938 50.756 96.9938 51.404C96.9938 52.112 97.5218 52.472 98.3138 52.472ZM107.455 51.476C106.555 51.476 105.799 50.732 105.799 49.844C105.799 48.956 106.543 48.2 107.455 48.2C108.343 48.2 109.087 48.956 109.087 49.844C109.087 50.72 108.343 51.476 107.455 51.476ZM117.347 49.844H114.935V53H114.071V44.408H117.347C119.003 44.408 120.047 45.488 120.047 47.108C120.047 48.668 118.991 49.844 117.347 49.844ZM117.227 45.188H114.935V49.064H117.179C118.427 49.064 119.147 48.272 119.147 47.096C119.147 45.908 118.415 45.188 117.227 45.188ZM122.306 44.408V53H121.442V44.408H122.306ZM126.52 48.716L123.52 44.408H124.54L126.136 46.664C126.544 47.24 126.82 47.696 127.024 48.08L129.52 44.408H130.516L127.564 48.692L130.564 53H129.532L127.9 50.696C127.612 50.288 127.264 49.76 127.048 49.376L124.54 53H123.532L126.52 48.716Z" fill="#E1E1E1"/>
<path d="M16.984 73.17C16.984 71.85 18.04 70.981 19.624 70.981C21.043 70.981 21.978 71.773 22.099 73.093H21.296C21.208 72.202 20.603 71.696 19.613 71.696C18.502 71.696 17.776 72.268 17.776 73.159C17.776 73.852 18.183 74.292 19.008 74.501L20.361 74.831C21.593 75.128 22.231 75.832 22.231 76.899C22.231 78.263 21.175 79.132 19.547 79.132C18.018 79.132 16.984 78.329 16.885 77.042H17.699C17.743 77.867 18.469 78.406 19.547 78.406C20.702 78.406 21.439 77.845 21.439 76.943C21.439 76.239 21.043 75.777 20.196 75.579L18.865 75.249C17.633 74.952 16.984 74.248 16.984 73.17ZM27.2302 73.676H27.9892V79H27.3292L27.2302 78.098C26.9332 78.714 26.1962 79.132 25.3602 79.132C24.1062 79.132 23.4242 78.274 23.4242 76.976V73.665H24.1942V76.734C24.1942 77.999 24.7552 78.45 25.6022 78.45C26.6252 78.45 27.2302 77.768 27.2302 76.503V73.676ZM31.0993 79.132C29.9663 79.132 29.2953 78.494 29.2953 77.559C29.2953 76.58 30.0433 75.964 31.2863 75.865L33.0463 75.722V75.546C33.0463 74.501 32.4193 74.171 31.6383 74.171C30.7143 74.171 30.1643 74.589 30.1643 75.304H29.4713C29.4713 74.226 30.3513 73.533 31.6603 73.533C32.8923 73.533 33.7943 74.149 33.7943 75.557V79H33.1563L33.0573 78.065C32.7273 78.736 32.0013 79.132 31.0993 79.132ZM31.2753 78.516C32.3973 78.516 33.0463 77.735 33.0463 76.58V76.294L31.4733 76.415C30.4723 76.503 30.0653 76.943 30.0653 77.537C30.0653 78.186 30.5493 78.516 31.2753 78.516ZM37.9942 76.349C37.9942 74.677 39.0172 73.533 40.5682 73.533C41.8002 73.533 42.7022 74.248 42.9112 75.348H42.1522C41.9542 74.611 41.3162 74.204 40.5792 74.204C39.5012 74.204 38.7422 75.029 38.7422 76.338C38.7422 77.603 39.4462 78.45 40.5242 78.45C41.3162 78.45 41.9542 78.01 42.1632 77.328H42.9332C42.6802 78.417 41.7342 79.132 40.5242 79.132C39.0172 79.132 37.9942 78.021 37.9942 76.349ZM43.709 76.338C43.709 74.71 44.853 73.533 46.415 73.533C47.977 73.533 49.121 74.71 49.121 76.338C49.121 77.955 47.977 79.132 46.415 79.132C44.853 79.132 43.709 77.955 43.709 76.338ZM44.479 76.327C44.479 77.581 45.271 78.45 46.415 78.45C47.548 78.45 48.351 77.581 48.351 76.327C48.351 75.095 47.548 74.215 46.415 74.215C45.271 74.215 44.479 75.095 44.479 76.327ZM51.094 79H50.335V73.676H50.995L51.083 74.435C51.347 73.874 51.941 73.533 52.689 73.533C53.525 73.533 54.152 73.973 54.405 74.666C54.647 73.973 55.296 73.533 56.154 73.533C57.309 73.533 58.068 74.281 58.068 75.513V79H57.331V75.667C57.331 74.754 56.825 74.215 56.011 74.215C55.12 74.215 54.592 74.886 54.592 75.711V79H53.844V75.656C53.844 74.754 53.327 74.226 52.524 74.226C51.633 74.226 51.094 74.886 51.094 75.7V79ZM59.9687 72.213C59.6607 72.213 59.4077 71.96 59.4077 71.652C59.4077 71.344 59.6607 71.08 59.9687 71.08C60.2767 71.08 60.5407 71.344 60.5407 71.652C60.5407 71.96 60.2767 72.213 59.9687 72.213ZM59.5947 79V73.676H60.3537V79H59.5947ZM61.4855 77.504H62.2115C62.2115 78.12 62.6735 78.505 63.4215 78.505C64.2465 78.505 64.7305 78.153 64.7305 77.581C64.7305 77.141 64.5105 76.888 63.8835 76.734L62.9705 76.503C62.0465 76.272 61.5955 75.788 61.5955 75.062C61.5955 74.127 62.3765 73.533 63.5205 73.533C64.6425 73.533 65.3685 74.149 65.4015 75.139H64.6645C64.6425 74.523 64.2135 74.16 63.4985 74.16C62.7505 74.16 62.3325 74.479 62.3325 75.051C62.3325 75.458 62.6185 75.744 63.2015 75.887L64.1145 76.118C65.0385 76.349 65.4565 76.778 65.4565 77.548C65.4565 78.505 64.6425 79.132 63.4325 79.132C62.2335 79.132 61.4855 78.494 61.4855 77.504ZM66.2551 77.504H66.9811C66.9811 78.12 67.4431 78.505 68.1911 78.505C69.0161 78.505 69.5001 78.153 69.5001 77.581C69.5001 77.141 69.2801 76.888 68.6531 76.734L67.7401 76.503C66.8161 76.272 66.3651 75.788 66.3651 75.062C66.3651 74.127 67.1461 73.533 68.2901 73.533C69.4121 73.533 70.1381 74.149 70.1711 75.139H69.4341C69.4121 74.523 68.9831 74.16 68.2681 74.16C67.5201 74.16 67.1021 74.479 67.1021 75.051C67.1021 75.458 67.3881 75.744 67.9711 75.887L68.8841 76.118C69.8081 76.349 70.2261 76.778 70.2261 77.548C70.2261 78.505 69.4121 79.132 68.2021 79.132C67.0031 79.132 66.2551 78.494 66.2551 77.504ZM72.6196 72.873H72.0696C72.0256 72.147 72.3446 71.707 72.8726 71.707C73.4776 71.707 73.7636 72.301 74.2146 72.301C74.4786 72.301 74.5886 72.103 74.5886 71.707H75.1276C75.1606 72.466 74.8416 72.873 74.2586 72.873C73.6316 72.873 73.3456 72.279 72.9716 72.279C72.7406 72.279 72.6196 72.488 72.6196 72.873ZM73.0046 79.132C71.8716 79.132 71.2006 78.494 71.2006 77.559C71.2006 76.58 71.9486 75.964 73.1916 75.865L74.9516 75.722V75.546C74.9516 74.501 74.3246 74.171 73.5436 74.171C72.6196 74.171 72.0696 74.589 72.0696 75.304H71.3766C71.3766 74.226 72.2566 73.533 73.5656 73.533C74.7976 73.533 75.6996 74.149 75.6996 75.557V79H75.0616L74.9626 78.065C74.6326 78.736 73.9066 79.132 73.0046 79.132ZM73.1806 78.516C74.3026 78.516 74.9516 77.735 74.9516 76.58V76.294L73.3786 76.415C72.3776 76.503 71.9706 76.943 71.9706 77.537C71.9706 78.186 72.4546 78.516 73.1806 78.516ZM76.8487 76.338C76.8487 74.71 77.9927 73.533 79.5547 73.533C81.1167 73.533 82.2607 74.71 82.2607 76.338C82.2607 77.955 81.1167 79.132 79.5547 79.132C77.9927 79.132 76.8487 77.955 76.8487 76.338ZM77.6187 76.327C77.6187 77.581 78.4107 78.45 79.5547 78.45C80.6877 78.45 81.4907 77.581 81.4907 76.327C81.4907 75.095 80.6877 74.215 79.5547 74.215C78.4107 74.215 77.6187 75.095 77.6187 76.327ZM84.2336 74.908C83.8596 74.908 83.5406 74.589 83.5406 74.226C83.5406 73.852 83.8596 73.544 84.2336 73.544C84.6076 73.544 84.9266 73.852 84.9266 74.226C84.9266 74.589 84.6076 74.908 84.2336 74.908ZM84.2336 79.121C83.8596 79.121 83.5406 78.813 83.5406 78.45C83.5406 78.076 83.8596 77.757 84.2336 77.757C84.6076 77.757 84.9266 78.076 84.9266 78.45C84.9266 78.813 84.6076 79.121 84.2336 79.121Z" fill="#A8A8A8"/>
<path d="M90.8399 79H89.7619V71.047H92.7649C93.6156 71.047 94.2792 71.2597 94.7559 71.685C95.2399 72.1103 95.4819 72.6933 95.4819 73.434C95.4819 73.984 95.3462 74.4497 95.0749 74.831C94.8109 75.2123 94.4332 75.4837 93.9419 75.645L95.5589 79H94.3599L92.8749 75.854H90.8399V79ZM90.8399 72.015V74.897H92.7759C93.2746 74.897 93.6596 74.7687 93.9309 74.512C94.2096 74.2553 94.3489 73.8997 94.3489 73.445C94.3489 72.983 94.2096 72.631 93.9309 72.389C93.6522 72.1397 93.2636 72.015 92.7649 72.015H90.8399ZM98.8622 80.067V79.121C98.1288 79.077 97.5385 78.8607 97.0912 78.472C96.6512 78.076 96.4165 77.559 96.3872 76.921H97.4872C97.4945 77.273 97.6192 77.559 97.8612 77.779C98.1105 77.999 98.4442 78.131 98.8622 78.175V75.436L98.4662 75.348C97.1535 75.0473 96.4972 74.3287 96.4972 73.192C96.4972 72.5687 96.7098 72.0517 97.1352 71.641C97.5678 71.223 98.1435 70.9847 98.8622 70.926V69.969H99.5662V70.915C100.233 70.9737 100.765 71.1973 101.161 71.586C101.564 71.9747 101.784 72.488 101.821 73.126H100.754C100.732 72.774 100.618 72.4917 100.413 72.279C100.208 72.059 99.9255 71.9233 99.5662 71.872V74.6L99.9952 74.699C101.3 74.9923 101.953 75.689 101.953 76.789C101.953 77.4417 101.737 77.977 101.304 78.395C100.879 78.8057 100.299 79.044 99.5662 79.11V80.067H98.8622ZM98.6862 74.391L98.8622 74.435V71.872C98.4515 71.9307 98.1288 72.0737 97.8942 72.301C97.6668 72.521 97.5532 72.807 97.5532 73.159C97.5532 73.797 97.9308 74.2077 98.6862 74.391ZM99.7752 75.656L99.5662 75.612V78.153C99.9768 78.0943 100.299 77.955 100.534 77.735C100.776 77.5077 100.897 77.2217 100.897 76.877C100.897 76.239 100.523 75.832 99.7752 75.656ZM107.449 72.015H105.777V71.047H108.483V79H107.449V72.015ZM112.214 74.886H111.422V74.171L113.677 72.004H110.102V71.047H115.041V71.916L112.863 73.995C113.56 74.083 114.128 74.3507 114.568 74.798C115.016 75.238 115.239 75.8063 115.239 76.503C115.239 77.295 114.972 77.933 114.436 78.417C113.908 78.8937 113.234 79.132 112.412 79.132C111.613 79.132 110.964 78.901 110.465 78.439C109.974 77.9697 109.728 77.3317 109.728 76.525H110.795C110.795 77.0383 110.942 77.4417 111.235 77.735C111.529 78.021 111.928 78.164 112.434 78.164C112.955 78.164 113.369 78.0137 113.677 77.713C113.985 77.405 114.139 76.9943 114.139 76.481C114.139 75.9897 113.971 75.601 113.633 75.315C113.303 75.029 112.83 74.886 112.214 74.886ZM118.606 74.886H117.814V74.171L120.069 72.004H116.494V71.047H121.433V71.916L119.255 73.995C119.952 74.083 120.52 74.3507 120.96 74.798C121.407 75.238 121.631 75.8063 121.631 76.503C121.631 77.295 121.363 77.933 120.828 78.417C120.3 78.8937 119.625 79.132 118.804 79.132C118.005 79.132 117.356 78.901 116.857 78.439C116.366 77.9697 116.12 77.3317 116.12 76.525H117.187C117.187 77.0383 117.334 77.4417 117.627 77.735C117.92 78.021 118.32 78.164 118.826 78.164C119.347 78.164 119.761 78.0137 120.069 77.713C120.377 77.405 120.531 76.9943 120.531 76.481C120.531 75.9897 120.362 75.601 120.025 75.315C119.695 75.029 119.222 74.886 118.606 74.886ZM124.158 78.571C124.158 78.967 124.026 79.3117 123.762 79.605C123.498 79.8983 123.172 80.0707 122.783 80.122V79.66C123.011 79.6233 123.194 79.5353 123.333 79.396C123.48 79.264 123.553 79.1137 123.553 78.945C123.48 78.989 123.381 79.011 123.256 79.011C123.073 79.011 122.915 78.9487 122.783 78.824C122.651 78.6993 122.585 78.538 122.585 78.34C122.585 78.12 122.651 77.9403 122.783 77.801C122.923 77.6543 123.102 77.581 123.322 77.581C123.557 77.581 123.755 77.6727 123.916 77.856C124.078 78.0393 124.158 78.2777 124.158 78.571ZM129.779 76.481L127.92 79H126.666L128.657 76.36C128.379 76.47 128.1 76.525 127.821 76.525C127.007 76.525 126.344 76.2647 125.83 75.744C125.317 75.216 125.06 74.5523 125.06 73.753C125.06 72.9317 125.335 72.2533 125.885 71.718C126.443 71.1753 127.132 70.904 127.953 70.904C128.782 70.904 129.475 71.179 130.032 71.729C130.597 72.279 130.879 72.9573 130.879 73.764C130.879 74.226 130.799 74.655 130.637 75.051C130.476 75.4397 130.19 75.9163 129.779 76.481ZM129.779 73.753C129.779 73.203 129.607 72.752 129.262 72.4C128.925 72.048 128.489 71.872 127.953 71.872C127.425 71.872 126.993 72.0517 126.655 72.411C126.318 72.763 126.149 73.2103 126.149 73.753C126.149 74.2957 126.318 74.743 126.655 75.095C126.993 75.4397 127.425 75.612 127.953 75.612C128.489 75.612 128.925 75.4397 129.262 75.095C129.607 74.743 129.779 74.2957 129.779 73.753ZM131.873 75.029C131.873 73.7897 132.17 72.7923 132.764 72.037C133.358 71.2743 134.154 70.893 135.151 70.893C136.141 70.893 136.933 71.2743 137.527 72.037C138.121 72.7923 138.418 73.7897 138.418 75.029C138.418 76.2757 138.125 77.273 137.538 78.021C136.959 78.769 136.163 79.143 135.151 79.143C134.132 79.143 133.329 78.7727 132.742 78.032C132.163 77.284 131.873 76.283 131.873 75.029ZM132.94 75.029C132.94 76.0117 133.134 76.7817 133.523 77.339C133.912 77.8963 134.454 78.175 135.151 78.175C135.848 78.175 136.387 77.8963 136.768 77.339C137.157 76.7817 137.351 76.0117 137.351 75.029C137.351 74.0317 137.157 73.2543 136.768 72.697C136.387 72.1397 135.848 71.861 135.151 71.861C134.454 71.861 133.912 72.1433 133.523 72.708C133.134 73.2653 132.94 74.039 132.94 75.029Z" fill="#02A0FC"/>
</g>
<rect x="1.5" y="1" width="238" height="98" rx="13.7429" stroke="#474747" stroke-width="2"/>
</g>
<defs>
<filter id="filter0_b_8454_137695" x="-7.35581" y="-7.85581" width="255.712" height="115.712" filterUnits="userSpaceOnUse" color-interpolation-filters="sRGB">
<feFlood flood-opacity="0" result="BackgroundImageFix"/>
<feGaussianBlur in="BackgroundImageFix" stdDeviation="3.9279"/>
<feComposite in2="SourceAlpha" operator="in" result="effect1_backgroundBlur_8454_137695"/>
<feBlend mode="normal" in="SourceGraphic" in2="effect1_backgroundBlur_8454_137695" result="shape"/>
</filter>
<linearGradient id="paint0_linear_8454_137695" x1="-57.522" y1="42.5134" x2="278.742" y2="42.5134" gradientUnits="userSpaceOnUse">
<stop stop-color="#1E1E1E"/>
<stop offset="0.53125" stop-color="#272727"/>
<stop offset="0.992158" stop-color="#363636" stop-opacity="0.388235"/>
</linearGradient>
<clipPath id="clip0_8454_137695">
<rect width="208" height="45" fill="white" transform="translate(16.5 41)"/>
</clipPath>
</defs>
</svg>
