<svg width="24" height="24" viewBox="0 0 24 24" fill="#FDFDFD" xmlns="http://www.w3.org/2000/svg">
<rect width="24" height="24" rx="6" fill="#FFB200"/>
<path fill-rule="evenodd" clip-rule="evenodd" d="M10.0199 6.22887C11.3224 5.92336 12.6778 5.92336 13.9803 6.22887C15.8612 6.67007 17.3298 8.13868 17.771 10.0196C18.0765 11.322 18.0765 12.6775 17.771 13.9799C17.3298 15.8608 15.8612 17.3294 13.9803 17.7706C12.6778 18.0761 11.3224 18.0761 10.0199 17.7706C8.13904 17.3294 6.67042 15.8608 6.22922 13.9799C5.92371 12.6775 5.92371 11.322 6.22922 10.0196C6.67042 8.13868 8.13903 6.67007 10.0199 6.22887ZM12.0001 10.7233C12.3525 10.7233 12.6383 10.4376 12.6383 10.0852C12.6383 9.73269 12.3525 9.44696 12.0001 9.44696C11.6476 9.44696 11.3619 9.73269 11.3619 10.0852C11.3619 10.4376 11.6476 10.7233 12.0001 10.7233ZM12.0001 11.202C12.2644 11.202 12.4787 11.4163 12.4787 11.6806V14.2334C12.4787 14.4977 12.2644 14.712 12.0001 14.712C11.7357 14.712 11.5214 14.4977 11.5214 14.2334V11.6806C11.5214 11.4163 11.7357 11.202 12.0001 11.202Z" />
</svg>
