<svg width="24" height="24" viewBox="0 0 24 24" fill="none" xmlns="http://www.w3.org/2000/svg">
<rect width="24" height="24" rx="8" fill="#23CC67"/>
<path fill-rule="evenodd" clip-rule="evenodd" d="M10.0203 6.22938C11.3228 5.92387 12.6782 5.92387 13.9807 6.22938C15.8615 6.67057 17.3302 8.13919 17.7714 10.0201C18.0769 11.3225 18.0769 12.678 17.7714 13.9804C17.3302 15.8613 15.8615 17.3299 13.9807 17.7711C12.6782 18.0766 11.3228 18.0766 10.0203 17.7711C8.13943 17.3299 6.67082 15.8613 6.22962 13.9804C5.92411 12.678 5.92411 11.3225 6.22962 10.0201C6.67082 8.13919 8.13943 6.67057 10.0203 6.22938ZM14.0354 10.9851C14.1797 10.8305 14.1714 10.5882 14.0168 10.4439C13.8622 10.2996 13.6199 10.308 13.4756 10.4626L11.5123 12.566L10.5162 11.5699C10.3667 11.4204 10.1242 11.4204 9.97469 11.5699C9.82515 11.7195 9.82515 11.9619 9.97469 12.1114L11.2511 13.3878C11.3245 13.4613 11.4246 13.5017 11.5284 13.4999C11.6323 13.4981 11.7309 13.4542 11.8018 13.3783L14.0354 10.9851Z" fill="#181818"/>
</svg>
