<svg width="16" height="16" viewBox="0 0 16 16" fill="none" xmlns="http://www.w3.org/2000/svg">
<path d="M9.4668 10.229C9.95163 10.1189 10.3979 9.91573 10.7849 9.63979L11.5494 12.6444C11.779 13.5465 10.814 14.2962 9.95456 13.8834L8.66603 13.2646C8.24544 13.0626 7.75155 13.0626 7.33096 13.2646L6.04242 13.8834C5.18298 14.2962 4.21799 13.5465 4.44755 12.6444L5.21213 9.63979C5.59906 9.91573 6.04536 10.1189 6.53019 10.229M9.4668 10.229C8.50104 10.4484 7.49595 10.4484 6.53019 10.229M9.4668 10.229C10.8041 9.9252 11.8482 8.91392 12.1619 7.61874C12.3885 6.68338 12.3885 5.70994 12.1619 4.77458C11.8482 3.4794 10.8041 2.46812 9.46681 2.16431C8.50104 1.9449 7.49595 1.9449 6.53018 2.16431C5.19291 2.46812 4.14875 3.4794 3.83507 4.77458C3.60853 5.70994 3.60853 6.68338 3.83507 7.61874C4.14875 8.91392 5.19291 9.9252 6.53019 10.229" stroke="#02A0FC"/>
</svg>
