<svg width="49" height="48" viewBox="0 0 49 48" fill="none" xmlns="http://www.w3.org/2000/svg">
<path fill-rule="evenodd" clip-rule="evenodd" d="M30.4405 41.3126C26.5332 42.2291 22.4668 42.2291 18.5595 41.3126C12.9168 39.989 8.51098 35.5832 7.18739 29.9405C6.27087 26.0332 6.27087 21.9668 7.18739 18.0595C8.51099 12.4168 12.9168 8.01098 18.5595 6.6874C22.4668 5.77087 26.5332 5.77087 30.4405 6.6874C36.0832 8.01099 40.489 12.4168 41.8126 18.0595C42.7291 21.9668 42.7291 26.0332 41.8126 29.9405C40.489 35.5832 36.0832 39.989 30.4405 41.3126ZM24.5001 27.8292C23.4427 27.8292 22.5855 28.6864 22.5855 29.7438C22.5855 30.8012 23.4427 31.6583 24.5001 31.6583C25.5574 31.6583 26.4146 30.8012 26.4146 29.7438C26.4146 28.6864 25.5574 27.8292 24.5001 27.8292ZM24.5001 26.3933C23.707 26.3933 23.0641 25.7504 23.0641 24.9573V17.299C23.0641 16.506 23.707 15.8631 24.5001 15.8631C25.2931 15.8631 25.936 16.506 25.936 17.299V24.9573C25.936 25.7504 25.2931 26.3933 24.5001 26.3933Z" fill="#FF0A18"/>
</svg>
