<svg width="25" height="24" viewBox="0 0 25 24" fill="none" xmlns="http://www.w3.org/2000/svg">
<g clip-path="url(#clip0_4243_7770)">
<path d="M5.52777 7.37373C6.88473 7.37373 8.24229 7.3787 9.59925 7.37186C10.3999 7.36751 11.0742 7.65216 11.6413 8.24195C15.569 12.3233 19.501 16.4008 23.4305 20.4803C23.8677 20.9346 23.9497 21.4523 23.6551 21.9035C23.4545 22.2099 23.1676 22.3584 22.8155 22.3584C20.4603 22.3597 18.1051 22.3765 15.7505 22.3472C14.684 22.3342 13.7354 21.9141 12.9767 21.1298C8.88424 16.8968 4.80258 12.6533 0.714933 8.41472C0.517917 8.21025 0.441266 7.98154 0.548457 7.71182C0.664631 7.41848 0.908956 7.35571 1.18741 7.35633C2.6342 7.35881 4.08098 7.35757 5.52837 7.35757C5.52837 7.36316 5.52837 7.36876 5.52837 7.37435L5.52777 7.37373Z" fill="black"/>
<path d="M14.751 6.07058C13.5635 6.07058 12.376 6.07058 11.1885 6.07058C10.9957 6.07058 10.7568 6.08426 10.7256 5.84436C10.7065 5.69831 10.8125 5.49322 10.9227 5.377C12.2832 3.94758 13.6533 2.5281 15.0241 1.10924C15.7373 0.372159 16.602 0.00361607 17.6087 0.00237309C19.465 -0.000112858 21.3208 0.00548054 23.1772 -0.000112858C23.5736 -0.00135584 23.888 0.122942 24.0425 0.52318C24.1958 0.920311 24.0581 1.23665 23.7755 1.52688C22.6053 2.72946 21.443 3.9395 20.2807 5.15016C19.6788 5.77662 18.956 6.08799 18.1039 6.08612C16.9865 6.08364 15.8684 6.08612 14.751 6.08612V6.07183V6.07058Z" fill="#3ACAF8"/>
</g>
<defs>
<clipPath id="clip0_4243_7770">
<rect width="24" height="24" fill="white" transform="translate(0.5)"/>
</clipPath>
</defs>
</svg>
