<svg width="25" height="24" viewBox="0 0 25 24" fill="none" xmlns="http://www.w3.org/2000/svg">
<g clip-path="url(#clip0_1459_131225)">
<path d="M5.52789 7.37373C6.88485 7.37373 8.24241 7.3787 9.59937 7.37186C10.4 7.36751 11.0743 7.65216 11.6414 8.24195C15.5692 12.3233 19.5011 16.4008 23.4307 20.4803C23.8678 20.9346 23.9498 21.4523 23.6552 21.9035C23.4546 22.2099 23.1678 22.3584 22.8156 22.3584C20.4604 22.3597 18.1052 22.3765 15.7506 22.3472C14.6841 22.3342 13.7355 21.9141 12.9768 21.1298C8.88436 16.8968 4.8027 12.6533 0.715056 8.41472C0.518039 8.21025 0.441388 7.98154 0.548579 7.71182C0.664753 7.41848 0.909078 7.35571 1.18754 7.35633C2.63432 7.35881 4.08111 7.35757 5.52849 7.35757C5.52849 7.36316 5.52849 7.36876 5.52849 7.37435L5.52789 7.37373Z" fill="white"/>
<path d="M14.751 6.07058C13.5635 6.07058 12.376 6.07058 11.1885 6.07058C10.9957 6.07058 10.7568 6.08426 10.7256 5.84436C10.7065 5.69831 10.8125 5.49322 10.9227 5.377C12.2832 3.94758 13.6533 2.5281 15.0241 1.10924C15.7373 0.372159 16.602 0.00361607 17.6087 0.00237309C19.465 -0.000112858 21.3208 0.00548054 23.1772 -0.000112858C23.5736 -0.00135584 23.888 0.122942 24.0425 0.52318C24.1958 0.920311 24.0581 1.23665 23.7755 1.52688C22.6053 2.72946 21.443 3.9395 20.2807 5.15016C19.6788 5.77662 18.956 6.08799 18.1039 6.08612C16.9865 6.08364 15.8684 6.08612 14.751 6.08612V6.07183V6.07058Z" fill="#3ACAF8"/>
</g>
<defs>
<clipPath id="clip0_1459_131225">
<rect width="24" height="24" fill="white" transform="translate(0.5)"/>
</clipPath>
</defs>
</svg>
