<svg width="80" height="77" viewBox="0 0 80 77" fill="white" xmlns="http://www.w3.org/2000/svg">
<path d="M17.0293 25.6958C21.6253 25.6958 26.2232 25.7126 30.8192 25.6895C33.5309 25.6747 35.8147 26.6388 37.7354 28.6364C51.0385 42.4596 64.3558 56.2701 77.6649 70.0869C79.1455 71.6257 79.4234 73.3791 78.4255 74.9073C77.746 75.945 76.7745 76.4481 75.5819 76.4481C67.6049 76.4523 59.628 76.5091 51.653 76.4102C48.0408 76.366 44.8281 74.9431 42.2583 72.2866C28.3975 57.9498 14.5732 43.5773 0.728563 29.2216C0.0612798 28.529 -0.198332 27.7544 0.164719 26.8409C0.558193 25.8473 1.38571 25.6348 2.32883 25.6369C7.229 25.6453 12.1292 25.6411 17.0314 25.6411C17.0314 25.66 17.0314 25.679 17.0314 25.6979L17.0293 25.6958Z" />
<path d="M48.2675 21.2816C44.2455 21.2816 40.2236 21.2816 36.2016 21.2816C35.5485 21.2816 34.7393 21.3279 34.6338 20.5154C34.5689 20.0207 34.9279 19.3261 35.3011 18.9325C39.9092 14.0911 44.5498 9.2834 49.1923 4.47781C51.608 1.98135 54.5367 0.73312 57.9461 0.72891C64.2336 0.72049 70.5191 0.739435 76.8065 0.72049C78.1492 0.71628 79.214 1.13727 79.7373 2.49285C80.2565 3.83791 79.79 4.90933 78.8327 5.89234C74.8696 9.9654 70.9328 14.0637 66.996 18.1642C64.9577 20.2859 62.5096 21.3405 59.6235 21.3342C55.8388 21.3258 52.0521 21.3342 48.2675 21.3342V21.2858V21.2816Z" fill="#3ACAF8"/>
</svg>
