<svg width="16" height="16" viewBox="0 0 16 16" fill="none" xmlns="http://www.w3.org/2000/svg">
<path d="M2.23537 5.96671C2.6697 4.11509 4.11546 2.66934 5.96708 2.23501C7.30429 1.92134 8.69595 1.92134 10.0332 2.23501C11.8848 2.66934 13.3305 4.1151 13.7649 5.96671C14.0785 7.30393 14.0785 8.69559 13.7649 10.0328C13.3305 11.8844 11.8848 13.3302 10.0332 13.7645C8.69595 14.0782 7.30429 14.0782 5.96708 13.7645C4.11546 13.3302 2.6697 11.8844 2.23537 10.0328C1.9217 8.69559 1.9217 7.30393 2.23537 5.96671Z" stroke="#02A0FC"/>
<path d="M6.78856 7.5303C6.92407 7.19152 7.1925 6.92309 7.53128 6.78758L8.88964 6.24424C9.4338 6.02657 9.97381 6.56658 9.75614 7.11074L9.2128 8.4691C9.07729 8.80788 8.80885 9.07631 8.47008 9.21182L7.11172 9.75516C6.56756 9.97283 6.02755 9.43282 6.24521 8.88866L6.78856 7.5303Z" stroke="#02A0FC" stroke-linecap="round" stroke-linejoin="round"/>
</svg>
