<svg width="16" height="16" viewBox="0 0 16 16" fill="#F3F4F8" xmlns="http://www.w3.org/2000/svg">
<g clip-path="url(#clip0_1149_131460)">
<path d="M12.4791 12.2366C11.8511 12.2366 11.2617 11.995 10.8172 11.5506L8.42109 9.15444C8.25683 8.99019 7.95731 8.99019 7.79306 9.15444L5.38724 11.5603C4.94279 12.0047 4.35342 12.2463 3.72539 12.2463H3.25195L6.29546 15.2898C7.24233 16.2366 8.78824 16.2366 9.73511 15.2898L12.7883 12.2366H12.4791Z" />
<path d="M3.71552 3.75366C4.34354 3.75366 4.93292 3.99521 5.37737 4.43966L7.78319 6.84548C7.95711 7.01939 8.2373 7.01939 8.41122 6.84548L10.817 4.44932C11.2615 4.00487 11.8509 3.76332 12.4789 3.76332H12.7687L9.71558 0.710152C8.76871 -0.236717 7.2228 -0.236717 6.27593 0.710152L3.23242 3.75366H3.71552Z" />
<path d="M15.29 6.28478L13.4446 4.43935C13.4059 4.45867 13.3576 4.46833 13.3093 4.46833H12.4687C12.0339 4.46833 11.6088 4.64225 11.3093 4.95143L8.91313 7.34759C8.69091 7.56982 8.39139 7.68576 8.10153 7.68576C7.80201 7.68576 7.51215 7.56982 7.28992 7.34759L4.88411 4.94177C4.57492 4.63259 4.1498 4.45867 3.72468 4.45867H2.69085C2.64254 4.45867 2.60389 4.44901 2.56524 4.42969L0.710152 6.28478C-0.236717 7.23165 -0.236717 8.77756 0.710152 9.72443L2.55558 11.5699C2.59423 11.5505 2.63288 11.5409 2.68119 11.5409H3.71501C4.1498 11.5409 4.57492 11.367 4.87444 11.0578L7.28026 8.65195C7.71505 8.21717 8.47835 8.21717 8.91313 8.65195L11.3093 11.0481C11.6185 11.3573 12.0436 11.5312 12.4687 11.5312H13.3093C13.3576 11.5312 13.3963 11.5409 13.4446 11.5602L15.29 9.71477C16.2369 8.7679 16.2369 7.23165 15.29 6.28478Z" />
</g>
</svg>
