<svg width="77" height="76" viewBox="0 0 77 76" fill="none" xmlns="http://www.w3.org/2000/svg">
<path d="M27.417 49.8462C27.417 46.732 29.661 44.0794 32.7106 43.5886C36.5461 42.9713 40.4545 42.9713 44.2901 43.5886C47.3397 44.0794 49.5837 46.732 49.5837 49.8462V50.5356C49.5837 52.3569 48.1195 53.8333 46.3135 53.8333H30.6872C28.8811 53.8333 27.417 52.3569 27.417 50.5356V49.8462Z" stroke="#02A0FC" stroke-width="2"/>
<path d="M44.9656 28.6862C44.9656 32.2869 42.071 35.2058 38.5003 35.2058C34.9297 35.2058 32.035 32.2869 32.035 28.6862C32.035 25.0856 34.9297 22.1666 38.5003 22.1666C42.071 22.1666 44.9656 25.0856 44.9656 28.6862Z" stroke="#02A0FC" stroke-width="2"/>
<path d="M67 22.1665C67 15.1709 59.9112 9.49988 51.1667 9.49988M10 50.6665C10 59.4111 15.6711 66.4999 22.6667 66.4999M22.6667 9.49988C15.6711 9.49988 10 15.1709 10 22.1665M51.1667 66.4999C59.9112 66.4999 67 59.4111 67 50.6665" stroke="#DEE1E4" stroke-width="2" stroke-linecap="round"/>
</svg>
