<svg width="24" height="24" viewBox="0 0 24 24" fill="#FFB200" xmlns="http://www.w3.org/2000/svg">
<rect width="24" height="24" rx="8" />
<path fill-rule="evenodd" clip-rule="evenodd" d="M10.02 6.22889C11.3224 5.92338 12.6779 5.92338 13.9803 6.22889C15.8612 6.67008 17.3298 8.1387 17.771 10.0196C18.0765 11.322 18.0765 12.6775 17.771 13.9799C17.3298 15.8608 15.8612 17.3294 13.9803 17.7706C12.6779 18.0761 11.3224 18.0761 10.02 17.7706C8.13907 17.3294 6.67045 15.8608 6.22926 13.9799C5.92374 12.6775 5.92374 11.322 6.22926 10.0196C6.67045 8.1387 8.13907 6.67008 10.02 6.22889ZM12.0001 10.7234C12.3526 10.7234 12.6383 10.4376 12.6383 10.0852C12.6383 9.7327 12.3526 9.44698 12.0001 9.44698C11.6476 9.44698 11.3619 9.7327 11.3619 10.0852C11.3619 10.4376 11.6476 10.7234 12.0001 10.7234ZM12.0001 11.202C12.2645 11.202 12.4787 11.4163 12.4787 11.6806V14.2334C12.4787 14.4978 12.2645 14.712 12.0001 14.712C11.7358 14.712 11.5215 14.4978 11.5215 14.2334V11.6806C11.5215 11.4163 11.7358 11.202 12.0001 11.202Z" fill="#181818"/>
</svg>
