<svg width="16" height="16" viewBox="0 0 16 16" fill="none" xmlns="http://www.w3.org/2000/svg">
<path d="M3.92266 3.33331C3.7736 3.33331 3.61773 3.38345 3.50397 3.49712C3.27651 3.72504 3.27651 4.10742 3.50397 4.33534L7.16272 7.99663L3.50397 11.6579C3.27651 11.8858 3.27651 12.2682 3.50397 12.4961C3.73149 12.7235 4.11383 12.7235 4.34135 12.4961L8.00004 8.83486L11.6587 12.4961C11.8863 12.7235 12.2686 12.7235 12.4961 12.4961C12.7236 12.2682 12.7236 11.8858 12.4961 11.6579L8.83736 7.99663L12.4961 4.33534C12.7236 4.10742 12.7236 3.72504 12.4961 3.49712C12.3824 3.38345 12.2264 3.33331 12.0774 3.33331C11.9284 3.33331 11.7726 3.38345 11.6587 3.49712L8.00004 7.1584L4.34135 3.49712C4.22759 3.38345 4.07171 3.33331 3.92266 3.33331Z" fill="#EA362C"/>
</svg>
