<svg width="25" height="24" viewBox="0 0 25 24" fill="none" xmlns="http://www.w3.org/2000/svg">
<path d="M9.19628 9.05793H15.2279M9.19628 12.5141H13.0346M13.6107 18.9268H14.6721C17.5589 18.9268 20.0701 16.8499 20.7476 13.9021C21.0841 12.4382 21.0841 10.9113 20.7476 9.44741L20.6588 9.06088C20.0057 6.21958 17.877 4.01204 15.1641 3.36264L14.783 3.27141C13.2712 2.90953 11.7013 2.90953 10.1895 3.27141L9.96648 3.32481C7.15677 3.99738 4.95212 6.28371 4.27571 9.22642C3.90585 10.8355 3.90923 12.5287 4.27909 14.1378C4.96607 17.1265 6.98688 19.6138 9.69777 20.7728L9.81593 20.8233C10.989 21.3249 12.3329 20.7208 12.8142 19.4902C12.9467 19.1515 13.2622 18.9268 13.6107 18.9268Z" stroke="#02A0FC" stroke-width="1.5" stroke-linecap="round"/>
</svg>
