<svg width="25" height="24" viewBox="0 0 25 24" fill="none" xmlns="http://www.w3.org/2000/svg">
<path d="M9.01362 6.73325C9.21573 6.73869 9.43979 6.74966 9.65297 7.22473C9.79434 7.54098 10.0325 8.1232 10.2265 8.59747C10.3774 8.96653 10.5016 9.27022 10.5327 9.33238C10.6037 9.47433 10.6475 9.63812 10.5546 9.8292C10.5436 9.85174 10.5333 9.87329 10.5233 9.89404C10.4488 10.0493 10.3958 10.1598 10.2705 10.3043C10.2189 10.3636 10.1653 10.4287 10.1118 10.4936C10.0177 10.6077 9.92429 10.7211 9.8442 10.8012C9.70214 10.943 9.55454 11.096 9.71846 11.3799C9.88248 11.6638 10.4562 12.5975 11.3032 13.3511C12.2138 14.1649 13.0057 14.5079 13.4059 14.6813C13.4836 14.715 13.5466 14.7422 13.5928 14.7653C13.877 14.9073 14.0463 14.8854 14.2103 14.6943C14.3743 14.5032 14.9207 13.8643 15.112 13.5804C15.2978 13.2965 15.489 13.3402 15.7513 13.4385C16.0136 13.5367 17.4125 14.2247 17.6966 14.3666C17.7528 14.3947 17.8053 14.42 17.854 14.4435C18.0517 14.5386 18.1861 14.6033 18.2431 14.6998C18.3141 14.8199 18.3141 15.3878 18.0791 16.0539C17.8387 16.72 16.6802 17.3589 16.1556 17.408C16.106 17.4127 16.0565 17.4187 16.0057 17.4249C15.5249 17.4833 14.9146 17.5574 12.7403 16.6982C10.0611 15.6405 8.29259 13.0162 7.93502 12.4857C7.9068 12.4438 7.88736 12.4149 7.87697 12.4009L7.87092 12.3928C7.70824 12.1743 6.71301 10.8374 6.71301 9.45801C6.71301 8.1383 7.36058 7.45122 7.65595 7.13783C7.67467 7.11797 7.69197 7.09961 7.70761 7.08268C7.96986 6.79879 8.27593 6.72781 8.46716 6.72781C8.65848 6.72781 8.8497 6.72781 9.01362 6.73325Z" fill="#02A0FC"/>
<path fill-rule="evenodd" clip-rule="evenodd" d="M1.61055 22.4381C1.52017 22.7675 1.81896 23.0715 2.1482 22.9851L7.23767 21.6506C8.84422 22.5242 10.653 22.9883 12.4946 22.9883H12.5C18.5601 22.9883 23.5 18.0577 23.5 11.9969C23.5 9.05933 22.3578 6.29641 20.2814 4.22148C18.2049 2.14665 15.4453 1 12.4999 1C6.43993 1 1.5 5.93057 1.5 11.9915C1.49931 13.9196 2.00625 15.814 2.96993 17.4844L1.61055 22.4381ZM4.56739 17.9262C4.68539 17.4962 4.62644 17.0367 4.40378 16.6507C3.58618 15.2335 3.15638 13.6263 3.15697 11.9915C3.15697 6.85716 7.34718 2.66347 12.4999 2.66347C15.0073 2.66347 17.3466 3.63602 19.1125 5.40049C20.8763 7.163 21.843 9.50155 21.843 11.9969C21.843 17.1311 17.6528 21.3248 12.5 21.3248H12.4946C10.9298 21.3248 9.39216 20.9303 8.02685 20.1879C7.65732 19.987 7.22554 19.9345 6.81893 20.0411L3.76745 20.8413L4.56739 17.9262Z" fill="#02A0FC"/>
</svg>
