<svg width="14" height="14" viewBox="0 0 14 14" fill="none" xmlns="http://www.w3.org/2000/svg">
<path d="M13.2264 8.33156C12.8842 8.53985 12.5866 8.85229 12.4378 9.23911C12.4279 9.23911 12.423 9.23911 12.423 9.23911C12.2742 9.61106 12.2295 10.0276 12.3337 10.3996C12.4973 10.9352 12.3634 11.5303 11.9469 11.9469C11.5303 12.3634 10.9352 12.4973 10.4145 12.3337C10.0276 12.2147 9.61106 12.2742 9.25399 12.423C9.24407 12.423 9.23911 12.423 9.23911 12.423C8.85228 12.5866 8.53985 12.8693 8.33156 13.2264C8.06376 13.6876 7.57279 14 7.00744 14C6.4272 14 5.93624 13.6876 5.66844 13.2264C5.46015 12.8693 5.14772 12.5866 4.76089 12.423C4.76089 12.423 4.75594 12.423 4.74602 12.423C4.38895 12.2742 3.97237 12.2147 3.58554 12.3337C3.06482 12.4973 2.46971 12.3634 2.05313 11.9469C1.63656 11.5303 1.50266 10.9352 1.66631 10.3996C1.77046 10.0276 1.72582 9.61106 1.57704 9.23911C1.41339 8.85229 1.13071 8.53985 0.773647 8.33156C0.312435 8.06376 0 7.5728 0 6.99256C0 6.42721 0.312435 5.93624 0.773647 5.66844C1.13071 5.44527 1.41339 5.14772 1.57704 4.76089C1.57704 4.76089 1.57704 4.75593 1.57704 4.74602C1.72582 4.37407 1.77046 3.97237 1.66631 3.58555C1.50266 3.06483 1.63656 2.46971 2.05313 2.05314C2.46971 1.63656 3.06482 1.50266 3.58554 1.66631C3.97237 1.77046 4.38895 1.72582 4.74602 1.57705C4.75594 1.56713 4.76089 1.56217 4.76089 1.56217C5.14772 1.41339 5.46015 1.11583 5.66844 0.758767C5.93624 0.312433 6.4272 0 7.00744 0C7.57279 0 8.06376 0.312433 8.33156 0.758767C8.53985 1.11583 8.85228 1.41339 9.23911 1.56217C9.23911 1.56217 9.24407 1.56713 9.25399 1.57705C9.61106 1.72582 10.0276 1.77046 10.4145 1.66631C10.9352 1.50266 11.5303 1.63656 11.9469 2.05314C12.3634 2.46971 12.4973 3.06483 12.3337 3.58555C12.2295 3.97237 12.2742 4.37407 12.423 4.74602C12.423 4.75593 12.4279 4.76089 12.4378 4.76089C12.5866 5.14772 12.8842 5.44527 13.2264 5.66844C13.6876 5.93624 14 6.42721 14 6.99256C14 7.5728 13.6876 8.06376 13.2264 8.33156Z" fill="#23CC67"/>
<path d="M6.20407 9.28376C6.01066 9.28376 5.83213 9.20937 5.68335 9.07547L4.18069 7.55793C3.88313 7.26038 3.88313 6.79917 4.18069 6.51649C4.46336 6.21893 4.92458 6.21893 5.22213 6.51649L6.20407 7.49842L8.77793 4.92456C9.07548 4.64189 9.53669 4.64189 9.83425 4.92456C10.1169 5.22212 10.1169 5.68333 9.83425 5.96601L6.72479 9.07547C6.59089 9.20937 6.41236 9.28376 6.20407 9.28376Z" fill="white"/>
</svg>
