<svg width="91" height="90" viewBox="0 0 91 90" fill="none" xmlns="http://www.w3.org/2000/svg">
<rect x="0.666504" width="90" height="90" rx="5" fill="#E6E7EA"/>
<path d="M36.5519 41.8487C37.2246 39.1398 39.3725 37.0453 42.0971 36.4416L42.5509 36.341C44.6031 35.8863 46.7299 35.8863 48.7821 36.341L49.2359 36.4416C51.9605 37.0453 54.1085 39.1398 54.7811 41.8488C55.295 43.9182 55.295 46.0819 54.7811 48.1512C54.1085 50.8602 51.9605 52.9547 49.2359 53.5584L48.7821 53.659C46.7299 54.1137 44.6031 54.1137 42.5509 53.659L42.0971 53.5584C39.3725 52.9547 37.2246 50.8602 36.5519 48.1513C36.038 46.0819 36.038 43.9181 36.5519 41.8487Z" stroke="#474747" stroke-width="1.5"/>
<path fill-rule="evenodd" clip-rule="evenodd" d="M45.6667 40C46.0491 40 46.3591 40.292 46.3591 40.6522V41.1857H46.4357C47.7232 41.1857 48.6665 42.2401 48.6665 43.4189C48.6665 43.7791 48.3565 44.0711 47.9742 44.0711C47.5918 44.0711 47.2819 43.7791 47.2819 43.4189C47.2819 42.8514 46.8476 42.4901 46.4357 42.4901H46.3591V44.5432L47.2938 44.8634C48.1432 45.1544 48.6665 45.9457 48.6665 46.7838C48.6665 47.8506 47.8116 48.8142 46.6331 48.8142H46.3591V49.3478C46.3591 49.708 46.0491 50 45.6667 50C45.2844 50 44.9744 49.708 44.9744 49.3478V48.8142H44.8973C43.6098 48.8142 42.6665 47.7598 42.6665 46.581C42.6665 46.2208 42.9765 45.9288 43.3588 45.9288C43.7412 45.9288 44.0511 46.2208 44.0511 46.581C44.0511 47.1486 44.4854 47.5098 44.8973 47.5098H44.9744V45.4568L44.0392 45.1365C43.1898 44.8455 42.6665 44.0542 42.6665 43.2161C42.6665 42.1493 43.5214 41.1857 44.6999 41.1857H44.9744V40.6522C44.9744 40.292 45.2844 40 45.6667 40ZM44.9744 42.4901H44.6999C44.3971 42.4901 44.0511 42.7606 44.0511 43.2161C44.0511 43.5645 44.2666 43.8265 44.5124 43.9107L44.9744 44.0689V42.4901ZM46.3591 45.9312V47.5098H46.6331C46.9359 47.5098 47.2819 47.2394 47.2819 46.7838C47.2819 46.4355 47.0664 46.1735 46.8206 46.0893L46.3591 45.9312Z" fill="#0D6EDE"/>
</svg>
