<svg width="91" height="90" viewBox="0 0 91 90" fill="none" xmlns="http://www.w3.org/2000/svg">
<rect x="0.666016" width="90" height="90" rx="5" fill="#333333"/>
<path d="M36.5514 41.8487C37.2241 39.1398 39.372 37.0453 42.0966 36.4416L42.5504 36.341C44.6026 35.8863 46.7294 35.8863 48.7816 36.341L49.2355 36.4416C51.96 37.0453 54.108 39.1398 54.7806 41.8488C55.2945 43.9182 55.2945 46.0819 54.7806 48.1512C54.108 50.8602 51.96 52.9547 49.2355 53.5584L48.7816 53.659C46.7294 54.1137 44.6026 54.1137 42.5504 53.659L42.0966 53.5584C39.372 52.9547 37.2241 50.8602 36.5514 48.1513C36.0376 46.0819 36.0376 43.9181 36.5514 41.8487Z" stroke="#DEE1E4" stroke-width="1.5"/>
<path fill-rule="evenodd" clip-rule="evenodd" d="M45.6663 40C46.0486 40 46.3586 40.292 46.3586 40.6522V41.1857H46.4352C47.7227 41.1857 48.666 42.2401 48.666 43.4189C48.666 43.7791 48.3561 44.0711 47.9737 44.0711C47.5914 44.0711 47.2814 43.7791 47.2814 43.4189C47.2814 42.8514 46.8471 42.4901 46.4352 42.4901H46.3586V44.5432L47.2933 44.8634C48.1427 45.1544 48.666 45.9457 48.666 46.7838C48.666 47.8506 47.8111 48.8142 46.6326 48.8142H46.3586V49.3478C46.3586 49.708 46.0486 50 45.6663 50C45.2839 50 44.974 49.708 44.974 49.3478V48.8142H44.8968C43.6093 48.8142 42.666 47.7598 42.666 46.581C42.666 46.2208 42.976 45.9288 43.3583 45.9288C43.7407 45.9288 44.0506 46.2208 44.0506 46.581C44.0506 47.1486 44.4849 47.5098 44.8968 47.5098H44.974V45.4568L44.0387 45.1365C43.1893 44.8455 42.666 44.0542 42.666 43.2161C42.666 42.1493 43.5209 41.1857 44.6994 41.1857H44.974V40.6522C44.974 40.292 45.2839 40 45.6663 40ZM44.974 42.4901H44.6994C44.3966 42.4901 44.0506 42.7606 44.0506 43.2161C44.0506 43.5645 44.2661 43.8265 44.5119 43.9107L44.974 44.0689V42.4901ZM46.3586 45.9312V47.5098H46.6326C46.9355 47.5098 47.2814 47.2394 47.2814 46.7838C47.2814 46.4355 47.0659 46.1735 46.8201 46.0893L46.3586 45.9312Z" fill="#57A5FF"/>
</svg>
