<svg width="91" height="90" viewBox="0 0 91 90" fill="none" xmlns="http://www.w3.org/2000/svg">
<rect x="0.333496" width="90" height="90" rx="5" fill="#E6E7EA"/>
<path d="M36.8053 46.5544L37.5257 46.346L36.8053 46.5544ZM36.8053 39.9065L36.0848 39.6981H36.0848L36.8053 39.9065ZM53.8617 39.9065L54.5822 39.6981V39.6981L53.8617 39.9065ZM53.8617 46.5544L53.1413 46.346V46.346L53.8617 46.5544ZM50.1483 50.0075L50.0082 49.2707L50.1483 50.0075ZM40.5187 50.0075L40.6588 49.2707L40.5187 50.0075ZM40.5187 36.4534L40.3786 35.7166L40.5187 36.4534ZM50.1483 36.4534L50.2884 35.7166L50.1483 36.4534ZM36.8535 46.7212L36.1331 46.9297H36.1331L36.8535 46.7212ZM53.8134 46.7212L54.5339 46.9297L54.5339 46.9297L53.8134 46.7212ZM53.8134 39.7397L53.093 39.9482L53.093 39.9482L53.8134 39.7397ZM36.8535 39.7397L37.574 39.9482L36.8535 39.7397ZM46.0835 50.923C46.0835 50.5088 45.7477 50.173 45.3335 50.173C44.9193 50.173 44.5835 50.5088 44.5835 50.923H46.0835ZM44.5835 54C44.5835 54.4142 44.9193 54.75 45.3335 54.75C45.7477 54.75 46.0835 54.4142 46.0835 54H44.5835ZM42.6974 53.25C42.2831 53.25 41.9474 53.5858 41.9474 54C41.9474 54.4142 42.2831 54.75 42.6974 54.75V53.25ZM47.9696 54.75C48.3839 54.75 48.7196 54.4142 48.7196 54C48.7196 53.5858 48.3839 53.25 47.9696 53.25V54.75ZM53.093 39.9482L53.1413 40.115L54.5822 39.6981L54.5339 39.5313L53.093 39.9482ZM53.1413 46.346L53.093 46.5128L54.5339 46.9297L54.5822 46.7629L53.1413 46.346ZM37.574 46.5128L37.5257 46.346L36.0848 46.7629L36.1331 46.9297L37.574 46.5128ZM37.5257 40.115L37.574 39.9482L36.1331 39.5312L36.0848 39.6981L37.5257 40.115ZM37.5257 46.346C36.9361 44.3084 36.9361 42.1526 37.5257 40.115L36.0848 39.6981C35.4164 42.008 35.4164 44.453 36.0848 46.7629L37.5257 46.346ZM53.1413 40.115C53.7309 42.1526 53.7309 44.3084 53.1413 46.346L54.5822 46.7629C55.2506 44.453 55.2506 42.008 54.5822 39.6981L53.1413 40.115ZM50.0082 49.2707C46.921 49.8577 43.746 49.8577 40.6588 49.2707L40.3786 50.7443C43.651 51.3665 47.016 51.3665 50.2884 50.7443L50.0082 49.2707ZM40.6588 37.1902C43.746 36.6033 46.921 36.6033 50.0082 37.1902L50.2884 35.7166C47.016 35.0945 43.651 35.0945 40.3786 35.7166L40.6588 37.1902ZM40.6588 49.2707C39.1662 48.9869 37.9793 47.9134 37.574 46.5128L36.1331 46.9297C36.7004 48.8899 38.3485 50.3583 40.3786 50.7443L40.6588 49.2707ZM50.2884 50.7443C52.3185 50.3583 53.9666 48.8899 54.5339 46.9297L53.093 46.5128C52.6877 47.9134 51.5008 48.9869 50.0082 49.2707L50.2884 50.7443ZM50.0082 37.1902C51.5008 37.474 52.6877 38.5476 53.093 39.9482L54.5339 39.5313C53.9666 37.571 52.3185 36.1026 50.2884 35.7166L50.0082 37.1902ZM40.3786 35.7166C38.3485 36.1026 36.7004 37.571 36.1331 39.5312L37.574 39.9482C37.9793 38.5476 39.1662 37.474 40.6588 37.1902L40.3786 35.7166ZM44.5835 50.923V54H46.0835V50.923H44.5835ZM42.6974 54.75H47.9696V53.25H42.6974V54.75Z" fill="#474747"/>
<path d="M41.3335 44.25L43.3923 42.6287C43.7681 42.3327 43.956 42.1847 44.1638 42.2111C44.3716 42.2375 44.5166 42.4278 44.8065 42.8083L45.8605 44.1917C46.1504 44.5722 46.2954 44.7625 46.5032 44.7889C46.711 44.8153 46.8989 44.6673 47.2747 44.3713L49.3335 42.75" stroke="#0D6EDE" stroke-width="1.5" stroke-linecap="round"/>
</svg>
