<svg width="91" height="90" viewBox="0 0 91 90" fill="none" xmlns="http://www.w3.org/2000/svg">
<rect x="0.333984" width="90" height="90" rx="5" fill="#333333"/>
<path d="M36.8058 46.5544L37.5262 46.346L36.8058 46.5544ZM36.8058 39.9065L36.0853 39.6981H36.0853L36.8058 39.9065ZM53.8622 39.9065L54.5826 39.6981V39.6981L53.8622 39.9065ZM53.8622 46.5544L53.1418 46.346V46.346L53.8622 46.5544ZM50.1488 50.0075L50.0087 49.2707L50.1488 50.0075ZM40.5192 50.0075L40.6593 49.2707L40.5192 50.0075ZM40.5192 36.4534L40.3791 35.7166L40.5192 36.4534ZM50.1488 36.4534L50.2889 35.7166L50.1488 36.4534ZM36.854 46.7212L36.1336 46.9297H36.1336L36.854 46.7212ZM53.8139 46.7212L54.5344 46.9297L54.5344 46.9297L53.8139 46.7212ZM53.8139 39.7397L53.0935 39.9482L53.0935 39.9482L53.8139 39.7397ZM36.854 39.7397L37.5745 39.9482L36.854 39.7397ZM46.084 50.923C46.084 50.5088 45.7482 50.173 45.334 50.173C44.9198 50.173 44.584 50.5088 44.584 50.923H46.084ZM44.584 54C44.584 54.4142 44.9198 54.75 45.334 54.75C45.7482 54.75 46.084 54.4142 46.084 54H44.584ZM42.6978 53.25C42.2836 53.25 41.9478 53.5858 41.9478 54C41.9478 54.4142 42.2836 54.75 42.6978 54.75V53.25ZM47.9701 54.75C48.3843 54.75 48.7201 54.4142 48.7201 54C48.7201 53.5858 48.3843 53.25 47.9701 53.25V54.75ZM53.0935 39.9482L53.1418 40.115L54.5826 39.6981L54.5344 39.5313L53.0935 39.9482ZM53.1418 46.346L53.0935 46.5128L54.5344 46.9297L54.5826 46.7629L53.1418 46.346ZM37.5745 46.5128L37.5262 46.346L36.0853 46.7629L36.1336 46.9297L37.5745 46.5128ZM37.5262 40.115L37.5745 39.9482L36.1336 39.5312L36.0853 39.6981L37.5262 40.115ZM37.5262 46.346C36.9366 44.3084 36.9366 42.1526 37.5262 40.115L36.0853 39.6981C35.4169 42.008 35.4169 44.453 36.0853 46.7629L37.5262 46.346ZM53.1418 40.115C53.7314 42.1526 53.7314 44.3084 53.1418 46.346L54.5826 46.7629C55.2511 44.453 55.2511 42.008 54.5826 39.6981L53.1418 40.115ZM50.0087 49.2707C46.9215 49.8577 43.7465 49.8577 40.6593 49.2707L40.3791 50.7443C43.6514 51.3665 47.0165 51.3665 50.2889 50.7443L50.0087 49.2707ZM40.6593 37.1902C43.7465 36.6033 46.9215 36.6033 50.0087 37.1902L50.2889 35.7166C47.0165 35.0945 43.6514 35.0945 40.3791 35.7166L40.6593 37.1902ZM40.6593 49.2707C39.1667 48.9869 37.9798 47.9134 37.5745 46.5128L36.1336 46.9297C36.7008 48.8899 38.349 50.3583 40.3791 50.7443L40.6593 49.2707ZM50.2889 50.7443C52.319 50.3583 53.9671 48.8899 54.5344 46.9297L53.0935 46.5128C52.6882 47.9134 51.5013 48.9869 50.0087 49.2707L50.2889 50.7443ZM50.0087 37.1902C51.5013 37.474 52.6882 38.5476 53.0935 39.9482L54.5344 39.5313C53.9671 37.571 52.319 36.1026 50.2889 35.7166L50.0087 37.1902ZM40.3791 35.7166C38.349 36.1026 36.7008 37.571 36.1336 39.5312L37.5745 39.9482C37.9798 38.5476 39.1667 37.474 40.6593 37.1902L40.3791 35.7166ZM44.584 50.923V54H46.084V50.923H44.584ZM42.6978 54.75H47.9701V53.25H42.6978V54.75Z" fill="#DEE1E4"/>
<path d="M41.334 44.25L43.3928 42.6287C43.7686 42.3327 43.9565 42.1847 44.1643 42.2111C44.3721 42.2375 44.517 42.4278 44.8069 42.8083L45.861 44.1917C46.1509 44.5722 46.2959 44.7625 46.5037 44.7889C46.7114 44.8153 46.8993 44.6673 47.2751 44.3713L49.334 42.75" stroke="#57A5FF" stroke-width="1.5" stroke-linecap="round"/>
</svg>
